<?xml version="1.0" encoding="UTF-8"?>
<svg id="Layer_1" data-name="Layer 1" xmlns="http://www.w3.org/2000/svg" viewBox="0 0 276.75 96.75">
  <path d="M115.19,0v39.45s161.56,0,161.56,0v2.23c-5.38,1.14-11,.5-16.42,0l-.04,54.32c-.83.97-1.43.12-1.49-1.1-.51-10.3.09-20.86-.09-31.17-.05-2.97-.59-6.76-.64-9.8-.06-4.05.78-8.21-.04-12.25-1.39-.07-3.13-.32-3.63,1.21l.25,47.53-1.1,5.58v-53.21c0-.99-2.75-1.36-3.74-1.12v54.33h-1.5v-54.33h-2.99v54.33h-1.5v-53.21c-1.16-1.58-2.58-1.58-3.74,0v53.21h-.75v-53.21c0-.99-2.75-1.36-3.74-1.12v54.33h-1.5v-54.33c-1.79-.12-3.57-.26-3.74,1.86-.61,17.12,1.61,34.25.75,51.37-.07,1.45.08,1.17-1.5,1.1v-53.21c0-.99-2.75-1.36-3.74-1.12v54.33c-1.32.17-.71-1.68-.75-2.6-.38-9.16.24-18.41.03-27.58-.08-3.44-.69-7.53-.81-11.09-.08-2.34.67-11.8-.68-12.73-.76-.52-1.45-.34-2.28-.34v54.33h-1.5v-53.21l-3.74-1.12v54.33h-1.5v-53.21c-1.16-1.58-2.58-1.58-3.74,0v53.21c-1.32.17-.71-1.68-.75-2.6-.38-9.15.12-18.41.04-27.58-.02-2.69-.58-6.05-.62-8.9-.06-4.58.82-9.54.32-14.19l-3.48-1.07v54.33h-1.5v-54.33h-2.99c-.94,17.66.88,35.53,0,53.22-.07,1.45.08,1.17-1.5,1.1v-53.21c-1.16-1.58-2.58-1.58-3.74,0v53.21l-.75-2.6-.75-51.73h-2.99v54.33h-1.5v-53.21c-1.38-1.86-3.41-1.5-3.74.74-.67,17.14,1.61,34.23.75,51.37-.07,1.45.08,1.17-1.5,1.1v-53.21c0-.1-.91-1.02-1.19-1.08l-2.55.71v53.58h-1.5v-54.33l-65.82.74v53.58l-.75-2.6V0s.75,0,.75,0Z"/>
  <path d="M5.24,0c-.92,30.92,1.23,62.56,0,93.41-.04,1.01.62,3.1-1.12,2.6L3.74,0h1.5Z"/>
  <path d="M9.72,0c-.92,30.92,1.23,62.56,0,93.41-.04,1.01.62,3.1-1.12,2.6L8.23,0h1.5Z"/>
  <path d="M106.21,0c-.92,30.92,1.23,62.56,0,93.41-.04,1.01.62,3.1-1.12,2.6l-.38-96.01h1.5Z"/>
  <path d="M110.7,0c-.92,30.92,1.23,62.56,0,93.41-.04,1.01.62,3.1-1.12,2.6l-.38-96.01h1.5Z"/>
  <path d="M57.59,0c.57,17.7.03,35.3.17,53.18.1,13.24,1.11,26.79.57,40.23-.04,1.01.62,3.1-1.12,2.6l-.38-96.01h.75Z"/>
  <path d="M53.11,0c-.14,20.4.08,40.82.25,61.22,0,.95.73,1.6-.99,2.04l-.75-63.26h1.5Z"/>
  <path d="M100.98,0l-.37,96.01c-.38-13.47-.62-27.08-.73-40.56-.12-14.86-.19-29.86-.23-44.68,0-3.61.37-7.16-.17-10.77h1.5Z"/>
  <path d="M14.96,0c-.79,17.98,1.05,36.85.03,54.73-.05.87-.57,4.81-1.16,4.81L13.46,0h1.5Z"/>
  <polygon points="48.62 0 48.61 50.61 47.09 48.04 47.12 0 48.62 0"/>
  <path d="M19.45,0c-.63,14.07.83,28.83.03,42.83-.05.87-.57,4.81-1.16,4.81l-.37-47.64h1.5Z"/>
  <path d="M23.94,0c-.82,10.34,1.09,22.27.03,32.41-.12,1.13-.16,2.29-1.52,2.57V0s1.49,0,1.49,0Z"/>
  <path d="M62.83,0c-.84,10.58,1.12,22.78.03,33.15-.12,1.12-.16,2.29-1.52,2.57V0s1.49,0,1.49,0Z"/>
  <path d="M67.32,0c.2,7.04-.03,14.17-.03,21.25,0,1.24.96,7.34-.35,7.78-1.7.57-1.09-1.66-1.12-2.6-.24-8.79.18-17.64,0-26.43h1.5Z"/>
  <path d="M96.49,0c-.26,8.78.35,17.65,0,26.43-.04,1.01.62,3.1-1.12,2.6-1.4-.4.28-25.91-.38-29.03h1.5Z"/>
  <path d="M38.89,0l-.37,27.54c-.62.01-1.08-2.62-1.13-3.34-.58-7.83.45-16.3.01-24.2h1.5Z"/>
  <path d="M33.66,0c-.22,7.29.29,14.66,0,21.96-.04,1.01.62,3.1-1.12,2.6-1.19-.34.11-21.86-.38-24.56h1.5Z"/>
  <path d="M29.17,0c-.22,7.29.29,14.66,0,21.96-.04,1.01.62,3.1-1.12,2.6-1.19-.34.11-21.86-.38-24.56h1.5Z"/>
  <path d="M77.79,0c-.21,7.05.28,14.17,0,21.22-.04,1.01.62,3.1-1.12,2.6-1.15-.33.08-21.18-.38-23.82h1.5Z"/>
  <path d="M82.28,0c-.21,7.05.28,14.17,0,21.22-.04,1.01.62,3.1-1.12,2.6-1.15-.33.08-21.18-.38-23.82h1.5Z"/>
  <path d="M86.76,0c-.21,7.05.28,14.17,0,21.22-.04,1.01.62,3.1-1.12,2.6-1.15-.33.08-21.18-.38-23.82h1.5Z"/>
  <path d="M72.55,0c.58,3.36-.53,6.99-.63,10.04s.66,7.5.58,10.35c-.02.6-.79,5.66-1.08,5.66l-.37-26.05h1.5Z"/>
  <polygon points="43.38 0 43.01 38.71 42.63 0 43.38 0"/>
  <polygon points="91.25 0 90.88 26.05 90.5 0 91.25 0"/>
  <path d="M24.68,96c-2.19.34-1.27-.48-1.53-1.86-.98-5.35.23-13.7.09-19.37-.11-4.46-2.38-10.39.32-14.49,1.95,11.74.82,23.82,1.12,35.72Z"/>
  <rect x="37.4" y="60.28" width="1.5" height="35.72"/>
  <path d="M29.17,96.01h-1.5v-35.72c.48-.06,1.5.99,1.5,1.12v34.61Z"/>
  <path d="M68.07,96.01l-1.5-1.1-.75-28.29,1.51.08c-.02.55.74,1.16.74,1.4v27.91Z"/>
  <path d="M80.78,64V31.26c.48-.06,1.5.99,1.5,1.12v30.51c0,.13-1.01,1.17-1.5,1.12Z"/>
  <path d="M77.79,63.26h-1.5v-30.14c0-.13,1.01-1.17,1.5-1.12v31.26Z"/>
  <path d="M96.49,96.01h-1.5v-29.4c0-.13,1.01-1.17,1.5-1.12v30.51Z"/>
  <rect x="85.27" y="32.75" width="1.5" height="29.77"/>
  <path d="M53.85,96h-2.24c1.04-7.21-.31-14.75-.05-21.96.05-1.37-.16-2.43,1.17-3.33,1.47.95.75,1.19.73,2.17-.11,4.27-.28,8.87-.2,13.08.06,3.34.24,6.71.59,10.04Z"/>
  <rect x="71.06" y="69.96" width="1.5" height="26.05"/>
  <rect x="47.12" y="70.7" width="1.5" height="25.3"/>
  <path d="M14.96,96.01h-1.5v-25.3c.48-.06,1.5.99,1.5,1.12v24.19Z"/>
  <rect x="76.29" y="71.45" width="1.5" height="24.56"/>
  <rect x="80.78" y="71.45" width="1.5" height="24.56"/>
  <path d="M33.66,96.01h-.75v-28.65c0-1.58-2.46-5.81.75-7.07v35.72Z"/>
  <path d="M71.06,37.58c.08-.29,1.3-1.34,1.49-1.12-.94,4.59,0,9.7.04,14.47.02,2.86-.07,5.74-.04,8.6-.2.25-1.49-.95-1.49-1.12v-20.84Z"/>
  <path d="M19.45,96.01c-1.4,0-1.57.44-1.41-1.07.21-1.94.38-3.92.38-5.86,0-4.84-.63-11.14-.43-15.83.05-1.18.03-2.22,1.46-2.55v25.3Z"/>
  <path d="M42.63,63.26c1.32-.17.71,1.68.75,2.6.14,3.39.43,6.97.49,10.29.02.85-.55,1.92-.54,3.08.02,1.09.74,2.16.75,3.08,0,1.28-.68,2.4-.69,3.67-.02,2.22.53,5.2.47,7.29-.02.61-.2,2.95-1.24,2.73v-32.75Z"/>
  <path d="M62.83,96.01h-.75v-33.86c0-.14-1.14-.82-.74-1.86.21-.25,1.49.96,1.49,1.12v34.61Z"/>
  <path d="M90.5,69.21c1.37.35,1.45,1.15,1.35,2.38-.59,6.95-.49,14.15-.62,21.07-.03,1.64,2.06,3.82-.73,3.34v-26.79Z"/>
  <rect x="94.99" y="38.7" width="1.5" height="16.37"/>
  <path d="M33.66,52.84c-.2.25-1.5-.95-1.5-1.12v-15.26h.74c-.19.72.76,1.55.76,1.86v14.51Z"/>
  <rect x="86.02" y="71.45" width=".75" height="24.56"/>
  <path d="M91.25,38.7v16c0,.31-.94,1.14-.76,1.86h-.73c-.47-.97.74-2.29.74-2.6v-14.14c0-.17-1.11-.82-.75-1.11h1.5Z"/>
  <path d="M27.68,52.84c.33-2.31-1.15-6.17,1.48-7.44-.33,2.31,1.15,6.17-1.48,7.44Z"/>
  <path d="M192.23,5.21c2.87.03,10.61-1.11,9.36,3.8-.27,1.05-2,2.12-1.78,3.14.13.59,3.3,4.61,2.9,4.96-3.83.67-4.19-4.73-7.1-5.21-2.21-.37-.72,3.9-1.13,5.22-.7.32-2.24-.66-2.24-1.11V5.21ZM194.47,10.42c1.33.15,5.76.37,5.24-1.85-2.8-2.33-5.84-2.84-5.24,1.85Z"/>
  <path d="M212.42,24.56c3.09-1.56,5.87,6.7,6.36,6.7l.37-6.71h2.24v11.17c-3.94.52-3.93-5.1-6.73-6.7v6.7s-2.25,0-2.25,0v-11.16Z"/>
  <path d="M158.57,24.56c3.89-.56,3.71,5.24,6.73,6.7v-6.7s2.25,0,2.25,0v11.16c-4.07,1.04-4.55-4.12-6.36-6.7-2.52-.76-.34,4.94-.46,5.51-.18.84-1.26,1.39-2.15,1.19v-11.16Z"/>
  <path d="M234.86,24.56c5.37-.64,12.68.19,6.88,6.31l2.84,4.84c-4.33,1.13-3.51-4.41-7.47-5.2v5.21s-2.25,0-2.25,0v-11.16ZM241.59,29.02c.5-3.25-1.9-3.17-4.48-2.97v2.97s4.48,0,4.48,0Z"/>
  <path d="M169.79,35.72v-11.16c5.23-.18,9.58-1.06,9.6,5.58.02,6.33-4.58,5.78-9.6,5.58ZM176.39,26.91l-4.36-.86v8.19c5.29.57,5.79-3.15,4.36-7.32Z"/>
  <path d="M210.85,30.1c0,3.17-2.59,5.75-5.77,5.75s-5.77-2.57-5.77-5.75,2.59-5.75,5.77-5.75,5.77,2.57,5.77,5.75ZM202.88,33.31c5.42,3.86,6.96-6.06,3.05-7.16-4.17-1.18-4.98,4.37-3.05,7.16Z"/>
  <path d="M156.72,30.1c0,3.17-2.58,5.74-5.77,5.74s-5.77-2.57-5.77-5.74,2.58-5.74,5.77-5.74,5.77,2.57,5.77,5.74ZM150.11,26.13c-3.45.87-3.44,7.41.59,8.1l3.03-1.47c1.41-2.68.03-7.54-3.61-6.63Z"/>
  <path d="M182.43,5.29c.48.4,3.53,10.21,3.81,11.83-2.77-.15-1.6-2.84-4.85-3.04-4-.25-2.57,2.59-5.62,3.04.28-1.62,3.33-11.43,3.81-11.83.25-.21,2.59-.21,2.84,0ZM181.75,8.18c-2.27-.58-1.92,3.1-2.24,4.46h2.99l-.75-4.46Z"/>
  <path d="M141.41,28.24c.22-1.54-2-2.48-3.29-2.13-2.58.71-2.54,7.35-.03,8.08,2.14.62,3.11-3,5.52-2.19-1.25,6.47-10.29,4.7-9.77-2.61s10.39-5.14,9.77-2.24l-2.2,1.09Z"/>
  <path d="M232.62,24.56l-1.08,2.02c-2.72-.96-6.17-1.29-5.64,2.44.24.24,8.56-.71,5.98,1.49-1.63.13-5.99-.87-5.99,1.86.38,2.8,3.75,1.96,5.65,1.32l1.08,2.02h-8.23s-.74-11.15-.74-11.15h8.97Z"/>
  <path d="M193.72,24.56c.7,2.66-2.39.99-3,1.48v9.68s-2.23,0-2.23,0v-9.68s-2.99.74-2.99.74v-2.23s8.22,0,8.22,0Z"/>
  <path d="M189.99,5.21v11.91c-.64.31-2.24-.63-2.24-1.12V5.21h2.24Z"/>
  <path d="M183.25,24.56v11.16h-2.24c.68-3.8-.08-7.35,0-11.17h2.24Z"/>
  <path d="M197.46,24.56v11.16c-1.97.31-1.33-.3-1.7-1.62-.81-2.86-.81-5.06,0-7.92.37-1.32-.26-1.94,1.7-1.62Z"/>
</svg>