<?xml version="1.0" encoding="UTF-8"?>
<svg id="Layer_1" xmlns="http://www.w3.org/2000/svg" version="1.1" viewBox="0 0 147.19 118.6">
  <!-- Generator: Adobe Illustrator 29.5.0, SVG Export Plug-In . SVG Version: 2.1.0 Build 137)  -->
  <g>
    <path d="M118.74.75v11.25c1.72.38,2.72-1.2,4.16-1.47,6.83-1.28,4.15,3.75,4.82,4.47.24.25,4.9-.18,5.99,0,.76-.74-2.95-6.05-.37-5.98,1.33.03,1.24,5.64,1.88,6.74,1.3-.69,3.68-.71,3.61-2.46-.11-2.66-1.98-7.39-2.12-10.68-.03-.76-.42-2.46,1.1-1.85,2.82,1.12,1.15,3.52,1.3,4.86.45,3.87,1.54,7.69,1.33,11.64h-30.31c-1.47,0-2.98-13.6-2.26-15.01.18-.35.98-.95,1.13-.74,1.93,5.78-2.65,15.26,6.35,13.48,5.59-1.11.22-10.98,1.15-14.98l2.24.75ZM118.74,14.99c1.3-.06,7.45.55,7.47-1.12.02-1.89-7.14-1.41-7.47,1.12Z"/>
    <path d="M83.56,6c-.32,1.4.9,8.44,1.59,8.9.28.18,6.38.7,6.65.51,1.99-1.41-.87-4.64.36-6.41,2.09,2.21,1.96,5.45,1.88,8.25-1.93-.41-8.54.61-9.63-.1-.61-.4-.72-3.53-.86-3.65-.61-.56-5.94,3.33-2.27-2.47.72-1.14.26-1.59.63-2.19.7-1.14-.94-3.38,1.64-2.84Z"/>
    <path d="M105.25,9.76c.2.16,1.47,3.42,1.55,4.09.86,6.84-5.85,13.09-11.27,7.92,3.4,1.48,10.46-2.65,10.14-6.07-.04-.41-3.73-8.65-.43-5.93Z"/>
    <path d="M144.19,17.25c-.92,1.22-1.36-.01-1.5-1.11-.29-2.26.08-5.1,0-7.5-.08-2.23-2.22-5.72.75-7.13-.74,1.6.76,4.06.76,4.87v10.88Z"/>
  </g>
  <path d="M4.49,1.6c16.61-2.47,9.26,6.74,9.75,7.47.13.19,2.23-.26,2.24,3.41.03,6.26-7.71,3.6-11.99,4.12V1.6ZM7.48,7.61c7.2,1,7.17-4.76,0-3.76v3.76ZM7.48,14.36c8.54,1.32,7.62-5.39,0-4.51v4.51Z"/>
  <path d="M68.08,5.38c.33.27,1.28,6.72,2.67,7.47s1.07-1.24,1.2-1.76c.74-2.78.53-7.36,4.39-5.37-2.1,3.3-3.47,13.97-7.26,15.22-3.12,1.03-4.54-1.02-2.68-2.1.57-.33,1.95.14,2.42-1.21.72-2.07-3.12-8.83-2.96-11.9.03-.71,2.13-.44,2.22-.36Z"/>
  <path d="M33.68,1.61c-1.72,3.61,1.31,3.39,1.53,4.13.62,2.09-1.36,1.71-1.51,2.37-.23,1.04-.22,4.05-.07,5.18.18,1.34,1.2,1.05,1.31,1.28,1.18,2.7-.2,3.68-2.75,2.42-2.36-1.17-1.26-5.18-1.52-7.47-.12-1.03-1.22-1.79-1.33-2.43-.16-.97,3.17-6.76,4.34-5.47Z"/>
  <path d="M41.16,1.61c-.31,2.85-.31,3.63,2.25,4.88.35,1.85-1.81.65-2.25,2.97-1.1,5.7,2.04,5.19,2.26,6.03.25,2.32-3.81,1.87-4.57.62-1-1.65.12-7.1-.08-7.63-.05-.14-2.09-.48-1.89-2.01.03-.26,2.46-4.01,2.74-4.39.57-.75.65-.58,1.55-.46Z"/>
  <path d="M57.63,5.35c1.4-.43,1.86,1.24,2.75,1.39,1.03.17,2.4-1.98,3.98-1.39v2.99c-5.83-1.48-4.23,4.81-4.49,9-.7.32-2.24-.66-2.24-1.12V5.35Z"/>
  <path d="M26.47,5.23c-1.46-1.7-6.58-.88-8.05.95.45,4.09,4.61-1.02,5.98.37,2.22,2.24-3,2.41-4.19,2.92-2.9,1.26-3.18,4.28-.57,6,2.5,1.65,2.98-.4,4.51-.57,1.31-.15,1.81,2.16,2.88.65.81-1.47.48-9.1-.57-10.32ZM21.67,13.89c-.52,0-.94-.57-.94-1.28s.42-1.28.94-1.28.94.57.94,1.28-.42,1.28-.94,1.28Z"/>
  <path d="M47.91,12.11h7.48c.16-11.75-15.19-6.26-10.04,2.18,3.18,5.22,11.11.95,9.28-.68-1.45-1.29-7.17,4.67-6.73-1.5ZM50.42,7.72c1.29,0,2.34.46,2.34,1.02s-1.05,1.02-2.34,1.02-2.34-.46-2.34-1.02,1.05-1.02,2.34-1.02Z"/>
  <path d="M0,27.04h127.25v91.56H0V27.04ZM2.99,30.85v84.75h121.26V30.85H2.99Z"/>
  <path d="M115.92,96l-71.49,15.06c-.93.23-1.77.06-2.68-.14-2.97-.67-23.26-10.82-26.82-12.91-.84-.49-2.16-1.03-2.59-1.91-.67-1.38-.37-9.11-.4-11.58-.03-2.78.08-5.38,0-8.27s.74-10.98-.66-12.84c-.65-.86-2.49-1.03-2.93-2.31-.34-1-.35-7.76-.02-8.77.66-2.03,4.44-1.03,6.25-1.23,24.49-2.74,48.85-6.67,73.39-9.04,11.54,3.52,22.52,9.27,34.04,13.16,1.09.8,1.12,8.42.41,9.43-1.27,1.8-5.77-.91-6.41,2.58-.86,4.67,1.03,27.02-.1,28.78ZM116.01,55.61c-3.8-1.11-28.69-12.39-29.93-11.26-.24,1.1.11,1.21.78,1.83,2.75,2.54,15.3,6.52,16.83,9.39.69,1.29.11,1.45-.77,2.25-2.21-2.41-17.41-8.57-18.23-9.86-.48-.76.12-2.62-.11-2.87-.86-.95-22.12,3.34-25.45,3.01-1.56,1.31,5.87,3.96,6.5,4.35,1.39.86,9.3,5.64,9.61,6.12.81,1.24-.04,1.56-.79,2.28l-16.09-9.36-.74-3.39-44.91,5.64,4.97,3.26,26.05,12c23.09-4.31,46.33-7.87,69.43-12.12.82-.15,2.98-.15,2.84-1.27ZM10.48,56.36c.03,1.44-.44,3.14.76,4.11l31.82,16.12c24.03-5.39,49.87-7.58,73.73-13.09,3.92-.9,5.87-2.99,2.01-5.52l-75.77,13.8-32.55-15.43ZM14.97,95.35l25.83,12.73,1-1.69-.25-27.56-1.18-1.07-25.41-12.42v30ZM113.77,93.85v-27.75l-69.53,12.83-.59,28.8,70.12-13.88Z"/>
  <path d="M82.83,83.13c-.42.47-1.56.51-1.87,1.45-.49,1.52.21,6.72-.13,7.03h-2.24c-.45-4.03,1.96-8.3-3.4-8.14-.34.01-.31.89-.63,1.08-.7.41-1.83.12-2.01.74-.93,3.24,2.48,9.16-2.94,7.82-.7-1.62.73-5.61.56-6.42s-4.7-1.32-2.81-3.33c.54-.57,13.4-1.14,15.36-2.98,1.33.83,1.06,1.67.11,2.75Z"/>
  <path d="M91.31,79.61c.15.16-.09,1.63,0,2.24-1.03-.16-4.42-.08-4.48,1.13-.11,2.32,6.23-1.64,4.48,2.62h-3.75s0,2.25,0,2.25c1.86.3,4.16-1.8,4.48,1.12-.28,1.29-6.07,1.79-7.48,1.89.1-1.52-.2-9.19.37-9.79.74-.77,6-1.84,6.36-1.46Z"/>
  <path d="M63.46,92.76"/>
  <path d="M63.38,93.75c.34,1.28-1.76,2.28-2.13-.14-.98-6.5-3.18-11.28,3.94-9.66,3.57.81,1.3,19.58-.19,4.27-.14-1.43-2.27-1.3-2.27-.92.04,2.19,5.21-1.98,3.08,2.41-1.96,1.51-3.63-2.13-3.15,1.56.17,1.32.19.86.46,1.7"/>
  <path d="M109.28,75.86c.24,2.44-1.47,4.42-2.07,6.54-.72,2.58,1.2,4.71-2.41,5.45,2.01-2.55-4.38-9.92-3.75-10.5,1.99-1.82,4.08,4.34,5.23,3-.22-2.09.46-4.55,2.99-4.5Z"/>
  <path d="M32.96,57.07c-.56-.79.24-3.15,1.77-2.91.74.12,12.43,7.81,12.42,8.57,0,.13-1.73,1.84-1.86,1.84-.27,0-3.08-2.61-4.18-3.28-1.49-.9-7.88-3.85-8.15-4.22Z"/>
  <path d="M79.15,52.73c5.24-.91,6.51,4.82,1.25,5.12-4.36.25-5.8-4.32-1.25-5.12Z"/>
  <path d="M51.08,59.92c-2.03-1.86,1.12-5.02,4.33-4,5.57,1.77-.55,7.46-4.33,4Z"/>
  <path d="M56.78,85.71c-.84-.53-6.36.22-6.63.64-.56.88.41,8.63,0,10.5,8.63-.31,8.09-4.07,6.63-11.14ZM51.57,89.03c0-.47.84-.85,1.88-.85s1.88.38,1.88.85c0,.05-.01.1-.03.15.02.05.03.1.03.15,0,.47-.84.85-1.88.85s-1.88-.38-1.88-.85c0-.05.01-.1.03-.15-.02-.05-.03-.1-.03-.15ZM54.05,94.11s-.08,0-.12,0c-.04,0-.08,0-.12,0-.06,0-.12,0-.18,0-.06,0-.12,0-.18,0-1.04,0-1.88-.38-1.88-.85s.84-.85,1.88-.85c.06,0,.12,0,.18,0,.06,0,.12,0,.18,0,.04,0,.08,0,.12,0,.04,0,.08,0,.12,0,1.04,0,1.88.38,1.88.85s-.84.85-1.88.85Z"/>
  <path d="M99.67,84.36c-.09-1.21,2.82-3.06.25-5.53-.89-.86-6.12-.2-6.36.02-.38.36.28,8.9,0,10.5h2.24s0-4.5,0-4.5c3.01-.22,1.86,3.64,4.11,3.75,2.86.13-.18-3.28-.25-4.25ZM97.55,82.6c-.61,0-1.11-.5-1.11-1.11s.5-1.11,1.11-1.11,1.11.5,1.11,1.11-.5,1.11-1.11,1.11Z"/>
</svg>