<?xml version="1.0" encoding="UTF-8"?>
<svg id="Layer_1" xmlns="http://www.w3.org/2000/svg" version="1.1" viewBox="0 0 127.25 91.56">
  <!-- Generator: Adobe Illustrator 29.5.0, SVG Export Plug-In . SVG Version: 2.1.0 Build 137)  -->
  <path d="M0,0h127.25v91.56H0V0ZM2.99,3.81v84.75h121.26V3.81H2.99Z"/>
  <path d="M115.92,68.96l-71.49,15.06c-.93.23-1.77.06-2.68-.14-2.97-.67-23.26-10.82-26.82-12.91-.84-.49-2.16-1.03-2.59-1.91-.67-1.38-.37-9.11-.4-11.58-.03-2.78.08-5.38,0-8.27s.74-10.98-.66-12.84c-.65-.86-2.49-1.03-2.93-2.31-.34-1-.35-7.76-.02-8.77.66-2.03,4.44-1.03,6.25-1.23,24.49-2.74,48.85-6.67,73.39-9.04,11.54,3.52,22.52,9.27,34.04,13.16,1.09.8,1.12,8.42.41,9.43-1.27,1.8-5.77-.91-6.41,2.58-.86,4.67,1.03,27.02-.1,28.78h0ZM116.01,28.57c-3.8-1.11-28.69-12.39-29.93-11.26-.24,1.1.11,1.21.78,1.83,2.75,2.54,15.3,6.52,16.83,9.39.69,1.29.11,1.45-.77,2.25-2.21-2.41-17.41-8.57-18.23-9.86-.48-.76.12-2.62-.11-2.87-.86-.95-22.12,3.34-25.45,3.01-1.56,1.31,5.87,3.96,6.5,4.35,1.39.86,9.3,5.64,9.61,6.12.81,1.24-.04,1.56-.79,2.28l-16.09-9.36-.74-3.39-44.91,5.64,4.97,3.26,26.05,12c23.09-4.31,46.33-7.87,69.43-12.12.82-.15,2.98-.15,2.84-1.27h.01ZM10.48,29.32c.03,1.44-.44,3.14.76,4.11l31.82,16.12c24.03-5.39,49.87-7.58,73.73-13.09,3.92-.9,5.87-2.99,2.01-5.52l-75.77,13.8L10.48,29.31h0ZM14.97,68.31l25.83,12.73,1-1.69-.25-27.56-1.18-1.07-25.41-12.42v30h.01ZM113.77,66.81v-27.75l-69.53,12.83-.59,28.8s70.12-13.88,70.12-13.88Z"/>
  <path d="M82.83,56.09c-.42.47-1.56.51-1.87,1.45-.49,1.52.21,6.72-.13,7.03h-2.24c-.45-4.03,1.96-8.3-3.4-8.14-.34.01-.31.89-.63,1.08-.7.41-1.83.12-2.01.74-.93,3.24,2.48,9.16-2.94,7.82-.7-1.62.73-5.61.56-6.42s-4.7-1.32-2.81-3.33c.54-.57,13.4-1.14,15.36-2.98,1.33.83,1.06,1.67.11,2.75Z"/>
  <path d="M91.31,52.57c.15.16-.09,1.63,0,2.24-1.03-.16-4.42-.08-4.48,1.13-.11,2.32,6.23-1.64,4.48,2.62h-3.75v2.25c1.86.3,4.16-1.8,4.48,1.12-.28,1.29-6.07,1.79-7.48,1.89.1-1.52-.2-9.19.37-9.79.74-.77,6-1.84,6.36-1.46h.02Z"/>
  <path d="M63.46,65.72"/>
  <path d="M63.38,66.71c.34,1.28-1.76,2.28-2.13-.14-.98-6.5-3.18-11.28,3.94-9.66,3.57.81,1.3,19.58-.19,4.27-.14-1.43-2.27-1.3-2.27-.92.04,2.19,5.21-1.98,3.08,2.41-1.96,1.51-3.63-2.13-3.15,1.56.17,1.32.19.86.46,1.7"/>
  <path d="M109.28,48.82c.24,2.44-1.47,4.42-2.07,6.54-.72,2.58,1.2,4.71-2.41,5.45,2.01-2.55-4.38-9.92-3.75-10.5,1.99-1.82,4.08,4.34,5.23,3-.22-2.09.46-4.55,2.99-4.5h.01Z"/>
  <path d="M32.96,30.03c-.56-.79.24-3.15,1.77-2.91.74.12,12.43,7.81,12.42,8.57,0,.13-1.73,1.84-1.86,1.84-.27,0-3.08-2.61-4.18-3.28-1.49-.9-7.88-3.85-8.15-4.22Z"/>
  <path d="M79.15,25.69c5.24-.91,6.51,4.82,1.25,5.12-4.36.25-5.8-4.32-1.25-5.12Z"/>
  <path d="M51.08,32.88c-2.03-1.86,1.12-5.02,4.33-4,5.57,1.77-.55,7.46-4.33,4Z"/>
  <path d="M56.78,58.67c-.84-.53-6.36.22-6.63.64-.56.88.41,8.63,0,10.5,8.63-.31,8.09-4.07,6.63-11.14ZM51.57,61.99c0-.47.84-.85,1.88-.85s1.88.38,1.88.85c0,.05,0,.1-.03.15.02.05.03.1.03.15,0,.47-.84.85-1.88.85s-1.88-.38-1.88-.85c0-.05,0-.1.03-.15-.02-.05-.03-.1-.03-.15ZM54.05,67.07h-.6c-1.04,0-1.88-.38-1.88-.85s.84-.85,1.88-.85h.6c1.04,0,1.88.38,1.88.85s-.84.85-1.88.85Z"/>
  <path d="M99.67,57.32c-.09-1.21,2.82-3.06.25-5.53-.89-.86-6.12-.2-6.36.02-.38.36.28,8.9,0,10.5h2.24v-4.5c3.01-.22,1.86,3.64,4.11,3.75,2.86.13-.18-3.28-.25-4.25h.01ZM97.55,55.56c-.61,0-1.11-.5-1.11-1.11s.5-1.11,1.11-1.11,1.11.5,1.11,1.11-.5,1.11-1.11,1.11Z"/>
</svg>