<?xml version="1.0" encoding="UTF-8"?>
<svg id="Layer_1" data-name="Layer 1" xmlns="http://www.w3.org/2000/svg" viewBox="0 0 165.37 94.57">
  <defs>
    <style>
      .cls-1 {
        fill: #fff;
      }
    </style>
  </defs>
  <path d="M138.61.15c3.27-.85,4.63,2.13,2.62,3.47-.88.58-2.46.22-3.42.63-2.64,1.13-3.52,3.43-6.31.15-.45-1.94,5.6-3.86,7.11-4.25Z"/>
  <path d="M139.09,10.51c6.53.55,16.59,2.98,20.71,8.49,4.93,6.59-.26,10.91.9,15.26.53,2,4.21,3.31,4.47,8.41.34,6.82.28,22.54-.51,29.09-1.27,10.6-10.47,7.73-15.75,11.01-2.01,1.25-3.39,5.73-6.7,7.89-6,3.93-14.43,3.09-18.95-2.68-2.18-2.79-2.03-8.64-7.59-7.54-1.3.26-2.07,2.54-3.3,2.73-1.68.25-8.69.26-11.36.36-12.99.51-42.22-2.51-52.6-.02-.62.15-.51,1.46-1.11,1.59-1.81.4-4.22-.62-5.93.42-1.2.73-3.57,5.22-6.2,6.77-5.23,3.1-9.81,3.09-14.84-.34-1.95-1.34-5.68-6.84-6.13-6.84H0L.81,24.28l113.15-1.62,1.91,1.33c.32,2.39.02,4.8.11,7.19.05,1.25-.75,3.21,1.21,2.82l2.9-14.21c-.57-4.22-4.73-4.33-3.3-9.3,7.24.45,15.14-.61,22.3,0v.02ZM138.69,15.38h-13.79c.78,3.06-3.88,14.36-1.67,15.86,2.54,1.72,10.76-2.14,14.27.19,2.21-1.02.41-2.75.54-4.29.33-3.91,1.09-7.76.65-11.76h0ZM156.32,22.07c-1.26-1.29-11.12-6.08-12.68-5l-.55,13.77,12.69.41c.99-2.24,2.38-7.3.54-9.18h0ZM73,27.54l-18.66.81-.02,34.54,17.87-.46.81-34.88h0ZM95.7,62.42c.2-7.42-.25-14.91-.03-22.34.11-3.82,2.51-9.18-.37-12.54h-17.44l-.81,34.87h18.65ZM100.57,27.54v34.87h9.74c-.51-11.69,1.36-23.17.81-34.88h-10.55,0ZM24.33,63.23l.46-34.11c-1.22-1.76-5.88.13-8.15.11-3.61-.02-7.31-.93-10.94-.87l-.83,35.68c1.06.48,2.4-.81,2.84-.81h16.63,0ZM49.47,28.35h-20.28v34.87c6.47.45,13.29-.68,19.46,0,0,0,.82-34.87.82-34.87ZM149.24,78.64c3.27-1.28,9.47-2.24,10.36-6.26.19-9.05,1.86-18.38,1.02-27.44-.99-10.74-10.66-8.07-18.28-8.49-1.59-.09-3.12-.81-4.84-.84-5.39-.09-21.44-.13-22.38,6.89-.73,5.47-.73,24.61,0,30.09.12.89.12,1.76.77,2.47l4.1,1.11c2.48-21.97,30.4-19.81,29.24,2.46h0ZM132.8,64.99c-5.93,1.2-8.92,10.26-7.88,15.66.25,1.29,4.54,6.82,5.67,7.29,11.43,4.83,19.29-14.61,9.68-21.02-1.98-1.32-5.11-2.41-7.47-1.93ZM110.31,78.64l-.12-10.84c-.93-2.83-6.9-.56-9.18-.49-18.12.58-36.39.53-54.34.81-13.93.22-27.99-.52-41.85.32l-.76,11,106.25-.81h0ZM21.9,85.13l-.8-1.62c-2.68,4.23,5.63,6.74,8.48,6.47.97-.09,4.15-2.25,5.09-2.99.66-.52,1.48.03,1.03-1.86h-13.8Z"/>
  <path class="cls-1" d="M149.24,78.64c1.16-22.27-26.76-24.43-29.24-2.46l-4.1-1.11c-.66-.71-.65-1.58-.77-2.47-.73-5.48-.73-24.61,0-30.09.94-7.02,16.98-6.98,22.38-6.89,1.72.03,3.25.75,4.84.84,7.62.42,17.29-2.26,18.28,8.49.83,9.06-.83,18.39-1.02,27.44-.89,4.02-7.09,4.97-10.36,6.26h0Z"/>
  <path class="cls-1" d="M110.31,78.64l-106.25.81.76-11c13.86-.85,27.92-.11,41.85-.32,17.95-.28,36.22-.23,54.34-.81,2.28-.07,8.25-2.35,9.18.49l.12,10.84h0Z"/>
  <path class="cls-1" d="M49.47,28.35l-.82,34.87c-6.17-.68-12.99.45-19.46,0V28.35s20.28,0,20.28,0Z"/>
  <path class="cls-1" d="M24.33,63.23H7.71c-.44,0-1.77,1.29-2.84.81l.83-35.68c3.63-.06,7.33.85,10.94.87,2.27,0,6.93-1.87,8.15-.11,0,0-.46,34.11-.46,34.11Z"/>
  <polygon class="cls-1" points="73 27.54 72.19 62.42 54.32 62.89 54.34 28.35 73 27.54"/>
  <path class="cls-1" d="M95.7,62.42h-18.65l.81-34.87h17.44c2.89,3.36.49,8.72.37,12.54-.22,7.43.23,14.91.03,22.34h0Z"/>
  <path class="cls-1" d="M132.8,64.99c2.36-.48,5.49.61,7.47,1.93,9.61,6.42,1.75,25.85-9.68,21.02-1.13-.48-5.42-6.01-5.67-7.29-1.05-5.4,1.95-14.46,7.88-15.66h0Z"/>
  <path class="cls-1" d="M100.57,27.54h10.55c.54,11.7-1.32,23.18-.81,34.88h-9.74s0-34.88,0-34.88Z"/>
  <path class="cls-1" d="M138.69,15.38c.44,3.99-.32,7.84-.65,11.76-.13,1.54,1.68,3.27-.54,4.29-3.51-2.33-11.73,1.53-14.27-.19-2.21-1.49,2.45-12.8,1.67-15.86,0,0,13.79,0,13.79,0Z"/>
  <path class="cls-1" d="M156.32,22.07c1.84,1.88.45,6.94-.54,9.18l-12.69-.41.55-13.77c1.57-1.08,11.42,3.7,12.68,5h0Z"/>
  <path class="cls-1" d="M21.9,85.13h13.79c.46,1.89-.37,1.34-1.03,1.86-.94.74-4.12,2.9-5.09,2.99-2.84.28-11.15-2.23-8.48-6.47l.8,1.62h0Z"/>
</svg>