<?xml version="1.0" encoding="UTF-8"?>
<svg id="Layer_1" data-name="Layer 1" xmlns="http://www.w3.org/2000/svg" viewBox="0 0 116 82.73">
  <defs>
    <style>
      .cls-1 {
        fill: #fff;
      }
    </style>
  </defs>
  <path class="cls-1" d="M112.62,58.5c.03.42,2.09,1.95-.37,1.86-1.46-3.76-7.47-4.98-7.91-8.52-.86-6.96.62-15.84.17-23.02l7.74-6.45c2.46-.12.36,1.52.36,1.86,0,11.05-.73,23.42,0,34.28Z"/>
  <path d="M0,0h116v82.73H0V0ZM113.01,29.44V4.1H2.25v39.5c0,.49.47,3.37,1.12,3.34,3.85-2.88,9.82-2.9,14.47-2.31l20.01-29.67c1.08-2.55,4.88-.42,6.86.54.61.29,1.36-.11.88,1.2-.71,1.89-7.71,10.13-9.63,12.02-5.47,5.39-12.36,7.68-12.74,16.71,6.17,2.1,11.65,5.8,16.12,10.47.59.62,1.06,2.11,1.19,2.18.45.26,8.56-1.52,10.37-.68v10.43H3.37c-1.59,0-.85,9.62-1.12,11.18h68.85l-4.85-8.21-1.95-7.37c-4.31,0-9.47.26-10.36-4.96-.32-1.86-.29-5.92.5-7.61.73-1.55,2.57-1.84,3.53-3.2,3.54-5.04,1.86-11.4,9.74-14.9,11.49-5.11,31.16-2.47,43.78-2.51.87,0,.97-.05,1.53-.81ZM42.66,16.4c-1.26-.1-2.44-1.22-3.73-.42-2.06,1.27-7.25,12.22-9.74,14.56,1.4.33,1.78-.78,2.62-1.48,1.55-1.3,11.86-11.29,10.85-12.66ZM72.01,32.94c-.51.48-1.13,3.39.22,3.57l39.68-.22c1.49-.29,2.5-4.54-1.48-5.02-6.37-.78-18.78-.34-25.51,0-1.75.09-12.43,1.23-12.9,1.67ZM69.6,34.29c-4.49.23-6.51,5.51-8.23,8.93,5.22-.34,6.74-4.75,8.23-8.93ZM98.79,69.31h14.22v-20.12c-12.21-.83-24.97-3.51-36.66,1.49.11-.89-.52-1.69.49-2.25,1.33-.73,9.18-2.05,11.11-2.21,8.22-.68,16.89.72,25.06,1.48l.05-9.23-2.77-.92-38.55.11c-1.67.25-2.04,3.71-4.12,5.45-3.2,2.67-7.71,1.02-7.75,5.32,6.55-.22,6.22,8.59,3,12.67,10.15-.27,18.1-9.36,28.78-7.41,5.74,1.05,7.86,10.7,7.15,15.61ZM4.49,55.9h16.84c1.07,0,4.08-1.56,5.99-.74,1.6-1.27-2.56-3.01-3.91-3.57-6.95-2.87-14.2-1.62-18.92,4.31ZM30.3,50.83c-.5.02-1.32,1.31-1.85,1.71l4.84,4.1c3.47-1.69-2.09-5.84-2.99-5.8ZM60.61,61.11c.84-2.58,4.16-8.04.77-10.07-6.14-3.67-8.04,10.07-.77,10.07ZM89.15,62.7c-.38.24-1.4,5.03-4.19,5.11s-8.16-6.09-4.13-7.08l4.11,4.84c.92-.01,2.69-6.68,5.79-5.83.64.17,1.22,1.03,1.87,1.22,2.46.72,3.14-1.35.98-3.23-4.54-3.96-10.59-.16-15.67.48-.77,5.07.26,12.81,6.84,12.43.86-.05,4.31-1,4.87-1.51,1.72-1.55,2.95-8.62-.47-6.42ZM2.24,59.71v5.88h46.44v-5.88H2.24ZM74.83,60.37c-4.97.92-4.3,2.84-3.51,6.86,3.19,16.04,26.96,12.61,25.26-2.05-.35-3.04-2.34-3.73-3-.68-.97,4.47-1.17,7.08-6.73,8.21-8.96,1.81-11.07-5.03-12.02-12.34ZM68.85,62.6c-4.18-.74-2.37,3.85-1.53,6.38,1.53,4.61,5.64,11.23,11.26,10.01-.31-1.22-2.18-1.26-3.37-2.22-4.81-3.91-5.94-8.1-6.36-14.17ZM113.01,71.55h-15.34c-.4,0-2.34,3.68-3.35,4.11l-5.25,3.34h23.95v-7.45Z"/>
</svg>