<?xml version="1.0" encoding="UTF-8"?>
<svg id="Layer_1" data-name="Layer 1" xmlns="http://www.w3.org/2000/svg" viewBox="0 0 121.42 105.25">
  <defs>
    <style>
      .cls-1 {
        fill: #fff;
      }
    </style>
  </defs>
  <path class="cls-1" d="M112.62,81.03c.03.42,2.09,1.95-.37,1.86-1.46-3.76-7.47-4.98-7.91-8.52-.86-6.96.62-15.84.17-23.02l7.74-6.45c2.46-.12.36,1.52.36,1.86,0,11.05-.73,23.42,0,34.28Z"/>
  <path d="M0,22.53h116v82.73H0V22.53ZM113.01,51.97v-25.34H2.25v39.5c0,.49.47,3.37,1.12,3.34,3.85-2.88,9.82-2.9,14.47-2.31l20.01-29.67c1.08-2.55,4.88-.42,6.86.54.61.29,1.36-.11.88,1.2-.71,1.89-7.71,10.13-9.63,12.02-5.47,5.39-12.36,7.68-12.74,16.71,6.17,2.1,11.65,5.8,16.12,10.47.59.62,1.06,2.11,1.19,2.18.45.26,8.56-1.52,10.37-.68v10.43H3.37c-1.59,0-.85,9.62-1.12,11.18h68.85l-4.85-8.21-1.95-7.37c-4.31,0-9.47.26-10.36-4.96-.32-1.86-.29-5.92.5-7.61.73-1.55,2.57-1.84,3.53-3.2,3.54-5.04,1.86-11.4,9.74-14.9,11.49-5.11,31.16-2.47,43.78-2.51.87,0,.97-.05,1.53-.81ZM42.66,38.93c-1.26-.1-2.44-1.22-3.73-.42-2.06,1.27-7.25,12.22-9.74,14.56,1.4.33,1.78-.78,2.62-1.48,1.55-1.3,11.86-11.29,10.85-12.66ZM72.01,55.47c-.51.48-1.13,3.39.22,3.57l39.68-.22c1.49-.29,2.5-4.54-1.48-5.02-6.37-.78-18.78-.34-25.51,0-1.75.09-12.43,1.23-12.9,1.67ZM69.6,56.82c-4.49.23-6.51,5.51-8.23,8.93,5.22-.34,6.74-4.75,8.23-8.93ZM98.79,91.84h14.22v-20.12c-12.21-.83-24.97-3.51-36.66,1.49.11-.89-.52-1.69.49-2.25,1.33-.73,9.18-2.05,11.11-2.21,8.22-.68,16.89.72,25.06,1.48l.05-9.23-2.77-.92-38.55.11c-1.67.25-2.04,3.71-4.12,5.45-3.2,2.67-7.71,1.02-7.75,5.32,6.55-.22,6.22,8.59,3,12.67,10.15-.27,18.1-9.36,28.78-7.41,5.74,1.05,7.86,10.7,7.15,15.61ZM4.49,78.42h16.84c1.07,0,4.08-1.56,5.99-.74,1.6-1.27-2.56-3.01-3.91-3.57-6.95-2.87-14.2-1.62-18.92,4.31ZM30.3,73.36c-.5.02-1.32,1.31-1.85,1.71l4.84,4.1c3.47-1.69-2.09-5.84-2.99-5.8ZM60.61,83.64c.84-2.58,4.16-8.04.77-10.07-6.14-3.67-8.04,10.07-.77,10.07ZM89.15,85.22c-.38.24-1.4,5.03-4.19,5.11s-8.16-6.09-4.13-7.08l4.11,4.84c.92-.01,2.69-6.68,5.79-5.83.64.17,1.22,1.03,1.87,1.22,2.46.72,3.14-1.35.98-3.23-4.54-3.96-10.59-.16-15.67.48-.77,5.07.26,12.81,6.84,12.43.86-.05,4.31-1,4.87-1.51,1.72-1.55,2.95-8.62-.47-6.42ZM2.24,82.23v5.88h46.44v-5.88H2.24ZM74.83,82.9c-4.97.92-4.3,2.84-3.51,6.86,3.19,16.04,26.96,12.61,25.26-2.05-.35-3.04-2.34-3.73-3-.68-.97,4.47-1.17,7.08-6.73,8.21-8.96,1.81-11.07-5.03-12.02-12.34ZM68.85,85.13c-4.18-.74-2.37,3.85-1.53,6.38,1.53,4.61,5.64,11.23,11.26,10.01-.31-1.22-2.18-1.26-3.37-2.22-4.81-3.91-5.94-8.1-6.36-14.17ZM113.01,94.07h-15.34c-.4,0-2.34,3.68-3.35,4.11l-5.25,3.34h23.95v-7.45Z"/>
  <g>
    <path d="M.97,17.51V3.35c2.43.2,7.2-.7,9,1.1s-.03,4.16.21,5.86c.14.95,1.44,1.72,1.36,3.85-.18,4.76-7.29,3.1-10.57,3.36ZM8.46,8.56c.04-2.48-2.38-3.28-4.48-2.98v3.73s4.48-.75,4.48-.75ZM8.37,11.62c-.81-.5-3.88.17-5.16-.07-.89,7.48,8.51,2.16,5.16.07Z"/>
    <path d="M35.4,3.35c.81.77-1.36,7.57.38,7.44.62-.05,2.56-5.25,5.61-3.71.39,2.3-3.03,2.05-3.02,4.07,0,1.17,3.94,5.57,3.02,6.35-3.91.58-2.59-.57-3.68-2.64-3.04-5.8-2.05,2.4-2.31,2.65h-2.99s0-14.16,0-14.16h2.98Z"/>
    <path d="M29.24,8l.92,9.51c-2.52-1.09-8.8,1.57-8.95-2.58-.18-4.79,5.71-1.87,5.96-5.61-1.77-.65-2.8.79-3.77,1.11-2.1.68-2.06-2.91,1.98-3.34,1.34-.14,2.75.17,3.87.92Z"/>
    <path d="M51.87,13.04h-6.74c-.33,1.01,1.13,2.73,1.86,2.79,1.13.09,3.28-3.34,4.12-.92,1.02,2.97-5.88,3.82-7.81,1.07-5.4-7.68,9.27-14.01,8.57-2.94Z"/>
    <path d="M61.59,10.05c-1.49,1.04-4.49-2.55-5.23-.36-.64,1.91,5.22,1.14,5.46,3.55.63,3.49-2.63,4.87-5.81,4.25-3.56-.69-2.88-4.18-.79-3.71,1.04.23,2.13,4.01,4.12,1.1.7-1.7-3.77-1.08-5.18-3.05-3.34-4.67,6.45-7.13,7.43-1.78Z"/>
    <polygon points="13.7 7.08 20.43 7.08 20.44 9.68 17.45 9.31 16.69 17.51 13.7 17.51 13.7 7.08"/>
  </g>
  <g>
    <path d="M103.3,19.89c-1.88,1.49-4.33,1.02-6.4.44-1.32-.37-1.94.25-1.61-1.7,3.14,1.46,7.23.48,9.02-2.57s-.89-4.05-.79-7.11c3.79.83.89,5.89,6.73,4.46-.11-1.43-2-.49-2.3-2.61-.26-1.79.51-3.09,1.95-4.08,4.74,1.3.06,8.76,5.63,6.35l-1.55-11.94c4.57-1.34,2.18,2.33,2.33,4.38.22,2.97,1.52,6.3,1.07,9.41-.95,1.11-8.85-.46-10.36.12s-2.59,3.96-3.73,4.86Z"/>
    <path d="M87.71,9c.88.6,2.27,5.9,1.58,6.64-3.29-.68-5.67-1.99-9.15-.72-1.58.58-1.21,4.03-6.95,3.78-6.17-.27-5.43-5.44-3.34-9.76l.09,6.6c14.29,4.27,6.24-7.9,7.39-15.55,3.81,1,.73,11.46,2.97,13.06s5.42-5.42,7.42-4.06Z"/>
    <path d="M91.55,15.65c-.06-2.84.07-5.71,0-8.56-.05-1.84-2.01-4.52.74-5.6-.02,4.18,2.94,11.07-.73,14.16Z"/>
    <path d="M120.72,1.49c-.53,4.17,1.19,8.01.56,12.11-.1.66-.32,2.24-1.3,2.04.59-4.37-1.34-8.69-.75-13.06.14-1.02.54-2.34,1.49-1.1Z"/>
  </g>
</svg>