<?xml version="1.0" encoding="UTF-8"?>
<svg id="Layer_1" data-name="Layer 1" xmlns="http://www.w3.org/2000/svg" viewBox="0 0 245.19 116.07">
  <path d="M128,25.32v90.75H0V25.32h128ZM2.99,29.07v82.88c0,1.67,1.75.38,1.87.38h29.57v-26.62c0-4.34,3.18-10.88,6.77-13.47,1.29-.93,3.9-1.02,4.36-2.38.79-2.33-.26-7.78.28-10.97.45-2.68,3.39-6.26,3.51-7.01s-.77-1.8-1.06-1.8h-14.22c-.29,0-5.13.92-5.66,1.08-4.86,1.53-5.01,9.86-3.7,13.91-1.07,1.24-3.94-4.47-4.14-5.22-4.37-16.2,12.77-15.33,23.26-15.06,1.38.04,3.49.97,4.35.71,1.31-.39,1.4-3.61,5.38-3.73,3.14-.1,3.76,2.3,5.07,2.19,1.47-.12,4.51-2.78,6.22-3.54,6.75-3.01,13.86-5.72,21.44-4.41,14.5,2.51,20.42,33.38,22.77,45.43.75,3.83,4.35,21.86,3.68,24.16-2.87,9.79-23.67.18-29.54-2.62l5.89-14.65c1.04-.2.95-.15,1.55.48.89.94,1.52,2.37,2.93,3.65,2.01,1.83,11.98,11.47,14.2,9.33,1.59-1.53-1.17-16.5-1.81-19.49-2.3-10.63-7.46-29.3-14-37.72-9.67-12.44-22.54-.4-32.05,5.88-.55,1.19,1.74,1.53,2.59,2.63,4.1,5.29,1.59,15.38,2.97,17.29.67.93,4.02.48,6.05,2.18,1.29,1.08,4.1,6.38,4.1,7.89v31.88h49.4l-.75-84-121.26.75ZM78.59,37.33c-2.61-.1-5.07.94-7.4,1.95-2.13.93-11.99,6.25-12.04,8.17s1.73.39,2.29.07c3.42-1.95,6.36-4.79,9.91-6.57l7.23-3.62ZM56.86,47.62c0-1.72-1.4-3.12-3.12-3.12s-3.12,1.4-3.12,3.12,1.4,3.12,3.12,3.12,3.12-1.4,3.12-3.12ZM62.13,70.32v-10.88c0-1.66-1.81-5.43-3.7-6.05-11.2-3.67-10.57,10.48-10.51,17.67.81.29,1.63-.75,1.87-.75h12.35ZM73.36,112.32v-31.12c0-2.62-3.09-7-5.8-7.69s-19.19-.62-22.23-.14c-4.2.67-8.65,9.37-8.65,13.08v25.88h36.68ZM91.31,92.07c-1.69-1.18-5.09,8.31-5.63,9.76.81,1.06,18.78,5.55,19.87,4.87,1.32-.81.8-1.33-.04-2.23-3.58-3.82-12.08-6.89-14.2-12.4Z"/>
  <g>
    <path d="M96.73,19.71c-1.96-1.81-1.03-3.94,1.85-2.56.2.1.19,1.17.67,1.28,1.69.37,3.83-.7,4.02-2.64-1.38-.97-2.96.71-4.7.26-2.85-.74-3.08-4.58-2.81-7.03.74-6.72,5.15-2.99,9.77-3.8,1.42.99,1,11.98-.44,13.9-1.48,1.97-6.7,2.14-8.37.59ZM100.04,7.24c-3.06.76-2.57,6.69.6,6.69,3.85,0,3.32-7.67-.6-6.69Z"/>
    <path d="M44.88,1.53c.5-1.6,12.71-2.24,10.1,1.88h-7.11s0,3.75,0,3.75c.76.78,7.38-2.99,6.74,1.87l-6.74.37c.06,4.39-1.2,4.79,3.41,4.54,2.47-.13,4.33-1.81,4.08,2.21h-10.48c.71-3.73-.97-11.5,0-14.63Z"/>
    <path d="M159.19,5.88c1.37,1.11,1.98,4.04,1.72,5.77-1.86.1-3.77-.13-5.63,0-.82.06-2.48-.42-1.85,1.11,1.34,3.27,3.25.83,4.89.41,3.24-.83,1.86,2.42-.8,2.95-12.88,2.56-6.99-17.26,1.67-10.25Z"/>
    <path d="M35.68,5.88c1.37,1.11,1.98,4.04,1.72,5.77-1.86.1-3.77-.13-5.63,0-3.93.28-.65,2.73,0,2.79.27.02,5.95-2.98,4.86-.17-1.89,4.9-14.7.96-8.88-7.4,1.62-2.33,5.81-2.7,7.93-.99Z"/>
    <path d="M.71.41c3.43.7,6.31,1.24,9.73,0v3.37s-6.73-.38-6.73-.38v3.76c.36.37,7.36-1.08,6.74,1.86-2.03,3.01-6.09-1.56-6.73,2.26-.56,3.32,1.76,5.65-3,4.87V.41Z"/>
    <path d="M111.5,4.9c.56.54-1.31,9.2,1.86,9.56,3.59.4.91-6.88,2.25-8.82,3.67-5.33,3.97,9.43,2.67,10.17-10.84,1.38-10.19-.79-9.76-10.91.73.12,2.8-.18,2.99,0Z"/>
    <path d="M138.45,3.03c0-.33-1.1-.83-.42-1.88,2.3-3.57,3.4,2.07,2.67,4.5,9.64-3.11,6.3,3.97,7.49,10.12-5.75,2.9-1.3-6.6-3.7-8.29-5.22-3.66-3.37,8.27-3.8,8.68h-2.24c-.08-4.37.12-8.76,0-13.13Z"/>
    <path d="M83.05,4.91c2.76,1.45,7.92-1.46,9.36,1.5.48.99.72,9.42.37,9.75-.11.1-2.88.1-2.99,0-.34-.31,1.14-8.53-.42-9.03-5.17-1.67-2.61,8.36-3.32,9.04-.11.1-2.99.15-2.99,0V4.91Z"/>
    <path d="M60.49,5.01c.59.37.49,2.91,1.24,2.9,2.19-.03,1.09-4.72,5.61-3-.53,1.8-2.94,3.75-2.95,5.61,0,1.96,3.77,4.91,2.94,5.62-2.09,1.83-4.52-2.9-4.87-3-1.45-.38-2.61,4.48-5.61,2.99,3.55-4.9,3.55-6.34,0-11.23,1.02.15,2.89-.37,3.63.1Z"/>
    <path d="M135.45,7.9c-1.54.69-4.73-2.15-5.98-.74-1.65,1.86,5.07,2.1,5.81,3.17,2.09,3.01-.45,5.77-3.93,5.89-2.18.08-6.31-1.11-3.75-3.82,2.46.98,2.5,3,5.6,1.49-1.85-3.01-6.67-1.56-6.01-6.32.55-3.92,7.74-3.64,8.25.33Z"/>
    <path d="M73.32,1.16c-1.27,3.12,1.45,3.88,1.52,4.12.57,2.19-1.34,1.66-1.5,2.38-.21.93-.25,4.87-.03,5.72.27,1.04,2.8.8,2.26,2.77-6.76,1.1-4.66-2.38-5.26-7.09-.13-1.05-1.22-1.8-1.32-2.43-.13-.75,2.51-6.17,4.34-5.47Z"/>
    <path d="M18.68,4.91c2.47.61,4.27.61,6.73,0,.52,4.91-.89,2.05-2.27,2.63-3.69,1.56,1.48,10.45-4.46,8.62V4.91Z"/>
    <path d="M163.15,4.91l7.49.38c-.75,4.38-1.77,1.65-3.32,1.94-1.68.32-2.12,7.17-1.93,8.93h-2.24V4.91Z"/>
    <path d="M80.06,4.91c.6.65-.17,8.46.65,10.06-5.94,5.83-4.09-13.8-.65-10.06Z"/>
    <rect x="121.23" y="4.91" width="2.99" height="11.25"/>
    <rect x="12.69" y="4.91" width="2.99" height="11.25"/>
  </g>
  <g>
    <path d="M209.15,15.17c-.75,2.8-1.14,15.79.88,17.13.51.34,6.1,1.35,6.61-.26-6.47-.93-.94-10.25,2.09-4.31,1.2,2.35-.49,3.94,1.27,5.41,5.33-1.37,3.95-4.67,3.31-9.28-.17-1.21-2.74-6.35.43-5.69,1.64.34,1.56,9.89,1.14,11.99.84.9,6.39-4.73,9.03-.41.85,1.39.14,3.85,1.81,3.41,2.14-.57,5.39-5.56,6.73-5.24s3.25,5.93,2.63,7.5c-1.94,1.13-5.22-2.14-5.62-2.13-.3,0-1.44,1.86-3.7,2.18-7.71,1.07-17.87-.73-25.81-.41-2.42-1.12-3.64-10.71-3.63-13.5,0-1.63.33-6.8,2.83-6.37ZM232.35,30.92c-2.33-.96-3.78-.64-5.99.4-1.11.52-1.86-.13-1.49,1.83.54-.21,9.59.04,7.48-2.23Z"/>
    <path d="M170.6,35.41c-.93,0-3.43-.91-4.7.17-1.17.99-1.15,5.22-5.96,5.67-1.18.11-4.9-.72-5.43-2.09,4.33,1.42,11.06-.96,10.48-6.32-.13-1.22-2.19-4.13-1.49-4.94,1.81-2.1,2.74,5.07,3,5.25.21.15,2.32-.66,3.3-.66,1.08,0,4.74.82,4.92.65,1.61-1.48-4.66-3.93-5.98-3,2.39-6.99,7.64,1.49,10.46,2.54.93.35,3.19-.32,4.5.46l-1.48-15c3.71,1.64,2.24,3.22,2.54,5.48.23,1.7,2.38,11.77.07,11.77-4.74,0-9.48-.04-14.22,0Z"/>
    <path d="M147.03,34.66c-.1.11.03,2.14-.34,3.03-3.01,7.2-21.76,3.77-12.39-6.78.1,1.69-.88,3.19-.81,4.88.25,6.69,14.52,1.89,12.05-.38-8.27,1.3-3.74-9.25-.06-6.69.76.53-.21,5.79,5.59,4.28,2.9-.76-1.57-4.34-.29-5.84,1.43-1.66,4.24,5.31,2.66,7.54-1.36,1.92-6.17-.31-6.4-.05Z"/>
    <path d="M200.96,27.96c5.59-.42,6.18,8.44.35,7.5-3.76-.61-1.07-5.39-.35-7.5Z"/>
    <path d="M188.19,24.54c-.03-1.05-2.02-4.52.74-5.62.38,4.89,1.38,10.49.76,15.38-.17,1.37.25,1.21-1.5,1.11-.07-3.61.1-7.26,0-10.88Z"/>
    <path d="M144.77,24.91c-3.8-2.56-4.42,4.78-5.24-1.5,2.7.78,2.34-.89,4.11-1.5l1.13,2.99Z"/>
  </g>
</svg>