<?xml version="1.0" encoding="UTF-8"?>
<svg id="Layer_1" data-name="Layer 1" xmlns="http://www.w3.org/2000/svg" viewBox="0 0 40.64 117.11">
  <defs>
    <style>
      .cls-1 {
        fill: #d0d9dc;
      }

      .cls-2 {
        fill: #b0bec5;
      }

      .cls-3 {
        fill: #d42027;
      }

      .cls-4 {
        fill: #ee2849;
      }

      .cls-5 {
        fill: #edeff0;
      }

      .cls-6 {
        fill: #fdc113;
      }

      .cls-7 {
        fill: #010101;
      }

      .cls-8 {
        fill: #212121;
      }

      .cls-9 {
        fill: #4daf4f;
      }
    </style>
  </defs>
  <rect class="cls-1" x="2.58" y="77.2" width="3.57" height="7.85"/>
  <rect class="cls-6" x="2.58" y="85.05" width="3.57" height="13.74"/>
  <path class="cls-8" d="M8.92,6.51c-2.76,0-5.32,2.06-7.02,5.64C.2,15.75-.4,20.34.26,24.76l.63,4.24c1.11,7.46,1.68,15.14,1.68,22.81v25.37h3.57v-25.37c0-8.15-.6-16.3-1.78-24.22l-.63-4.24c-.4-2.65-.04-5.41.98-7.56,1.02-2.15,2.56-3.39,4.21-3.39h9.12v-5.89s-9.12,0-9.12,0Z"/>
  <rect class="cls-1" x="18.04" y="6.51" width="4.97" height="5.89"/>
  <path class="cls-7" d="M22.42,9.26l-.43-3.86L39.63,0h0c.24,2.13-.61,4.18-1.91,4.58l-15.3,4.68Z"/>
  <path class="cls-7" d="M40.26,19.5l-18.43-10.31.76-3.72,16.18,9.05c1.24.7,1.91,2.93,1.49,4.98h0Z"/>
  <path class="cls-3" d="M27.55,17.51v-9.03h-7.14v9.03c0,1.65-.63,3.13-1.57,3.69l-6.82,4.09c-2.82,1.69-4.7,6.12-4.7,11.07v78.14c0,3.49,33.3,3.49,33.3,0V36.36c0-4.95-1.88-9.38-4.7-11.07l-6.82-4.09c-.94-.57-1.57-2.04-1.57-3.69Z"/>
  <ellipse class="cls-2" cx="23.99" cy="12.4" rx="4.76" ry="7.85"/>
  <path class="cls-9" d="M25.77,7.33c-.53-.5-1.13-.81-1.78-.81s-1.25.31-1.78.81l1.78,5.08,1.78-5.08Z"/>
  <path class="cls-4" d="M25.77,7.33l-1.78,5.08-1.78-5.08c-1.06,1.02-1.79,2.9-1.79,5.08,0,3.25,1.6,5.89,3.57,5.89s3.57-2.64,3.57-5.89c0-2.18-.72-4.05-1.79-5.08Z"/>
  <path class="cls-5" d="M34.69,85.05H13.28c-.66,0-1.19-.88-1.19-1.96v-35.34c0-1.08.53-1.96,1.19-1.96h21.41c.66,0,1.19.88,1.19,1.96v35.34c0,1.08-.53,1.96-1.19,1.96Z"/>
  <rect class="cls-8" x="7.34" y="37.93" width="33.3" height="3.93"/>
  <rect class="cls-7" x="2.58" y="37.93" width="4.76" height="3.93"/>
</svg>