<?xml version="1.0" encoding="UTF-8"?>
<svg id="Layer_1" data-name="Layer 1" xmlns="http://www.w3.org/2000/svg" viewBox="0 0 128.01 91.03">
  <path d="M128.01,0v91.03H0V0h128.01ZM3,3.14v84.14h121.26V3.14H3Z"/>
  <path d="M112.96,56.62c-26.59,8.41-53.24,16.78-79.53,26.05-6.09-4.41-13.29-7.43-18.8-12.51l-.44-25.81c1.33-5.35-.99-11.32.76-16.41,1.03-.07,1.92.4,3,.11,9.01-2.42,18-4.73,27.14-6.6,3.1-.94,1.86-5.76,3.97-7.23.8-.55,14.33-3.78,16.64-4.31,1.5-.34,7.01-1.79,7.87-1.59,1.78.42,3.86,4.89,5.96,4.93,3.91.07,9.03-2.94,12.34-3.41,4.65-.66,15.02,6.31,20.41,6.92l.63.86.02,38.99h.03ZM75.61,14.17c.3-.29-2.69-3.68-3.92-2.86-3.17,1.83-20.39,3.75-21.52,5.68-.27.45-.88,3.04-.76,3.16l26.2-5.97h0ZM106.3,17.17c-.51-.52-12.74-4.51-13.74-4.45-.88.05-9.86,1.83-10.21,2.21-1.31,1.4,1.54,1.51,1.55,1.92.16,5.6-4.15-.16-6.27-1.04-3.54,1.82-28.14,6.36-29.03,7.81s-.33,4.32-2.56,5.46c-2.63-1.16,1.28-5.58-1.48-5.2l-24.34,6.33c3.59,1.63,11.8,8.01,15.23,7.81,21.69-6.97,44.73-11.31,66.36-18.25.73-.23,5.93-1.14,4.5-2.6h0ZM110.79,20.15l-74.86,20.5-1.48,38.42,75.63-24.24s.71-34.68.71-34.68ZM17.22,32.08v36.92l14.97,9.32c-1.45-11.47,2.14-25.12.8-36.22-.47-3.92-5.67-3.46-7.9-6.28-.75.57-.84.61-.82,1.53.05,2.34.81,3.99.25,6.85-.15.77-.43,2.64-1.65,2.04-3.37-4.75,2.41-12.68-5.63-14.16h-.02Z"/>
  <path d="M47.91,43.27c-9.28,6.9-7.15,16.06,1.5,22.36-15.53-1.73-15.88-17.98-1.5-22.36Z"/>
  <path d="M99.57,45.5c-.32-2.74-2.17-8.84.53-10.29,5.17-2.79,7.14,5.68,4.37,8.09-.44.39-4.62,2.45-4.9,2.2Z"/>
  <path d="M65.8,46.31c1.43,1.84.11,4.02.28,5.44.1.8,1.87,2.9,1.29,3.44-2.33,2.18-2.98-4.88-4.48-2.98v4.48h-2.25c-.37-5.75-3.26-10.76,5.16-10.38Z"/>
  <path d="M93.57,46.99c-4.44-2.16-3.44,1.33-6.73,2.24.76-10.87,3.53-16.84,6.73-2.24Z"/>
  <path d="M73.25,44.13c.09.06.95,2.04.87,2.11-.89.7-4-2.19-3.74.37,2.31,1.51,5.46.98,4.38,5.07-.75,2.82-5.28,2.67-6.62.16,2.14-2.81,3.96,2.72,4.48-1.86-8.21.05-3.3-8.49.63-5.85Z"/>
  <path d="M82.34,41.03c.54,1.96-1.97,1.71-2.25,2.76-.85,3.18,2.55,8.27-2.23,7.68-.17-1.61-.15-4.92-.73-6.24-.21-.47-4-.65-2.27-2.71.25-.29,7.19-1.75,7.48-1.5h0Z"/>
  <path d="M54.64,49.23l-3.72,3.35c.89,2.06,3.44,0,3.72.37.09.11.07,2.06-.04,2.18-.46.53-4.2-.37-2.95,4.54h-2.24c.75-6.29-3.6-10.32,5.23-10.45h0Z"/>
  <path d="M96.56,36.55c.56.51.93,7.31.75,8.59-.14,1.02-.43,2.23-1.49,1.1-.89-.95-2.34-12.49.74-9.7h0Z"/>
  <path d="M56.9,58.18c.67-1.62-2.11-10.37.37-10.42.8-.02,3.38,11.13-.37,10.42Z"/>
  <path d="M24.71,55.2v12.31c0,1.28-2.99,1.29-2.99,0v-12.31c0-.15,2.46.1,2.99,0Z"/>
</svg>