<?xml version="1.0" encoding="UTF-8"?>
<svg id="Layer_1" data-name="Layer 1" xmlns="http://www.w3.org/2000/svg" viewBox="0 0 289.1 122">
  <g>
    <path d="M260.58,13.43c.22.24,4.24-.17,5.24,0,.62-2.24-2.9-4.19-.37-5.95,3.3,2.53-.22,7.11,4.86,5.96v-3.73c2.17,1.26,1.77,3.77,4.85,3.79,5.04.03,14.87-12.23,13.87,2.18l-34.69-.12c-4.86-5.22,4.15-.87,5.49-2.12,1.2-2.77-3.62-5.98-3.76-6.34-1.16-3.13,2.87-2.4,4.16,1.84.41,1.37.19,4.34.35,4.5ZM286.78,11.19c-.53-.54-6.37.59-6.73,2.23h6.74c-.09-.6.14-2.08,0-2.23Z"/>
    <path d="M170.86,13.32c1.31.81,5.03-.31,6.63-.65l-2.24-3.34c4.22-2.95,7.43-.77,5.23,4.09,4.69-.39,7.24,2.01,7.11-3.73,1.25,3.08,1.9,4.29,5.61,3.74l.37-2.99,2.62,2.98.74-4.47.75,6.71c-3.3-.28-6.67-.38-9.98-.47-4.67-.12-8.71-.18-12.89.43-5.43.79-5.48-.55-6.25-5.63-.34-2.24-1.46-8.94.67-9.99.64,2.18.49,12.62,1.61,13.32Z"/>
    <path d="M243.36,47.74c-.27-.18-.62-3.6-.76-3.73-.44-.4-4.72,1.3-5.98.74-1.01-3.8,2.49-3.85,3.79-5.56.57-.75,1.32-5.23,2.18-1.52.32,1.37.9,7.28,1.61,7.74.99.64,5.75-.25,7.38.09.66-.62-2.71-6.66.75-5.97.13.98.58,5.72.8,5.92.13.12,2.83.15,2.94.05,1.12-1.07-2.01-11.91-1.11-14.18.74.07,2.47.57,2.64,1.26.83,3.36-.02,11.22.72,15.15-2.34-.48-14,.65-14.97,0Z"/>
    <path d="M273.31,28.35c.27,3.08-.94,2.52-1.35,3.09-.8,1.13,2.29,3.21,3.15,4.43s3.12,5.55,3.82,5.9c1.52.76.99-1.21,1.09-1.89.37-2.67.26-5.14.03-7.8,6.19,1.01.5,8.76.14,11.72-.5,4.12,3.16,6.02-5.38,5.42,1.19-4.64,6.7-4.68.77-10.09-1.14-1.04-2.58-1.08-3.42-1.8-2.09-1.8-2.5-10.97,1.16-8.98Z"/>
    <path d="M157.36,13.34c.65.55,6.63-.22,8.15.08.71-2.92-2.91-.46-3.77-1.97-2.03-3.55,2.01-8.47,3.86-5.8.55.8,1.78,9.65,1.42,10.02-2.58-.4-8.99,1-10.56-1.05-.71-.92-1.93-9.8-2-11.51-.05-1.33-.46-2.15.95-3.11,1.91,2.24.5,12.11,1.95,13.34Z"/>
    <path d="M226.91,11.19c2.63-1.9.11,3.03.04,4.17-.41,6.51,13.13,5.12,11.94-1.19-9.04,1.58-2.29-11.67.38-4.49,2.04,5.49,2.1,10.61-4.68,11.76-4.11.7-8.65.25-8.95-4.77-.04-.73,1.04-5.32,1.27-5.49Z"/>
    <path d="M208.19.75c5.48.36.25,8.24,0,10.84-.43,4.48,3.43,5.24-5.24,6.31-1.19-3.96,3.49-3.57,2.99-6.27-.93-5.01-5.46-5.43-6.79-7.48-1.76-2.7-.86-4.98,2.18-2.17,2.38,2.2,4,5.76,5.73,8.44,2.29-2.8,1.53-6.49,1.13-9.68Z"/>
    <path d="M138.94,15.66c-4.99-1.07-3.4-10.1-1.12-8.2.28.23-2.44,5.96,1.87,5.96h13.1c-.02-.62-2.39-7.49,0-5.6,1.54,1.22.88,5.93.75,7.84-4.23-.61-10.7.83-14.6,0Z"/>
    <path d="M241.12,20.88l5.97-1.12c5.72-4.17.33-3.54,0-6.73-.4-3.78,3.78-6.18,4.55-.76,1.05,7.45-3.37,11.06-10.51,8.61Z"/>
    <path d="M268.76,41.07c.73.45.99,5.87.83,7.08-.73,5.74-5.82,6.36-10.51,4.81l5.79-1.3,3.18-2.81c.54-1.62-1.67-.94-2.15-2.31-.65-1.84.24-7.08,2.85-5.47Z"/>
    <path d="M215.66.75c.32,4.45,1.33,9.33.75,13.81-.13,1.02-.52,2.3-1.49,1.11l-1.46-13.12,2.2-1.8Z"/>
    <path d="M286.79,47.74c1.15-4.9-3.02-11.85.73-15.66-.8,4.82,3.01,11.81-.73,15.66Z"/>
  </g>
  <g>
    <path d="M186.37,30.97v91.03H58.36V30.97h128ZM61.36,34.11v84.14h121.26V34.11H61.36Z"/>
    <path d="M171.32,87.59c-26.59,8.41-53.24,16.78-79.53,26.05-6.09-4.41-13.29-7.43-18.8-12.51l-.44-25.81c1.33-5.35-.99-11.32.76-16.41,1.03-.07,1.92.4,3,.11,9.01-2.42,18-4.73,27.14-6.6,3.1-.94,1.86-5.76,3.97-7.23.8-.55,14.33-3.78,16.64-4.31,1.5-.34,7.01-1.79,7.87-1.59,1.78.42,3.86,4.89,5.96,4.93,3.91.07,9.03-2.94,12.34-3.41,4.65-.66,15.02,6.31,20.41,6.92l.63.86.02,38.99ZM133.97,45.14c.3-.29-2.69-3.68-3.92-2.86-3.17,1.83-20.39,3.75-21.52,5.68-.27.45-.88,3.04-.76,3.16l26.2-5.97ZM164.66,48.14c-.51-.52-12.74-4.51-13.74-4.45-.88.05-9.86,1.83-10.21,2.21-1.31,1.4,1.54,1.51,1.55,1.92.16,5.6-4.15-.16-6.27-1.04-3.54,1.82-28.14,6.36-29.03,7.81s-.33,4.32-2.56,5.46c-2.63-1.16,1.28-5.58-1.48-5.2l-24.34,6.33c3.59,1.63,11.8,8.01,15.23,7.81,21.69-6.97,44.73-11.31,66.36-18.25.73-.23,5.93-1.14,4.5-2.6ZM169.15,51.12l-74.86,20.5-1.48,38.42,75.63-24.24.71-34.68ZM75.58,63.05v36.92l14.97,9.32c-1.45-11.47,2.14-25.12.8-36.22-.47-3.92-5.67-3.46-7.9-6.28-.75.57-.84.61-.82,1.53.05,2.34.81,3.99.25,6.85-.15.77-.43,2.64-1.65,2.04-3.37-4.75,2.41-12.68-5.63-14.16Z"/>
    <path d="M106.27,74.24c-9.28,6.9-7.15,16.06,1.5,22.36-15.53-1.73-15.88-17.98-1.5-22.36Z"/>
    <path d="M157.93,76.47c-.32-2.74-2.17-8.84.53-10.29,5.17-2.79,7.14,5.68,4.37,8.09-.44.39-4.62,2.45-4.9,2.2Z"/>
    <path d="M124.16,77.28c1.43,1.84.11,4.02.28,5.44.1.8,1.87,2.9,1.29,3.44-2.33,2.18-2.98-4.88-4.48-2.98v4.48s-2.25,0-2.25,0c-.37-5.75-3.26-10.76,5.16-10.38Z"/>
    <path d="M151.93,77.96c-4.44-2.16-3.44,1.33-6.73,2.24.76-10.87,3.53-16.84,6.73-2.24Z"/>
    <path d="M131.61,75.1c.09.06.95,2.04.87,2.11-.89.7-4-2.19-3.74.37,2.31,1.51,5.46.98,4.38,5.07-.75,2.82-5.28,2.67-6.62.16,2.14-2.81,3.96,2.72,4.48-1.86-8.21.05-3.3-8.49.63-5.85Z"/>
    <path d="M140.7,72c.54,1.96-1.97,1.71-2.25,2.76-.85,3.18,2.55,8.27-2.23,7.68-.17-1.61-.15-4.92-.73-6.24-.21-.47-4-.65-2.27-2.71.25-.29,7.19-1.75,7.48-1.5Z"/>
    <path d="M113,80.2l-3.72,3.35c.89,2.06,3.44,0,3.72.37.09.11.07,2.06-.04,2.18-.46.53-4.2-.37-2.95,4.54h-2.24c.75-6.29-3.6-10.32,5.23-10.45Z"/>
    <path d="M154.92,67.52c.56.51.93,7.31.75,8.59-.14,1.02-.43,2.23-1.49,1.1-.89-.95-2.34-12.49.74-9.7Z"/>
    <path d="M115.26,89.15c.67-1.62-2.11-10.37.37-10.42.8-.02,3.38,11.13-.37,10.42Z"/>
    <path d="M83.07,86.17v12.31c0,1.28-2.99,1.29-2.99,0v-12.31c0-.15,2.46.1,2.99,0Z"/>
  </g>
  <g>
    <path d="M90.15,18.64V2.97c3.02,1.04,7.85-.78,10.09,1.51,2.8,2.87-.38,5.07-.23,6.18.13.91,1.76,2.08,1.79,3.87.08,5.97-7.68,3.76-11.65,4.11ZM93.14,9.69c7.2.99,7.17-4.73,0-3.74v3.74ZM98.27,16.3c3.17-2-2.6-6.03-5.13-4.38v4.48c1.3-.24,4.26.44,5.13-.11Z"/>
    <path d="M63.94,18.63c-5.82,1.12-1.81-3.28-7.87-3.03-5.31.22-1.79,4.86-7.09,3.03,1.7-2.16,4.69-14.7,6.08-15.55.79-.49,2.59-.19,3.29.64,1.31,1.55,4.1,12.25,5.6,14.92ZM57.2,7.45c-1.65-1.75-2.2,4.63-2.24,5.22h3.74c-.97-.9-1.32-5.02-1.5-5.22Z"/>
    <path d="M81.91,18.64c-5.09-1.15-10.25,3.34-10.53-4.84-.22-6.33,1.61-7.05,7.53-5.61.19-1.02-.26-4.94,0-5.21.44-.45,2.99.33,2.99,1.12v14.55ZM78.07,16.3c1.09-.66.76-7.53-2.45-6.55s-2.18,9.34,2.45,6.55Z"/>
    <path d="M.32,4.09c.61-2.03,3.97-.32,5.62-.3,1.1.01,3.92-1.22,4.11-.44v3.35c-8.87-3.14-11.13,4.23-.75,2.99v2.98c-1.24.63-5.74-.92-5.99-.74-1.37,1.01,1.69,8.83-3,7.46C1.06,15.45-.69,7.43.32,4.09Z"/>
    <path d="M113.12,8.43c2.81,2.02,2.39,9.4-1.66,10.19-12.17,2.39-7.45-16.74,1.66-10.19ZM107.47,16.29c4.38,2.74,6.37-5.51,2.39-6.53-3.37-.86-3.87,5.6-2.39,6.53Z"/>
    <path d="M34.75,10.43c-.83.75-5.27-2.44-5.24.37.01,1.15,6.07.13,6.06,4.49-.01,6.68-11.81,3.18-9.05.37,1.54-.86,5.22,2.28,5.98,1.48,2.32-2.42-4.66-2.56-5.62-4.46-2.73-5.39,7.03-7.75,7.87-2.25Z"/>
    <path d="M120.1,10.43c2.73-.25,2.29-4.02,5.98-2.98-4.48,5.56-2.23,6.28,0,11.92-2.55.81-4.57-4.68-5.97-3.72-.39.26-.94,4.24-4.5,2.97,3.82-4.6,3.33-6.56,0-11.17,2.78-.24,4.71-.29,4.5,2.98Z"/>
    <path d="M40.74,7.45c.18.18,3.8-.7,2.07,2.1-.17.28-1.61.33-1.96,1.35-.28.82-.34,4.21-.16,5.09s1.88.15,2.19.48c.21.23.2,2.8.1,2.91-.28.29-4.08-.37-4.38-.85-.72-1.15.45-5.75-.21-7.64-.41-1.18-2.02-1.09-2.12-1.23-.65-.92,1.48-2.49,2.13-3.44.54-.8.75-2.42.85-2.5,2.61-1.99,1.31,3.55,1.49,3.73Z"/>
    <path d="M25.02,7.45c1.87,1.87-2.87,3.23-3.41,3.68-2,1.69-.77,5.78-1.08,8.24-4.26.26-2.44-3.91-2.44-7.3,0-1.48-1.33-4.07.64-4.52.52-.12,1.48.53,2.17.47.91-.09,3.78-.91,4.13-.57Z"/>
    <path d="M15.29,7.45v10.82c0,1.43-3.62,1-3.8-.1-.12-.72.83-3.53.88-5.12.11-3.36-2.66-6.02,2.92-5.59Z"/>
    <path d="M68.44,7.45v10.82c0,1.28-2.99,1.29-2.99,0V7.45c0-.15,2.46.1,2.99,0Z"/>
  </g>
</svg>