<?xml version="1.0" encoding="UTF-8"?>
<svg id="Layer_1" data-name="Layer 1" xmlns="http://www.w3.org/2000/svg" viewBox="0 0 116.91 106.2">
  <defs>
    <style>
      .cls-1 {
        fill: #fff;
      }
    </style>
  </defs>
  <path class="cls-1" d="M113.07,81.62c.03.42,2.09,1.95-.37,1.86-1.46-3.76-7.47-4.98-7.91-8.52-.86-6.96.62-15.84.17-23.02l7.74-6.45c2.46-.12.36,1.52.36,1.86,0,11.05-.73,23.42,0,34.28Z"/>
  <g>
    <path d="M116.75,22.76l.16,83.21-116.75.23-.16-83.21,116.75-.23ZM113.16,26.61H3.15v38.25c2.07.43,1.82-2.61,2.84-4.28,14.99-24.68,52.91-6.83,42.64,22.49-6.31,18.04-30.63,21.57-41.74,6.17-1.57-2.18-1.76-4.83-3.75-6.37v19.12l69.59.37c-.5-1.29-1.81-1.17-2.88-2.72s-1.73-3.57-1.61-5.51c-4.85,2.14-9.36,4.29-14.49,1.4-9.29-5.26.7-23.93,4.37-30.67s8.47-12.86,12.36-19.48H4.65l-.56-11.66,1.68-1.1h105.89v12.75h-5.98c2.84,7.54,3.11,19.29,2.24,27.38-.39,3.63-1.94,5.34-3.76,8.24,7.75,3.5,6.76,16.03,1.51,21.38h8.23s-.75-75.74-.75-75.74ZM6.11,34.83v8.29h103.32v-8.29H6.11ZM72.26,78.1c.56.53,1.84,1.4,2.54,1.56,3.65.83,20.35.7,24.53.22,3.06-.35,5.23-2.28,5.99-5.24.87-3.38.83-18.29.37-22.16-.38-3.15-2.07-5.93-5.24-6.75-3.56-.93-19.46-.84-23.61-.38-3.6.4-6.45,2.76-7.06,6.43-.52,3.12-.46,20.17.31,22.87.18.63,1.65,2.98,2.16,3.46ZM48.46,73.99c0-12.28-9.93-22.23-22.18-22.23s-22.18,9.95-22.18,22.23,9.93,22.23,22.18,22.23,22.18-9.95,22.18-22.23ZM67.51,74.99c-1.08-5.41.8-14.07,0-19.87-1.32.2-1.29,1.51-1.7,2.42-3.99,9-12.94,31.5,2.44,33.57-.76-4.29,1.67-6.74,3.7-10.02-1.23-1.49-4.07-4.26-4.44-6.1ZM59.28,69.37c-1.93-.38-1.31.41-1.87,1.46-4.97,9.22-10.43,28.69,7.11,22.16-10.01-4.88-7.49-14.73-5.24-23.62ZM76.27,82.27c-7.27,1.64-8.21,14.91-1.97,18.16,4.05,2.11,16.91.92,22.02.6,2.54-.16,4.52.98,7.66-.74,4.47-2.45,4.57-14.43.16-17.02-1.28-.75-4-1.06-5.55-1.19-4.32-.37-18.61-.65-22.32.18Z"/>
    <path d="M35.33,80.61l-11.12-5.34.24-2.95c1.87-2.85,8.07,4.09,9.39,5.66.7.84,1.82,1.22,1.49,2.63Z"/>
    <path d="M19.39,58.26c5.42-1.63,5.72,3.15,4.01,7.02-5.71,3.03-8.45-5.69-4.01-7.02ZM22.61,64.11c-.06-1.08.19-2.31,0-3.37-1.03-5.51-8.03,3.96,0,3.37Z"/>
    <path d="M44.31,75.37c.28,3.92-2.09,6.2-2.61,9.74l-1.5-2.21,1.87-7.54h2.24Z"/>
    <path d="M30.09,58.12v6c.56.55,4.56-1.29,3.74,1.49h-5.24c-.07-.47-.49-10.1,1.5-7.49Z"/>
    <polygon points="11.03 79.25 13.35 85 11.08 85.92 8.76 80.17 11.03 79.25"/>
    <rect x="22.6" y="61.11" width="7.51" height="1.5" transform="translate(-35.52 88.19) rotate(-89.98)"/>
    <path d="M33.08,88.87c.63.5.85,3.42-1.11,2.99-2.31-.51-.25-4.07,1.11-2.99Z"/>
    <path d="M8.4,79.11v-2.99c2.98.02,2.94,2.99,0,2.99Z"/>
    <path d="M38.33,88.11v-2.99c2.98.02,2.94,2.99,0,2.99Z"/>
    <path d="M36.83,87.37v2.99c-2.98-.02-2.94-2.99,0-2.99Z"/>
    <path d="M18.87,88.12c.99.99-1.3,4.45-2.23,1.86-.79-2.21,1.67-2.43,2.23-1.86Z"/>
    <path d="M25.6,90.37v2.99c-2.98-.02-2.94-2.99,0-2.99Z"/>
    <path d="M29.34,90.37v2.99c-2.98-.02-2.94-2.99,0-2.99Z"/>
    <path d="M13.63,88.11c-.46-.5.35-2.97,1.12-2.98,2.23-.02.21,4.41-1.12,2.98Z"/>
    <polygon points="21.86 91.86 19.62 91.86 19.62 90.75 21.49 88.87 21.86 91.86"/>
    <path d="M72.75,97.11c-.71-1.86-.69-10.46.45-11.34l29.1-.67,1.13,12.01h-30.68ZM81.37,91.08c0-2.05-1.65-3.7-3.7-3.7s-3.7,1.66-3.7,3.7,1.65,3.7,3.7,3.7,3.7-1.66,3.7-3.7ZM90.91,91.11c0-2.07-1.67-3.74-3.73-3.74s-3.73,1.67-3.73,3.74,1.67,3.74,3.73,3.74,3.73-1.67,3.73-3.74ZM100.83,91.05c0-2.01-1.63-3.65-3.64-3.65s-3.64,1.63-3.64,3.65,1.63,3.65,3.64,3.65,3.64-1.63,3.64-3.65Z"/>
  </g>
  <g>
    <path d="M6.25,4.27l9.73.38c.69,5.19-8.35-1.05-6.74,5.62.72.76,7.25-1.68,5.98,1.87-.65,1.81-4.62-.25-5.98.38v6.01s-2.99,0-2.99,0V4.27Z"/>
    <path d="M37.68,14.01l-6,.37c-1.16.6-.21,1.74.4,1.88,1.68.41,4.58-2.37,4.85-.36.38,2.88-5.43,3.45-7.47,1.48-6.28-6.08,7.61-16.07,8.22-3.37ZM34.68,10.27c-1.85-.2-3.94-.05-3.73,2.24h3.74s0-2.24,0-2.24Z"/>
    <path d="M26.45,18.52l-7.49-.36c-2.62-1.28-1.14-7.54-1.49-10.15h2.24c.28,3.15-1.15,6.91,1.87,8.99,3.09-1.97,1.22-5.35,2.23-8.25l2.64-.73v10.5Z"/>
    <path d="M42.17,4.27v14.25l-2.27-.35c-1.5-1.01.04-3.02,0-4.54-.08-3.14-1.01-5.99.03-9.36h2.24Z"/>
  </g>
  <g>
    <path d="M89.52,15.04l-6.62.12c-1.42,5.21-4.92,6.22-9.84,4.37l4.88-.67,3.34-2.72c.58-1.59-1.73-1.01-2.16-2.32-.5-1.51.33-3.29.74-4.74l2.14-.02.88,3.63,5.15.08c.82-2.78-3.19-.94-3.74-1.49l.76-6c3.24-2.13,5.06,7.73,4.48,9.75Z"/>
    <path d="M104.49,15.04c-6.91-1.09-4.24,1.18-6.7,3.96-1.47,1.66-5.88,2.05-7.52.16,2.47-.67,5.74.25,7.15-2.63.92-1.88-1.86-2.27-1.9-4.09-.02-.84,1.19-3.24,1.87-3.4,2.22-.52,1.87,5.58,5.6,3.75L101.49.04c1.43-.23,2.02.59,2.24,1.87.27,1.59,1.22,12.66.76,13.13Z"/>
    <path d="M72.31,15.04h-6.74s.01-3,.01-3l5.98.75-2.99-7.49c4.32,1.07,3.9,6.24,3.74,9.75Z"/>
    <path d="M108.21,15.03h-1.48c1.37-4.37-.79-9.47,0-14.24.97-.21,1.2,1.39,1.3,2.05.31,2.08,1.42,11.14.17,12.19Z"/>
    <path d="M86.05,3.35c-.36.22-.16,1.68-1.38,1.18l-.39-2.64c2.94,1.29,1.96-2.88,4.48.02-.67.95-1.8.9-2.71,1.44Z"/>
  </g>
</svg>