<?xml version="1.0" encoding="UTF-8"?>
<svg id="Layer_1" data-name="Layer 1" xmlns="http://www.w3.org/2000/svg" viewBox="0 0 59.72 42">
  <defs>
    <style>
      .cls-1 {
        fill: #fff;
      }
    </style>
  </defs>
  <path d="M58.98,0v18H0V0h58.98ZM10.45.76L1.06,1.48c1.06,7.83-4.77,18.45,7.9,15.76l-5.99-7.87L10.45.76ZM25.38.76c-5.25-1.81-12.97,2.54-14.57,7.53-1.29,4.02,8.91,11.84,13.82,8.95-8.52-8.9-5.72-7.98.75-16.48ZM41.06.75c-4.56-2.63-14.77,4.31-15.34,8.26-.42,2.95,10.38,11.63,14.59,8.23,1.33-1.08-6.25-5.95-5.85-8.51.35-2.24,6.4-5.24,6.59-7.98ZM58.24.76c-4.65-2.34-14.86,3.43-16.1,7.5s10.76,12.25,15.35,8.98l-6.65-8.51,7.4-7.98Z"/>
  <path d="M40.32,24l-5.22.75c-1.25,1.01,6.09,5.95,5.95,8.64-.1,1.93-7.23,6.82-5.95,7.85.38.31,7.01.06,8.19-.39.85-.32,5.82-7.13,5.91-7.64.46-2.71-6.39-6.72-7.38-9.2,2.09.44,7.46-.64,8.96,0,.09.04-.75,1.12-.04,1.86,7.94,8.27,6.4,6.04.04,15.38l8.21-1.12v-14.25l-1.49-1.87,2.23,1.88-.74,16.12H1.12L0,24h40.32ZM11.73,25.73c-3.13-1.84-6.9-.69-10.23-.97l7.36,7.97-6.61,8.51c5.17,2.09,13.87-2.76,15.35-7.51.35-1.12-5.42-7.74-5.87-8.01ZM29.59,27.28c-3.96-3.2-5.86-2.74-10.92-2.52.43,2.51,6.5,5.99,6.53,7.96.04,2.84-7.01,7.53-5.78,8.52,4.04,3.26,15.54-4.93,13.82-9.72-.1-.26-3.36-4.01-3.65-4.24Z"/>
  <path class="cls-1" d="M25.38.76c-6.46,8.5-9.26,7.58-.75,16.48-4.91,2.9-15.11-4.93-13.82-8.95C12.42,3.3,20.14-1.05,25.38.76Z"/>
  <path class="cls-1" d="M29.59,27.28c.28.23,3.55,3.98,3.65,4.24,1.73,4.79-9.77,12.99-13.82,9.72-1.23-.99,5.82-5.68,5.78-8.52-.03-1.97-6.1-5.45-6.53-7.96,5.06-.22,6.96-.68,10.92,2.52Z"/>
</svg>