<?xml version="1.0" encoding="UTF-8"?>
<svg id="Layer_1" data-name="Layer 1" xmlns="http://www.w3.org/2000/svg" viewBox="0 0 116 82.71">
  <defs>
    <style>
      .cls-1 {
        fill: #fff;
      }
    </style>
  </defs>
  <path d="M0,0h116v82.71H0V0ZM113,2.98L2.99,3.73v36.51c3.78.87,4.89-3.38,7.68-4.64,1.25-.56,4.07-1.07,5.51-1.22,22.66-2.37,77.02,3.78,91.02-17.42,1.3-1.97,2.19-4.26,2.82-6.51h1.1c1.06.12-.37.94-.37,1.11v59.24c-1.73-1.09-1.67-4.06-2.69-5.89-3.11-5.56-15.03-13.9-20.98-16.37-9.11-3.79-19.67-3.61-29.27-5.17l-1.69.97v11.18c0,.29-1.53,3.51-1.9,4.06-4.32,6.35-10.99,2.44-17.28,4.4-8.62-1.9-19.22.62-27.55-.68-3.52-.55-4.02-3.27-6.4-5.17v20.49l110.01,1.12V2.98ZM107.76,57.75c-.73-10.86,0-23.23,0-34.28,0-.34,2.1-1.98-.36-1.86l-7.74,6.45c.45,7.18-1.03,16.07-.17,23.02.44,3.54,6.45,4.76,7.91,8.52,2.45.1.39-1.44.37-1.86ZM97.29,29.07c-4.52,1.13-8.76,3.2-13.3,4.35-3.55.9-10.23,1.89-14.77,2.35-16.05,1.61-32.68.5-48.63,1.5-2.44.15-8.01.42-9.36,2.22,24.69.11,49.81-.94,73.92,5.01l12.13,6.17c-1-6.89-1.4-14.79,0-21.6ZM5.99,45.45h42.28c.3,0,2.78,2,3.05,2.91,1.15,3.96.27,5.38-3.52,6.31-6.7,1.64-27.09,2.21-33.9,1.17-3.98-.61-6.75-3.46-4.91-7.4-6.8-1.64-3.05,10.72.53,11.76,11.89-.62,25.64,1.34,37.31.2,8.18-.8,6.63-11.31,6.32-17.19-8.18.33-16.19-.81-24.36-.78-2.62.01-6.5.06-8.95.18-2.93.15-8.9.17-11.21.62-1.2.23-2.27,1.04-2.64,2.22ZM48.61,49.22c-1.05-1.69-31.09-.44-35.87-.46-1.6,1.43-1.8,3.34.51,3.98,3.27.91,17.97.37,22.33.17s8.72-.97,13.06-1.51l-.03-2.19Z"/>
  <path class="cls-1" d="M113,2.98v76.75l-110.01-1.12v-20.49c2.38,1.9,2.88,4.62,6.4,5.17,8.33,1.31,18.93-1.22,27.55.68,6.28-1.96,12.95,1.95,17.28-4.4.38-.55,1.9-3.77,1.9-4.06v-11.18l1.69-.97c9.6,1.56,20.16,1.38,29.27,5.17,5.95,2.47,17.86,10.81,20.98,16.37,1.02,1.83.96,4.79,2.69,5.89V11.55c0-.17,1.42-1,.37-1.12h-1.1c-.63,2.26-1.52,4.56-2.82,6.52-13.99,21.2-68.36,15.05-91.02,17.42-1.44.15-4.26.66-5.51,1.22-2.8,1.26-3.9,5.51-7.68,4.64V3.73l110.01-.75Z"/>
  <path class="cls-1" d="M97.29,29.07c-1.4,6.8-1,14.71,0,21.6l-12.13-6.17c-24.11-5.95-49.23-4.91-73.92-5.01,1.35-1.81,6.93-2.07,9.36-2.22,15.95-1,32.58.11,48.63-1.5,4.54-.46,11.22-1.45,14.77-2.35,4.54-1.15,8.78-3.21,13.3-4.35Z"/>
  <path class="cls-1" d="M5.99,45.45c.37-1.17,1.44-1.98,2.64-2.22,2.3-.45,8.28-.47,11.21-.62,2.45-.12,6.32-.17,8.95-.18,8.17-.04,16.19,1.11,24.36.78.32,5.88,1.86,16.39-6.32,17.19-11.67,1.14-25.42-.82-37.31-.2-3.58-1.04-7.33-13.4-.53-11.76-1.84,3.94.94,6.79,4.91,7.4,6.81,1.04,27.21.47,33.9-1.17,3.79-.93,4.67-2.35,3.52-6.31-.27-.91-2.74-2.91-3.05-2.91H5.99Z"/>
  <path class="cls-1" d="M107.76,57.75c.03.42,2.09,1.95-.37,1.86-1.46-3.76-7.47-4.98-7.91-8.52-.86-6.96.62-15.84.17-23.02l7.74-6.45c2.46-.12.36,1.52.36,1.86,0,11.05-.73,23.42,0,34.28Z"/>
  <path class="cls-1" d="M48.61,49.22l.03,2.19c-4.35.54-8.69,1.31-13.06,1.51s-19.05.74-22.33-.17c-2.32-.65-2.11-2.55-.51-3.98,4.78.01,34.82-1.23,35.87.46Z"/>
</svg>