<?xml version="1.0" encoding="UTF-8"?>
<svg id="Layer_1" data-name="Layer 1" xmlns="http://www.w3.org/2000/svg" viewBox="0 0 117.34 84.34">
  <defs>
    <style>
      .cls-1 {
        fill: #fff;
      }
    </style>
  </defs>
  <path d="M116.79,0l.55,83.58-116.79.77L0,.77l116.79-.77ZM113.79,3.76H3.54v15.75c20.42-5.24,43.63-9.45,64.15-2.28,7.88,2.75,15.8,8.72,23.61,11.64,7.27,2.72,15.37,3.15,22.48,6.39V3.76ZM77.79,25.5c-13.25-10.14-32.64-10.29-48.75-8.99l3.43,14.21,45.32-5.22ZM29.04,30.76c.58-3.41-.27-13.62-4.76-13.47-1.23.04-7.65,1.51-8.37,2.21-2.71,2.63-2.82,12.1-2.61,15.75l4.43-.02c1.24-6.26,6.39-5.34,11.31-4.48ZM11.05,34.51l1.49-15c-6.97,1.75-8.26,1.89-8.99,9.38-.18,1.86.08,3.77-.01,5.63h7.51ZM104.04,34.52c-4.55-.54-9.2-1.91-13.53-3.36-2.06-.69-5.74-3.26-7.14-3.38-6.55-.58-26.91,3.55-35.24,4.45-1.28.14-2.47-.14-3.34,1.16,5.48.45,13.2,4.29,18.41,4.16,2.13-.06,2.91-1.72,4.61-2.13,3.87-.92,6.35-.17,8.93,2.67,7.5-1.54,17.33.08,24.65-1.34,1.2-.23,2.26-1.05,2.64-2.23ZM37.67,33.76c-4.96-.63-11.03.46-16.12,0-.1,1.76-.26,1.33,1.11,1.5,4.48.57,9.1-.75,13.43,2.33,2.43,1.73,3.08,8.09,3.89,8.17,7.24-1.72,15.01-.19,22.53-.85,1.12-.1,1.7.28,2.52-1.03l-3.27-4.21c-7.64-.68-16.88-5-24.09-5.91ZM106.85,36.16c-2.87.61-3.88,2.91-1.74,5.17,3.38,1.84,10.05.77,7.21-4.21-1.66-1.15-3.5-1.37-5.46-.95ZM3.54,47.26l33.04,1.16c1.31-5.57-.81-9.46-6.75-10.57l-26.28-1.09v10.5ZM68.6,37.66c-2.87.61-3.88,2.91-1.74,5.17,3.38,1.84,10.05.77,7.21-4.21-1.66-1.15-3.5-1.37-5.46-.95ZM113.8,45.01l-59.99,3.37c.82.53,1.14,1.94,1.72,2.43,1.63,1.38,14.71-.47,18.11-.56,13.41-.32,26.78-.29,40.16-.73v-4.51ZM43.09,48.18c-12.45,2.54-5.74,25,6.47,17.71,9.03-5.4,4.53-19.96-6.47-17.71ZM34.29,51.01l-30.74-1.51v9.75s28.9-.19,28.9-.19c1.54-.28,1.18-6.39,1.84-8.06ZM113.04,55.51l.03-3.4c-4.51-1.36-9.18.84-13.53-.34.04,1.06-.19,2.26.09,3.28.51,1.86,1.62.47,1.78.47h11.62ZM96.55,52.51l-24.01.75c-.02,1.15-.37,4.05,1.1,4.31l22.91-1.31v-3.76ZM69.54,53.26h-11.62l-.94,1.09.57,4.16c.58.16.9-.75,1.12-.75h10.87v-4.5ZM110.04,58.52l-9.74,1.11c2.99,2.83,7.39,2.16,9.74-1.11ZM95.63,59.45l-38.33,2.19-4.25,5.87,60.75-.74v-6.75c-5.58,5.24-9.85,6.05-16.34,1.7-1.06-.71-1.55-2.09-1.83-2.26ZM34.29,61.51H3.54v6.75s33.75,0,33.75,0l-3-6.75ZM113.79,69.76l-110.25,1.5v9h110.25v-10.5Z"/>
  <path class="cls-1" d="M113.79,3.76v31.5c-7.12-3.24-15.21-3.68-22.48-6.39-7.81-2.92-15.73-8.88-23.61-11.64-20.52-7.17-43.74-2.96-64.15,2.28V3.76h110.25Z"/>
  <polygon class="cls-1" points="113.79 69.76 113.79 80.26 3.54 80.26 3.54 71.26 113.79 69.76"/>
  <path class="cls-1" d="M77.79,25.5l-45.32,5.22-3.43-14.21c16.1-1.3,35.49-1.15,48.75,8.99Z"/>
  <path class="cls-1" d="M95.63,59.45c.28.16.77,1.55,1.83,2.26,6.49,4.36,10.76,3.54,16.33-1.7v6.75s-60.74.74-60.74.74l4.25-5.87,38.33-2.19Z"/>
  <path class="cls-1" d="M3.54,47.26v-10.5l26.28,1.09c5.94,1.11,8.06,5,6.75,10.57l-33.04-1.16Z"/>
  <path class="cls-1" d="M104.04,34.52c-.38,1.17-1.44,1.99-2.64,2.23-7.32,1.42-17.15-.2-24.65,1.34-2.59-2.84-5.07-3.59-8.93-2.67-1.7.41-2.48,2.07-4.61,2.13-5.21.13-12.93-3.71-18.41-4.16.87-1.3,2.06-1.02,3.34-1.16,8.33-.9,28.7-5.03,35.24-4.45,1.39.12,5.08,2.69,7.14,3.38,4.32,1.45,8.98,2.82,13.53,3.36Z"/>
  <path class="cls-1" d="M43.09,48.18c11-2.25,15.5,12.31,6.47,17.71-12.21,7.29-18.92-15.17-6.47-17.71Z"/>
  <path class="cls-1" d="M34.29,51.01c-.66,1.67-.3,7.78-1.84,8.06l-28.91.19v-9.75s30.75,1.51,30.75,1.51Z"/>
  <path class="cls-1" d="M113.8,45.01v4.51c-13.39.44-26.76.41-40.16.73-3.4.08-16.48,1.93-18.11.56-.58-.49-.9-1.9-1.72-2.43l59.99-3.37Z"/>
  <path class="cls-1" d="M37.67,33.76c7.2.91,16.45,5.24,24.09,5.91l3.27,4.21c-.81,1.31-1.39.93-2.52,1.03-7.53.66-15.3-.86-22.53.85-.82-.08-1.47-6.44-3.89-8.17-4.33-3.08-8.95-1.76-13.43-2.33-1.37-.18-1.21.26-1.11-1.5,5.1.46,11.16-.63,16.12,0Z"/>
  <polygon class="cls-1" points="34.29 61.51 37.29 68.26 3.54 68.26 3.54 61.51 34.29 61.51"/>
  <path class="cls-1" d="M29.04,30.76c-4.92-.86-10.07-1.78-11.31,4.48l-4.43.02c-.21-3.65-.1-13.12,2.61-15.75.72-.7,7.14-2.17,8.37-2.21,4.49-.15,5.34,10.06,4.76,13.47Z"/>
  <path class="cls-1" d="M11.05,34.51H3.54c.09-1.86-.17-3.77.01-5.63.72-7.49,2.01-7.63,8.99-9.38l-1.49,15Z"/>
  <path class="cls-1" d="M96.55,52.51v3.76s-22.91,1.31-22.91,1.31c-1.46-.26-1.11-3.16-1.1-4.31l24.01-.75Z"/>
  <path class="cls-1" d="M69.54,53.26v4.5h-10.87c-.22,0-.54.91-1.12.75l-.57-4.16.94-1.09h11.62Z"/>
  <path class="cls-1" d="M113.04,55.51h-11.62c-.17,0-1.28,1.4-1.78-.47-.28-1.02-.05-2.22-.09-3.28,4.35,1.18,9.01-1.02,13.53.34l-.03,3.4Z"/>
  <path class="cls-1" d="M106.85,36.16c1.96-.42,3.8-.2,5.46.95,2.84,4.99-3.83,6.05-7.21,4.21-2.14-2.26-1.12-4.55,1.74-5.17Z"/>
  <path class="cls-1" d="M68.6,37.66c1.96-.42,3.8-.2,5.46.95,2.84,4.99-3.83,6.05-7.21,4.21-2.14-2.26-1.12-4.55,1.74-5.17Z"/>
  <path class="cls-1" d="M110.04,58.52c-2.36,3.26-6.76,3.94-9.74,1.11l9.74-1.11Z"/>
</svg>