<?xml version="1.0" encoding="UTF-8"?>
<svg id="Layer_1" data-name="Layer 1" xmlns="http://www.w3.org/2000/svg" viewBox="0 0 116 82.71">
  <defs>
    <style>
      .cls-1 {
        fill: #fff;
      }
    </style>
  </defs>
  <path class="cls-1" d="M107.77,57.75c.03.42,2.09,1.95-.37,1.86-1.46-3.76-7.47-4.98-7.91-8.52-.86-6.96.62-15.84.17-23.02l7.74-6.45c2.46-.12.36,1.52.36,1.86,0,11.05-.73,23.42,0,34.28Z"/>
  <g>
    <path d="M116,0v82.71H0V0h116ZM113.01,2.91H2.66s0,76.86,0,76.86h110.34s0-76.86,0-76.86Z"/>
    <path class="cls-1" d="M113.01,2.91v76.85s-110.34,0-110.34,0V2.92s110.34,0,110.34,0ZM80.45,61.1c-16.83-.32-33.7.24-50.52,0l-1.13-8.95c-2.74,1.11-5.47,2.28-8.41,2.8-3.39.6-10.72-1.13-6.45,4.6,4.63-.16,12.32-3.22,15.25,1.55H9.73l.43,2.99,93.52.02-.9-2.89-6.98-.48c1.68-4.57,6.05-2.66,8.98-5.96,8.16-9.2-7.39-11.86-12.01-17.13-2.72-3.1-3.94-8.39-7.07-10.85-3.89-3.05-27.05-8.44-32.23-8.21-6.56.29-9.11,4.61-14.93,5.25-7.54.82-20.73-5.03-24.91-3.23-.85.36-4.07,6.5-4.33,7.65-1.83,7.85,2.75,7.43,8.65,9.78-4.01,13.17,15.47,18.1,16.48,3.68,2.24.55,7.03,1.12,7.49,3.35,1.56,7.6-4.91,4.9-5.89,8.36-1.18,4.18,5.51,4.79,8.46,4.71,3.3-.09,9.31-2.49,11.98-2.23,1.66.16,3.59,2.47,5.64,2.21-.05-5.84-6.38-4.4-9.94-5.37-2.08-.57-3.52-2.75-6.39-2.2-.97-1.65-1.68-5.03.94-5.08l32.58,10.07,3,5.2c-1.18,1.85-1.54.37-1.85.37Z"/>
    <path d="M80.45,61.1c.31,0,.68,1.48,1.85-.37l-3-5.2-32.58-10.07c-2.62.05-1.91,3.44-.94,5.08,2.87-.55,4.31,1.63,6.39,2.2,3.56.97,9.89-.47,9.94,5.37-2.05.26-3.98-2.05-5.64-2.21-2.67-.26-8.68,2.14-11.98,2.23-2.96.08-9.64-.53-8.46-4.71.98-3.46,7.46-.76,5.89-8.36-.46-2.22-5.25-2.8-7.49-3.35-1.01,14.42-20.49,9.49-16.48-3.68-5.89-2.35-10.48-1.93-8.65-9.78.27-1.14,3.49-7.28,4.33-7.65,4.18-1.8,17.37,4.05,24.91,3.23,5.82-.63,8.37-4.96,14.93-5.25,5.18-.23,28.34,5.16,32.23,8.21,3.13,2.45,4.35,7.74,7.07,10.85,4.62,5.27,20.17,7.93,12.01,17.13-2.94,3.31-7.3,1.39-8.98,5.96l6.98.48.9,2.89-93.52-.02-.43-2.99h19.46c-2.92-4.77-10.62-1.71-15.25-1.55-4.28-5.73,3.06-4,6.45-4.6,2.95-.52,5.67-1.69,8.41-2.8l1.13,8.95c16.82.24,33.69-.32,50.52,0ZM98.05,55.14c2.88.56,7.86-3.98,6.4-6.7-3.66-3.5-9.58-5.08-13.16-8.55s-3.68-8.84-8.43-11.73-26.58-8.08-31.82-6.78c-2.81.69-4.73,3-7.62,3.22-.3,1.91.17,1.15,1.05,1.55,5.88,2.66,13.41,4.22,19.52,6.65.35-.04,1.77-5.63,2.29-6.73s-.12-1.85,1.84-1.48l-1.94,8.97c4.95.92,12.02,5.37,16.56,5.92,3.17.38-1.52-5.07,1.46-5.2,1.99,1.43.58,5.1,2.05,6.53.94.91,6.43,1.2,6.55,2.78.19,2.39-6.53-2.07-7.46-1.12l-.75,4.47c6.69-3.55,13.09.88,13.47,8.2ZM62.87,35.01c-.21-1.29-1.49-1.3-2.41-1.69-5.32-2.26-11.72-3.97-17.25-5.93s-6.76-.82-12.8-1.41c-4.12-.4-11.46-3.69-14.37-3.6-1.99.06-6.41,8.56-4.07,10.8.35.34,5.93,2.58,6.4,2.57,1.42-.02,2.62-2.3,4.41-3.02,5.55-2.23,9.89,1.12,12.04,6.01l.27-8.46-3.64-1.22,1.11-2.15,21.34,5.89c.03,1.28.41,1.6-1.06,1.44-2.71-.3-14.92-4.72-16.14-3.68.86,2.75,1.07,4.99.09,7.76l22,7.87c1.64.21.85-.26,1.17-1.05,1.11-2.75,1.55-5.94,2.93-8.62-.45-.58-5.82-.17-5.24-2.99l5.23,1.48ZM25.24,35.14c-6.59,1-6.86,13.82,2.67,11.65,6.36-1.45,3.74-12.62-2.67-11.65ZM80.82,52.91c.87-3.73,3.66-7.08,2.68-11.21-.43-.62-12.96-5.02-14.29-5.18-1.95-.24-.56.82-.36,1.48l-4.53-.44-2.97,9.38,19.45,5.97ZM86.59,49.32c-4.67,1.43-3.75,12.97,3.42,11.66s5.91-14.51-3.42-11.66ZM37.46,55.83c14.21,4.01,15.61-5.84.4-2.25l-.4,2.25ZM28.44,54.39c-2.33-.37-4.26,1.12-6.42,1.43-2.65.38-7.69-1.28-7.8,2.29,4.95.6,9.42-1.83,14.21,0v-3.72Z"/>
    <path class="cls-1" d="M62.87,35.01l-5.23-1.48c-.58,2.82,4.79,2.41,5.24,2.99-1.38,2.68-1.82,5.88-2.93,8.62-.32.79.47,1.26-1.17,1.05l-22-7.87c.98-2.77.76-5.02-.09-7.76,1.23-1.04,13.43,3.38,16.14,3.68,1.48.16,1.1-.15,1.06-1.44l-21.34-5.89-1.11,2.15,3.64,1.22-.27,8.46c-2.15-4.89-6.49-8.24-12.04-6.01-1.79.72-2.99,3-4.41,3.02-.48,0-6.05-2.23-6.4-2.57-2.33-2.24,2.08-10.74,4.07-10.8,2.92-.08,10.25,3.2,14.37,3.6,6.04.59,7.06-.62,12.8,1.41s11.93,3.67,17.25,5.93c.92.39,2.21.4,2.41,1.69Z"/>
    <path class="cls-1" d="M98.05,55.14c-.38-7.32-6.78-11.75-13.47-8.2l.75-4.47c.93-.95,7.65,3.51,7.46,1.12-.12-1.58-5.61-1.86-6.55-2.78-1.47-1.43-.06-5.1-2.05-6.53-2.98.13,1.71,5.58-1.46,5.2-4.55-.55-11.61-5-16.56-5.92l1.94-8.97c-1.96-.36-1.31.38-1.84,1.48s-1.94,6.69-2.29,6.73c-6.1-2.43-13.64-3.99-19.52-6.65-.88-.4-1.35.35-1.05-1.55,2.89-.22,4.81-2.53,7.62-3.22,5.25-1.3,26.95,3.82,31.82,6.78s4.72,8.14,8.43,11.73,9.5,5.05,13.16,8.55c1.46,2.72-3.52,7.27-6.4,6.7Z"/>
    <path class="cls-1" d="M80.82,52.91l-19.45-5.97,2.97-9.38,4.53.44c-.2-.66-1.6-1.73.36-1.48,1.32.17,13.85,4.56,14.29,5.18.98,4.13-1.81,7.48-2.68,11.21Z"/>
    <path class="cls-1" d="M86.59,49.32c9.33-2.85,10.92,10.3,3.42,11.66s-8.09-10.24-3.42-11.66Z"/>
    <path class="cls-1" d="M25.24,35.14c6.4-.98,9.03,10.19,2.67,11.65-9.53,2.18-9.25-10.64-2.67-11.65Z"/>
    <path class="cls-1" d="M37.46,55.83l.4-2.25c15.22-3.59,13.81,6.26-.4,2.25Z"/>
    <path class="cls-1" d="M28.44,54.39v3.72c-4.8-1.83-9.26.59-14.21,0,.1-3.57,5.14-1.91,7.8-2.29,2.16-.31,4.09-1.8,6.42-1.43Z"/>
  </g>
</svg>