<?xml version="1.0" encoding="UTF-8"?>
<svg id="Layer_1" data-name="Layer 1" xmlns="http://www.w3.org/2000/svg" viewBox="0 0 96.79 69.12">
  <path d="M96.79,0v69.12H0V0h96.79ZM42.75,3.05H2.25l.76,63.75c.27.37.96-.75,1.12-.75h29.62c-.06-1.23-1.91-7.91-2.26-8.25-1.16-1.12-1.29.38-1.67.96-1.11,1.72-1.52,4.31-3.2,5.78l-1.13-7.5-4.12,4.5.37-5.99-6.74,3.74,2.24-8.24-7.5.74,4.5-6.73-8.25.74c2.45-3.3,6.91-4.98,10.5-6.75-.6-1.93-2.9-1.49-4.49-1.49l2.99-4.49-9.74-3,12.75-2.27-3.75-4.49,4.49-.38-6.75-5.62,10.5.74v-6.74s6.75,1.49,6.75,1.49v-6.75s4.13,3.75,4.13,3.75l-1.5-3.75c2.02.84,8.17,5.54,10.08,3.72.24-.23.8-5.68.79-6.71ZM93.75,3.05h-48.75c.29,1.07-.06,5.47.35,5.98,2.7,3.32,2.53-1.22,2.72-1.38,2.65-2.33,3.63,2.22,2.92,4.4h3.76s0-4.51,0-4.51h3.76c.57,1.61-.81,3.69-.77,4.82.02.49,1.39.06,1.58,1.5,1.25,9.31-1.07,21.54-.06,31.18-1.51-.14-4.8.55-5.68-.71-.42-.6-.66-8.74-.33-9.05.38-.36,4.84.9,5.25-1.49-.69-.2-5.25.25-5.25,0v-17.25h-1.5v28.5c-4.69-1.53-9.45.12-14.25-.76.03,1.36-.16,5.9-.82,6.71-.5.62-6.31-2.41-5.56,1.56-.87,0-.84-7.96-1.12-8.26s-6.92.23-8.26,0c.24-1.45-.34-8.62.03-8.98.35-.33,2.98.6,3.62-1.25.71-2.07-.41-5.77.12-8.01.14-.61,1.36-.2,1.54-1.59.2-1.5-.39-8.35-.06-8.68,1.18.23,4.59-.41,5.16.11.38.34-.14,2.31,1.33,2.84,1.01.36,5.42-.62,7.02.06v-6.75c-1.57-.83-3.7,1.33-4.14,1.33s-5.09-4.69-6.35-5.07v6s-6.75-1.49-6.75-1.49v6.75s-7.5-1.5-7.5-1.5c-1.33,1.33,6.42,4.94,6.74,6.38-1.1,1.46-5.04-.56-5.24-.38-1.41,1.29,3.29,2.48,2.99,3.74l-10.49,2.27,7.48,3.37-2.98,3.37,5.25.77-9.74,6c.99,1.73,5.01.27,6.74.75l-4.5,5.98,6.75-.74-2.24,7.49,5.99-3.75v4.5s3.75-3,3.75-3l1.13,6,4.12-5.99c.76,2.11.92,5.57,3,6.75l.76-6,5.24,2.99c.17-2.22.3-5.03,1.88-6.74l3,8.24,1.88-7.49,2.98,5.24c-.12-.8,2.57-6.58,3.76-5.24.59.67-3.91,6.62-4.88,7.49l-1.13-3.74c-1.3-.99-2.08,6.53-2.25,7.5-2.61-1.37-1.21-5.59-3.37-7.5l-1.13,4.49-5.24-2.99-1.5,8.25h59.25V3.05ZM31.5,29.3c-.44-.51.32-10.9,0-12.75-1.74.58-1.44,4.02-1.49,5.57-.13,4.13-.65,17.98.15,20.89.17.61.65,1.28,1.33,1.29v-4.5c.9.47,2.76-.03,3.29.18,2.28.88-.1,4.13,2.71,3.57v-8.25h13.5c.59-2.92-3.82-1.02-5.5-1.03-2.61-.01-5.1-1.12-8,.28v-15c-1.76-.1-1.33-.25-1.5,1.11-.74,5.74.3,12.57,0,18.39h-4.51c.23-1.34-.3-7.97,0-8.26.22-.21,2.29.15,3.01,0-.09-1.67-2.87-1.34-3-1.49Z"/>
  <path d="M67.5,17.3c4.91,1.73,13.83,4.01,14.96,10.16.28,1.54-.29,7.47.07,7.81s3.07-.54,3.64,1.26c.22.71-1.04,11.08-1.46,11.48-.22.22-5.48.19-6.24-.06-2.19-.74-.08-4.97-5.44-5.08-3.74-.07-2.67,2.29-5.54,2.93v-28.5ZM80.25,27.8h-9c.66,1.6-.19,8.04,1.14,8.24,2.74-1.17,5.1-.79,7.85.02v-8.25Z"/>
  <path d="M60.75,12.8c.09-.13,2.87-.89,3-.75-1.3,4.51,1.5,4.22,1.5,4.5v28.5h-4.5c.81-4.28-1.06-30.67,0-32.25ZM64.5,33.81h-2.24v1.49h2.24v-1.49Z"/>
  <path d="M69.93,51.62c-4.41-4.41,4.83-11.46,6.44-3.77.99,4.73-4.03,6.18-6.44,3.77Z"/>
</svg>