<?xml version="1.0" encoding="UTF-8"?>
<svg id="Layer_1" data-name="Layer 1" xmlns="http://www.w3.org/2000/svg" viewBox="0 0 68.01 69.37">
  <defs>
    <style>
      .cls-1 {
        fill: #e7cfe4;
      }

      .cls-2 {
        fill: #c3aac9;
      }

      .cls-3 {
        fill: #7a6681;
      }

      .cls-4 {
        fill: #b093b3;
      }

      .cls-5 {
        fill: #373339;
      }

      .cls-6 {
        fill: #edd0e4;
      }

      .cls-7 {
        fill: #e3d0e1;
      }

      .cls-8 {
        fill: #a790a9;
      }

      .cls-9 {
        fill: #c6b3ca;
      }

      .cls-10 {
        fill: #3d2f40;
      }

      .cls-11 {
        fill: #a48aac;
      }

      .cls-12 {
        fill: #f3deec;
      }

      .cls-13 {
        fill: #ab92ae;
      }

      .cls-14 {
        fill: #cdb3d0;
      }

      .cls-15 {
        fill: #b599bc;
      }

      .cls-16 {
        fill: #ddc5df;
      }

      .cls-17 {
        fill: #72607a;
      }

      .cls-18 {
        fill: #c9b1c8;
      }

      .cls-19 {
        fill: #dabcda;
      }

      .cls-20 {
        fill: #9a7c9d;
      }

      .cls-21 {
        fill: #a18aa1;
      }

      .cls-22 {
        fill: #e9d1e6;
      }

      .cls-23 {
        fill: #836685;
      }

      .cls-24 {
        fill: #171516;
      }

      .cls-25 {
        fill: #d4bcd6;
      }

      .cls-26 {
        fill: #bea0bb;
      }

      .cls-27 {
        fill: #b29ab4;
      }

      .cls-28 {
        fill: #ab95af;
      }

      .cls-29 {
        fill: #b39ab6;
      }

      .cls-30 {
        fill: #c7aace;
      }

      .cls-31 {
        fill: #3b363f;
      }

      .cls-32 {
        fill: #f0d7e8;
      }

      .cls-33 {
        fill: #bda2c1;
      }

      .cls-34 {
        fill: #ccb1d0;
      }

      .cls-35 {
        fill: #c7a7c9;
      }

      .cls-36 {
        fill: #d4bbd9;
      }

      .cls-37 {
        fill: #b69cb9;
      }

      .cls-38 {
        fill: #aa97ad;
      }

      .cls-39 {
        fill: #ebd3e6;
      }

      .cls-40 {
        fill: #9a8ca0;
      }

      .cls-41 {
        fill: #f5e0ed;
      }

      .cls-42 {
        fill: #dbbad9;
      }

      .cls-43 {
        fill: #bba0bb;
      }

      .cls-44 {
        fill: #806781;
      }

      .cls-45 {
        fill: #b99fbd;
      }

      .cls-46 {
        fill: #f2ddec;
      }

      .cls-47 {
        fill: #f2edf1;
      }

      .cls-48 {
        fill: #a992ad;
      }

      .cls-49 {
        fill: #453548;
      }

      .cls-50 {
        fill: #dbbbd9;
      }

      .cls-51 {
        fill: #a18ba5;
      }

      .cls-52 {
        fill: #e9d8ea;
      }

      .cls-53 {
        fill: #7e6987;
      }

      .cls-54 {
        fill: #907b93;
      }

      .cls-55 {
        fill: #d1b6d5;
      }

      .cls-56 {
        fill: #907a95;
      }

      .cls-57 {
        fill: #c2aac6;
      }

      .cls-58 {
        fill: #856c8c;
      }

      .cls-59 {
        fill: #8d7a90;
      }

      .cls-60 {
        fill: #ceb8d3;
      }

      .cls-61 {
        fill: #f2daea;
      }

      .cls-62 {
        fill: #7c6684;
      }

      .cls-63 {
        fill: #bfa1c1;
      }

      .cls-64 {
        fill: #ab92b4;
      }

      .cls-65 {
        fill: #e0cae1;
      }

      .cls-66 {
        fill: #9c8aa6;
      }

      .cls-67 {
        fill: #dcc0dd;
      }

      .cls-68 {
        fill: #f6e5f0;
      }

      .cls-69 {
        fill: #dfc8e1;
      }

      .cls-70 {
        fill: #dec7e0;
      }

      .cls-71 {
        fill: #a58aaa;
      }

      .cls-72 {
        fill: #977a9c;
      }

      .cls-73 {
        fill: #f3ddec;
      }

      .cls-74 {
        fill: #9e8da0;
      }

      .cls-75 {
        fill: #8e738e;
      }

      .cls-76 {
        fill: #a28ea2;
      }

      .cls-77 {
        fill: #d7bcdb;
      }

      .cls-78 {
        fill: #efd5e7;
      }

      .cls-79 {
        fill: #9b82a3;
      }

      .cls-80 {
        fill: #f0d7e9;
      }

      .cls-81 {
        fill: #e3cae2;
      }

      .cls-82 {
        fill: #f1dceb;
      }

      .cls-83 {
        fill: #cfb5d4;
      }

      .cls-84 {
        fill: #897791;
      }

      .cls-85 {
        fill: #f2e3f0;
      }

      .cls-86 {
        fill: #766577;
      }

      .cls-87 {
        fill: #9d88a1;
      }

      .cls-88 {
        fill: #cbb3cf;
      }

      .cls-89 {
        fill: #cbadcf;
      }

      .cls-90 {
        fill: #faebf3;
      }

      .cls-91 {
        fill: #9d89a2;
      }

      .cls-92 {
        fill: #a68ba8;
      }

      .cls-93 {
        fill: #eacfe4;
      }

      .cls-94 {
        fill: #b29bb2;
      }

      .cls-95 {
        fill: #dcc3de;
      }

      .cls-96 {
        fill: #efe4ee;
      }

      .cls-97 {
        fill: #bda4c2;
      }

      .cls-98 {
        fill: #b296b9;
      }

      .cls-99 {
        fill: #ab8daf;
      }

      .cls-100 {
        fill: #c0a5c5;
      }

      .cls-101 {
        fill: #b69db8;
      }

      .cls-102 {
        fill: #5a415b;
      }

      .cls-103 {
        fill: #8e7591;
      }

      .cls-104 {
        fill: #f0d8e9;
      }

      .cls-105 {
        fill: #efd7e8;
      }

      .cls-106 {
        fill: #e1c9e2;
      }

      .cls-107 {
        fill: #b797ba;
      }

      .cls-108 {
        fill: #a090a7;
      }

      .cls-109 {
        fill: #191c19;
      }

      .cls-110 {
        fill: #e0c5df;
      }

      .cls-111 {
        fill: #dbc3df;
      }

      .cls-112 {
        fill: #fbebf3;
      }

      .cls-113 {
        fill: #5e465f;
      }

      .cls-114 {
        fill: #1c191b;
      }

      .cls-115 {
        fill: #efe5ee;
      }

      .cls-116 {
        fill: #ddc2de;
      }

      .cls-117 {
        fill: #545253;
      }

      .cls-118 {
        fill: #e9d2e6;
      }

      .cls-119 {
        fill: #dac2de;
      }

      .cls-120 {
        fill: #f3e3f0;
      }

      .cls-121 {
        fill: #c5acca;
      }

      .cls-122 {
        fill: #755d7a;
      }

      .cls-123 {
        fill: #8f8092;
      }

      .cls-124 {
        fill: #c5aac8;
      }

      .cls-125 {
        fill: #e8cbe2;
      }

      .cls-126 {
        fill: #74607d;
      }

      .cls-127 {
        fill: #5a4061;
      }

      .cls-128 {
        fill: #dec9e0;
      }

      .cls-129 {
        fill: #836f88;
      }

      .cls-130 {
        fill: #846886;
      }

      .cls-131 {
        fill: #8b768c;
      }

      .cls-132 {
        fill: #c2a8c7;
      }

      .cls-133 {
        fill: #958094;
      }

      .cls-134 {
        fill: #7a6580;
      }

      .cls-135 {
        fill: #ccb2ce;
      }

      .cls-136 {
        fill: #e8d3e7;
      }

      .cls-137 {
        fill: #c2a1c6;
      }

      .cls-138 {
        fill: #9d86a4;
      }

      .cls-139 {
        fill: #8c6e90;
      }

      .cls-140 {
        fill: #ecd7e9;
      }

      .cls-141 {
        fill: #a993b1;
      }

      .cls-142 {
        fill: #c3a5c6;
      }

      .cls-143 {
        fill: #e6d3e7;
      }

      .cls-144 {
        fill: #ebd2e6;
      }

      .cls-145 {
        fill: #c4aacc;
      }

      .cls-146 {
        fill: #514357;
      }

      .cls-147 {
        fill: #a081b0;
      }

      .cls-148 {
        fill: #e3c9e1;
      }

      .cls-149 {
        fill: #bba8bc;
      }

      .cls-150 {
        fill: #1a101c;
      }

      .cls-151 {
        fill: #bea5bc;
      }

      .cls-152 {
        fill: #eed6e8;
      }

      .cls-153 {
        fill: #9c869d;
      }

      .cls-154 {
        fill: #867086;
      }

      .cls-155 {
        fill: #ceb5d5;
      }

      .cls-156 {
        fill: #927a99;
      }

      .cls-157 {
        fill: #e6cce3;
      }

      .cls-158 {
        fill: #bfa3c2;
      }

      .cls-159 {
        fill: #95809a;
      }

      .cls-160 {
        fill: #a48aaa;
      }

      .cls-161 {
        fill: #a189a2;
      }

      .cls-162 {
        fill: #ac94ac;
      }

      .cls-163 {
        fill: #ba9bbd;
      }

      .cls-164 {
        fill: #e0c2dd;
      }

      .cls-165 {
        fill: #a289a2;
      }

      .cls-166 {
        fill: #b59bb7;
      }

      .cls-167 {
        fill: #bfa0c0;
      }

      .cls-168 {
        fill: #faf0f7;
      }

      .cls-169 {
        fill: #eedfee;
      }

      .cls-170 {
        fill: #e2d7e3;
      }

      .cls-171 {
        fill: #a686a7;
      }

      .cls-172 {
        fill: #bca5c0;
      }

      .cls-173 {
        fill: #f8e7f1;
      }

      .cls-174 {
        fill: #c9b0cd;
      }

      .cls-175 {
        fill: #f0d6e7;
      }

      .cls-176 {
        fill: #e7cde3;
      }

      .cls-177 {
        fill: #f4deec;
      }

      .cls-178 {
        fill: #7d637e;
      }

      .cls-179 {
        fill: #f2deec;
      }

      .cls-180 {
        fill: #b199b5;
      }

      .cls-181 {
        fill: #f9f7fb;
      }

      .cls-182 {
        fill: #d1b7d3;
      }

      .cls-183 {
        fill: #c2a9ca;
      }

      .cls-184 {
        fill: #846b8d;
      }

      .cls-185 {
        fill: #a896aa;
      }

      .cls-186 {
        fill: #e4cee5;
      }

      .cls-187 {
        fill: #9983a4;
      }

      .cls-188 {
        fill: #a892aa;
      }

      .cls-189 {
        fill: #775e7f;
      }

      .cls-190 {
        fill: #c8b6ce;
      }

      .cls-191 {
        fill: #745d78;
      }

      .cls-192 {
        fill: #e8d0e5;
      }

      .cls-193 {
        fill: #8c788f;
      }

      .cls-194 {
        fill: #876f89;
      }

      .cls-195 {
        fill: #bba4be;
      }

      .cls-196 {
        fill: #867188;
      }

      .cls-197 {
        fill: #e6d2e4;
      }

      .cls-198 {
        fill: #836b8c;
      }

      .cls-199 {
        fill: #a38aac;
      }

      .cls-200 {
        fill: #b29cb5;
      }

      .cls-201 {
        fill: #f6e4ef;
      }

      .cls-202 {
        fill: #f1d9ea;
      }

      .cls-203 {
        fill: #d9c2dc;
      }

      .cls-204 {
        fill: #ab8cad;
      }

      .cls-205 {
        fill: #e2c7e0;
      }

      .cls-206 {
        fill: #c4a6c5;
      }

      .cls-207 {
        fill: #7a6286;
      }

      .cls-208 {
        fill: #b390b5;
      }

      .cls-209 {
        fill: #faeff6;
      }

      .cls-210 {
        fill: #e6cde4;
      }

      .cls-211 {
        fill: #d6b7d8;
      }

      .cls-212 {
        fill: #d8bfdc;
      }

      .cls-213 {
        fill: #f6e3ef;
      }

      .cls-214 {
        fill: #e6d1e6;
      }

      .cls-215 {
        fill: #dac3df;
      }

      .cls-216 {
        fill: #eddded;
      }

      .cls-217 {
        fill: #c8aacb;
      }

      .cls-218 {
        fill: #b29dbb;
      }

      .cls-219 {
        fill: #b49eba;
      }

      .cls-220 {
        fill: #d9c4e0;
      }
    </style>
  </defs>
  <path class="cls-181" d="M22.4,9.84c1.74.14,1.68,1.01,3.74.37.77-.24,1.84.73,3.36.37,3.13-.73,3.43-.13,6.72,0,1.47.06,3.04-.79,2.61,1.49-.96,1.77-4.31,1.96-6.72,1.49.25,1.61-4.4,2.8-4.3.39-1.94-.6-3.74-1.22-5.41-1.88-1.45-.56-1.79-4.13,0-2.23Z"/>
  <path class="cls-181" d="M61.99,15.04c-.88,1.11-1.23.5-1.49-.74-1.54.62-3.31-.85-2.24-2.23.33-.28,1.2-2.04,1.87-2.23,2.45-.7,3.63,2.53,1.87,4.09v1.12Z"/>
  <g>
    <path class="cls-70" d="M8.97,17.17c0,.12-.58,1.74-.75,2.23-2.6-.52-1.42,1.76-1.49,2.23-.15,1-.71,3.92-1.12,4.49-.82,1.15-2.98-.15-1.07,3.29-2.72.6-.18,3.95-.8,6.36-1.01-.1-1.35.71-1.49.74-.21.05-.53.02-.75,0-1.35-2.84,1.75-6.12-.75-8.19.24-1.22.65-1.83.75-2.23l.37.74c1.46-1.54,2.76-3.94,1.87-5.95,1.47-.38,1.56-2.02,2.24-2.98.79-1.11,2.01-1.89,2.24-2.23-.22.66.74,1.41.75,1.49Z"/>
    <path class="cls-157" d="M29.13,63.31l2.98,1.49.74-2.97c-.21,1.41,1.72,4.67,2.25,2.44.15-.65-.43-1.14.74-.95-.13,1.06.06,1.46.75,2.23.26.28.08.76,1.1.79.51.01,5.3-.72,5.53-.87.45-.29.47-2.91,1.21-2.9l.37,2.98c-.5.18-1.01.62-1.49.74-1.16.29-6.34.58-6.65.83s.05,1.09-.07,1.4c-.06.17-.63.42-.75.74-1.64-.08-4.27.61-5.23-.74.25.01.5,0,.75,0,1.24-.01,2.49.01,3.73,0,1-.81-3.49-1.3-4.48-1.48-2.31-.42-4.13-1.1-5.97-1.49,1.81-.4,3.53-.48,4.48-2.23Z"/>
    <path class="cls-149" d="M.76,39.49l.37-.74c1.46,1.2,2.26,1.9,1.12,3.71h1.5c.48,3.19,1.01,3.73,2.09,6.52.33.87,0,2,.15,2.41l-.63.45-.12,1.04c-2.71-4.49-3.56-8.38-4.48-13.4Z"/>
    <path class="cls-108" d="M5.99,51.4c1.33,3.4,2.53,2.47,4.48,3.72l-.75,2.23h2.24c.11.18-.12.58,0,.75-.49.26-.99.5-1.49.74-2.09-2.19-3.46-3.03-5.23-5.95l.12-1.04.63-.45Z"/>
    <path class="cls-195" d="M23.91,65.54c.23,0,.53-.05.75,0,1.84.38,3.66,1.07,5.97,1.49l.75,1.49c-.25,0-.5.01-.75,0-3.79-.23-5.5-.89-8.96-2.23.68-.43,1.42-.73,2.24-.74Z"/>
    <path class="cls-135" d="M1.51,36.52c.22.02.54.05.75,0,1.66,1.99,1.18,3.86,1.49,5.95h-1.5c1.15-1.82.35-2.51-1.12-3.71l-.37.74c-.21-1.17-.68-1.7-.75-3.72.46.18,1.07.71,1.49.74Z"/>
    <path class="cls-77" d="M22.41,61.82c.24.13,1.16-.24,1.42.04.38.41-.09,2.79.07,3.68-.82.02-1.56.31-2.24.74-.69-.27-1.05-.55-1.49-.74v-.74c.33-.13.54-.65.75-.74.82-.4,1.98.87,1.49-2.23Z"/>
    <path class="cls-185" d="M1.51,36.52c-.42-.03-1.03-.57-1.49-.74-.09-2.7.24-4.84.75-7.44,2.5,2.07-.6,5.34.75,8.19Z"/>
    <path class="cls-133" d="M3.75,20.89c.9,2.01-.4,4.4-1.87,5.95l-.37-.74c.23-.97.44-2.04.75-2.98.28-.87.26-1.74.75-2.98.39.12.59.39.75.74Z"/>
    <path class="cls-88" d="M17.19,61.82c.47.07,1.06-.1,1.49,0-.17,1.34.11,2.52,1.49,2.98v.74c-1.29-.58-1.82-.86-2.99-1.49l.74-.38c.31-1.5-.44-1.16-1.86-1.11l-.38.74c-.92-.54-1.39-1.45-1.49-1.49v-.74c1.03.12,1.96.59,2.99.74Z"/>
    <path class="cls-40" d="M12.71,58.84c.42.65,1.9.83,1.49,2.23v.74c-.44-.15-1.47.32-2.06-.14-.43-.34-.99-2.12-1.67-2.83.5-.24,1-.49,1.49-.74.29.43.68.64.75.74Z"/>
    <path class="cls-48" d="M15.69,63.31l.38-.74c1.42-.06,2.17-.39,1.86,1.11l-.74.38c-.49-.26-1.02-.47-1.49-.74Z"/>
    <path class="cls-159" d="M8.97,12.7c-.15.13-.44,2.52-.75,2.98-.23.34-1.45,1.13-2.24,2.23h-1.49c1.27-2.46,2.06-3.89,3.73-5.95l.75.74Z"/>
    <path class="cls-51" d="M25.4,1.54c.01.5,0,.99,0,1.49-1.36-.22-3.46.53-4.48,1.49-.11-.12-1.27.18-1.76-.09l-.48-.65c1.92-.96,4.64-2.08,6.72-2.23Z"/>
    <path class="cls-172" d="M15.69,6.75c-.86.53-2.05,2.07-2.24,2.98-.44.1-1.24-.15-1.49,0l-.75-.74c2.17-1.89,2.35-1.65,4.48-2.98v.74Z"/>
    <path class="cls-28" d="M11.96,9.73c-.19.11-.7,1.94-1.5,2.62-.54.46-1.38.26-1.48.35l-.75-.74c1.17-1.44,1.65-1.81,2.99-2.98l.75.74Z"/>
    <path class="cls-55" d="M20.92,4.52c.13.15-.17,1.26.12,1.75l.63.49c-.85.38-2.1.67-2.24.74v-2.23c-.19-.22-1,.58-1.49.74-.03-.49.02-.99,0-1.49.21-.11.43-.59.75-.74l.48.65c.49.27,1.65-.03,1.76.09Z"/>
    <path class="cls-193" d="M5.99,17.91c-.68.95-.77,2.6-2.24,2.98-.16-.36-.36-.62-.75-.74.29-.73,1.09-1.45,1.49-2.23h1.49Z"/>
    <path class="cls-74" d="M17.93,4.52c.02.49-.03,1,0,1.49-.77.26-1.42.24-2.24.74v-.74c.71-.44.88-.79,2.24-1.49Z"/>
    <path class="cls-67" d="M31.37.05v2.98c1.19-.66,1.46-1.24,2.99-1.49.69-.11,1.52.09,2.24,0v2.23c-.49-.03-1,0-1.49,0-1.5,0-5.98-.48-5.97.74-.7.03-1.69-.14-2.24,0-.22-.7-.74-1.37-1.49-1.49,0-.5.01-.99,0-1.49.24-.02.5,0,.75,0,1.19.02,3.16,1.5,3.73-.74h-2.24c1.8-.78,1.78-.63,3.73-.75Z"/>
    <path class="cls-93" d="M61.98,39.49c4.36-.77.87,3.19,1.5,5.21l2.24-4.47c.63,2.3-1.02,4.43-1.2,6.34-.05.5.46.93.45,1.1,0,.25,0,.5,0,.74-2.02-.55-1.47,1.34-2.24,2.23-.37.43-.89.72-1.49,1.49l-1.75-.12-.49-.63c1.53-.61,1.16-1.03,1.49-2.23.11-.39-.06-1.01,0-1.49.06-.51,1.05-1.49,0-2.98.92.1,1.44.44,2.24.74.1-.96-.13-2.05,0-2.98.06-.42.83-1.11.79-1.77-.04-.59-1.42-.6-1.53-1.21Z"/>
    <path class="cls-8" d="M67.96,37.26c-.18,3.59-.06,7.87-2.99,10.42,0-.17-.5-.6-.45-1.1.18-1.91,1.83-4.04,1.2-6.34.77-.33.61-.89.75-1.49.27-1.18-.72-1.76,1.49-1.49Z"/>
    <path class="cls-45" d="M53.02,61.82c.36,1.61-2.13,2.52-3.23,3.11-2.87,1.54-3.88,1.36-6.48,2.1v-.74c.48-.12.99-.57,1.49-.74,2.59-.91,5.5-3.56,5.97-3.72.51-.17,1.55.09,2.24,0Z"/>
    <path class="cls-36" d="M45.56,2.28l-.44.61c-.34.14-.71.06-1.05.13-.86.18-1.87-.08-2.66.71-.57-1.62-.66-1.65-2.57-1.46v1.49c-.67-.11-1.51.04-2.24,0V1.54c1.22-.15,3.49-.73,3.73-.74,2.06-.11,3.63.92,5.23,1.49Z"/>
    <path class="cls-182" d="M49.29,3.77l-.74.38v1.1s1.49.75,1.49.75c-.11-.06-1.29-.07-1.49,0-1.36-1.15-2.63-1.69-4.46-1.52l-.02-1.46c.34-.07.72,0,1.05-.13l.44-.61c1.72.61,1.9.52,3.73,1.49Z"/>
    <path class="cls-171" d="M67.21,26.1c.52,2.36.64,4.3.75,6.7h-1.49c.04-.99-.53-5.58-.75-6.7h1.49Z"/>
    <path class="cls-219" d="M43.32,66.28v.74c-1.95.56-3.91,2.33-6.72,1.49.11-.31-.25-1.15.07-1.4s5.5-.54,6.65-.83Z"/>
    <path class="cls-208" d="M67.96,32.8c.06,1.45.07,3.01,0,4.47-2.21-.27-1.22.31-1.49,1.49l-.63-.47c-.79-1.91.56-3.84.63-5.48h1.49Z"/>
    <path class="cls-161" d="M65.72,22.38l-.75.74c-.08-.24-.5-.87-.75-1.49-.31-.78-1.3-1.49-1.49-2.23-.05-.19-.02-.54,0-.74.04-.42.58-1.02.75-1.49,1.44,2.49,1.36,2.71,2.24,5.21Z"/>
    <path class="cls-205" d="M52.28,55.12c-.15.37.16,1.2,0,1.49-.82,1.46-.99-.34-.75,2.23.03.3-.64,1.04-.75,1.49,1.29-.26,2.62.72,2.24-1.11l-.74-.38,1.49-.74c.12.48.65,1.02.75,1.49.14.64-.09,1.53,0,2.23-.39.11-1.01-.06-1.49,0-.69.09-1.73-.17-2.24,0,.07-.48-.1-1.06,0-1.49-.43.09-1.29.98-1.49.75-.09-.47.12-1.12,0-1.49,1.08-1.56.69-3.44.75-5.21l2.24.74Z"/>
    <path class="cls-29" d="M53.77,6.75c-.24-.01-.51-.03-.75,0-.36.04-.92.83-1.77.64s-1.05-1.29-1.21-1.38l-1.49-.75v-1.1s.74-.38.74-.38c1.59.83,3.28,1.59,4.48,2.98Z"/>
    <path class="cls-26" d="M63.48,51.4c-.85,1.52-.95,2.12-2.24,3.72l-.45-.62-1.04-.12c.73-1.93.54-1.02,1.49-2.23.6-.76,1.13-1.06,1.49-1.49l.75.74Z"/>
    <path class="cls-27" d="M40.33.8c-.24.01-2.52.6-3.73.74-.72.09-1.55-.11-2.24,0V.05c2.01.03,4.2-.39,5.97.74Z"/>
    <path class="cls-37" d="M57.5,57.35c.12.04.39.66.75.74-1.03,1.01-2.16,3.29-3.73,3.72-.09-.71.14-1.59,0-2.23,1.2-.23,1.22-1.89,2.24-2.23.14-.05.61-.05.75,0Z"/>
    <path class="cls-101" d="M59.74,12.7c-.02-.06-.51.03-.75,0h-.75c-.3-.56-.87-.86-1.49-.74v-2.98c1.43,1.33,2.79,3.57,2.99,3.72Z"/>
    <path class="cls-43" d="M63.48,17.17c-.16.47-.7,1.07-.75,1.49-.84-1.15-1.52-2.48-2.24-3.72l.75-.74c1.14,1.37,1.14,1.08,2.24,2.98Z"/>
    <path class="cls-132" d="M34.36.05v1.49c-1.52.25-1.8.83-2.98,1.49V.05c.98-.06,2-.01,2.98,0Z"/>
    <path class="cls-154" d="M67.21,26.1h-1.49c-.12-.64-.56-2.43-.75-2.98l.75-.74c.42,1.21,1.11,1.96,1.49,3.72Z"/>
    <path class="cls-165" d="M61.24,55.12c-1.16,1.45-1.85,1.86-2.99,2.98-.36-.09-.62-.7-.75-.74,1.66-1.08,1.66-1.43,2.24-2.98l1.04.12.45.62Z"/>
    <path class="cls-94" d="M64.97,48.42c-.09,2.83-1.05,2.18-1.49,2.98l-.75-.74c.77-.89.22-2.79,2.24-2.23Z"/>
    <path class="cls-158" d="M27.64.8h2.24c-.57,2.25-2.54.77-3.73.74.26-.84,1.05-.56,1.49-.74Z"/>
    <path class="cls-21" d="M59.74,12.7c.13.1.95-.21,1.33.16s.06,1.21.16,1.33l-.75.74c-.71-1.23-.48-1.55-.75-2.23Z"/>
    <path class="cls-162" d="M56.76,8.98v.74c-1.54.3-1.7-1.02-2.24-1.49l.75-.74c.95.63.99,1.01,1.49,1.49Z"/>
    <path class="cls-153" d="M55.26,7.49l-.75.74c-.5-.43-1.32-.57-1.49-1.49.23-.03.51-.01.75,0,1.19.07.98.41,1.49.74Z"/>
    <path class="cls-85" d="M17.19,11.21c.41.09.58.39.75.74.23.49-.16.83.75,1.49-.13.32-.66.55-.75.74l-1.87-1.48c-.82,1.84-2.64,1.95-2.61,3.71,0,.24-.04.51,0,.74-.87.25-1.25,2.1-1.49,2.23-1.18.65-2.19-.73-1.37,3.25l.62.47c-.81,1.38-1.81,3.64-2.24,5.21l-.75-2.23c-2.14.62-1.28,2.86-1.49,4.47-.25,1.89-.5,3.93-.75,5.95-.83-.15-1.81-.7-2.24-.74.62-2.41-1.92-5.76.8-6.36-1.92-3.44.25-2.14,1.07-3.29.41-.57.97-3.5,1.12-4.49.81-.47,1.21-1.39,1.49-2.23.16-.49.75-2.12.75-2.23.87.2,1.08-.45,1.49-.74.88-.64.97-.99,1.49-1.49.98-.94,2.98-3.43,3.18-3.57.61-.45,1.92-.02,2.05-.15Z"/>
    <path class="cls-179" d="M3.75,35.77c.43.04,1.41.6,2.24.74.24.04.51-.04.75,0l-.75,1.85-.77.02c-.61,1.37,1.49,3.15,1.52,3.34.02.17-.87.95-.41,1.53.71.89,2.4.2,1.91,1.82l-1.49-.37.75,3.72c1.4.02.12-2.25,2.24-1.49.19,1.71-.19,1.83.34,4.09.21.89-.84,2.07,1.15,2.61.2.05.49-.02.75,0,0,.24.67,1.45.75,1.49l-.66.36.66,1.88c-.17.07-.41.57-.75.74-.12-.17.11-.57,0-.74-.51-.77-.47-1.58-1.49-2.23-1.95-1.25-3.15-.32-4.48-3.72-.16-.41.18-1.55-.15-2.41-1.07-2.79-1.61-3.33-2.09-6.52-.31-2.09.17-3.96-1.49-5.95.14-.03.48-.84,1.49-.74Z"/>
    <path class="cls-106" d="M13.45,9.73c-.22,1.06.8,2.56-1.49,4.47-.2.16-1.84-.26-2.23,1.87l.73.37c-.41.3-.62.94-1.49.74,0-.08-.96-.83-.75-1.49.31-.46.59-2.84.75-2.98.11-.09.94.11,1.48-.35.8-.69,1.31-2.52,1.5-2.62.25-.15,1.06.1,1.49,0Z"/>
    <path class="cls-190" d="M8.23,19.4c-.28.84-.69,1.76-1.49,2.23.07-.48-1.1-2.75,1.49-2.23Z"/>
    <path class="cls-68" d="M30.63,43.21c.49.02.98-.11,1.46.04l.04,2.2c1.93.06,3.51-1.43,5.23,0-.32,1.22-.76,2.43-.75,3.72-1.01,2.26-4.44,1.81-5.15,4.2-.56,1.89.73,1.82,1.42,2.49l-.74,3.72c2.13.74,1.42-1.59,2.24-2.23,1.39-1.09,3.19-.46,3.73-3.72.33-1.98.6-4.66.75-6.7.03-.47.04-1.02,0-1.49l.75-.74c0,.07.57.42.71,1.17s-.17,2.22.13,2.47c.42.35,1.96-.22,2.15.82,0,.04-.66.37-.4.73.66.9,1.57.89,2.64.76.47-.06,1.25-1.03,1.49-.74-.31,2.38.82,5.67-.74,7.44l-3.71-.79c-.14-1.48.6-2.59-1.52-2.19l-.75,2.97c.79-.25,1.99.79,2.24.76v.74c-1.8.4-1.95,3.17-.75,3.72l-.75.74c-2.91-.59-2.66.08-3.73,2.23-.69-.77-.88-1.17-.75-2.23-1.17-.19-.58.3-.74.95-.53,2.23-2.46-1.03-2.25-2.44l-.74,2.97-2.98-1.49c.65-1.21.54-1.81.75-2.98.32-1.76-.1-2.02,0-2.98,0-.08.85-.57.75-1.49-.06-.5-.63-3.57-.75-3.73-1.56-2.08-1.47,2.14-1.49,2.98-2.2.67-1.04-1.78-2.24-2.23-.16-.06-.49,0-.75,0l-2.22-.78c-.26-2.76,1.41-4.2,2.97-5.92.7-.78,2.02-2.64,2.99-2.98.28-.1,1.06-.02,1.49,0ZM30.62,44.71c-3.33-.55-3.33,2.03,0,1.48v-1.48ZM26.53,47.68c-1.58.34-.86,2.57.73,2.23s.86-2.57-.73-2.23ZM43.32,55.12c1.14,1.13,3.18-2.22,1.12-2.22-.47,0-1.55,1.79-1.12,2.22ZM38.84,59.58c.14-.14-.08-1.63,0-2.23h-.37c-2.11,1.18-.77,3.36.37,2.23ZM36.6,59.59c-1.46-1.4-1.81,1.58-1.49,2.97.41.9,1.89-2.59,1.49-2.97ZM38.84,60.33h-1.49c-.55,3.32,2.04,3.32,1.49,0Z"/>
    <path class="cls-12" d="M21.67,52.89c-.07.92-.07,2.06,0,2.98.04.5.67,3.55.81,3.67.24.22.99.03,1.43.05.99.05,2-.03,2.99,0,.03-.74-.03-1.49,0-2.23.02-.49-.02-1,0-1.49l1.49.74c-.02.25.02.5,0,.74-.15,1.76-.32,1.7-.75,2.98h-2.98s0,.37,0,.37c-.03.51,2.33,1.06,2.99,1.12,1.56.12,1.39-.37,2.24-1.49-.21,1.17-.1,1.77-.75,2.98-.95,1.76-2.67,1.84-4.48,2.23-.22-.05-.51,0-.75,0-.17-.89.31-3.26-.07-3.68-.26-.28-1.18.09-1.42-.04-1-.54-.62-2.21-3.73-1.49-1.53-1.76-1.98-2.95-.84-5.13-.46-.3-2,.36-1.4-1.2.1-.26.64-.22.74-.37l.44.65c1.7-.34,3.22-.49,4.04-2.14-.03.24.02.5,0,.74ZM20.92,58.1c.62-.62-1.15-2.65-1.49-2.23-.46,1.18.29,3.42,1.49,2.23ZM27.64,64.05c.23-.18-.77-1.34-1.13-1.48-1.66-.66-2,2.35,1.13,1.48Z"/>
    <path class="cls-78" d="M49.29,59.59c.12.37-.09,1.02,0,1.49.2.23,1.06-.66,1.49-.75-.1.43.07,1.01,0,1.49-.48.16-3.39,2.82-5.97,3.72l-.37-2.98c-.74-.01-.76,2.6-1.21,2.9-.23.15-5.02.88-5.53.87-1.01-.02-.84-.5-1.1-.79,1.07-2.16.82-2.82,3.73-2.23.13.03.45,1.32,2.24.74v-1.48c-.45-.11-1.19.14-1.49,0-1.2-.55-1.05-3.32.75-3.72.87.08,1.83.74,2.64.7.75-.03,1-.69,1.09-.7,1.98-.4,2.42,1.04,2.39-2.45l.6-.52c.23,1.8.17,1.98.75,3.72ZM47.8,60.33h-1.49c-.55,3.32,2.04,3.32,1.49,0Z"/>
    <path class="cls-13" d="M30.63,67.03c.98.18,5.47.67,4.48,1.48-1.24.02-2.49,0-3.73,0l-.75-1.49Z"/>
    <path class="cls-192" d="M11.96,57.35h-2.24s.75-2.23.75-2.23c1.02.65.98,1.46,1.49,2.23Z"/>
    <path class="cls-32" d="M18.68,60.33c3.11-.72,2.74.95,3.73,1.49.48,3.1-.67,1.83-1.49,2.23.06-1.96-.78-1.91-2.24-2.23-.44-.1-1.02.07-1.49,0,.23-.73.73-1.31,1.49-1.49Z"/>
    <path class="cls-164" d="M20.92,64.05c-.2.1-.42.61-.75.74-1.38-.46-1.66-1.64-1.49-2.98,1.46.32,2.3.27,2.24,2.23Z"/>
    <path class="cls-192" d="M17.93,52.89c-.04.48-.64.6-.75.74s-.64.11-.74.37c-.61,1.55.93.9,1.4,1.2-1.14,2.18-.69,3.37.84,5.13-.76.18-1.27.76-1.49,1.49-1.03-.16-1.95-.63-2.99-.74.4-1.41-1.07-1.59-1.49-2.23,5.68-.58,2.8-2.53,2.41-4.97-.13-.8.6-1.58.58-1.73l2.24.74Z"/>
    <path class="cls-12" d="M16.44,49.17c.12.34-.07,1.02,0,1.49l-1.42.1c-.48.78.65,1.25.67,1.39.02.16-.71.93-.58,1.73.39,2.43,3.27,4.39-2.41,4.97-.07-.1-.46-.32-.75-.74.34-.18.58-.67.75-.74.31-.13,1.01.14,1.46-.03.58-3.11-.75-1.8-1.46-2.2-.07-.04-.75-1.25-.75-1.49.74.05,1.5-.03,2.24,0,.32-.95-.67-1.74-.74-2.23-.04-.24.03-.5,0-.74s.03-.5,0-.74l1.49-2.98c.39.79,1.43,2.07,1.49,2.23Z"/>
    <path class="cls-22" d="M25.4,3.03c.75.12,1.27.79,1.49,1.49-.57.15-1.75,1.05-2.99,1.49-.75.27-1.38.36-2.24.74l-.63-.49c-.29-.49.02-1.6-.12-1.75,1.02-.95,3.12-1.7,4.48-1.49Z"/>
    <path class="cls-119" d="M17.93,6.01c.04.58-.1,1.18.12,1.75l.63.49c-2.24,1.44-1.34,2.83-1.49,2.98-.13.13-1.44-.3-2.05.15-.2.14-2.2,2.63-3.18,3.57v-.74c2.29-1.91,1.27-3.41,1.49-4.47.19-.91,1.38-2.45,2.24-2.98s1.47-.49,2.24-.74Z"/>
    <path class="cls-30" d="M23.91,6.01v.74c-.2.09-.36,1.67-.92,2.06-.7.49-1.66-.07-2.07.92-.05.12-.04.62,0,.74-.21.86-1.02.56-1.49.74-.51.2-.98.53-1.49.74-.16-.35-.33-.65-.75-.74.15-.15-.74-1.54,1.49-2.98.34-.22.58-.65.75-.74.14-.08,1.39-.36,2.24-.74s1.49-.48,2.24-.74Z"/>
    <path class="cls-46" d="M19.43,7.49c-.17.09-.41.53-.75.74l-.63-.49c-.22-.57-.08-1.17-.12-1.75.49-.17,1.3-.97,1.49-.74v2.23Z"/>
    <path class="cls-11" d="M35.11,3.77v1.49c2.04.01,4.63-.48,5.97,1.49-.46.1-1.01.53-1.49.74-1.14-.97-2.58-.53-3.73-.74-.95-.18-1.51-.74-2.99-.74-.24,0-.51-.03-.75,0v-.74l.75-.74c-1.24.03-2.5-.06-3.73,0,0-1.22,4.47-.74,5.97-.74Z"/>
    <path class="cls-199" d="M29.13,4.52c0,1.22,1.89.65,2.99.74v.74c-.29.04-.59.71-.75.74-.41.09-1.01-.02-1.49,0-1.92.1-3.02.68-4.1.69-.68,0-1.74-.75-1.87-.69v-.74c1.24-.44,2.41-1.34,2.99-1.49s1.54.03,2.24,0Z"/>
    <path class="cls-156" d="M36.6,3.77c.73.04,1.57-.11,2.24,0,1.63.27,1.92,1.06,2.99,1.49.09.45-.14,1.17,0,1.49-.25.03-.52-.05-.75,0-1.34-1.97-3.94-1.47-5.98-1.49v-1.49c.5,0,1-.03,1.5,0Z"/>
    <path class="cls-120" d="M55.26,12.7c1.09,1.6,2.48,3,3.73,4.47.19.23.49.39.75.74.13.18-.05.96.36,1.51.6.81,1.63.54,1.88.72.46.32.74,1.84,2.24,1.49.24.62.67,1.25.75,1.49.19.54.62,2.33.75,2.98.22,1.12.79,5.7.75,6.7-.07,1.64-1.42,3.57-.63,5.48l.63.47c-.14.6.02,1.16-.75,1.49l-2.24,4.47c-.63-2.02,2.86-5.98-1.5-5.21-.04-.23.04-3.37,0-4.47-.05-1.24.25-2.45,0-4.47-.03-.24.04-.5,0-.74-.24-1.5-.43-1.85-.75-2.98-.64-2.28-1.15-5.04-2.99-6.7.01-.24.06-.6,0-.74-.22-.57-1.17-1-1.49-1.49-.49-.74-.96-1.53-1.49-2.23s-.96-1.53-1.49-2.23c.12-.88.98-.57,1.49-.74Z"/>
    <path class="cls-4" d="M61.98,35.03c.04,1.1-.04,4.24,0,4.47.12.61,1.5.61,1.53,1.21.04.66-.73,1.35-.79,1.77l-1.44.69c.28-1.07-.65-1.48-1.54-1.44l.75-6.7c.45.08,1.01-.06,1.49,0Z"/>
    <path class="cls-125" d="M59,51.4l.49.63,1.75.12c-.95,1.21-.76.3-1.49,2.23-.58,1.54-.58,1.9-2.24,2.98-.14-.05-.61-.05-.75,0,.26-1.36-.14-1.73-1.49-1.49v-.74c.25,0,.56.06.75,0,.72-.21,2.29-1.57,2.24-2.23-.03-.37-1.03-1.24-.75-1.48.46-.1,1.16.13,1.5,0Z"/>
    <path class="cls-163" d="M58.25,46.94c.96,1.33.43,2.68,2.24,2.23-.33,1.21.04,1.62-1.49,2.23-.33.13-1.03-.09-1.5,0-.29.24.72,1.11.75,1.48h-2.99c1.27-1.33,1.56-2.3,2.24-3.72.28-.57,1.16-1.04.75-2.23Z"/>
    <path class="cls-167" d="M59.74,41.73c.9-.05,1.82.37,1.54,1.44l1.44-.69c-.14.93.1,2.01,0,2.98-.79-.3-1.32-.65-2.24-.74-.4-.04-1.17-.09-1.49,0-.08-.42,0-1.01,0-1.49s0-.99,0-1.49c.25,0,.5.01.75,0Z"/>
    <path class="cls-137" d="M60.49,47.68c-.06.48.11,1.09,0,1.49-1.81.45-1.28-.9-2.24-2.23-.17-.23-.59-.41-.75-.74.29-.69.73-1.29,1.49-1.49.22,1.17.32,2.36,1.49,2.98Z"/>
    <path class="cls-204" d="M60.49,44.7c1.05,1.49.06,2.47,0,2.98-1.17-.61-1.27-1.81-1.49-2.98.32-.09,1.09-.04,1.49,0Z"/>
    <path class="cls-80" d="M38.84,3.77v-1.49c1.91-.2,2-.17,2.57,1.46.79-.79,1.8-.53,2.66-.71l.02,1.46c1.83-.17,3.11.36,4.46,1.52-.05.02,0,.65-.75.74-.24.03-.5-.02-.75,0-.74.06-1.51-.08-2.24,0-.34-1.88-2.17-1.16-2.99-1.49-1.07-.43-1.36-1.22-2.99-1.49Z"/>
    <path class="cls-176" d="M50.04,6.01c.17.09.33,1.18,1.21,1.38s1.42-.59,1.77-.64c.17.92,1,1.06,1.49,1.49.54.47.7,1.78,2.24,1.49v2.23c-.08.01-.78.51-1.49.74-.52.17-1.37-.13-1.49.74-.89-1.16-1.34-.42-2.24-2.98-.11-.3.24-.97-.1-1.37-.18-.22-1.58-.62-2.14-.86-.09-.04-.61-1.19-1.49-.74v-.74c.74-.1.7-.73.75-.74.21-.07,1.39-.06,1.49,0Z"/>
    <path class="cls-210" d="M58.25,12.7c-1.95.3.42,2.64.74,2.23v-2.23c.24.03.73-.06.75,0,.26.68.04,1,.75,2.23s1.4,2.57,2.24,3.72c-.02.21-.05.55,0,.74l-.75.74c-.25-.18-1.28.09-1.88-.72-.41-.55-.23-1.33-.36-1.51l.74-.37v-1.86c-1.6-.2-1.65-.06-1.49,1.49-1.25-1.47-2.65-2.86-3.73-4.47.71-.23,1.41-.73,1.49-.74.63-.11,1.19.18,1.49.74Z"/>
    <path class="cls-211" d="M64.22,21.63c-1.5.35-1.78-1.17-2.24-1.49l.75-.74c.19.74,1.19,1.46,1.49,2.23Z"/>
    <path class="cls-6" d="M55.26,55.87c1.35-.24,1.75.13,1.49,1.49-1.02.35-1.04,2.01-2.24,2.23-.1-.47-.62-1.01-.75-1.49-.06-.23.04-.5,0-.74,1.6.17,1.66.1,1.49-1.49Z"/>
    <path class="cls-217" d="M53.77,57.35c.04.24-.06.51,0,.74l-1.49.74h-.75c-.24-2.58-.07-.78.75-2.23l1.49.74Z"/>
    <path class="cls-73" d="M52.28,58.84l.74.38c.38,1.83-.94.86-2.24,1.11.1-.45.77-1.19.75-1.49h.75Z"/>
    <path class="cls-213" d="M59,12.7v2.23c-.32.4-2.7-1.93-.75-2.23h.75Z"/>
    <path class="cls-111" d="M14.2,20.89c.05,0,.18.78.75.74-.06.2.03.48,0,.74-1.93,1.39-3.11,4.19-2.23,6.32l-1.5-.37c.64,2.26.99,3.69,0,5.96v.74c-.41,0-1.41-.08-1.49,0-1.1-1.21-.17-2.34,0-3.72l-2.99-.75c.21-1.61-.65-3.84,1.49-4.47l.75,2.23c.44-1.57,1.44-3.83,2.24-5.21.24-.41,1.37-2.17,1.49-2.23.17-.08,1.15-.05,1.49,0Z"/>
    <path class="cls-126" d="M6.73,30.56l2.99.75c-.18,1.38-1.11,2.5,0,3.72-.13.12-.06,1.93-1.17,2.21-.68.17-1.39-.65-1.81-.72-.24-.04-.51.04-.75,0,.24-2.02.5-4.06.75-5.95Z"/>
    <path class="cls-82" d="M20.92,14.19c.23.06.51-.06.75,0,.4.1.72.28.75.74-.25.03-.51-.05-.75,0-.37.07-1.08.51-1.49.74-1.58.9-2.37,2.67-4.48,2.23-.09-.13-.56-.59-.75-.74v-1.49c2.75,1.45,2.23.27,2.99-1.48.08-.19.62-.42.75-.74.69.5,1.46.53,2.24.74Z"/>
    <path class="cls-186" d="M17.93,14.19c-.76,1.76-.23,2.93-2.98,1.48v1.49c-.37-.31-1.06-.46-1.5-.74-.02-1.77,1.79-1.88,2.61-3.71l1.87,1.48Z"/>
    <path class="cls-112" d="M14.95,17.17c.18.16.66.61.75.74,1.55,2.3-.29,2.26-.75,3.72-.56.04-.69-.74-.75-.74.48-1.4-.6-2.75-.75-3.72-.04-.24,0-.5,0-.74.44.29,1.13.43,1.49.74Z"/>
    <path class="cls-60" d="M14.2,20.89c-.35-.05-1.33-.08-1.49,0l-.75-1.49c.24-.14.62-1.98,1.49-2.23.15.97,1.23,2.32.75,3.72Z"/>
    <path class="cls-3" d="M11.96,19.4l.75,1.49c-.12.06-1.25,1.82-1.49,2.23l-.62-.47c-.82-3.98.19-2.6,1.37-3.25Z"/>
    <path class="cls-191" d="M20.92,14.19c-.77-.21-1.55-.25-2.24-.74-.91-.66-.52-1-.75-1.49.51-.21.98-.55,1.49-.74l1.49,2.98Z"/>
    <path class="cls-9" d="M11.96,14.19v.74c-.52.5-.62.85-1.49,1.49l-.73-.37c.39-2.12,2.03-1.7,2.23-1.87Z"/>
    <path class="cls-136" d="M11.21,35.03c.25,0,.58-.06.75,0,.47,1.64-.63,3.94-.38,5.27.24,1.26,1.54,2.19,1.87,2.91.16.34-.16,1.16,0,1.49-.12.38-.39.6-.75.74-.2.08-.51-.07-.75,0v-2.23s-2.99.74-2.99.74c-.21-.69-1.28-1.57-.75-2.98l-1.49.75c-.02-.18-2.13-1.97-1.52-3.34l.77-.02.75-1.85c.42.07,1.14.89,1.81.72,1.11-.28,1.04-2.09,1.17-2.21.08-.08,1.08,0,1.49,0Z"/>
    <path class="cls-220" d="M12.71,49.91h-1.5c.69,1.2.05,2.43,0,3.72-1.99-.54-.94-1.72-1.15-2.61-.54-2.26-.15-2.38-.34-4.09.29.11,2.32,2.35,2.99,2.98Z"/>
    <path class="cls-118" d="M8.97,43.96c.18.61.73,2.12.75,2.23.04.24-.03.5,0,.74-2.11-.76-.84,1.5-2.24,1.49l-.75-3.72,1.49.37c.49-1.62-1.2-.93-1.91-1.82-.46-.58.44-1.36.41-1.53l1.49-.75c-.53,1.4.54,2.29.75,2.98Z"/>
    <path class="cls-52" d="M12.71,49.91c.25.23.41.58.75.74.03.25-.04.5,0,.74-.63.38-1.48,1.6-1.49,2.23-.26-.02-.54.05-.75,0,.05-1.29.69-2.53,0-3.72h1.5Z"/>
    <path class="cls-83" d="M12.71,55.12c.71.4,2.05-.91,1.46,2.2-.45.17-1.15-.1-1.46.03l-.66-1.88.66-.36Z"/>
    <path class="cls-69" d="M33.61,39.49c-.3,2.74,1.92-.37,5.23,1.49-2.76-.26-1.18,1-.75,2.23.05.14.04.59,0,.74-.03.12-.53.66-.75,1.49-1.72-1.43-3.3.07-5.23,0l-.04-2.2c-.48-.15-.97-.02-1.46-.04.19-.5.61-1,.75-1.49.06-.23-.06-.51,0-.74.21-.77.74-1.41.75-1.49h1.49Z"/>
    <path class="cls-114" d="M37.35,49.17c-.63,1.7-1.06,3.33.75,4.47-.54,3.26-2.34,2.63-3.73,3.72-.5-.49-.99-1-1.49-1.49-.69-.68-1.98-.61-1.42-2.49.71-2.39,4.14-1.95,5.15-4.2h.75ZM35.85,52.89h-1.49c.53,1.03.53,1.2,0,2.23,1.97.36,1.55-.43,1.49-2.23Z"/>
    <path class="cls-57" d="M47.05,47.68c1.18,2.74,1.13,5.4,1.49,8.19l-.6.52c.04,3.49-.41,2.05-2.39,2.45-.12-.39-.42-.55-.75-.74.16-.32.53-.5.75-.74,1.57-1.77.43-5.06.74-7.44-.24-.28-1.02.68-1.49.74v-1.49c.48-.15.68-1.24,1.24-1.5h1Z"/>
    <path class="cls-174" d="M25.4,45.45l.75.74c-1.56,1.72-3.22,3.16-2.97,5.92l2.22.78c-1.35,0-2.62.87-3.73,0,.02-.25-.03-.5,0-.74.17-1.18,1.48-5.31,2.21-6.2.68-.83,1.42-.42,1.52-.5Z"/>
    <path class="cls-47" d="M42.57,43.21c-2.82-.12-.86.5-.37,1.54.43.91-.22,2.53.38,3.67l.75-2.98,1.49-.74c.81.8,1.8,1.95,2.24,2.98h-1c-.56.25-.75,1.33-1.24,1.49-.55.17-1.57-.12-2.24,0-.2-1.05-1.73-.48-2.15-.82-.3-.25,0-1.72-.13-2.47s-.7-1.11-.71-1.17c-.03-.37,1.12-2.05.75-2.98,1.11.18,1.57,1.05,2.24,1.49Z"/>
    <path class="cls-78" d="M41.82,58.1c-.25.04-1.46-1.01-2.24-.76l.75-2.97c2.12-.4,1.37.72,1.52,2.19l3.71.79c-.22.25-.58.42-.75.74-2.25-1.33-2.19-.12-2.99,0Z"/>
    <path class="cls-31" d="M38.84,45.45c.04.47.03,1.02,0,1.49-.48.56-1.27,1.62-1.49,2.23h-.75c0-1.29.42-2.5.75-3.72.22-.83.71-1.37.75-1.49l.62.44c.12.34.1.7.12,1.05Z"/>
    <path class="cls-33" d="M25.4,52.89c.25,0,.59-.06.75,0,.21.65-.72,1.35-.75,1.49-.47.08-1.11-.12-1.49,0-.42.13-.59.66-.75.74-.49.26-.99.51-1.49.74-.07-.92-.07-2.06,0-2.98,1.12.87,2.38,0,3.73,0Z"/>
    <path class="cls-95" d="M29.88,57.35c-.1.96.32,1.21,0,2.98-.85,1.12-.68,1.61-2.24,1.49.08-.46-.12-1.12,0-1.49.43-1.28.59-1.21.75-2.98h1.49Z"/>
    <path class="cls-144" d="M26.15,52.89c1.2.46.04,2.9,2.24,2.23,0,.25,0,.5,0,.74s.02.5,0,.74l-1.49-.74c-.02.49.02.99,0,1.49-.47.07-1.09-.11-1.49,0,.1-.95-.15-2.07,0-2.98.02-.13.95-.84.75-1.49Z"/>
    <path class="cls-47" d="M38.09,53.63c-1.81-1.13-1.37-2.76-.75-4.47.23-.62,1.01-1.68,1.49-2.23-.15,2.04-.42,4.71-.75,6.7Z"/>
    <path class="cls-65" d="M28.39,55.12c.03-.84-.07-5.06,1.49-2.98.11.15.69,3.22.75,3.73h-2.24c0-.25,0-.5,0-.74Z"/>
    <path class="cls-147" d="M44.81,58.1c.33.19.62.35.75.74-.09.02-.34.67-1.09.7-.81.03-1.77-.63-2.64-.7v-.74c.79-.12.74-1.33,2.99,0Z"/>
    <path class="cls-151" d="M29.13,43.21c-.97.34-2.28,2.2-2.99,2.98l-.75-.74c1.02-.89,1.72-2.68,3.73-2.98v.74Z"/>
    <path class="cls-146" d="M40.33,41.73c.37.92-.78,2.61-.75,2.98l-.75.74c-.03-.35,0-.71-.12-1.05l-.62-.44c.04-.15.05-.6,0-.74.5-.41.91-1.28,1.49-1.49.15-.05.56-.03.75,0Z"/>
    <path class="cls-10" d="M34.36,57.35c-.81.64-.11,2.97-2.24,2.23l.74-3.72c.5.49.99,1,1.49,1.49Z"/>
    <path class="cls-84" d="M26.53,47.68c1.6-.34,2.32,1.89.73,2.23s-2.32-1.89-.73-2.23Z"/>
    <path class="cls-141" d="M44.81,49.17v1.49c-1.07.13-1.98.14-2.64-.76-.26-.36.41-.69.4-.73.67-.12,1.69.17,2.24,0Z"/>
    <path class="cls-39" d="M38.84,60.33c.55,3.32-2.04,3.32-1.49,0h1.49Z"/>
    <path class="cls-148" d="M41.08,62.56c.3.14,1.04-.11,1.49,0v1.48c-1.79.57-2.11-.72-2.24-.74l.75-.74Z"/>
    <path class="cls-17" d="M43.32,55.12c-.44-.44.65-2.22,1.12-2.22,2.06,0,.02,3.36-1.12,2.22Z"/>
    <path class="cls-206" d="M30.63,55.87c.1.92-.74,1.41-.75,1.49h-1.49c.02-.25-.02-.5,0-.74s0-.5,0-.74h2.24Z"/>
    <path class="cls-194" d="M30.62,44.71v1.48c-3.33.55-3.33-2.03,0-1.48Z"/>
    <path class="cls-39" d="M36.6,59.59c.4.38-1.08,3.87-1.49,2.97-.33-1.39.02-4.37,1.49-2.97Z"/>
    <path class="cls-200" d="M31.37,41.73c-.13.49-.55.99-.75,1.49-.43-.02-1.21-.1-1.49,0v-.74c-.05-.24.06-.52,0-.74h2.24Z"/>
    <path class="cls-39" d="M38.84,59.58c-1.14,1.13-2.48-1.05-.37-2.23h.37c-.08.6.15,2.09,0,2.23Z"/>
    <path class="cls-209" d="M31.37,13.45c1.23.09,1.7-.02,2.24,0,1.24.04,2.28,1.06,3.73,0,.61,2.08-2.68,5.17,1.5,4.47-.12.68.17,1.68,0,2.23-.33,1.04-1.06,2.18-1.49,3.72-.53,1.88-1.34,2.94-1.49,5.21-.87,1.87-3.46,2.6-4.48,3.72s-.47,2.23-1.49,2.98c-.24-1.32.17-3.06,0-4.46-1.41-.41-1.29.63-1.49.74-2.06,1.1-2.39.48-2.73,3.48-.09.78.68,1.74.18,2.47-.74,1.06-3.87,1.44-3.41,3.72,1.88-1.38,2.38-2.23,4.1,0,1.47-.34-.4-2.82,1.49-2.23.38.12.99,1.75,1.12,2.24.06.23-.05.51,0,.74-2.01.3-2.71,2.08-3.73,2.98-.1.08-.84-.34-1.52.5-.73.89-2.05,5.02-2.21,6.2-.82,1.65-2.34,1.8-4.04,2.14l-.44-.65c.1-.15.71-.26.75-.74.03-.35-.44-.13,0-1.49s.69-3.16,1.49-4.47l2.24.74v-1.49c-.7-.11-1.62.15-2.24,0-.27-.07-.54-.51-.75-.74l2.24-.75c.4-1.41-.63-1.28-.75-1.49-.21-.38-1.12-2.86-1.49-2.23l-.38-.74c-1.64-.36-1.08.79-1.12,2.23v.74c-.23-.06-.51.05-.75,0-.12-.03-.42-.72-1.49-.74v-.74c-.13-1.18.19-2.61,0-3.72-.24-1.38-1.62-3.87-1.49-5.21.01-.12.55-1.23.75-2.23.09-.45.74-.94.67-1.78-.05-.62-.66-.41-.67-.45-.04-.2,1.11-2.27,1.49-3.72,1.07.13,1.92-.46,2.24-1.49.37.14.53.45.75.74.67.9.75,1.82,2.24,1.49.54-1.5.09-2.59,0-3.72-.08-.98.05-1.99,0-2.98,1.04-.22,1.74.3,1.49-1.49,1-.47,1.96-1.05,2.99-1.49.51-.22.98-.54,1.49-.74.03.74-.04,1.49,0,2.23.03.49-.02.99,0,1.49l2.99-.75c.31-.71-.74-1.38-.75-1.48-.05-.56,2.97-.99.75-2.23v-.74c.49.04,1-.04,1.49,0ZM36.59,21.63c-.35-1.91-.57-4.21-2.23-1.86l2.23,1.86ZM30.63,31.31c.63-.13,2.97-2.41,2.97-2.6,0-2.17-3.86.17-2.97,2.6ZM17.93,32.06c-3.13-.87-2.79,2.14-1.13,1.48.35-.14,1.36-1.3,1.13-1.48Z"/>
    <path class="cls-34" d="M26.89,57.35c-.03.74.03,1.49,0,2.23-.99-.03-2,.05-2.99,0-.1-.52-.69-1.05-.75-1.49h.75c.5-.18,1.01-.61,1.49-.74.4-.11,1.02.07,1.49,0Z"/>
    <path class="cls-166" d="M23.16,58.1c.06.44.64.97.75,1.49-.44-.02-1.18.17-1.43-.05-.14-.12-.78-3.17-.81-3.67.51-.23,1-.48,1.49-.74.08.97-.12,2.03,0,2.98Z"/>
    <path class="cls-144" d="M27.64,60.33c-.12.37.08,1.03,0,1.49-.66-.05-3.02-.6-2.99-1.12v-.37s2.99,0,2.99,0Z"/>
    <path class="cls-215" d="M27.64,64.05c-3.13.87-2.79-2.14-1.13-1.48.35.14,1.36,1.3,1.13,1.48Z"/>
    <path class="cls-7" d="M20.92,58.1c-1.2,1.19-1.94-1.05-1.49-2.23.34-.42,2.11,1.61,1.49,2.23Z"/>
    <path class="cls-168" d="M43.32,14.94v2.24c1.25.53,2.06-.71,2.24-.75.25-.05.54.06.75,0-.53,1.64.97,2.69,2.24,3.72s2.8,2.85,2.99,2.98c.16.11.54-.1.75,0-2.14,2.73-.07,1.86.75,2.23.11.05.68,1.9.75,2.23.42,2.11-.67,3.15,1.49,5.21-.72.9-.57,1.95-.75,2.98-.29,1.69.03,1.54,0,2.23,0,.2-1.27,2.87-1.49,3.72-.13.48-.79.89,0,2.23-.07.06-.79.18-1.49.74-.28.22-.62.36-.75.74-.34-.16-1.15.16-1.49,0-.41-.19-2.32-2.27-2.24-1.11-.11,1.29,1.12,1.94,2.24,1.86.19,1.94,1.47,3.53,2.24,5.21.08.18-.06.5,0,.74-2.02-.34-1.45.71-1.49,2.23-.05,1.76.33,3.65-.75,5.21-.57-1.75-.51-1.92-.75-3.72-.36-2.79-.31-5.45-1.49-8.19-.44-1.03-1.43-2.18-2.24-2.98-.49-.48-1.58-1.06-2.24-1.49s-1.13-1.31-2.24-1.49c-.19-.03-.59-.05-.75,0-.14-.37-.42-.56-.75-.74-3.31-1.86-5.52,1.25-5.23-1.49-.89-3.43,2.91-1.66,3.64-4.21.59-2.06-1.05-2.8-1.4-4.72l.59-.52c.32-1.86.99-3.69,1.65-5.44.48-1.27,1.04-2.06,1.49-3.72.41-1.52.59-2.03.75-3.72.02-.24-.01-.5,0-.74,1.46.36,1.45-.59,2.24-1.49.1-.11.69.11.75,0ZM42.57,21.64c-.1-.1-1.02.05-1.49,0,.7,1.28-.02,2.33,0,3.72,1.46.02,1.92-3.29,1.49-3.72ZM48.54,21.64h-1.49c-.55,3.32,2.04,3.32,1.49,0ZM52.28,33.54l-1.49-5.21c.42,1.57-1.29,5.82,1.49,5.21ZM39.58,29.82h-1.49c-.55,3.32,2.04,3.32,1.49,0ZM41.82,37.26c-.04-.89-1.02-4.74-1.49-3.72.18,2-.93,4.29,1.49,3.72ZM49.29,43.21c2.17.05,3.1-1.62,1.12-2.97l-1.12,2.97Z"/>
    <path class="cls-50" d="M47.8,60.33c.55,3.32-2.04,3.32-1.49,0h1.49Z"/>
    <path class="cls-62" d="M16.44,50.66l1.04.12.45.62c-.44,1.36.03,1.14,0,1.49l-2.24-.74c-.02-.14-1.16-.61-.67-1.39l1.42-.1Z"/>
    <path class="cls-66" d="M14.95,42.47c1.08.03,1.37.72,1.49.74-.68,2.92,1.25,2.01,1.49,2.23.18.17-.12,2.93,0,3.73h-1.49c-.06-.17-1.1-1.45-1.49-2.24-.47-.95-1.24-1.72-1.49-2.23-.16-.33.16-1.15,0-1.49l.45-.64c.34-.12.69-.11,1.05-.1Z"/>
    <path class="cls-53" d="M11.96,45.45c.24-.07.54.08.75,0,1.08,1.35.56,3.02.75,4.47.03.24-.03.5,0,.74-.33-.16-.5-.51-.75-.74-.67-.63-2.69-2.87-2.99-2.98-.03-.24.04-.5,0-.74.76-.17,1.52-.52,2.24-.74Z"/>
    <path class="cls-52" d="M19.43,46.19v.74c-.81,1.3-1.03,3.04-1.49,4.47l-.45-.62-1.04-.12c-.07-.46.12-1.15,0-1.49h1.49c-.12-.79.18-3.56,0-3.72h.75c.21.24.48.68.75.74Z"/>
    <path class="cls-220" d="M14.95,46.94l-1.49,2.98c-.19-1.45.34-3.11-.75-4.47.36-.14.63-.37.75-.74.25.51,1.03,1.29,1.49,2.23Z"/>
    <path class="cls-220" d="M13.45,51.4c.07.49,1.07,1.28.74,2.23-.74-.03-1.5.05-2.24,0,.02-.63.86-1.85,1.49-2.23Z"/>
    <path class="cls-110" d="M29.88,6.75c.09.71-.14,1.59,0,2.23-2.15-3.45-2.55-.96-2.24,2.24h1.49c-.25.09-.78,1.7-.75,2.23-1.3-.13-2.49-.36-3.73-.74.08-.75,1.71-2.79,1.49-2.97h-5.23c.41-.99,1.36-.43,2.07-.92.56-.39.72-1.97.92-2.06.13-.06,1.19.7,1.87.69,1.09-.02,2.18-.6,4.1-.69Z"/>
    <path class="cls-140" d="M20.92,9.73h5.23c.21.19-1.41,2.23-1.49,2.98s.39,1.59.75,2.23c-.98.08-2.02-.11-2.99,0-.02-.47-.34-.64-.75-.74.5-1.73-.32-2.58-.75-3.72-.04-.12-.05-.63,0-.74Z"/>
    <path class="cls-110" d="M21.67,14.19c-.23-.06-.52.06-.75,0l-1.49-2.98c.48-.18,1.29.12,1.49-.74.43,1.14,1.25,1.99.75,3.72Z"/>
    <path class="cls-81" d="M39.59,7.49c-.63.28-1.72,1-2.24,1.49-.57.54-1.11.45-.72,1.82l.72.41c-.14.15.2.85-1.12.76l-.45-1.4c-.14-.22-1.49.71-2.16.65-.08,0-.84-.96-1.49-.74.01-.48.06-1.02,0-1.49.46.09,1.14-.13,1.49,0,.1.04.38.93,1.05.74,1.05-.3,1.37-1.93,1.19-2.97,1.15.22,2.59-.23,3.73.74Z"/>
    <path class="cls-58" d="M35.85,6.75c.18,1.04-.14,2.67-1.19,2.97-.67.19-.95-.7-1.05-.74l.74-.38c.44-1.75-2.04-.5-1.49-2.6,1.47,0,2.04.56,2.99.74Z"/>
    <path class="cls-155" d="M41.82,6.75c.33.78,1.75.35,1.49,2.23-1.75-1.28-3.85.48-5.97,0,.52-.49,1.61-1.21,2.24-1.49.48-.21,1.03-.65,1.49-.74.23-.05.49.03.75,0Z"/>
    <path class="cls-145" d="M32.87,6.01c-.55,2.1,1.93.85,1.49,2.6l-.74.38c-.35-.13-1.03.09-1.49,0-.08-.64-.12-1.14-.75-1.49v-.74c.15-.03.46-.7.75-.74.24-.03.5,0,.75,0Z"/>
    <path class="cls-184" d="M29.13,4.52c1.24-.05,2.5.03,3.73,0l-.75.74c-1.09-.09-2.98.47-2.99-.74Z"/>
    <path class="cls-127" d="M31.37,6.75v2.98s-1.49,0-1.49,0c-.08-.18.06-.49,0-.74-.14-.64.09-1.53,0-2.23.49-.02,1.09.09,1.49,0Z"/>
    <path class="cls-139" d="M44.81,6.75c-.98.1-2.01-.1-2.99,0-.14-.32.09-1.04,0-1.49.82.33,2.65-.39,2.99,1.49Z"/>
    <path class="cls-89" d="M51.53,10.47c.9,2.56,1.35,1.81,2.24,2.98.54.7.96,1.53,1.49,2.23l-1.49,2.98c-.68-1.25-.45-1.43-.75-2.23-.64-1.76-1.79-1.14-2.24-1.49-.21-.16-.41-.5-.75-.74-.46-.33-.53-1.8-2.24-1.49v-.74c.67-.35.57-.95.75-1.49h2.99Z"/>
    <path class="cls-92" d="M61.24,26.84c-.94,1.07-.42,2.3.75,2.98.04.24-.03.5,0,.74-.92.95-2.21-.09-2.99,0-.01-1.24.02-2.48,0-3.72-.03-1.68.43-2.42-.75-3.72-.44-.48-.49-.91-1.49-.74.15-.33.57-.51.75-.74.41-.56.68-.29.75-1.49,1.84,1.66,2.35,4.41,2.99,6.7Z"/>
    <path class="cls-113" d="M61.98,30.56c.25,2.01-.05,3.22,0,4.47-.48-.06-1.04.08-1.49,0-2.49-.45-2.15-.71-1.49-2.98h-1.5c-.01-.25.05-.72,0-.74.8.35,1.41-.73,1.49-.74.78-.09,2.06.95,2.99,0Z"/>
    <path class="cls-75" d="M58.25,19.4c-.97-.29-3.05.19-2.24.74.38.26,2.01-.53,1.49,1.49-.17.23-.6.41-.75.74h-.75c-.5-.98-.99-2.01-1.49-2.98l2.24-1.49c.32.49,1.27.92,1.49,1.49Z"/>
    <path class="cls-130" d="M56.76,17.91l-2.24,1.49c-.1-.19-.56-.41-.75-.74l1.49-2.98c.53.7,1.01,1.49,1.49,2.23Z"/>
    <path class="cls-102" d="M58.25,19.4c.06.15.01.51,0,.74-.07,1.2-.33.93-.75,1.49.51-2.03-1.11-1.23-1.49-1.49-.82-.55,1.27-1.03,2.24-.74Z"/>
    <path class="cls-18" d="M59,17.17c-.16-1.55-.11-1.69,1.49-1.49v1.86s-.74.37-.74.37c-.25-.36-.55-.52-.75-.74Z"/>
    <path class="cls-142" d="M61.98,29.82c-1.16-.67-1.69-1.91-.75-2.98.32,1.13.5,1.48.75,2.98Z"/>
    <path class="cls-61" d="M57.5,32.05h1.5c-.66,2.26-1,2.52,1.49,2.98l-.75,6.7c-.25.01-.5,0-.75,0-.53,0-2.12-.02-2.24,0-1.95-2.79.58-1.33.75-3.72.03-.46.06-1.04,0-1.49-.07-.57-.55-2.69-.75-2.98.69-.05.78-.95.75-1.49Z"/>
    <path class="cls-16" d="M55.26,44.7c.16.03.83.95,1.49.74-.03.25.06.72,0,.74-.29.13-1.12-.2-1.43.05-.53.44,0,2.64,1.14,2.83l1.03.1c-.68,1.42-.97,2.39-2.24,3.72h2.99c.05.66-1.52,2.02-2.24,2.24-.58-1.08-1.84-1.38-2.99-1.49.11-.42-.09-1.03,0-1.49.04-.2,1.29-.98.74-2.23h-2.24s0,1.49,0,1.49c-.77-1.68-2.05-3.27-2.24-5.21v-.74c.34.16,1.15-.16,1.49,0,.38.17,1.94,1.85,2.24,1.49v-2.23c.7,0,1.65-.12,2.24,0Z"/>
    <path class="cls-42" d="M55.26,55.12v.74c.17,1.59.1,1.66-1.49,1.49l-1.49-.74c.16-.29-.15-1.12,0-1.49.13-.32.69-.57.75-.74l.49.63c.57.2,1.16.13,1.75.12Z"/>
    <path class="cls-35" d="M56.01,55.12c-.19.06-.49,0-.75,0-.59,0-1.17.08-1.75-.12l-.49-.63c.07-.21-.06-.5,0-.74,1.15.1,2.4.41,2.99,1.49Z"/>
    <path class="cls-122" d="M56.76,46.19h.75c.15.33.58.51.75.74.41,1.19-.47,1.66-.75,2.23l-1.03-.1c-1.13-.19-1.67-2.39-1.14-2.83.3-.25,1.14.08,1.43-.05Z"/>
    <path class="cls-104" d="M59,41.73c0,.5,0,.99,0,1.49h-2.24c-.07.73.09,1.51,0,2.23-.67.21-1.33-.71-1.49-.74l-.75-2.23c.87.21,1.68-.66,2.24-.75.12-.02,1.71,0,2.24,0Z"/>
    <path class="cls-20" d="M59,43.21c0,.48-.08,1.07,0,1.49-.76.2-1.21.8-1.49,1.49h-.75c.06-.03-.03-.49,0-.74.09-.72-.07-1.5,0-2.23h2.24Z"/>
    <path class="cls-79" d="M44.81,6.75c.73-.08,1.5.06,2.24,0-1.59.52-1.24,1.8-1.49,2.23-.37.63-1.37,1.23-1.49,2.23-.41-.2-1.19-.75-1.49-.74.22-.43.7-1.13.75-1.49.26-1.88-1.16-1.46-1.49-2.23.98-.1,2.01.1,2.99,0Z"/>
    <path class="cls-98" d="M47.8,7.49c-.21.11-.83,1.92-2.24,1.49.26-.43-.09-1.72,1.49-2.23.25-.02.5.03.75,0v.74Z"/>
    <path class="cls-72" d="M49.29,8.24c-.54.66-.51,1.5-.75,2.23-.18.54-.07,1.14-.75,1.49-1.94,1.63-2.61-.19-3.73-.74.12-1,1.12-1.6,1.49-2.23,1.41.43,2.03-1.38,2.24-1.49.89-.45,1.4.71,1.49.74Z"/>
    <path class="cls-99" d="M49.29,8.24c.56.24,1.95.64,2.14.86.34.4,0,1.07.1,1.37h-2.99c.24-.73.21-1.58.75-2.23Z"/>
    <path class="cls-218" d="M17.93,20.89c-.21.43.18,1.65,0,2.23-.32,1.03-1.17,1.61-2.24,1.49-.38,1.45-1.53,3.52-1.49,3.72-.87.25-.88,1.08-.73,1.82l.73.42c-.2,1-.74,2.12-.75,2.23-.71.88-.87,1.85-2.24,1.49.99-2.27.64-3.7,0-5.96l1.5.37c-.88-2.13.31-4.93,2.23-6.32-.08.73.03,1.5,0,2.23.25.02.5-.03.74,0,.23-.89.15-2.97.89-3.61.4-.35,1.22,0,1.35-.11Z"/>
    <path class="cls-100" d="M20.92,17.17c-.09.07-.59,1.15-.75,1.49-3.02.74-1.92,1.96-2.24,2.23-.13.11-.95-.24-1.35.11-.74.64-.65,2.72-.89,3.61-.24-.03-.5.03-.74,0,.03-.73-.08-1.5,0-2.23.03-.26-.06-.55,0-.74.46-1.46,2.3-1.42.75-3.72,2.11.44,2.9-1.34,4.48-2.23l.12,1.04.63.45Z"/>
    <path class="cls-198" d="M14.95,38.01h-1.49c-.21-.78-.81-2.74-1.49-2.98-.17-.06-.49,0-.75,0v-.74c1.37.37,1.53-.6,2.24-1.49-.13,1.34,1.26,3.83,1.49,5.21Z"/>
    <path class="cls-71" d="M25.4,14.94v.74c-1.02.44-1.98,1.01-2.99,1.49-.2.09-.53-.09-.75,0v-2.23c.23-.05.5.03.75,0,.96-.11,2.01.08,2.99,0Z"/>
    <path class="cls-212" d="M21.67,17.17c-.23.09-.59-.11-.75,0l-.63-.45-.12-1.04c.41-.23,1.12-.67,1.49-.74v2.23Z"/>
    <path class="cls-183" d="M13.45,38.01c.31,1.17-.63,3.21,1.49,3.72v.74c-.36,0-.7-.02-1.05.1l-.45.64c-.33-.72-1.64-1.65-1.87-2.91-.25-1.34.85-3.63.38-5.27.68.24,1.28,2.19,1.49,2.98Z"/>
    <path class="cls-138" d="M11.96,45.45c-.72.22-1.48.57-2.24.74-.02-.12-.56-1.62-.75-2.23l2.98-.74v2.23Z"/>
    <path class="cls-24" d="M35.85,30.56c.35,1.92,1.99,2.66,1.4,4.72-.73,2.56-4.53.78-3.64,4.21h-1.49c.02-.15.02-2.82,0-2.98-.09-.88-1.25-2.37-.75-3.72,1.02-1.13,3.61-1.86,4.48-3.72-.03.45-.07,1.09,0,1.49Z"/>
    <path class="cls-177" d="M28.39,32.05c.67,1.77-.17,4.16-.05,5.49.07.84,1.46.37,1.55.47.2.22-.15,2.29,0,2.98h1.49c-.06.22.06.51,0,.74h-2.24c-.13-.48-.75-2.12-1.12-2.24-1.89-.59-.02,1.89-1.49,2.23-1.72-2.23-2.23-1.38-4.1,0-.46-2.28,2.68-2.65,3.41-3.72.51-.73-.26-1.7-.18-2.47.34-3.01.67-2.38,2.73-3.48Z"/>
    <path class="cls-209" d="M32.12,36.52c.02.16.02,2.82,0,2.98-.01.08-.53.72-.75,1.49h-1.49c-.15-.69.2-2.75,0-2.98l.75-1.49c.4.11,1.02-.08,1.49,0Z"/>
    <path class="cls-107" d="M38.84,40.98c.33.18.6.38.75.74-.59.21-.99,1.08-1.49,1.49-.43-1.24-2.02-2.49.75-2.23Z"/>
    <path class="cls-117" d="M35.85,52.89c.06,1.8.48,2.59-1.49,2.23.53-1.03.53-1.19,0-2.22h1.49Z"/>
    <path class="cls-87" d="M42.57,43.21c.66.43,1.75,1.01,2.24,1.49l-1.49.74-.75,2.98c-.6-1.14.05-2.76-.38-3.67-.49-1.04-2.44-1.66.37-1.54Z"/>
    <path class="cls-90" d="M25.4,54.38c-.15.9.1,2.02,0,2.98-.48.13-.99.56-1.49.74v-3.72c.38-.12,1.03.08,1.49,0Z"/>
    <path class="cls-214" d="M23.91,58.1h-.75c-.12-.95.08-2.01,0-2.98.16-.09.33-.61.75-.74v3.72Z"/>
    <path class="cls-97" d="M39.59,10.47l-1.49,2.23,1.53.43c-.74,1.41-1.21,2.82.71,3.3-.01.25.02.5,0,.74l-1.08.05c-.34.14-.36.39-.41.7-4.17.71-.89-2.39-1.5-4.47-1.44,1.06-2.49.04-3.73,0v-2.23c.67.07,2.02-.86,2.16-.65l.45,1.4c1.32.09.98-.61,1.12-.76.41-.44.84-.8.75-1.49,1.25-.39,1.3.64,1.49.74Z"/>
    <path class="cls-2" d="M32.12,8.98c.06.47.01,1.01,0,1.49-.03,1.1-.08,2.05-.75,2.98-.49-.04-1,.04-1.49,0s-1,.05-1.49,0c-.03-.53.5-2.14.75-2.23.48-.19,1.57.13,2.24,0,.33-1.08-1.07-.56-1.49-1.48h1.49s0-2.23,0-2.23c.63.35.67.84.75,1.49Z"/>
    <path class="cls-203" d="M28.39,32.05c.21-.11.08-1.15,1.49-.74.17,1.4-.24,3.14,0,4.46.12.67.19.59.75.74l-.75,1.49c-.09-.1-1.48.37-1.55-.47-.11-1.33.72-3.72.05-5.49Z"/>
    <path class="cls-214" d="M20.92,21.63l-2.24,2.23c-.22-.29-.38-.6-.75-.74.18-.58-.21-1.8,0-2.23.17-.35,1.13.18,2.24-2.23.23-.06.51.05.75,0,.05.98-.08,2,0,2.98Z"/>
    <path class="cls-64" d="M28.39,13.45c.49.05,1-.04,1.49,0v.74c-1.19-.19-1.99.34-2.99.74-.51.21-.99.53-1.49.74v-.74c-.36-.64-.83-1.51-.75-2.23,1.24.38,2.43.61,3.73.74Z"/>
    <path class="cls-143" d="M29.88,14.19c2.22,1.24-.8,1.68-.75,2.23l-2.24.74c-.04-.74.03-1.49,0-2.23.99-.4,1.8-.94,2.99-.74Z"/>
    <path class="cls-173" d="M20.17,43.21c.12.21,1.15.08.75,1.49l-2.24.75h-.75c-.25-.23-2.17.69-1.49-2.23.24.05.51-.06.75,0,.86.2,1.67.53,2.54.66l.44-.66Z"/>
    <path class="cls-109" d="M38.09,24.61c-.66,1.75-1.33,3.57-1.65,5.44l-.59.52c-.07-.4-.03-1.04,0-1.49.15-2.27.96-3.33,1.49-5.21l.75.74Z"/>
    <path class="cls-56" d="M33.61,11.21v2.23c-.54-.02-1.01.09-2.24,0,.66-.93.72-1.88.75-2.98.65-.22,1.41.74,1.49.74Z"/>
    <path class="cls-91" d="M20.92,21.63c.09,1.13.53,2.22,0,3.72-1.49.33-1.56-.59-2.24-1.49l2.24-2.23Z"/>
    <path class="cls-5" d="M39.59,20.89c-.45,1.66-1.02,2.46-1.49,3.72l-.75-.74c.44-1.55,1.16-2.68,1.49-3.72l.75.74Z"/>
    <path class="cls-1" d="M30.63,31.31c-.89-2.43,2.97-4.77,2.97-2.6,0,.2-2.34,2.47-2.97,2.6Z"/>
    <path class="cls-150" d="M40.33,17.17c-.16,1.7-.34,2.2-.75,3.72l-.75-.74c.17-.55-.12-1.56,0-2.23.06-.31.08-.56.41-.7l1.08-.05Z"/>
    <path class="cls-123" d="M29.13,16.42c.01.11,1.06.78.75,1.48l-2.99.75c-.02-.49.03-.99,0-1.49l2.24-.74Z"/>
    <path class="cls-187" d="M14.95,38.01c.19,1.11-.13,2.54,0,3.72-2.12-.51-1.18-2.55-1.49-3.72h1.49Z"/>
    <path class="cls-188" d="M20.17,43.21l-.44.66c-.87-.13-1.69-.46-2.54-.66v-.74c1.21.24,1.69-.3,1.49-1.49.37-.63,1.28,1.85,1.49,2.23Z"/>
    <path class="cls-115" d="M32.12,36.52c-.47-.08-1.09.11-1.49,0-.56-.16-.63-.08-.75-.74,1.02-.75.46-1.84,1.49-2.98-.5,1.35.66,2.84.75,3.72Z"/>
    <path class="cls-54" d="M18.68,40.98c.2,1.19-.29,1.73-1.49,1.49.03-1.44-.52-2.59,1.12-2.23l.38.74Z"/>
    <path class="cls-216" d="M36.59,21.63l-2.23-1.86c1.66-2.35,1.88-.05,2.23,1.86Z"/>
    <path class="cls-178" d="M22.41,17.17c.24,1.78-.45,1.27-1.49,1.49-.24.05-.51-.06-.75,0,.16-.34.65-1.42.75-1.49.15-.11.52.09.75,0s.55.09.75,0Z"/>
    <path class="cls-38" d="M19.43,46.19c.62.15,1.54-.11,2.24,0v1.49s-2.24-.74-2.24-.74v-.74Z"/>
    <path class="cls-86" d="M17.93,32.06c.23.18-.77,1.34-1.13,1.48-1.66.66-2-2.35,1.13-1.48Z"/>
    <path class="cls-189" d="M14.2,30.56l-.73-.42c-.15-.74-.14-1.56.73-1.82,0,.04.62-.17.67.45.07.84-.58,1.33-.67,1.78Z"/>
    <path class="cls-63" d="M56.76,33.54c.19.28.67,2.4.75,2.98l-1.49-.74v1.86s0,.37,0,.37h1.49c-.17,2.39-2.7.93-.75,3.72-.56.09-1.37.96-2.24.75l.75,2.23c-.6-.12-1.54,0-2.24,0h-1.49c.7-.56,1.42-.69,1.49-.74.42-.36,1.74-2.03,1.49-2.23h-1.49c.22-.86,1.48-3.52,1.49-3.73.84-.3.86-1.05.75-1.85l-.75-.38c.17-1.03.03-2.07.75-2.98.34.33,1.33.51,1.49.74Z"/>
    <path class="cls-124" d="M50.78,14.94c.1.77-.7,1.73-.75,2.23-.11,1.14.4,1.93,1.49,2.23v.74c-.74-.21-1.82-.05-2.64-.57l-.35.57c-1.27-1.03-2.77-2.08-2.24-3.72,1.47-.45,2.95.12,3.73-2.23.34.25.53.58.75.74Z"/>
    <path class="cls-15" d="M56.01,27.59c.45,1.17.64,1.92,1.5,2.97-3.25.46-.79.38,0,.75.05.02-.01.5,0,.74.03.54-.06,1.44-.75,1.49-.16-.23-1.15-.42-1.49-.74-2.16-2.06-1.08-3.1-1.49-5.21.73-.07,1.54.1,2.24,0Z"/>
    <path class="cls-105" d="M50.04,14.19c-.78,2.35-2.26,1.78-3.73,2.23-.21.06-.49-.05-.75,0,.11-.74-.29-2.6.08-2.9.09-.07,2.04-.8,2.16-.82,1.71-.31,1.78,1.15,2.24,1.49Z"/>
    <path class="cls-121" d="M44.06,11.21c1.12.55,1.79,2.37,3.73.74v.74c-.11.02-2.07.75-2.16.82-.37.3.03,2.16-.08,2.9-1.44,0-.39-2.53-.75-2.98-1.42-1.82-1.41,1.33-1.49,1.49-.05.11-.65-.11-.75,0l-.75-2.98c1.05-.39.55-1.1.75-1.49.3,0,1.08.54,1.49.74Z"/>
    <path class="cls-49" d="M41.82,11.96l.75,2.98c-.79.9-.78,1.85-2.24,1.49.04-.99-.21-4.17.05-4.44.25-.25,1.11.09,1.44-.03Z"/>
    <path class="cls-202" d="M51.53,52.15h1.49c-.09.46.11,1.06,0,1.49-.06.24.07.53,0,.74-.06.18-.61.43-.75.74l-2.24-.74c.04-1.52-.52-2.57,1.49-2.23Z"/>
    <path class="cls-129" d="M52.28,33.54c-2.78.61-1.06-3.63-1.49-5.21l1.49,5.21Z"/>
    <path class="cls-160" d="M55.26,24.61c.24.58.31,1.84.75,2.98-.7.1-1.51-.07-2.24,0-.07-.33-.64-2.18-.75-2.23l.63-.45.12-1.04c.36.2,1.23.1,1.49.74Z"/>
    <path class="cls-124" d="M43.32,14.94c.08-.16.07-3.31,1.49-1.49.36.46-.69,2.99.75,2.98-.18.03-.99,1.28-2.24.75v-2.24Z"/>
    <path class="cls-180" d="M51.53,20.15c.88.25.72-.05,1.49.74h-1.49s0,2.23,0,2.23c-.19-.13-1.75-1.97-2.99-2.98l.35-.57c.82.52,1.9.36,2.64.57Z"/>
    <path class="cls-23" d="M51.53,51.4v-1.49s2.24,0,2.24,0c.55,1.25-.71,2.03-.74,2.23h-1.49c-.06-.25.08-.56,0-.74Z"/>
    <path class="cls-169" d="M42.57,21.64c.43.43-.02,3.74-1.49,3.72-.03-1.39.7-2.43,0-3.72.47.04,1.39-.1,1.49,0Z"/>
    <path class="cls-196" d="M53.77,23.87l-.12,1.04-.63.45c-.82-.37-2.88.49-.75-2.23.5.25,1.01.48,1.49.74Z"/>
    <path class="cls-131" d="M49.29,43.21l1.12-2.97c1.98,1.35,1.05,3.02-1.12,2.97Z"/>
    <path class="cls-44" d="M53.02,44.7v2.23c-.3.36-1.86-1.32-2.24-1.49.12-.38.47-.52.75-.74h1.49Z"/>
    <path class="cls-197" d="M41.82,37.26c-2.41.58-1.31-1.71-1.49-3.72.47-1.02,1.45,2.83,1.49,3.72Z"/>
    <path class="cls-76" d="M48.54,21.64c.55,3.32-2.04,3.32-1.49,0h1.49Z"/>
    <path class="cls-134" d="M53.02,20.89c1.62,1.66.01,1.26-.75,2.23-.21-.1-.58.11-.75,0v-2.24s1.49,0,1.49,0Z"/>
    <path class="cls-96" d="M39.58,29.82c.55,3.32-2.04,3.32-1.49,0h1.49Z"/>
    <path class="cls-170" d="M49.29,45.45v.74c-1.12.08-2.35-.56-2.24-1.86-.07-1.16,1.83.93,2.24,1.11Z"/>
    <path class="cls-59" d="M53.02,41.73h1.49c.24.21-1.07,1.87-1.49,2.23-.79-1.34-.13-1.75,0-2.23Z"/>
    <path class="cls-103" d="M54.52,38.01c.03-.7-.29-.54,0-2.23l.75.38c.12.8.09,1.55-.75,1.85Z"/>
    <path class="cls-201" d="M29.13,11.21h-1.49c-.31-3.19.09-5.69,2.24-2.23.06.26-.08.57,0,.74.42.92,1.82.4,1.49,1.48-.66.13-1.76-.18-2.24,0Z"/>
    <path class="cls-41" d="M43.32,8.98c-.05.36-.53,1.06-.75,1.49-.86,0-.9,1.14-2.99,0-.19-.1-.23-1.13-1.49-.74.09.69-.35,1.04-.75,1.49l-.72-.41c-.4-1.37.15-1.28.72-1.82,2.13.48,4.23-1.28,5.97,0Z"/>
    <path class="cls-128" d="M53.02,16.42c.29.8.06.99.75,2.23.18.34.64.55.75.74.51.97,1,2,1.49,2.98.37.73.76,1.38.75,2.23h-1.49c-.26-.64-1.13-.55-1.49-.74-.49-.27-1-.5-1.49-.74.76-.97,2.36-.57.75-2.23-.77-.79-.62-.49-1.49-.74v-2.98c.24-.07.79-.94,1.49-.74Z"/>
    <path class="cls-116" d="M53.02,16.42c-.7-.19-1.26.67-1.49.74-.38.12-1.03-.08-1.49,0,.05-.5.85-1.46.75-2.23.45.34,1.6-.27,2.24,1.49Z"/>
    <path class="cls-152" d="M59,26.84c.02,1.24-.01,2.48,0,3.72-.08.01-.7,1.09-1.49.74-.79-.36-3.24-.29,0-.75-.86-1.06-1.05-1.8-1.5-2.97,1.02-.15,1.97-.57,2.99-.74Z"/>
    <path class="cls-142" d="M59,26.84c-1.01.17-1.97.59-2.99.74-.43-1.13-.51-2.4-.75-2.98h.75v1.49s1.86,0,1.86,0c.62.16.38-.79.38-1.49,0-.5,0-.99,0-1.49,1.18,1.3.72,2.04.75,3.72Z"/>
    <path class="cls-19" d="M58.25,23.12c0,.5,0,.99,0,1.49h-1.49c0-.86-.38-1.51-.75-2.23h.75c1-.17,1.06.26,1.49.74Z"/>
    <path class="cls-14" d="M57.5,36.52c.06.45.03,1.03,0,1.49h-1.49s0-.37,0-.37v-1.86s1.5.74,1.5.74Z"/>
    <path class="cls-207" d="M20.17,18.66c-1.11,2.42-2.07,1.89-2.24,2.23.32-.27-.78-1.5,2.24-2.23Z"/>
    <path class="cls-25" d="M42.57,10.47c-.19.39.31,1.1-.75,1.49-.33.12-1.19-.22-1.44.03-.26.27-.01,3.45-.05,4.44-1.92-.47-1.44-1.88-.71-3.3l-1.53-.43,1.49-2.23c2.09,1.14,2.13,0,2.99,0Z"/>
    <path class="cls-180" d="M51.53,17.17v2.23c-1.09-.31-1.6-1.09-1.49-2.23.47-.08,1.11.12,1.49,0Z"/>
    <path class="cls-175" d="M58.25,24.61c0,.7.24,1.65-.38,1.49h-1.86s0-1.49,0-1.49h2.24Z"/>
  </g>
</svg>