<?xml version="1.0" encoding="UTF-8"?>
<svg id="Layer_1" data-name="Layer 1" xmlns="http://www.w3.org/2000/svg" viewBox="0 0 95.76 67.71">
  <path d="M0,0h95.76v67.71H0V0ZM93.52,2.23H2.24v13.02c0,.56,8.06,6.45,8.59,6.32,4.65-6.3,1.69-12.32,10.82-13.81,9.76-1.59,38.02-1.31,48.33-.37,6.69.61,10.12,9.23,13.82,14.17l1.07-.02c.88-1.78,8.64-5.27,8.64-6.3V2.23ZM82.29,23.06l-6.75-10.02-5.03-3.99c-14.63,1.51-35.08-2.58-49.01.82-7.61,1.86-5.2,7.73-8.84,13.52l4.16,1.97c12.11-.76,24.51-1.3,36.63-1.57,3.93-.09,27.82.65,28.83-.72ZM9.72,23.08l-7.47-4.47v6.7c1.21.28,9.27.3,7.47-2.22ZM93.51,18.61c-.45-.5-8.81,4.04-7.47,5.2h7.48s0-5.2,0-5.2ZM76.31,26.05l-57.6,1.1c4.2,2.68,14.12,11.15,18.48,12.13,3.05.68,21.27.5,23.68-.69,4.53-2.24,10.68-9.66,15.44-12.54ZM91.65,46.13c-4.16.22-8.53,0-12.72,0-3.43,0-5.17-7.5-1.1-9.28.53-.23,10.56-1.18,11.55-1.11,1.64.1,2.51,1.64,4.15,1.46-1.07-4.59-5.02-11.02-10.09-11.23-6-.25-14.98,9.74-19.83,13.1,5.33-.11,11.39,1.16,6.23,6.94H27.41c-1.75-.57-2.33-4.56-.87-5.84l6.37-1.47c-4.44-.67-15.64-11.25-18.43-11.7-7.58-1.22-12.01,9.16-9.99,15.41,2.8-5.28,11.47-4.61,16.68-3.53,4.18.86,3.4,7.17.52,9.48,7.17.47,14.16,1.82,21.45,1.96,5.61.11,14.58.03,20.06-.47,3.58-.33,3.96-2.2,7-2.51,6.48-.67,15.28,1.39,21.44.28,1.04-.19,1.99-.63,1.88-1.85-.41-1.15-1.66.35-1.88.36ZM93.52,26.04h-4.49c2.94,3.58,4.94,8.1,4.49,0ZM5.98,27.54h-3.74s.01,6.69.01,6.69c1.36-.27,4.12-6.35,3.73-6.69ZM91.84,38.87c-1.49-1.46-12.85-1.52-14.08.33-3.94,5.92,8.51,5.67,11.47,5.24,3.19-.47,4.89-3.33,2.61-5.57ZM20.57,40.18c-2.02-.57-9.53,0-12.34,0-.29,0-2.25,3.46-.4,5.23,2.32,2.22,3.32.75,5.25.88s7.19,1.38,8.68-.64c1.16-1.59.71-4.94-1.18-5.47ZM37.29,45.28c.39-.25.92-2.42.76-3.08-.65-2.69-9.62-2.38-10.25-.01-1.2,4.51,8.36,3.81,9.49,3.1ZM60.02,44.47c1.84,1.7,11.26,1.87,10.22-2.28-1.06-4.26-14.78-1.91-10.22,2.28ZM42.73,42.75c0-1.05-.86-1.9-1.91-1.9s-1.91.85-1.91,1.9.86,1.9,1.91,1.9,1.91-.85,1.91-1.9ZM47.01,41.03c-.66-.4-2,.01-2.87-.11-.91,8.33,6.03,2,2.87.11ZM52.37,40.92h-3v3.73h3v-3.73ZM2.24,42.41v23.07c9.84.96,2.62-5.66,2.21-10.04-.28-3.09,1.71-5.88,1.41-7.26-.15-.69-2.7-5.09-3.62-5.76ZM68.07,55.81c.09.07.13,1.28.77,1.82,1.94,1.64,17.4,1.62,20.53,1.11,5.23-.85,6.37-7.59.73-8.82-2.67-.58-19.64-.63-21.27.3-1.16.67-.95,2.55-1.86,3.35-6.42-9.28-11.29,6.31-3.17,5.09,2.46-.37,2.86-3.93,4.27-2.85ZM32.18,54.31c-1.18-1.22-.42-3.09-4.17-3.67-3.29-.51-13.82-.5-17.19-.08-6.54.81-6.33,8.75-.68,9.66,3.31.54,13.71.46,17.18.06,4.69-.54,3.91-3.06,4.86-3.74.33-.24,1.94,1.98,3.38,2.23,7.28,1.27,5.47-9.23-.63-7.33-1.64.51-2.08,3.55-2.75,2.86ZM31.8,64.74h35.16c.84,0,2.79-3.67.2-4.72s-11.8-.6-15.2-.53c-6.62.13-13.35,1.23-20.05.9-1.87.48-1.59,3.91-.11,4.35Z"/>
</svg>