<?xml version="1.0" encoding="UTF-8"?>
<svg id="Layer_1" data-name="Layer 1" xmlns="http://www.w3.org/2000/svg" viewBox="0 0 128.25 90.95">
  <defs>
    <style>
      .cls-1 {
        fill: #fff;
      }

      .cls-2 {
        fill: none;
      }
    </style>
  </defs>
  <path class="cls-2" d="M48.98,58.47c-8.05,1.64-8.12,14.99,1.35,15.51,11.4.63,9.89-17.81-1.35-15.52h0Z"/>
  <path class="cls-2" d="M69.43,73.95v-14.54c0-.79-2.13-1.42-3-1.12v15.66h3Z"/>
  <path class="cls-2" d="M63.43,62.77c-5.54-.4-1.86,7.66-3,11.18h3s0-11.18,0-11.18Z"/>
  <rect class="cls-2" y=".05" width="128.25" height="90.9"/>
  <path d="M128.25,0v90.9H0V0h128.25ZM2.95,3.65v83.53h122.34V3.65H2.95Z"/>
  <path d="M48.98,58.42c11.24-2.29,12.75,16.15,1.35,15.52-9.47-.53-9.4-13.88-1.35-15.52ZM47.86,62.16c-2.45,3.93-.63,11.57,4.89,8.97,5.29-2.5,1.66-13.42-4.89-8.97Z"/>
  <path d="M69.43,73.91h-3v-15.66c.87-.3,3,.33,3,1.12v14.54Z"/>
  <path d="M63.43,62.72v11.19h-3c1.14-3.53-2.54-11.58,3-11.19Z"/>
  <path class="cls-1" d="M2.95,3.65h122.34v83.53H2.95V3.65ZM17.25,70.02v-13.05c0-1.04,1.5-6.43,2.1-7.61,2.7-5.31,6.14-4.17,9.97-.63,1.24,1.86-.7,8.54-.81,11.22-.19,4.55-1.02,14.21,2.47,17.29,4.79,4.23,23.48,3.51,30.18,3.25,4.94-.2,20.48-1.01,23.27-4.45,3.66-4.51,1.1-20.31,1.68-26.39l-19.41-15c-2.92-7.06,1.68-6.5,7.18-7.13,8.92-1.03,27.1-3.05,34.65,1.33,2.34,1.36,5.11,4.11,5.48,6.87l4.44-3.46c-14.94-17.36-40.08-8-59.94-10.7.38,1.46,5.05,1.02,4.49,3.34-4.73,3.98-11.24,5.06-8.25-3.34-5.05.11-7.22,6.47-13.5,5.22l5.25.73c-.99,3.68,2.59,3.89,1.5,7.68-.21.73-9.92,6.92-11.25,8.34-2.07.59-12.15-7.68-17.99-5.19-2.19.93-5.04,5.86-5.24,8.27-.3,3.65.27,14.89.71,18.57.25,2.06,1,3.93,3.02,4.83h0ZM36,27.52c-9.3,3,2.07,7.86,6.75,4.09-2.98-1.15-7.42,1.17-9-2.59l2.25-1.5Z"/>
  <path class="cls-1" d="M47.86,62.16c6.55-4.45,10.18,6.47,4.89,8.97-5.52,2.61-7.34-5.04-4.89-8.97Z"/>
  <path d="M17.25,70.02c-2.01-.9-2.77-2.77-3.02-4.83-.44-3.68-1.01-14.93-.71-18.57.2-2.42,3.05-7.34,5.24-8.27,5.84-2.49,15.92,5.78,17.99,5.19,1.33-1.43,11.04-7.62,11.25-8.34,1.08-3.79-2.49-4-1.5-7.68l-5.25-.73c6.27,1.25,8.45-5.11,13.5-5.22-2.99,8.4,3.52,7.32,8.25,3.34.55-2.32-4.12-1.88-4.49-3.34,19.86,2.7,45-6.65,59.94,10.7l-4.44,3.46c-.37-2.75-3.14-5.51-5.48-6.87-7.55-4.38-25.73-2.36-34.65-1.33-5.5.63-10.1.07-7.18,7.13l19.41,15c-.58,6.08,1.99,21.89-1.68,26.39-2.8,3.44-18.33,4.25-23.27,4.45-6.7.27-25.39.99-30.18-3.25-3.49-3.08-2.66-12.73-2.47-17.29.11-2.68,2.05-9.36.81-11.22-3.83-3.54-7.26-4.68-9.97.63-.6,1.18-2.1,6.57-2.1,7.61v13.05h0ZM80.25,23.79c-1.23-.63-7.44-1.54-7.48.36-.08,3.46,9.19,2,7.48-.36ZM63,29l-10.55,1.07-.7,4.9,10.55-.33c1.25-.87.56-4.14.7-5.64ZM79.5,49.88c.29-1.39-.7-1.8-1.56-2.55-2.3-1.99-13.07-9.88-15.3-10.14s-9.77-.33-11.83.2c-3.49.88-11.18,9.76-15.55,11.02l.37,1.48c14.59,1.33,29.27.8,43.87,0h0ZM18.58,48.96l1.66-8.02c-2.89,1.49-7.53,5.66-3.76,8.61l2.1-.59ZM82.5,52.87c-16.71,1.1-33.56,1.43-50.25,0,1.67,6.51-4.42,19.52,3,22.75,5.81,2.53,25.52,1.56,32.62,1.11,2.62-.17,13.76-1.17,14.51-3.47,1.67-5.11-.64-14.81.12-20.39Z"/>
  <path d="M36,27.52l-2.25,1.5c1.57,3.76,6.01,1.44,9,2.59-4.67,3.77-16.05-1.09-6.75-4.09Z"/>
  <path class="cls-1" d="M79.5,49.88c-14.6.81-29.28,1.34-43.87,0l-.37-1.48c4.37-1.26,12.06-10.13,15.55-11.02,2.07-.52,9.51-.47,11.83-.2s13,8.15,15.3,10.14c.86.74,1.85,1.15,1.56,2.55h0Z"/>
  <path class="cls-1" d="M63,29c-.14,1.5.55,4.78-.7,5.64l-10.55.33.7-4.9s10.55-1.07,10.55-1.07Z"/>
  <path class="cls-1" d="M18.58,48.96l-2.1.59c-3.77-2.95.87-7.12,3.76-8.61l-1.66,8.02Z"/>
  <path class="cls-1" d="M80.25,23.79c1.71,2.37-7.56,3.82-7.48.36.04-1.9,6.25-.99,7.48-.36Z"/>
</svg>