<?xml version="1.0" encoding="UTF-8"?>
<svg id="Layer_1" data-name="Layer 1" xmlns="http://www.w3.org/2000/svg" viewBox="0 0 70.59 21.53">
  <defs>
    <style>
      .cls-1 {
        fill: #715e73;
      }

      .cls-2 {
        fill: #e6e2e5;
      }

      .cls-3 {
        fill: #826d82;
      }

      .cls-4 {
        fill: #262727;
      }

      .cls-5 {
        fill: #6e5a70;
      }

      .cls-6 {
        fill: #e9e6ea;
      }

      .cls-7 {
        fill: #2c242c;
      }

      .cls-8 {
        fill: #2e2d2c;
      }

      .cls-9 {
        fill: #282927;
      }

      .cls-10 {
        fill: #282828;
      }

      .cls-11 {
        fill: #121012;
      }

      .cls-12 {
        fill: #4c3c4b;
      }

      .cls-13 {
        fill: #7d6a7d;
      }

      .cls-14 {
        fill: #6f5c6e;
      }

      .cls-15 {
        fill: #3a2c37;
      }

      .cls-16 {
        fill: #756374;
      }

      .cls-17 {
        fill: #2b2c2b;
      }

      .cls-18 {
        fill: #776577;
      }

      .cls-19 {
        fill: #7a677a;
      }

      .cls-20 {
        fill: #917e8c;
      }

      .cls-21 {
        fill: #806f82;
      }

      .cls-22 {
        fill: #7a677b;
      }

      .cls-23 {
        fill: #e9e7e8;
      }

      .cls-24 {
        fill: #201f21;
      }

      .cls-25 {
        fill: #857887;
      }

      .cls-26 {
        fill: #7a667b;
      }

      .cls-27 {
        fill: #382a38;
      }

      .cls-28 {
        fill: #eae8ea;
      }

      .cls-29 {
        fill: #6b586c;
      }

      .cls-30 {
        fill: #e5dfe5;
      }

      .cls-31 {
        fill: #6e5b6e;
      }

      .cls-32 {
        fill: #645166;
      }

      .cls-33 {
        fill: #e9e6e8;
      }

      .cls-34 {
        fill: #edebec;
      }

      .cls-35 {
        fill: #685568;
      }

      .cls-36 {
        fill: #8e798e;
      }

      .cls-37 {
        fill: #e9e7e9;
      }

      .cls-38 {
        fill: #e6e4e6;
      }
    </style>
  </defs>
  <path class="cls-7" d="M44.29,8.08c0,1.27-.81,4.24-.75,6.7.04,1.73-.03,3.48,0,5.21,6.24.05,12.51-.09,18.75,0,.5,0,1-.01,1.5,0,1.21.03,2.61-.14,3.75,0,.23.03.94.8,1.5,1.54H0S0,0,0,0h70.59s0,21.53,0,21.53H.79c.89-.42,1.95-1.5,2.25-1.54,1.37-.17,3.05.04,4.5,0,.5-.02,1,0,1.5,0,1.5-.03,3,.03,4.5,0,.75-.01,1.5,0,2.25,0,2.35-.02,8.98.49,10.5,0,1.33-.43.72-6.4.75-8.19.04-1.97.08-3.99,0-5.95h.75c.03.13,1.48,1.28,1.5,2.23.02,1.1-.71,3.9-.75,5.95s.02,3.98,0,5.96c2.74-.04,5.51.04,8.25,0,1.24-.02,2.52.09,3.75,0,.74-.06,1.51.05,2.25,0-.26-2.06-.88-3.97-1.5-5.95-.07-.23.06-.51,0-.74,1.79-2.16.71-4.17.75-6.7.02-1.19-.44-3.1.75-3.72.54,1.06,1.49,4.29,1.5,5.21Z"/>
  <path class="cls-11" d="M.79,21.52h68.25c-.56-.73-1.27-1.5-1.5-1.53.26-.21.6-.44.75-.74.69-1.39,0-1.72,0-2.98,0-1.33.89-1,0-2.98-.43-.96-1.71-1.28-1.54-3.35.13-1.55,1.32-1.52,1.54-1.86,1.02-1.57,1.56-5.93-.48-6.59-2.34-.76-15.5-.22-19.02-.1-2.62.09-3.78.4-6,.74-.24.04-.51-.05-.75,0-.78-1.23-2.85-.74-4.11-.76-1.86-.02-9.7-.51-10.14.76-.13.37-.12,3.24,0,3.72h-.75c-.06-1.48.05-2.99,0-4.47l-9.75.75c-.24-.04-.5.03-.75,0s-.5.02-.75,0c-1.99-.19-12.58-1.1-13.55-.43-1.23.85-.66,6.73-.7,8.61-.02,1.23-.03,2.49,0,3.72.06,2.26-.96,6.69,1.5,5.95-.3.04-1.36,1.12-2.25,1.53Z"/>
  <path class="cls-31" d="M59.29,14.04c1.53-.03,2.85-.74,3-.74.25,0,.51-.03.75,0,1.27.13,3.71,2.65,5.25,0,.89,1.98,0,1.65,0,2.98-2.36-.18-3.69,3.97,0,2.98-.15.3-.49.53-.75.74-1.14-.14-2.54.03-3.75,0-1.99-1.84,1.8-2.81.75-3.72-.1-.09-2.05-.08-2.62,0-.96.11-.16,3.08.37,3.72-6.24-.08-12.51.06-18.75,0-.03-1.73.04-3.48,0-5.21.49-.16,1.05-.66,1.5-.74,1.13-.22,4.16-.68,5.25-.74.25-.01.5,0,.75,0,.11,0,.55.82,1.09.8.49-.02.3-1.58.79-1.57,1.03,0,2.92,1.59,6.37,1.52Z"/>
  <path class="cls-14" d="M17.29,2.13l9.75-.75c.04,1.48-.06,2.99,0,4.47.08,1.97.04,3.99,0,5.95h-.75c.18-3.2-.13-6.47,0-9.68h-4.5c.4,2.49,3.51.49,3.74.75.35.39-.05,8.68,0,10.42.04,1.25.81,2.53,0,3.72-.35-.15-1.36.18-1.5,0-.29-.38.77-1.85.74-2.51-.02-.52-1.43-.9-1.49-1.21-.31-1.42.44-4.41.75-5.95-.77-.29-1.41.74-1.5.74-1.06.06-4.07-.76-5.25-.74-.46,0-1.22-.11-1.5,0-1.87-1.98-1.87-3.23,0-5.21.25.02.51-.03.75,0l1.49,2.22,1.89-.74c1.42-2.23-1.02-1.24-2.63-1.48Z"/>
  <path class="cls-19" d="M22.54,13.29h.75c.07.3,1.48.69,1.49,1.21.02.66-1.03,2.13-.74,2.51.14.19,1.15-.15,1.5,0,1.2.52.74,1.76.75,2.98-1.52.49-8.15-.02-10.5,0-.65-2.84,1.94-2.88,2.82-3.92.36-.43.07-1.13.18-1.29,1.51-2.29,1.8-.43,3.75-1.49Z"/>
  <path class="cls-5" d="M34.54,14.04c1.22,0,2.56-.11,3.75,0,.8.08,1.56.35,2.25.74-.72.49-1.33.87-2.25.75,1,1.6,3.79,1.97,2.25,4.46-1.23.09-2.51-.02-3.75,0v-4.46c-1.4-.12-.44,1.79-1.48,2.67-.18.15-3.7.28-4.52,1.04l2.25-5.21c.5,0,1,0,1.5,0Z"/>
  <path class="cls-26" d="M14.29,13.29c-.83,2.41,1.33,2.14,1.44,2.28,1.17,1.66-3.2,1.7-2.19,4.42-1.5.03-3-.03-4.5,0v-5.95c.82-.06,1.42-.74,1.5-.74.25,0,.5,0,.75,0,.58,0,2.78-.02,3,0Z"/>
  <path class="cls-13" d="M33.04,14.04l-2.25,5.21c.81-.76,4.34-.89,4.52-1.04,1.03-.88.07-2.79,1.47-2.67v4.46c-2.73.05-5.5-.03-8.24,0,.03-1.98-.03-3.98,0-5.96h.75c1.23.77,2.5.02,3.75,0Z"/>
  <path class="cls-35" d="M1.54,10.32c.69,1.05,1.14,4.81,3,2.98.32-.32-.89-2.92,1.5-2.23-.03.98-.67,2.39-.39,2.98,1.02,2.17,1.16-.76,1.57-.79.67-.05,1.55.81,1.82.79v5.95c-.5,0-1-.02-1.5,0v-4.46c-2.15-.63-1.1,2.54-3.75,1.47-.17-.07,2.27-2.83-2.25-2.97-.03-1.23-.02-2.49,0-3.72Z"/>
  <path class="cls-22" d="M48.79,1.39c-1.09,1.81,2.74,2.8,1.49,4.47-.35.47-2.51-2.93-3.74-2.23l.75,3.72c-.9.01-1.64-.08-2.25.74h-.75c0-.92-.96-4.14-1.5-5.21v-.74c2.22-.35,3.38-.66,6-.74Z"/>
  <path class="cls-16" d="M1.54,14.04c4.52.14,2.08,2.9,2.25,2.97,2.65,1.06,1.6-2.11,3.75-1.47v4.46c-1.45.04-3.13-.17-4.5,0-2.46.74-1.44-3.7-1.5-5.95Z"/>
  <path class="cls-21" d="M27.79,2.13c3.96-.93,3.42,2.07,3.75,5.21-.63.06-1.13.2-1.5.74h-.75c-.02-.95-1.47-2.1-1.5-2.23-.12-.48-.13-3.35,0-3.72Z"/>
  <path class="cls-32" d="M16.54,14.04c.23.06.52-.06.75,0,.49.13,1,.56,1.5.74-.11.16.18.86-.18,1.29-.88,1.04-3.48,1.09-2.82,3.92-.75,0-1.5-.01-2.25,0-1.02-2.72,3.36-2.76,2.19-4.42-.1-.15-2.26.13-1.44-2.28.43.05,1.54.56,2.25.74Z"/>
  <path class="cls-27" d="M45.04,8.08c2.45,2.25.58,3.4,0,5.95-.45.09-1.01.58-1.5.74-.06-2.45.76-5.43.75-6.7h.75Z"/>
  <path class="cls-36" d="M42.04,2.13c.24-.05.51.04.75,0v.74c-1.19.62-.73,2.53-.75,3.72-.35.51-1.28,1.03-1.5,1.49.02-.72-.75-.69-.75-.74-.01-.17.62-.7.5-1.11-.39-1.37-1.59-2.45-1.25-4.09.94-.14,2.14.18,3,0Z"/>
  <path class="cls-13" d="M41.29,14.04c.61,1.98,1.23,3.89,1.5,5.95-.74.05-1.5-.05-2.25,0,1.54-2.49-1.25-2.86-2.25-4.46.92.11,1.53-.27,2.25-.75.29-.2.52-.48.75-.74Z"/>
  <path class="cls-27" d="M41.29,13.29c-.04-.13-1.53-1.16-1.5-2.23.01-.47.55-2.56.75-2.98.22-.45,1.15-.98,1.5-1.49-.04,2.52,1.04,4.54-.75,6.7Z"/>
  <path class="cls-15" d="M29.29,14.04h-.75c.04-2.05.77-4.85.75-5.95h.75c1.48,2.09.41,4.03-.75,5.95Z"/>
  <path class="cls-2" d="M41.29,13.29c.06.23-.07.52,0,.74-.23.26-.46.55-.75.74-.69-.39-1.45-.67-2.25-.74-1.54-2.33-.66-2.19,1.5-2.98-.03,1.07,1.46,2.1,1.5,2.23Z"/>
  <path class="cls-3" d="M62.29,19.99c-.54-.64-1.33-3.61-.37-3.72.56-.07,2.52-.08,2.62,0,1.06.91-2.74,1.88-.75,3.72-.5-.01-1,0-1.5,0Z"/>
  <path class="cls-18" d="M26.29,19.99c-.01-1.21.45-2.46-.75-2.98.81-1.19.04-2.47,0-3.72.72-.2.71-.86.75-1.49h.75c-.03,1.78.58,7.76-.75,8.19Z"/>
  <path class="cls-1" d="M68.29,8.08c-1.49-2.04-4.09-.17-5.25,0-.48.07-1.03-.08-1.5,0-4.11.66-1.63.22-4.5-.74-1.71-.58-.83-.03-1.5,0-1.84.09-4.57-.08-3.75,1.49-.16-.58-.99-1.31-.76-2.23h-.74c-.13.44.13,1.22,0,1.48-.65-.03-2.69-.75-3-.74l-.75-3.72c1.22-.7,3.39,2.69,3.74,2.23,1.24-1.66-2.58-2.66-1.49-4.47,3.52-.11,16.68-.65,19.02.1,2.04.66,1.5,5.02.48,6.59Z"/>
  <path class="cls-18" d="M15.79,2.13c-1.87,1.98-1.87,3.23,0,5.21-.36.14-.74,1.56-1.18,1.54-.74-.03-2-1.31-4.07-1.54-1.23-.14-3,.73-4.49,0,.75,1.5.02,2.98,0,3.72-2.39-.69-1.18,1.91-1.5,2.23-1.86,1.84-2.31-1.92-3-2.98.04-1.88-.53-7.76.7-8.61.97-.68,11.56.24,13.55.43Z"/>
  <path class="cls-29" d="M42.04,2.13c-.86.18-2.06-.13-3,0-.34,1.64.86,2.73,1.25,4.09.12.42-.51.94-.5,1.11l-1.88,2.23-.37-2.24c-1.4-.39-1.3.65-1.5.75-.43.21-1.27.5-1.5.74v-1.49c-1.09.89-2.81-.02-3,0-.33-3.14.21-6.14-3.75-5.21.43-1.27,8.28-.78,10.14-.76,1.27.01,3.33-.48,4.11.76Z"/>
  <path class="cls-28" d="M68.29,8.08c-.22.34-1.41.31-1.54,1.86-.17,2.07,1.1,2.39,1.54,3.35-1.54,2.65-3.98.13-5.25,0,1.29-2.52,1.29-2.69,0-5.21,1.16-.17,3.76-2.04,5.25,0Z"/>
  <path class="cls-25" d="M68.29,16.27c0,1.26.69,1.59,0,2.98-3.69.99-2.36-3.16,0-2.98Z"/>
  <path class="cls-18" d="M17.29,2.13c1.62.23,4.05-.76,2.63,1.48l-1.89.74-1.49-2.22c.25.03.51-.04.75,0Z"/>
  <path class="cls-23" d="M55.54,7.34c-.91,2.68-.26,8,2.25,4.47.13.37,1.5,1.34,1.5,2.23-3.45.08-5.35-1.51-6.37-1.52-.5,0-.3,1.56-.79,1.57-.53.02-.98-.81-1.09-.8,1.24-1.79,1.28-2.49.75-4.47-.82-1.57,1.91-1.4,3.75-1.49Z"/>
  <path class="cls-6" d="M47.29,7.34c.31,0,2.35.71,3,.74-1.19,2.27-2.5,2.56,0,5.21-1.09.06-4.12.52-5.25.74.58-2.55,2.45-3.71,0-5.95.61-.82,1.35-.73,2.25-.74Z"/>
  <path class="cls-38" d="M57.04,7.34c2.87.97.39,1.4,4.5.74-.71,1.91-1.21,3.89.75,5.21-.15,0-1.47.71-3,.74,0-.89-1.37-1.86-1.5-2.23-.08-.22-.1-3.46-.75-4.47Z"/>
  <path class="cls-4" d="M51.79,8.83c.53,1.98.49,2.68-.75,4.47-.25,0-.5-.01-.75,0-2.5-2.65-1.19-2.94,0-5.21.14-.27-.12-1.04,0-1.49h.74c-.23.92.6,1.65.76,2.23Z"/>
  <path class="cls-10" d="M63.04,8.08c1.29,2.52,1.29,2.69,0,5.21-.24-.03-.5,0-.75,0-1.96-1.32-1.46-3.3-.75-5.21.47-.08,1.02.07,1.5,0Z"/>
  <path class="cls-30" d="M22.54,8.08c-1.33,2.12-2,3.25,0,5.21-1.95,1.06-2.24-.8-3.75,1.49-.5-.18-1.01-.61-1.5-.74,1.06-2.29,2.15-3.94,0-5.95v-.74c1.18-.02,4.19.81,5.25.74Z"/>
  <path class="cls-37" d="M10.54,7.34c2.07.24,3.33,1.51,4.07,1.54.44.02.82-1.41,1.18-1.54.28-.11,1.04,0,1.5,0v.74c-3.58,1.73-1.83,3.27-.75,5.95-.71-.18-1.82-.7-2.25-.74-.22-.02-2.42,0-3,0,2.26-1.75,1.84-4.08-.75-5.21v-.74Z"/>
  <path class="cls-20" d="M25.54,13.29c-.06-1.73.35-10.03,0-10.42-.23-.26-3.35,1.74-3.74-.74h4.5c-.14,3.19.18,6.47,0,9.67-.04.63-.03,1.29-.75,1.49Z"/>
  <path class="cls-12" d="M22.54,8.08c.09,0,.72-1.04,1.5-.74-.31,1.54-1.05,4.53-.75,5.95h-.75c-2-1.96-1.33-3.09,0-5.21Z"/>
  <path class="cls-37" d="M31.54,7.34c.19-.02,1.91.89,3,0v1.49c-2.02,2.1-.74,2.12,0,4.47v.74c-.5,0-1,0-1.5,0-1.25.02-2.52.77-3.75,0,1.16-1.93,2.23-3.87.75-5.95.37-.54.87-.68,1.5-.74Z"/>
  <path class="cls-33" d="M36.04,8.08c.2-.1.1-1.14,1.5-.75l.37,2.24,1.88-2.23c0,.05.77.03.75.74-.2.41-.74,2.5-.75,2.98-2.16.78-3.04.64-1.5,2.98-1.19-.11-2.53,0-3.75,0v-.74c2.45.43,2.72-3.53,1.5-5.21Z"/>
  <path class="cls-34" d="M10.54,7.34v.74c-1.01,1.6-1.05,3.61,0,5.21-.08,0-.68.69-1.5.74-.27.02-1.15-.84-1.82-.79-.41.03-.55,2.97-1.57.79-.28-.59.36-2,.39-2.98.03-.73.76-2.22,0-3.72,1.5.73,3.27-.14,4.49,0Z"/>
  <path class="cls-8" d="M11.29,13.29c-.25,0-.5,0-.75,0-1.05-1.6-1.01-3.61,0-5.21,2.59,1.13,3.01,3.46.75,5.21Z"/>
  <path class="cls-17" d="M17.29,14.04c-.23-.06-.52.06-.75,0-1.08-2.69-2.83-4.22.75-5.95,2.15,2.01,1.06,3.66,0,5.95Z"/>
  <path class="cls-24" d="M57.04,7.34c.65,1.01.67,4.24.75,4.47-2.51,3.54-3.16-1.79-2.25-4.47.67-.03-.21-.58,1.5,0Z"/>
  <path class="cls-9" d="M36.04,8.08c1.22,1.68.95,5.64-1.5,5.21-.74-2.34-2.02-2.37,0-4.47.23-.24,1.07-.53,1.5-.74Z"/>
</svg>