<?xml version="1.0" encoding="UTF-8"?>
<svg id="Layer_1" data-name="Layer 1" xmlns="http://www.w3.org/2000/svg" viewBox="0 0 96.56 68.67">
  <path d="M0,0h96.56v68.67H0V0ZM45.69,2.67H2.31v16.88L74.87,4.93l.35,6.78,7.54,2.94,1.06,8.72,4.53-.44-.76-2.99c1.05-.58,6.26-.48,4.49,1.49-.17.18-2.9-.16-2.99,1.5,2.15-.8,2.26,2.29,4.11,1.5,1.56-.67,1.52-5.46.78-6.77-.92-1.62-6.17,2.9-6.38-.34,2.84-1.53,2.02-1.12,1.49-4.13h5.23c2.13-9.75-8.51-4.9-14.58-6.01-1.29-.24-2.09-.8-1.87-2.25h16.46c.22-1.44-.58-2.01-1.87-2.25-1.91-.35-20.2-.43-21.66-.05-.95.25.31,3.06-1.52,2.31-.93-.38,1.19-3.11-3.71-2.3-.84.14-.02,3.16-1.54,3.78-1.5-.65-.87-3.42-1.15-3.7-.22-.23-5.64-.23-6.29-.08-1.03.23.69,3.16-2.27,2.3-.82-.24-.04-1.82-.42-2.18-.22-.2-5.73-.29-5.95-.08-.5.49,1.14,4.18-1.11,3.75-1.5-.6-.98-3.58-1.13-3.74ZM72.62,7.18L3.57,22.32c-2.13.92-1.08,3.87-1.26,5.86L72.19,11.76l.43-4.58ZM77.86,14.68l-4.56-1.15c-21.82,5.05-43.55,10.41-65.39,15.4-3.39.77,1.15,2.61,2.7,2.63,21.45-6,43.73-9.64,65.16-15.62.77-.21,2.26-.19,2.09-1.26ZM94.32,13.93c-.97-.31-3.76,1.12-2.99,1.48,1.33.2,2.62-.04,2.99-1.48ZM81.6,16.92L11.28,33.42v22.5l70.32-19.12v-19.88ZM87.54,25.25c-.43-.4-3.53-.22-4.12.63l-.32,6.05,5.98-.76.37,3c3.52-1.02,1.96-3.6,2.79-5.09.3-.55,2.43-.52,2.07-2.02-.43-2.25-5.98,1.17-6.73.36-.19-.21.25-1.9-.05-2.17ZM9.04,55.92v-22.12c0-.38-5.56-3.87-6.73-3.38v22.12l6.73,3.38ZM86.83,33.42c-3.82.27-4.05,2.66-3.76,5.97l-8.13,1.6-.07,7.42c2.58-1.32,19.31-6.27,19.43-7.87.15-1.97-3.75-.33-4.47.37-1.3-1.46,1.41-4.52.73-5.25-.26-.28-4.16,2.38-3.74-2.25ZM93.03,33.87l-.95,4.04,1.74.41.95-4.04-1.74-.41ZM72.62,41.68L11.46,58.03c-3.46.95-5.68-2.69-9.15-2.1-.66,3.37,1.72,6.65,0,9.74,4.85.13,9.75-.44,14.51.68l56.24-9.62c1.22-4.99-.53-10.04-.43-15.05ZM77.11,49.92c-.27.15-1.35-.44-1.53.47l.03,5.53c6.82-.81,12.64,2.08,18.7,4.49l-.36-5.26c-.91-1.67-2.51,1.73-3.37.76-2.14-2.41,5.15-2.77,3.73-5.99-.64-.65-9.08,3.49-10.84,3.76-1.51.23-1.36-.77-1.13-1.88.13-.62,10.34-2.29,11.6-4.88.33-.67.64-2.7.37-3-.73-.78-15.24,4.88-17.2,6,4.37-.16,8.35-2.44,12.49-3.61.76-.22,1.82-1.58,2.47.25.49,1.38-1.15,1.34-2.04,1.66-1.84.68-10.08,3.78-11.2,3.84-1.26.07-1.92-.97-1.72-2.14ZM94.32,65.67c.48-3.09-3.11-4.36-5.48-5.38-4.16-1.8-8.72-2.26-13.22-2.11-.21.18,1.29,2.81-.19,4.3-1.17,1.17-4.98,1.44-5.79,3.19h24.69ZM38.59,65.67c8.69-.48,18.14,0,26.93,0,.56,0,9.99-5.49,8.6-6.75l-1.13-.03-37.02,6.03c-.45,2.98,1.8.79,2.62.75Z"/>
  <path d="M29.24,38.67l.07-6.68c11.29-1.73,23.26-6.85,34.29-8.78,2.19-.38,2.02,4.99.83,6.11l-35.19,9.34Z"/>
  <ellipse cx="74.62" cy="25.69" rx="3.92" ry="3.93"/>
  <ellipse cx="18.14" cy="38.45" rx="3.9" ry="3.91"/>
  <ellipse cx="65.35" cy="36.97" rx="2.58" ry="2.58"/>
  <ellipse cx="47.39" cy="41.47" rx="2.58" ry="2.58"/>
  <ellipse cx="28" cy="46.54" rx="2.5" ry="2.5"/>
  <ellipse cx="74.61" cy="35.29" rx="2.5" ry="2.51"/>
  <path d="M15.85,47.01c3.42-2.15,5.17,4.4,2.51,5.16-3.07.89-4.09-4.17-2.51-5.16Z"/>
  <path d="M36.8,46.09c-1.58-.99-.56-6.05,2.51-5.16,2.66.77.91,7.31-2.51,5.16Z"/>
  <path d="M55.92,36.53c3.3-.86,3.15,4.61,1.35,5.14-2.92.86-4.87-4.22-1.35-5.14Z"/>
  <rect x="35.21" y="4.92" width="5.26" height="2.26" transform="translate(31.77 43.88) rotate(-89.97)"/>
  <path d="M28.49,5.68c3.1-.6,2.66,5.2,1.12,5.23-1.32.02-1.26-4.24-1.12-5.23Z"/>
  <rect x="17.26" y="7.92" width="6.01" height="1.5" transform="translate(11.57 28.93) rotate(-89.97)"/>
  <path d="M87.58,40.18c1.66,2.61-4.21,3.29-4.48,2.99-1.89-2.04,2.76-2.82,4.48-2.99Z"/>
  <path d="M78.62,45.42c-.59-.81.39-3.33,1.85-3,2.83.64-1.6,3.34-1.85,3Z"/>
</svg>