<?xml version="1.0" encoding="UTF-8"?>
<svg id="Layer_1" data-name="Layer 1" xmlns="http://www.w3.org/2000/svg" viewBox="0 0 95.32 65.19">
  <defs>
    <style>
      .cls-1 {
        fill: #f7f4f7;
      }

      .cls-2 {
        fill: #88768c;
      }

      .cls-3 {
        fill: #533b53;
      }

      .cls-4 {
        fill: #563c58;
      }

      .cls-5 {
        fill: #7d6a85;
      }

      .cls-6 {
        fill: #644b66;
      }

      .cls-7 {
        fill: #5b425d;
      }

      .cls-8 {
        fill: #765e76;
      }

      .cls-9 {
        fill: #bea7be;
      }

      .cls-10 {
        fill: #3d293a;
      }

      .cls-11 {
        fill: #907795;
      }

      .cls-12 {
        fill: #745b73;
      }

      .cls-13 {
        fill: #b29ab4;
      }

      .cls-14 {
        fill: #c2aec5;
      }

      .cls-15 {
        fill: #614861;
      }

      .cls-16 {
        fill: #e3cce3;
      }

      .cls-17 {
        fill: #573e53;
      }

      .cls-18 {
        fill: #715b75;
      }

      .cls-19 {
        fill: #634c62;
      }

      .cls-20 {
        fill: #dbc2db;
      }

      .cls-21 {
        fill: #836b84;
      }

      .cls-22 {
        fill: #ac93ae;
      }

      .cls-23 {
        fill: #7f6a81;
      }

      .cls-24 {
        fill: #f5eef6;
      }

      .cls-25 {
        fill: #4f3c52;
      }

      .cls-26 {
        fill: #bba3bd;
      }

      .cls-27 {
        fill: #8e7c8f;
      }

      .cls-28 {
        fill: #948097;
      }

      .cls-29 {
        fill: #705770;
      }

      .cls-30 {
        fill: #dfc8e1;
      }

      .cls-31 {
        fill: #846d87;
      }

      .cls-32 {
        fill: #8d778f;
      }

      .cls-33 {
        fill: #735d74;
      }

      .cls-34 {
        fill: #f3ddec;
      }

      .cls-35 {
        fill: #2d212c;
      }

      .cls-36 {
        fill: #b39db6;
      }

      .cls-37 {
        fill: #48334b;
      }

      .cls-38 {
        fill: #ead2e6;
      }

      .cls-39 {
        fill: #d7c0d9;
      }

      .cls-40 {
        fill: #6e546f;
      }

      .cls-41 {
        fill: #4d344b;
      }

      .cls-42 {
        fill: #553c56;
      }

      .cls-43 {
        fill: #ecd6e8;
      }

      .cls-44 {
        fill: #69526b;
      }

      .cls-45 {
        fill: #a38fa5;
      }

      .cls-46 {
        fill: #6f5972;
      }

      .cls-47 {
        fill: #f3dfec;
      }

      .cls-48 {
        fill: #c4b2c6;
      }

      .cls-49 {
        fill: #e1cae2;
      }

      .cls-50 {
        fill: #9c849e;
      }

      .cls-51 {
        fill: #ac91ab;
      }

      .cls-52 {
        fill: #bca6bf;
      }

      .cls-53 {
        fill: #452f3f;
      }

      .cls-54 {
        fill: #8e7892;
      }

      .cls-55 {
        fill: #745a70;
      }

      .cls-56 {
        fill: #6f5771;
      }

      .cls-57 {
        fill: #e9d2e6;
      }

      .cls-58 {
        fill: #a289a4;
      }

      .cls-59 {
        fill: #554159;
      }

      .cls-60 {
        fill: #fbf5f9;
      }

      .cls-61 {
        fill: #5b4861;
      }

      .cls-62 {
        fill: #99819a;
      }

      .cls-63 {
        fill: #907890;
      }

      .cls-64 {
        fill: #d5b9d4;
      }

      .cls-65 {
        fill: #9c849d;
      }

      .cls-66 {
        fill: #684e6a;
      }

      .cls-67 {
        fill: #e9e1eb;
      }

      .cls-68 {
        fill: #8c748c;
      }

      .cls-69 {
        fill: #5e425f;
      }

      .cls-70 {
        fill: #806484;
      }

      .cls-71 {
        fill: #624863;
      }

      .cls-72 {
        fill: #59435e;
      }

      .cls-73 {
        fill: #efd8e9;
      }

      .cls-74 {
        fill: #735b75;
      }

      .cls-75 {
        fill: #c3a8c5;
      }

      .cls-76 {
        fill: #281c26;
      }

      .cls-77 {
        fill: #b19cb5;
      }

      .cls-78 {
        fill: #f1e3f0;
      }

      .cls-79 {
        fill: #e6cee4;
      }

      .cls-80 {
        fill: #a990ab;
      }

      .cls-81 {
        fill: #664d68;
      }

      .cls-82 {
        fill: #765c76;
      }

      .cls-83 {
        fill: #a290a5;
      }

      .cls-84 {
        fill: #ece3ed;
      }

      .cls-85 {
        fill: #876f89;
      }

      .cls-86 {
        fill: #715a72;
      }

      .cls-87 {
        fill: #694f6b;
      }

      .cls-88 {
        fill: #47304a;
      }

      .cls-89 {
        fill: #cbb2cc;
      }

      .cls-90 {
        fill: #dec8e0;
      }

      .cls-91 {
        fill: #6b556d;
      }

      .cls-92 {
        fill: #a892ab;
      }

      .cls-93 {
        fill: #7a617e;
      }

      .cls-94 {
        fill: #8a748c;
      }

      .cls-95 {
        fill: #89748d;
      }

      .cls-96 {
        fill: #937c95;
      }

      .cls-97 {
        fill: #2c2a2e;
      }

      .cls-98 {
        fill: #d4bfdc;
      }

      .cls-99 {
        fill: #c9afcb;
      }

      .cls-100 {
        fill: #6e556d;
      }

      .cls-101 {
        fill: #161616;
      }

      .cls-102 {
        fill: #604761;
      }
    </style>
  </defs>
  <path class="cls-35" d="M94.67,1.39h-5.98c.23,1.35,1.28,1.23,2.24,1.49v.74c-.18-.09-.49.06-.75,0C75.68-.06,34.54,3.12,17.62,3.62c-1.89.06-14.53-1.36-14.96-.74-.59.86.03,17.95,0,20.84,0,.74.01,1.49,0,2.23-.02,1.24.01,2.48,0,3.72,0,.25,0,.5,0,.74-.06,5.42-.11,10.96,0,16.37,0,.25,0,.5,0,.74s0,.5,0,.74,0,.5,0,.74,0,.5,0,.74c.04,1.24-.07,2.49,0,3.72.01.25-.02.5,0,.74s-.02.5,0,.74c.07.73-.1,1.51,0,2.23.12.91-.21,2.24,0,2.98.23.8-.33,1.32.75,2.23.87.73,11.05,1.28,13.46,1.49-.48.06-1.04-.09-1.5,0h-1.5c-2.5.16-3.54.08-5.98,0h-2.24c-.59-.05-.84.32-2.24,0-2.81.14-1.96.33-2.25-1.82-.96-7.07.03-18.12,0-25.71,0-.5,0-.99,0-1.49v-2.98c0-.25,0-.5,0-.74.04-4.03-1.06-28.72,0-29.77C3.17-.62,51.22,3.46,58.01.64l36.65.74Z"/>
  <path class="cls-76" d="M93.17,62.41c-.05.41-.6,1.01-.75,1.49-16.45,2.41-53.58.89-71.06,0,1.02-.5,4.32-1.41,5.24-1.49,21.23-1.77,45.06,1.37,66.58,0Z"/>
  <path class="cls-101" d="M94.67,1.39c-1.21,6.65,1.95,60.06,0,62.51-.12.15-1.73-.08-2.24,0,.15-.48.69-1.07.75-1.49.45-3.41-.02-8.27,0-11.91.07-16.11-.05-32.25,0-48.37-1.07-.39-1.41.77-1.49.74-.2-.08-.51.07-.75,0-.96-.26-2.02-.14-2.24-1.48h5.98Z"/>
  <path class="cls-97" d="M58.01.64C51.22,3.46,3.17-.62,1.16,1.38c-1.06,1.05.04,25.74,0,29.77C.69,27.52-.68,1.72.41.64c2.04-2.03,50.77,1.56,57.6,0Z"/>
  <path class="cls-97" d="M26.59,62.41c-.92.08-4.22.99-5.24,1.49-1.48-.08-3.01.13-4.49,0-2.41-.21-12.59-.75-13.46-1.49,6.95-.85,16.61,1.15,23.19,0Z"/>
  <path class="cls-97" d="M1.16,36.36c.03,7.59-.96,18.64,0,25.71.29,2.15-.56,1.97,2.25,1.82-.09-.02-1.16,1.12-1.73.69-2.34-1.75-1.42-23.88-.52-28.23Z"/>
  <path class="cls-97" d="M1.16,34.87c0-1.03,0-1.93,0-2.98v2.98Z"/>
  <path class="cls-97" d="M7.89,63.89c-.62-.02-.9.11-2.24,0h2.24Z"/>
  <path class="cls-97" d="M15.37,63.89c-1.36.27-1.27-.01-1.5,0h1.5Z"/>
  <path class="cls-48" d="M3.4,22.97c3.27.91,2.24,10.1,2.24,13.02v20.84c0,.47,1.86,1.56,2.24,1.11.34-.4-.93-2.22-.76-2.54.38-.72,1.49-.36,1.51-.43h1.5c3.37,2.05,9.47-.19,12.72.74.04.49-.06,1.01,0,1.49-2.1-2.27-2.01,3.55-1.89,3.72.27.39,5.28.66,6.38.74-.28.15-.59.72-.75.74-6.58,1.15-16.24-.85-23.19,0-1.08-.91-.52-1.43-.75-2.23h.75v-8.93c-.02-.49.03-1,0-1.49-.01-.15,1.77-7.35,0-2.98h-.75c-.11-5.41-.06-10.96,0-16.37h.75v-.74h-.75c.01-1.24-.02-2.48,0-3.72.94-.46.71-1.4.75-2.23.01-.25,0-.5,0-.74ZM3.78,43.8v.74l.37-.37-.37-.37ZM17.62,57.94c-2.49-4.84-1.92,3.46-5.24,3.71,6.29,1.42,5.19-1.39,5.98-2.22.16-.17,2.16.19,2.24,0,1.12-2.64-3.53-4.7-2.99-1.49ZM12.38,57.95c-.07-.09-2.23-.28-2.23.36-.01,1.44,3.78,1.45,2.23-.36Z"/>
  <path class="cls-75" d="M90.18,3.62c-.45,1.98-.61,3.92-.75,5.95-2.56-3.38-4.38-3.09-6.73-.74-1.84,1.84-1.9,1.22-1.49,5.21,1.2-.2,1.33-1.25,1.49-2.23h.75c-.03.21.7,1.48.75,2.23.04.65.11,1.64,0,2.23-.06.31-.75.94-.75,1.49h-.75c-.42-.83,1.01-2.77-1.49-2.23-.42,6.66-.75,10.27,0,17.11,2.86-.55,1.25-3.6,1.49-5.2,1.87.42,1.32,2.75,1.5,2.98.72.96-.88,2.1,3.74,1.49.42-.06,1.01-.6,1.5-.74,0,1.98.03,3.97,0,5.95-8.94-10.94-4.35,3.83-4.5,4.86-.08.58-1.44.77-1.48,1.1-.07.48.05,1,0,1.49s.04,1,0,1.49c-.6-1.37-2.15-6.74-2.72-3.38-.1.57-.57,12.6,1.97,10.82-.02.61-1.6,1.57-1.5,2.22.02.12,1.38-.26,2.25.76.77.9-1.92,2,2.24,2.23h3.74c-.76,1.67-6.87.97-8.23.74,1.87-2.65-.89-3.16-2.99-3.72-1.03-.28-7.85-.93-8.22-.75-.14.07-.42,2.6-.76,2.98-.55.61-.65,1.98-1.5,2.23,2.63-10.7-5.14-4.62-11.97-4.46-.46.01-1.11.09-1.5,0-3.02-.71-3.15-5.14-.75-4.46,1.09.15,17.52-.43,11.46-2.84-2.07-.83-10.93,2.9-3.23-2.74l-1.49-.37c.64-.67,1.36-3.57,1.5-3.72.09-.1,1.34-.58,2.24-1.49.06-.06,1.13,1.08,1.49.74.28-.27-.28-3.37.02-3.72.24-.28,6.92,2.1.74-2.98-1.99-1.63-1.65-.86-2.99-1.49-.53-.25-3.35-1.39-3.74-1.49-.07-.47.1-1.05,0-1.49-.32-1.43-.65-.63,0-2.23.46.08,1.1-.12,1.5,0,2.51.77,10.31,1.04,6.73-2.23-.83-.76-13.41-.84-14.96,0-1.79.96-2.46,2.95-1.5,5.21-1.7-5.01-2.38-13.15,0-17.86,3.46,5.97,6.77,4.17,10.08-.75.5-.74-.4-1.42-.36-1.48.17-.23-.15-1.38,0-1.48.29-.17,6.46-.21,6.73,0,.19.15-.99,1.78-.75,2.22,1.33,2.46.87.86,1.5,1.49-1.19,1.11.14,3.23,0,3.72-2.65-3.21-5.98,5.76-5.23,6.69.27.34,2.41-.83,2.99-.74,3.02.49,3.23.24,5.98,0,1.23-.11,2.5.07,3.74,0,4.71,2.12,7.31-1.61,2.24-2.23,6.22-6.03-2.5-3.65-6.73-5.21-.18-.06-2.75-1.98-2.99-2.23,1.89-1.75,10.69.99,11.19.74,2.32-1.11.18-3.26-2.22-3.72v-2.98c.67-.04,1.41,0,1.5,0,1.58-.16,2.75.43,5.24,0,1.77-.31,4.89.86,4.49-2.6-1.77.64-2.41,1.08-4.49,1.11-1.67.03-3.57.04-5.24,0-3.52-.09-11.04-1.49-13.1-1.49-.68,0,.11,1.56-1.45,1.57-1.81.02-3.39-1.64-4.49-1.62-.5.01.11,1.46-1.9,1.53-1.49.06-3-.09-4.49,0-1.3-1.15-3.11-2.08-3.74,0-.25.01-.5-.02-.75,0-1.12-.9-3.09-1.36-4.49-1.49-1.74-.16-5.78.02-7.48.74-.51-.06-1.31-.66-2.24-.74-1.31-.12-2.59.07-3.74.74-.25-.01-.5,0-.75,0l-2.24.74c-.68,0-1.36-.74-1.5-.74l-5.24.74c-.5.02-1-.02-1.5,0,.35-1.99-.48-1.52-2.24-1.49,16.92-.5,58.07-3.68,72.56,0Z"/>
  <path class="cls-14" d="M17.62,3.62c1.76-.04,2.6-.5,2.24,1.49-2.18.08-12.39-.9-13.02-.75-1.29.31-1.25,5.02-3.43,2.98.17,3.22,4.6,7.01,5.23,9.68.14.62-.54,5.39,0,6.7-.15-.04-1.99,1.11-2.24.74-.23-.34-2.29-7.4-2.26-7.8.07-.89,3.75,2.89,0-5.58-1.44,3.45-.66,8.15-.74,11.9,0,.25.01.5,0,.74h-.75c.04-2.88-.59-19.98,0-20.84.42-.61,13.06.8,14.96.74Z"/>
  <path class="cls-67" d="M3.4,51.24v8.93l-.75-2.98c-.1-.72.07-1.5,0-2.23v-.74c-.02-.25.01-.5,0-.74l.75-2.23Z"/>
  <path class="cls-24" d="M3.4,49.76h-.75c0-.25,0-.5,0-.74v-.74c0-.25,0-.5,0-.74l.75-.74c1.77-4.37-.01,2.83,0,2.98Z"/>
  <path class="cls-97" d="M3.4,51.24l-.75,2.23c-.07-1.23.04-2.48,0-3.72h.75c.03.49-.02.99,0,1.49Z"/>
  <path class="cls-97" d="M3.4,60.17h-.75c-.21-.74.12-2.07,0-2.98l.75,2.98Z"/>
  <path class="cls-97" d="M2.66,25.94c.01-.74,0-1.49,0-2.23h.75c-.04.84.19,1.77-.75,2.23Z"/>
  <path class="cls-97" d="M2.66,47.52c0-.25,0-.5,0-.74h.75l-.75.74Z"/>
  <path class="cls-97" d="M3.4,30.41h-.75c0-.25,0-.5,0-.74h.75v.74Z"/>
  <path class="cls-97" d="M2.66,49.01c0-.25,0-.5,0-.74v.74Z"/>
  <path class="cls-97" d="M2.66,54.96c-.02-.25.02-.5,0-.74v.74Z"/>
  <path class="cls-27" d="M93.17,62.41c-21.51,1.37-45.35-1.77-66.58,0,.16-.03.47-.59.75-.74,4.17.3,8.52-.09,12.72,0s7.96-.05,11.97,0c4.89.06,39.18,1.62,40.39,0,.17-.23-.07-1.61,0-2.23.34-2.67-.07-6.1,0-8.93h.75c-.02,3.64.45,8.5,0,11.91Z"/>
  <path class="cls-35" d="M91.67,2.87c.08.03.42-1.13,1.49-.74-.04,16.11.07,32.25,0,48.37h-.75c.39-14.64.55-30.79,0-45.39-.03-.84.19-1.79-.75-2.23Z"/>
  <path class="cls-75" d="M92.42,5.11c-.48-.39-1.01-1.26-1.5-1.49v-.74c.24.07.55-.08.75,0,.94.44.72,1.39.75,2.23Z"/>
  <path class="cls-60" d="M39.31,8.08c1.85,3.57.41,2.84.75,6.7.06.73-.04,1.49,0,2.23.03.49-.02.99,0,1.49.04.99-.01,1.99,0,2.98,0,.5,0,.99,0,1.49,0,.77.74,1.8.75,2.23.01,1.31-2.16,6.7,0,9.67-.23.18-.57.51-.75.74-1.53,1.94.05,2.97,0,3.72s.75,1.81.75,2.23-.75,1.45-.75,2.23c0,3.47,0,6.95,0,10.42-.91.18-1.52.56-2.99.74s-5.05-.18-5.23,0c-.46.45,2.83,8.26-2.25,2.23.07-.15-.02-.48,0-.74,0-.08,1.39-.95.74-1.48-.77-.64-17.42,0-20.19,0h-1.5c.28-1.06.3-1.66.75-2.98,3.36-.95,6.34.12,9.72-.74,8.84.89,3-4.4-2.24-2.23-.49-.03-1-.01-1.5,0l-6.73-.75c-.14-1.55,2.42-.36,2.99-.73,3.54-2.34.56-2.49-2.24-2.23-.01-.26-1-1.31-.75-1.48.31-.21,1.66.17,2.25,0,.39-.12,1.03.09,1.5,0s1.02-.63,1.5-.74c.22-.05,2.73,1.33,4.49,0,3.8-2.89-2.58-2-2.99-2.24-.31-.19.73-1.12.75-1.48.02-.49,0-.99,0-1.49v-1.49c.2,0,.38-1.09,3.74-1.49.24-.03,3.13,3.01,3.67-.48.41-2.64-2.26-1.65-2.92-1.75-.71-.1-1.51.03-2.24,0-.47-.5-1.09-.93-1.5-1.49-2.23-3.06-1.15-1.56-5.23-2.97,12.94,1.57,19.72-4.43,1.49-2.99-1.3-.76-3.02-1.06-4.49-1.49-.54-1.31.14-6.08,0-6.7l1.5-.74c2.19,2.38,3.71.82,5.75-.98,2.78-2.44,1.8-3.49.98-5.72-.08-.21.07-.51,0-.74,3.52-2.5,7.05,2.13,7.48,2.23,3.01.7,10.56,1.36,12.72-.74.96-.94.87-1.76.75-2.98.39.25,1.4.56,1.5.74ZM22.85,15.53c-.19.17-.07,4.96,0,5.21,1.19,4,1.25.89,3.74.74.52,3.85,9.11,4.41,10.37,2.86.46-.57-.09-2.13.1-2.86.14-.53,0-1.56,0-2.23,0-.49.05-1.01,0-1.49-.62-5.95-2.72-2.01-6.73-2.23-.2-.01-.91-.78-1.5-.74-1.21.07-5.45.27-5.98.74ZM18.36,45.3c-.16-.09-3.57-.09-3.73,0-3.28,1.91,7.01,1.91,3.73,0Z"/>
  <path class="cls-30" d="M3.4,22.97c.08-3.75-.7-8.45.74-11.9,3.75,8.47.07,4.69,0,5.58-.03.4,2.03,7.46,2.26,7.8.25.37,2.09-.79,2.24-.74,1.47.43,3.19.73,4.49,1.49-.98.08-4.26-.19-4.48,0-.86.75,1.19,3.02,1.49,3.72-1.06.5-2.26,1.03-.75,2.23,2.17,1.73,4.03-1.32,5.24,1.49-10.61,1.39-6.23,3.54,1.5,3.72v1.49l-6.74.38,6.74,1.11c-.01.36-1.06,1.29-.75,1.48.41.25,6.8-.65,2.99,2.24,1.5-1.51-6.44-2.32-7.48-2.23-2.87.24-2.73,2.01,0,2.23v.74c-.58.17-1.94-.2-2.25,0-.25.17.74,1.22.75,1.48.05,1.27-2.61.78,2.24,2.23-.57.37-3.13-.81-2.99.73l6.73.75c-1.25.03-6.44-.2-6.73,0-.51.37.79,2.83.74,2.97-.45,1.32-.47,1.91-.75,2.98-.02.08-1.14-.29-1.51.43-.17.32,1.1,2.14.76,2.54-.38.45-2.24-.64-2.24-1.11v-20.84c0-2.92,1.02-12.12-2.24-13.02Z"/>
  <path class="cls-39" d="M10.14,54.96c2.77,0,19.42-.64,20.19,0,.64.54-.74,1.4-.74,1.48-5.64-1.15-2.77,5.09,0,2.98.22-.17-.21-1.78,0-2.23,5.08,6.03,1.79-1.78,2.25-2.23.19-.18,3.74.19,5.23,0v.74c-3.95,2.36.41,6.25.75,2.23.6,1.27,1.56,2.48,2.24,3.72-4.19-.09-8.55.3-12.72,0-1.1-.08-6.11-.35-6.38-.74-.12-.17-.21-5.99,1.89-3.72.12.98.32,2.04,1.49,2.23-.12-3.22,1.02-3-1.49-3.72-3.25-.93-9.35,1.3-12.72-.74Z"/>
  <path class="cls-39" d="M18.37,59.43c-.79.83.3,3.65-5.98,2.22,3.31-.25,2.75-8.56,5.24-3.71.24.46.22,1.13.75,1.49Z"/>
  <path class="cls-37" d="M17.62,57.94c-.54-3.22,4.11-1.15,2.99,1.49-.08.19-2.08-.17-2.24,0-.53-.36-.51-1.03-.75-1.49Z"/>
  <path class="cls-36" d="M22.85,55.71c2.51.72,1.37.5,1.49,3.72-1.16-.19-1.37-1.25-1.49-2.23-.06-.48.04-1,0-1.49Z"/>
  <path class="cls-97" d="M12.38,57.95c1.54,1.81-2.25,1.8-2.23.36,0-.65,2.16-.45,2.23-.36Z"/>
  <polygon class="cls-24" points="3.78 43.8 4.15 44.17 3.78 44.55 3.78 43.8"/>
  <path class="cls-84" d="M53.52,5.11c1.49-.09,3,.06,4.49,0,2.51,4.5-1.76.16-3.74,2.23-2.91-.04-1.35-.76-1.5-.74h-1.5c-2.91.88-.97,4.28,0,5.95-2.38,4.71-1.7,12.85,0,17.86.31.71.35.49.75.74-3.19,6.33-.6,9.83-.75,15.63-.02.82-.57,3.97-.75,5.21-.12.83-2.03,3.11,0,4.46-.02.25.01.5,0,.74-.02.38-.74,1.1-.75,1.49,0,.43.8,1.54.75,2.23-1.48-.09-3,.07-4.48,0,2.01-3.05,1.6-5.23,1.49-8.92-.03-1.02.36-2.37-.75-2.98.65-10.17.78-20.35,0-30.51-.04-.49.05-1,0-1.49,1.6-2.94.69-7.34,0-10.42-.12-.54-1.81-.46-1.49-1.48,1.23-.1,2.51.1,3.74,0,.25-.02.5.01.75,0,1.42-.07,2.64.06,3.74,0Z"/>
  <path class="cls-1" d="M92.42,5.11c.55,14.6.39,30.75,0,45.39-.07,2.83.34,6.26,0,8.93l-2.23,1.49-.76-5.21c.52-4.13-.84-8.51-.75-11.91.05-1.66.71-4.25.75-6.7.03-1.98,0-3.97,0-5.95.02-4.21-.02-8.44,0-12.65,0-.25,0-.5,0-.74.02-2.8-.2-5.34,0-8.19.14-2.03.29-3.97.75-5.95.25.06.57-.09.75,0,.49.23,1.02,1.1,1.5,1.49Z"/>
  <path class="cls-43" d="M37.07,4.36c2.09.26,5.95,2.35,7.48-.74,1.39.12,3.37.59,4.49,1.49-1.23.11-2.51-.09-3.74,0-.31,1.02,1.37.94,1.49,1.48l-7.48,1.49c-.09-.18-1.11-.49-1.5-.74-.16-.11.62-2.21-1.49-1.49v2.98c-4.71-4.61-5.36.4-7.1,0-.82-.18-.17-2.22-.39-2.25-2.6-.29-8.96.58-11.96.75-4.5.24-12.14-2.56-10.46,3.72,2.35-3.75,2.83-1.39,3.73-1.49-2.03,1.84-1.74,4.81,0,6.7l-1.5.74c-.63-2.67-5.06-6.45-5.23-9.68,2.17,2.04,2.14-2.67,3.43-2.98.63-.15,10.84.83,13.02.75.5-.02,1,.02,1.5,0,2.32-.07,3.13-.75,5.24-.74.14,0,.82.75,1.5.74.42,0,1.44-.78,2.24-.74.25,0,.5-.01.75,0,1.11.05,3.29,3.39,3.74-.74.94.08,1.73.68,2.24.74Z"/>
  <path class="cls-57" d="M58.01,5.11c2.01-.08,1.41-1.52,1.9-1.53,1.1-.03,2.69,1.63,4.49,1.62,1.55-.02.77-1.57,1.45-1.57,2.05,0,9.58,1.4,13.1,1.49v1.49c-.08,0-.83-.04-1.5,0-3.28.21-8.07-1.03-7.48,2.98-.48.02-1.06-.09-1.5,0-1.19-3.42-10.12-2.18-14.21-2.23,1.98-2.07,6.25,2.27,3.74-2.23Z"/>
  <path class="cls-62" d="M89.43,9.57c-.2,2.85.02,5.39,0,8.19l-5.24-1.49c.11-.6.04-1.58,0-2.23,2.67,2.73,5.46-2.62,4.48-3.72-.72-.81-2.72,1.8-2.98,1.48-.35-.43,2.11-4.49-1.12-2.97-1.34.63-.98,1.89-1.13,2.97h-.75c.15-.95-.11-2.01,0-2.98,2.35-2.35,4.17-2.63,6.73.74Z"/>
  <path class="cls-47" d="M84.19,5.11v1.49c-2.48.43-3.66-.16-5.24,0v-1.49c1.67.04,3.57.03,5.24,0Z"/>
  <path class="cls-14" d="M44.55,3.62c-1.53,3.09-5.39,1.01-7.48.74,1.7-.73,5.74-.9,7.48-.74Z"/>
  <path class="cls-34" d="M84.19,6.6v-1.49c2.08-.03,2.72-.47,4.49-1.11.39,3.46-2.72,2.29-4.49,2.6Z"/>
  <path class="cls-14" d="M34.82,3.62c-.45,4.14-2.63.79-3.74.74,1.15-.67,2.43-.86,3.74-.74Z"/>
  <path class="cls-14" d="M26.59,4.36c-2.1,0-2.92.67-5.24.74l5.24-.74Z"/>
  <path class="cls-14" d="M53.52,5.11c-1.1.06-2.32-.07-3.74,0,.63-2.08,2.44-1.15,3.74,0Z"/>
  <path class="cls-14" d="M30.33,4.36c-.8-.03-1.82.74-2.24.74l2.24-.74Z"/>
  <path class="cls-38" d="M89.43,55.71l.76,5.21,2.23-1.49c-.08.63.16,2,0,2.23-1.2,1.61-35.5.05-40.39,0-.27-.66-.88-.71-1.5-.74.05-.7-.75-1.81-.75-2.23,1,.16,1.99.63,2.99.74.25.03.5-.02.75,0,.99.06,2-.02,2.99,0,1.73.04,3.51.06,5.24,0,.5-.02,1,.03,1.5,0,1.64-.09,4.27.81,4.49.74.85-.25.95-1.62,1.5-2.23,2.98,5.26,4.01-.72,5.98-1.49l1.49,2.97,1.5-2.23c-.02,3.54.17,1.76,2.99,2.23,1.36.23,7.47.92,8.23-.74.22-.48-.11-2.14,0-2.98Z"/>
  <path class="cls-90" d="M47.54,51.99c.1,3.69.52,5.87-1.49,8.92,1.48.08,3-.08,4.48,0,.62.04,1.22.08,1.5.74-4.01-.05-7.98.08-11.97,0-.68-1.24-1.65-2.45-2.24-3.72-.3-.65-.28-1.59-.75-2.23v-.74c1.47-.19,2.08-.56,2.99-.74.24-.05.51.06.75,0-.6,1.26-1.25,3.28,0,4.46,4.65,4.41,5.64-2.04,5.98-4.46.07-.48-.05-1,0-1.49.03-.25-.03-.5,0-.74h.75Z"/>
  <path class="cls-93" d="M43.05,19.25c-.52,5.28,2.03.83,2.24.74.47-.2,1.96,2.33,1.5-1.49.78,10.16.65,20.34,0,30.51-.06.98.1,2,0,2.98-.03.25.03.5,0,.74-2.02.21-1.35-.05-1.5-1.49-.43-4.22,2.88-12.18-4.49-9.67,0-.42-.8-1.51-.75-2.23,1.14-1.86,4.09-.22,4.9-1.44.68-1.02.29-3.22.34-4.51.35-8.73-.94-3.81-4.04-4.49-5.63-1.24,3.84-3.37,4.04-3.69,1.46-2.33-3.78-.95-5.24-2.23,0-.5,0-.99,0-1.49l.75-2.98c.7.41,1.49.52,2.24.74Z"/>
  <path class="cls-85" d="M46.79,6.6c.69,3.08,1.6,7.48,0,10.42-.15-1.62,1.04-6.38-1.11-6.7.23,4.21.71,7.41-4.87,6.7l-.75-2.23c-.34-3.86,1.11-3.12-.75-6.7l7.48-1.49Z"/>
  <path class="cls-32" d="M13.13,25.2c18.23-1.44,11.45,4.56-1.49,2.99,4.08,1.41,3-.09,5.23,2.97l-.75,1.49c-.49.03-1.01-.06-1.5,0-1.21-2.8-3.06.24-5.24-1.49,4.72.22,1.05-1.53.75-2.23s-2.35-2.97-1.49-3.72c.22-.19,3.5.07,4.48,0Z"/>
  <path class="cls-10" d="M16.87,9.57c.83,2.23,1.81,3.27-.98,5.72-2.05,1.8-3.57,3.36-5.75.98-1.74-1.89-2.03-4.86,0-6.7,2.41-.28,4.09-1.03,6.73,0Z"/>
  <path class="cls-99" d="M16.87,7.34c3.01-.16,9.37-1.04,11.96-.75.22.02-.44,2.06.39,2.25,1.75.39,2.39-4.61,7.09,0v-2.98c2.12-.72,1.34,1.39,1.5,1.49.12,1.22.21,2.04-.75,2.98-2.71-.26-11.57-2.43-12.72.74-.43-.1-3.96-4.73-7.48-2.23-.12-.4-.85-.62,0-1.49Z"/>
  <path class="cls-18" d="M30.33,15.53c-1.77,7.24,2.03,1.79,6.73,3.72,0,.68.14,1.71,0,2.23-1.24-.08-2.51.11-3.74,0-2.41-.22-4.34-.14-6.73,0-.18-1.33,1.15-5.45,2.24-6.7.58-.03,1.29.73,1.5.74Z"/>
  <path class="cls-2" d="M15.37,49.01c.49-.01,1-.03,1.5,0,4.4.25,9.32.43,2.24,2.23-3.38.86-6.36-.2-9.72.74.05-.14-1.26-2.6-.74-2.97.29-.21,5.47.03,6.73,0Z"/>
  <path class="cls-94" d="M14.62,32.64c.48-.06,1.01.03,1.5,0,.73-.04,1.51-.03,2.24,0s1.53-.1,2.24,0l-.75,2.23c-3.36.4-3.54,1.49-3.74,1.49-7.73-.18-12.1-2.33-1.5-3.72Z"/>
  <path class="cls-89" d="M45.29,51.24c-2.13,3.66-2.13.38-2.99-.74,2.54-1.41,2.15-3.67-.75-2.98-.01-.25,0-.5,0-.74,4.28-1.31,3.56-5.12-.75-2.98h-.75c0-.78.74-1.79.75-2.23,7.37-2.5,4.06,5.45,4.49,9.67Z"/>
  <path class="cls-11" d="M33.33,21.48c-.08-.08-2.16-.07-2.24,0-2,1.97,4.23,1.97,2.24,0,1.23.11,2.51-.08,3.74,0-.19.74.36,2.29-.1,2.86-1.26,1.55-9.85.99-10.37-2.86,2.4-.14,4.33-.22,6.73,0Z"/>
  <path class="cls-66" d="M40.81,17.01c5.58.71,5.11-2.5,4.87-6.7,2.15.32.96,5.08,1.11,6.7.05.49-.04,1,0,1.49.46,3.82-1.02,1.29-1.5,1.49-.69-.44-1.49-.52-2.24-.74s-1.55-.33-2.24-.74h-.75c-.02-.49.03-.99,0-1.49h.75Z"/>
  <path class="cls-31" d="M37.07,10.32c-2.16,2.1-9.71,1.44-12.72.74,1.15-3.18,10.01-1,12.72-.74Z"/>
  <path class="cls-52" d="M43.05,25.2h2.24c-.2.33-9.67,2.45-4.04,3.69,3.1.68,4.39-4.24,4.04,4.49-4.02-2.32-1.42,1.27-1.5,1.49-1.01-.76-1.98-.77-2.99,0-2.16-2.98.01-8.37,0-9.67h2.24ZM43.8,31.89c2.2-3.36-5.07-1-2.98.75.12.1,2.9-.62,2.98-.75Z"/>
  <path class="cls-14" d="M16.87,7.34c-.85.87-.12,1.08,0,1.49.07.23-.08.53,0,.74-2.65-1.03-4.32-.28-6.73,0-.9.1-1.38-2.26-3.73,1.49-1.67-6.28,5.96-3.48,10.46-3.72Z"/>
  <path class="cls-77" d="M37.07,17.76c2.21-1.65-2.55-3.02-4.48-2.23-1.01,2.11,4.08,2.53,4.48,2.23.05.48,0,1,0,1.49-4.7-1.93-8.51,3.52-6.73-3.72,4.02.22,6.11-3.71,6.73,2.23Z"/>
  <path class="cls-13" d="M28.84,14.78c-1.09,1.24-2.42,5.36-2.24,6.7-2.49.15-2.55,3.26-3.74-.74,3.08,2.11,3.61-6.94,0-5.21.53-.47,4.77-.68,5.98-.74Z"/>
  <path class="cls-78" d="M45.29,33.38c-.05,1.3.34,3.5-.34,4.51-.81,1.22-3.76-.42-4.9,1.44.05-.75-1.53-1.78,0-3.72,1.09,3.56,2.74,2.21,3.74-.74.08-.22-2.52-3.8,1.5-1.49Z"/>
  <path class="cls-95" d="M10.88,40.83c1.04-.09,8.98.72,7.48,2.23-1.75,1.33-4.27-.05-4.49,0l-1.5.74c-.47.09-1.1-.12-1.5,0v-2.98Z"/>
  <path class="cls-45" d="M41.55,46.78c0,.25-.01.5,0,.74,0,.17-1.21,1.43-.81,2.5.3.81,1.49.39,1.56.48.86,1.12.86,4.4,2.99.74.15,1.44-.53,1.69,1.5,1.49-.05.48.07,1.01,0,1.49l-5.98,4.46c-1.25-1.18-.6-3.21,0-4.46.11-.03,1.81,1.18,2.24.74.68-.71-.37-4.67-2.24-.74-.23.06-.51-.05-.75,0,0-3.47,0-6.95,0-10.42h.75c-.58,1.06.74,2.67.75,2.98Z"/>
  <path class="cls-54" d="M16.12,37.85c0,.49.02.99,0,1.49l-6.74-1.11,6.74-.38Z"/>
  <path class="cls-46" d="M22.85,15.53c3.61-1.73,3.08,7.32,0,5.21-.07-.25-.19-5.03,0-5.21Z"/>
  <path class="cls-23" d="M19.86,34.87l.75-2.23c.66.09,3.33-.89,2.92,1.75-.54,3.49-3.43.45-3.67.48Z"/>
  <path class="cls-25" d="M29.59,56.45c-.02.26.07.59,0,.74-.21.45.22,2.06,0,2.23-2.77,2.12-5.63-4.12,0-2.98Z"/>
  <path class="cls-3" d="M43.8,34.87c-1,2.95-2.65,4.3-3.74.74.18-.23.52-.57.75-.74,1.01-.77,1.98-.76,2.99,0Z"/>
  <path class="cls-92" d="M9.39,45.29c2.81-.26,5.79-.1,2.24,2.23-4.86-1.45-2.19-.96-2.24-2.23Z"/>
  <path class="cls-84" d="M40.06,22.97c1.46,1.29,6.7-.1,5.24,2.23h-4.49c0-.44-.75-1.46-.75-2.23Z"/>
  <path class="cls-28" d="M18.36,45.3c3.28,1.91-7.01,1.91-3.73,0,.16-.09,3.57-.09,3.73,0Z"/>
  <path class="cls-83" d="M16.87,49.01c5.25-2.17,11.09,3.12,2.24,2.23,7.07-1.81,2.15-1.98-2.24-2.23Z"/>
  <path class="cls-84" d="M40.06,21.48c-.01-.99.04-1.99,0-2.98h.75l-.75,2.98Z"/>
  <path class="cls-30" d="M18.37,32.64c-.74-.03-1.51-.04-2.24,0l.75-1.49c.41.56,1.02.99,1.5,1.49Z"/>
  <path class="cls-84" d="M40.81,17.01h-.75c-.04-.74.06-1.5,0-2.23l.75,2.23Z"/>
  <path class="cls-30" d="M13.88,43.06c-.47.11-1.03.66-1.5.74l1.5-.74Z"/>
  <path class="cls-59" d="M10.14,28.92c.3.7,3.97,2.45-.75,2.23-1.51-1.2-.32-1.73.75-2.23Z"/>
  <path class="cls-5" d="M10.88,40.83v2.23c-2.73-.22-2.87-1.99,0-2.23Z"/>
  <path class="cls-61" d="M37.81,57.94c-.34,4.01-4.7.13-.75-2.23.47.64.45,1.59.75,2.23Z"/>
  <path class="cls-58" d="M58.01,31.15c.45.1,1.07-.11,1.5,0,.39.1,3.21,1.24,3.74,1.49-1.65,2.36,1.47,2.73,2.99,1.49,6.18,5.08-.5,2.7-.74,2.98-.29.35.27,3.45-.02,3.72-.36.34-1.43-.8-1.49-.74.11-.69-.16-1.63,0-2.23.01-.05.86-.33.75-.74-.99-3.66-4.32-.22-7.85-1.5l1.12,1.5c-.43-.1-2.15-.26-2.24.37,1.19,1.56,3.49,1.96,2.99-.37,1.62,1.37-.48,3.24,0,3.72.55.55,3.68-2.28,2.99.75-.14.15-.86,3.05-1.5,3.72-.47-.49-2.06-.56-2.24-.74-.44-.44-.66-2.2-.77-2.22-.44-.1-3.87,1.43-5.21.74-.55,2.59,1.87.7,2.99,2.23h-2.99s1.49,1.49,1.49,1.49c-.75.03-1.5-.02-2.24,0,.15-5.8-2.44-9.29.75-15.63.29.19,1.62-.13,2.24,0,.36.08,2.29-.32,3.74,0ZM60.25,34.87c2.3-2.09-7.87-3.57-8.96-1.1.03,1.29,8.63,1.4,8.96,1.1ZM55.01,37.11c-.07-.08-1.34-.31-1.5.38-.5,2.21,2.67,1.01,1.5-.38Z"/>
  <path class="cls-26" d="M58.01,44.55c.44,5.13-2.11,4.53-6.73,3.72-.66,1.74.93,2.8,2.24,2.97-2.4-.67-2.27,3.75.75,4.46l-.75,3.72c-.25-.02-.5.03-.75,0l-2.24-2.23c.01-.25-.02-.5,0-.74.12-1.47-.08-2.99,0-4.46.18-1.24.73-4.38.75-5.21.75-.02,1.5.03,2.24,0,.96-.04,2.54-.06,1.5-1.49-1.11-1.52-3.54.36-2.99-2.23,1.34.69,4.77-.84,5.21-.74.12.03.34,1.78.77,2.22Z"/>
  <path class="cls-51" d="M52.78,6.6c.15-.01-1.41.71,1.5.74,4.09.05,13.03-1.18,14.21,2.23-.37.08-1.09,1.15-1.5,1.49-.24-.45.94-2.07.75-2.22-.26-.21-6.44-.18-6.73,0-.16.1.16,1.25,0,1.48-3.97-2.41-7.63-1.91-9.72,2.23-.97-1.67-2.91-5.07,0-5.95.36-.11,1.01.04,1.5,0Z"/>
  <path class="cls-63" d="M52.78,25.2c1.55-.83,14.13-.75,14.96,0,3.58,3.27-4.22,3-6.73,2.23,3.59.14.68-5.41-1.5,0-.65,1.61-.32.81,0,2.23-3.13-1.39-3.84-1.17-1.5,1.49-1.45-.32-3.38.08-3.74,0-2.44-5.62-1.83-.83-2.24,0-.4-.26-.44-.03-.75-.74-.97-2.26-.29-4.25,1.5-5.21-3.42,1.94,2.26,2.91,4.48,2.23.76-2.18-4.27-2.35-4.48-2.23Z"/>
  <path class="cls-9" d="M50.53,57.2l2.24,2.23c-1-.11-1.99-.58-2.99-.74,0-.39.73-1.11.75-1.49Z"/>
  <path class="cls-75" d="M50.53,56.45c-2.03-1.35-.12-3.64,0-4.46-.08,1.48.12,2.99,0,4.46Z"/>
  <path class="cls-45" d="M47.54,51.99h-.75c.1-.97-.06-2,0-2.98,1.11.61.72,1.96.75,2.98Z"/>
  <path class="cls-57" d="M52.78,6.6c-.48.04-1.13-.11-1.5,0h1.5Z"/>
  <path class="cls-65" d="M89.43,55.71c-.11.84.22,2.5,0,2.98h-3.74c3.25.18,4.62-2.53,0-2.98h.95s.55-.74.55-.74l-.39-.02-1.1.76c-.6-.06-1.61.52-2.24.74-.87-1.02-2.23-.64-2.25-.76-.1-.65,1.48-1.61,1.5-2.22.09-2.77.57-4.99.75-7.44.19.44.52,1.01.75,1.49.08.17-1.43,1.78-.37,2.24,4.12,1.78,1.83-1.99,1.87-2.24.35-2.56.22-.64,2.99-3.72-.09,3.39,1.27,7.77.75,11.91ZM87.93,52.75c-1.51-1.55-6.12.16-4.48,1.47.18.15,5.33.87,4.48-1.47Z"/>
  <path class="cls-96" d="M89.43,18.5c-.02,4.21.02,8.44,0,12.65-.48.15-1.08.69-1.5.74.61-1.96-2.2-2.18-3.74-1.49-.17-.23.37-2.55-1.5-2.98.07-.48-.06-1.01,0-1.49.47-.08,1.09.11,1.5,0-1.99,1.98,4.24,1.97,2.24,0-.08-.08-2.16-.08-2.24,0,3.9-1.1,1.43-2.04,1.5-2.23,1.22-3.48.88.59,1.51.74,2.14.51,2.09-4.41-3.01-2.98l2.24-2.23c-5.74,1.39-2.81.34-3.73-1.49h.75l5.98.74Z"/>
  <path class="cls-21" d="M89.43,37.11c-.04,2.44-.7,5.04-.75,6.7-2.77,3.08-2.65,1.16-2.99,3.72h-1.5c-.23-.47-.56-1.05-.75-1.49.04-.49-.05-1,0-1.49,4.74,1.33,5.09-1.4,0-1.49.05-.33,1.4-.52,1.48-1.1.15-1.03-4.44-15.8,4.5-4.86Z"/>
  <path class="cls-81" d="M89.43,17.76c0,.25,0,.5,0,.74l-5.98-.74c0-.55.69-1.18.75-1.49l5.24,1.49Z"/>
  <path class="cls-86" d="M69.98,9.57c.95-.04,7.11-.07,7.48,0,2.4.46,4.54,2.61,2.22,3.72-.51.24-9.31-2.5-11.19-.74-.62-.62-.16.97-1.5-1.49.41-.34,1.13-1.41,1.5-1.49.43-.09,1.02.02,1.5,0Z"/>
  <path class="cls-22" d="M77.46,6.6v2.98c-.37-.07-6.53-.04-7.48,0-.59-4.01,4.2-2.77,7.48-2.98Z"/>
  <path class="cls-8" d="M83.45,11.8c.15-1.08-.21-2.34,1.13-2.97,3.23-1.52.77,2.54,1.12,2.97.26.32,2.26-2.29,2.98-1.48.97,1.1-1.82,6.45-4.48,3.72-.05-.75-.78-2.02-.75-2.23Z"/>
  <path class="cls-73" d="M82.7,8.83c-.11.96.15,2.03,0,2.98s-.29,2.03-1.49,2.23c-.42-3.98-.35-3.37,1.49-5.21Z"/>
  <path class="cls-80" d="M55.77,55.71c6.82-.16,14.6-6.24,11.97,4.46-.22.07-2.85-.83-4.49-.74,4.76-7.27-1.84-1.59-2.24-1.49-.13.03-1.08-2.42-2.24-1.48-2.01,1.62,2,1.39,2.24,1.48.18.07.48,1.16.75,1.49-1.73.06-3.5.04-5.24,0l-.75-3.72Z"/>
  <path class="cls-50" d="M78.21,55.71c0,.5,0,.99,0,1.49l-1.5,2.23-1.49-2.97c-1.97.77-3,6.75-5.98,1.49.34-.38.62-2.91.76-2.98.37-.18,7.19.48,8.22.75ZM72.97,58.68c1.03-.91-2.11-3.67-2.98-1.1-.59,1.76,2.86,1.2,2.98,1.1Z"/>
  <path class="cls-33" d="M81.2,59.43c-2.82-.47-3.01,1.3-2.99-2.23,0-.5,0-.99,0-1.49,2.1.56,4.86,1.07,2.99,3.72Z"/>
  <path class="cls-29" d="M61,57.94c.4-.1,7.01-5.78,2.24,1.49-.5.03-1-.02-1.5,0-.27-.33-.57-1.42-.75-1.49Z"/>
  <path class="cls-100" d="M55.77,55.71l.75,3.72c-.99-.02-2,.06-2.99,0l.75-3.72c.38.09,1.04.01,1.5,0Z"/>
  <path class="cls-93" d="M46.79,54.22c-.34,2.43-1.33,8.88-5.98,4.46l5.98-4.46Z"/>
  <path class="cls-84" d="M45.29,19.99c-.21.09-2.77,4.54-2.24-.74.76.22,1.56.3,2.24.74Z"/>
  <path class="cls-91" d="M41.55,46.78c0-.31-1.33-1.91-.75-2.98,4.31-2.15,5.02,1.67.75,2.98Z"/>
  <path class="cls-91" d="M41.55,47.52c2.9-.7,3.29,1.57.75,2.98-.07-.09-1.26.33-1.56-.48-.4-1.07.82-2.33.81-2.5Z"/>
  <path class="cls-98" d="M33.33,21.48c1.99,1.98-4.24,1.97-2.24,0,.08-.08,2.16-.08,2.24,0Z"/>
  <path class="cls-70" d="M43.8,31.89c-.08.13-2.87.85-2.98.75-2.09-1.75,5.18-4.11,2.98-.75Z"/>
  <path class="cls-72" d="M37.07,17.76c-.41.3-5.49-.11-4.48-2.23,1.93-.79,6.69.57,4.48,2.23Z"/>
  <path class="cls-69" d="M40.81,54.22c1.87-3.93,2.92.04,2.24.74-.42.44-2.12-.77-2.24-.74Z"/>
  <path class="cls-68" d="M71.48,14.78c4.23,1.56,12.96-.82,6.73,5.21-3.18-.39-6.48.32-2.24,2.23-1.24.07-2.51-.11-3.74,0,.87-6.05-4.25-1.32-7.49-2.63l1.5,2.63c-.58-.09-2.72,1.08-2.99.74-.75-.94,2.58-9.9,5.23-6.69-.07.26.1.62,0,.74-.14.18-5.41-1.45-2.24,1.48,1.03.96,1.97-1.34,2.24-1.48,1.12-.59,2.48-.45,2.99-2.23Z"/>
  <path class="cls-53" d="M61,10.32c-.05.06.86.74.36,1.48-3.31,4.92-6.62,6.73-10.08.75,2.1-4.15,5.75-4.65,9.72-2.23Z"/>
  <path class="cls-82" d="M60.26,45.29l1.49.37c-7.7,5.64,1.16,1.92,3.23,2.74,6.06,2.42-10.37,2.99-11.46,2.84-1.31-.18-2.9-1.23-2.24-2.97,4.62.8,7.16,1.41,6.73-3.72.19.19,1.78.25,2.24.74Z"/>
  <path class="cls-49" d="M82.7,27.43c-.24,1.61,1.37,4.65-1.49,5.2-.75-6.84-.42-10.44,0-17.11,2.51-.54,1.07,1.4,1.49,2.23.93,1.83-2.01,2.88,3.73,1.49l-2.24,2.23c-.26.07-.6-.1-.75,0-1.63,1.11-.62,3.39-.75,4.46-.06.48.07,1.01,0,1.49Z"/>
  <path class="cls-64" d="M58.01,37.11l-1.12-1.5c3.52,1.28,6.86-2.16,7.85,1.5l-.75.74c-.16.6.11,1.54,0,2.23-.9.91-2.15,1.39-2.24,1.49.69-3.03-2.43-.2-2.99-.75-.48-.48,1.61-2.35,0-3.72-.11-.1-.48.06-.75,0Z"/>
  <path class="cls-19" d="M66.24,22.22l-1.5-2.63c3.24,1.31,8.36-3.42,7.49,2.63-2.75.24-2.97.49-5.98,0Z"/>
  <path class="cls-20" d="M83.45,46.03c-.18,2.45-.65,4.67-.75,7.44-2.54,1.79-2.07-10.25-1.97-10.82.58-3.37,2.12,2,2.72,3.38Z"/>
  <path class="cls-17" d="M78.21,19.99c5.06.62,2.46,4.36-2.24,2.23-4.23-1.91-.94-2.62,2.24-2.23Z"/>
  <path class="cls-44" d="M85.69,55.71c4.62.44,3.25,3.15,0,2.98-4.16-.23-1.47-1.33-2.24-2.23.63-.22,1.64-.8,2.24-.74Z"/>
  <path class="cls-16" d="M71.48,14.78c-.52,1.78-1.87,1.64-2.99,2.23.1-.12-.07-.49,0-.74.14-.49-1.19-2.61,0-3.72.25.25,2.82,2.17,2.99,2.23Z"/>
  <path class="cls-102" d="M66.24,34.13c-1.52,1.24-4.64.87-2.99-1.49,1.34.62,1.01-.14,2.99,1.49Z"/>
  <path class="cls-55" d="M59.51,27.43c2.17-5.41,5.09.14,1.5,0-.39-.12-1.03.08-1.5,0Z"/>
  <path class="cls-4" d="M84.19,30.41c1.54-.7,4.35-.47,3.74,1.49-4.62.61-3.02-.53-3.74-1.49Z"/>
  <path class="cls-41" d="M83.45,43.06c5.09.09,4.74,2.82,0,1.49.05-.48-.07-1.01,0-1.49Z"/>
  <path class="cls-15" d="M59.51,29.66c.1.44-.07,1.02,0,1.49-.43-.11-1.05.1-1.5,0-2.34-2.66-1.63-2.88,1.5-1.49Z"/>
  <path class="cls-12" d="M60.25,34.87c-.33.3-8.94.19-8.96-1.1,1.09-2.48,11.26-.99,8.96,1.1Z"/>
  <path class="cls-71" d="M54.27,31.15c-.63-.13-1.95.19-2.24,0,.42-.83-.2-5.62,2.24,0Z"/>
  <path class="cls-74" d="M58.01,37.11c.27.06.64-.1.75,0,.5,2.33-1.79,1.92-2.99.37.09-.63,1.81-.47,2.24-.37Z"/>
  <path class="cls-87" d="M55.02,45.29c1.04,1.43-.53,1.44-1.5,1.49l-1.49-1.48h2.99Z"/>
  <path class="cls-74" d="M55.01,37.11c1.17,1.38-2,2.59-1.5.38.16-.69,1.43-.46,1.5-.38Z"/>
  <path class="cls-75" d="M64,37.85l.75-.74c.11.41-.73.69-.75.74Z"/>
  <path class="cls-55" d="M52.78,25.2c.22-.12,5.25.04,4.48,2.23-2.23.69-7.9-.29-4.48-2.23Z"/>
  <path class="cls-6" d="M87.93,52.75c.85,2.34-4.3,1.62-4.48,1.47-1.64-1.31,2.97-3.02,4.48-1.47Z"/>
  <path class="cls-42" d="M85.69,47.52c-.03.24,2.26,4.01-1.87,2.24-1.06-.46.45-2.07.37-2.24h1.5Z"/>
  <polygon class="cls-75" points="85.69 55.71 86.79 54.95 87.18 54.97 86.63 55.71 85.69 55.71"/>
  <path class="cls-56" d="M84.19,21.48c5.11-1.43,5.15,3.49,3.01,2.98-.63-.15-.3-4.22-1.51-.74-1.18,2.05-2.65-.8-2.24-2.23.14-.1.49.07.75,0Z"/>
  <path class="cls-75" d="M85.69,23.71c-.07.19,2.4,1.13-1.5,2.23-.41.11-1.03-.08-1.5,0,.12-1.07-.88-3.36.75-4.46-.4,1.44,1.06,4.28,2.24,2.23Z"/>
  <path class="cls-7" d="M84.19,25.94c.08-.08,2.16-.07,2.24,0,2,1.97-4.23,1.97-2.24,0Z"/>
  <path class="cls-79" d="M61,57.94c-.24-.09-4.25.14-2.24-1.48,1.16-.94,2.11,1.52,2.24,1.48Z"/>
  <path class="cls-40" d="M72.97,58.68c-.12.1-3.57.66-2.98-1.1.87-2.58,4.01.19,2.98,1.1Z"/>
  <path class="cls-88" d="M68.48,17.01c-.27.14-1.21,2.44-2.24,1.48-3.17-2.94,2.09-1.31,2.24-1.48Z"/>
</svg>