<?xml version="1.0" encoding="UTF-8"?>
<svg id="Layer_1" data-name="Layer 1" xmlns="http://www.w3.org/2000/svg" viewBox="0 0 270.55 93.75">
  <g>
    <path d="M59.35,35.25c-.27,1.38.37,1.48,1.3,2.07,2.2,1.4,6.54,2.33,9.17,3.6.75.36,1.97,0,1.51,1.45-.22.7-11.49,7.53-12.36,7.87-2.06.82-.69-3.33-1.11-3.75-1.37-1.39-34.17.97-38.91.76v-6.76s38.19-.32,38.19-.32c.86-.58,1.29-3.59.23-4.21l-28.68-.35,2.58-1.9,22.1-.72c.43-.38-1.49-3.63-2.02-3.76-1.69-.42-12.62-.27-14.83-.01-1.83.21-2.9,1.15-4.5,1.48-1.18.24-4.51-.22-4.8.07-.68.68.1,4.94-.06,5.14-.85,1.08-14.56,1.21-17.18,1.58-1.23-3.81,3.69-1,3.75-4.09.07-3.49-5.7-3.12-5.3-10.55.5-9.08,9.08-6.34,12.44-9.32,2.22-1.96,1.9-9,5.96-9.77,1.59-.31,9.84-.3,10.51.69.59.88.21,3.43.89,5.11,1.55,3.85,6.84,3.96,5.27,10.9-.87,3.85-8.83,6.71,2.4,6.54v-4.5c2.05-.03,4.14,1.34,6.23.64,1.75-.58,1.71-3.35,2.07-3.61.25-.18,5.07.61,6.2.62,1.39,0,2.83-1.09,4.46-.56,1.78.58,2.14,4.73,3.49,5.55,4.26,2.59,4.67-5.06,2.5-6.44-3.32-2.12-18.94.13-23.74-.64l-1.95-5.3h29.18c-.66,3.85,1.52,7.56.4,11.29-.24.8-2.45,4.19-3.14,4.39-2.51.71-3.87-3.4-4.71,2.75-.3,2.18,3.4.42,5.23,1.43.84.46.1,2.65-.03,2.65h-12.72ZM33.16,5.25c-6.55-1.58-12.32,6.36-4.7,8.09s5.36-3.03,4.7-8.09ZM36.9,13.5c-.18-2.88,1.12-6.83-2.23-8.25v8.25s2.23,0,2.23,0ZM30.92,24.75c-.51-2.8,4.66-5.33,2.66-8.28-1.34-1.97-11.66-1.41-12.38-.71-.2.19-.14,3.89.32,4.54.64.91,7.59,1.82,7.91,3.35.19.92-2.13,2.54-1.5,4.1,5.5,1.37,13.19-3.06,2.99-3ZM40.63,23.25c1.36-1.25,1.87-10.36-2.98-8.24.52.78.74,10.3,2.98,8.24ZM11.47,24.75c1.4,1.02,9.93-5.1,6.73-7.15-3.36-2.15-9.81,4.92-6.73,7.15ZM59.35,32.24c4.55,1.41,6.26-6.23,2.46-7.36-4.06-1.21-6.42,3.17-4.69,6.62l1.49-3.75c2.23,1.21,2.46,2.7.74,4.49ZM23.25,32.82c5.79-5.85-8.62-10.89-5.79-.57l1.86-2.99c1.87,1.79,2.04,2.61.38,4.49.4.33,3.02-.38,3.56-.92Z"/>
    <path d="M32.79,73.03c0,9.08-7.34,16.44-16.4,16.44S0,82.11,0,73.03s7.34-16.44,16.4-16.44,16.4,7.36,16.4,16.44ZM28.65,77.98c.88-2.05,2.38-10.32-.43-11.18-2.02-.62-11.16,3.79-14.16,3.75s-2.8-4.04-6.65-3.79c-6.11.39-5.28,11.38.64,10.5,1.42-.21,2.25-1.56,3.38-1.92,5.15-1.62,12.09,1.87,17.22,2.64Z"/>
    <path d="M86.28,51v39.75c-4.71-1.94-13.59-10.71-17.76-11.82-6.54-1.74-19.33,3.69-19.71-8.05s12.42-7.4,19.52-8.19l17.95-11.69ZM84.78,54c-.52-.58-6.88,4.35-5.98,5.24,1.13-.95,5.04.19,5.23,0s.47-4.39.75-5.25ZM69.82,63.75h12.35c.23,0,1.06,1.03,1.87.75v-2.99s-7.87-.78-7.87-.78l-6.34,3.02ZM66.08,65.25c-4.89.84-10.68-3-14.12,1.97-6.45,9.33,8.1,10.06,14.12,9.28v-11.25ZM84.04,66c-1.13-.72-13.2.54-15.71,0-.05,1.17-.33,4.21,1.12,4.33.35-.07.59-.58.75-.58h14.59c.09-.63-.59-3.65-.75-3.75ZM84.04,75.75v-4.5c-4.1,2.13-11.41-.35-15.25.7-.77.21-.79,2.65-1.22,3.41l16.47.39ZM72.82,78.01c2.56,1.76,8.04,6.83,10.48,7.88,2.17.93.63-2.63.66-3.75.03-1.39,1.57-4.48-.33-4.84-1.53-.29-8.26,1.64-10.81.71Z"/>
  </g>
  <path d="M121.45,0c.82,11.46-1.09,24.38-.04,35.66.09.99,0,1.99,1.13,2.4l147.8-.56c1.76,6.58-8.37.12-8.98,4.12v52.13s-1.49,0-1.49,0l.03-52.74c-1.78-1.82-3.89-1.59-3.81,1.33l.78,51.41h-1.5l-1.13-53.25h-2.61s0,53.25,0,53.25h-.75l-.71-51.41c.05-2.64-1.39-3.05-3.06-1.34l.03,52.75h-1.5l-.43-53.26h-3.31s0,53.26,0,53.26h-1.5l-.38-53.25h-2.61s0,53.25,0,53.25h-1.5l-.38-53.25h-2.61s0,53.25,0,53.25h-1.5l.04-52.79c-1.95-1.31-3.94-1.62-3.82,1.38l.04,51.41h-1.5l.04-52.79c-1.95-1.31-3.94-1.62-3.82,1.38l.04,51.41h-1.5v-54s-3.04,1.21-3.04,1.21l.05,52.79h-1.5l-.43-53.26-3.31.02.75,53.25h-1.5l-.43-53.26h-3.31s0,53.26,0,53.26h-1.5v-54s-3.04,1.21-3.04,1.21l.05,52.79h-1.5l-.11-52.02c-1.73-1.92-3.39-2.42-3.64.61-1.36,16.48,1.02,34.74,0,51.41h-.75l-1.13-53.25h-2.61s0,53.25,0,53.25h-1.5l-.38-53.25h-2.61s0,53.25,0,53.25h-1.5v-53.25h-66.59v53.25h-2.24V0h2.24Z"/>
  <path d="M244.15,3.75c2.8.05,11.16-1.28,9.63,3.97-.89,3.05-3.88,1.93.85,7.28-3.83,1.35-4.36-4.44-7.1-4.5-1.09,3.22,1.25,5.26-3.37,4.51V3.75Z"/>
  <path d="M256.12,3.75l3.7.04,1.9,6.71c1.25-2.97.05-7.72,4.87-6.76-.44,2.73,1.26,8.46.74,10.85-.24,1.1-1.74,1.45-2.14-.07l-.84-7.02c-.76,1.48-1.1,8.76-3.37,8.24-2.26-.79-.97-8.86-3-8.25-.75.23.76,5.25.27,7.03-.41,1.47-1.42,1.29-2.15.1V3.75Z"/>
  <path d="M131.92,3.75c3.47-.28,10.83-.78,8.9,4.79-.41,1.17-2.05,1.09-2.15,1.23-.79,1.13,3.29,3.81,2.98,5.59-3.29,1.86-5.31-7.06-7.49-4.87-.4.4,1.13,5.77-2.25,5.25V3.75ZM138.66,6c-.23-.23-3.57.14-4.5,0-1.73,5.77,6.56,2.12,4.5,0Z"/>
  <path d="M195.52,26.24c-1.59,1.63-3.07-.81-3.75-1.12-5.63-2.54-6.01,7.6-1.11,7.61.69,0,2.58-1.16,2.61-1.61.06-1.02-3.82-.31-2.97-2.62h5.24c.82,5.38-1.85,7.04-6.95,5.83-6.52-1.54-3.77-14.14,4-11.52,1.17.39,3.34,3.03,2.95,3.42Z"/>
  <path d="M175.32,3.75c3.54.09,9.39-1.37,8.84,3.97-.23,2.17-1.95,1.97-2.03,2.1-.72,1.21,2.89,4.29,2.9,4.81.01.47-1.11,1.4-2.25.78-1.23-.68-2.96-5.3-4.83-4.9-2.47.53,1.05,5.81-2.63,5.25V3.75ZM182.05,8.25c.11-2.96-3.16-2.25-5.23-2.24-.34,4.3,2.35,2.33,5.23,2.24Z"/>
  <path d="M238.8,3.88c.49.3,3.98,10.16,3.86,10.73-.59,2.89-2.61-1.24-3-1.48-4.06-2.52-5.85,3.4-7.48,1.86-.43-.4,3.35-10.81,3.85-11.12s2.24-.32,2.76,0Z"/>
  <path d="M218.56,12.91c-.62-.36-4.47-.38-4.98-.06-.85.53.11,3.97-3.09,2.89,1.25-2.28,3.77-15.9,7.39-10.79.28.4,3.68,8.56,3.72,9.04.42,4.52-2.8-.95-3.04-1.09Z"/>
  <path d="M143.15,3.75h8.23s0,2.25,0,2.25h-5.99v2.25c1.14.23,5.84-.48,5.99.38.61,3.48-3.94,1.32-5.99,1.87-2.33,5.17,6.78,1.98,6.74,3.38-.06,2.6-3.23,1.06-4.88,1.04-1-.01-4.11,1.26-4.11-.3V3.75Z"/>
  <path d="M192.58,7.44c-.33-.21-2.55-5.16-3.8.06,13.5,1.56,1.4,15.43-2.99,3.76,2.39-.72,3.48,2.79,5.6,2.24.93-.24,1.57-2.49,1.14-2.99-.47-.55-6.09.23-5.97-4.05.15-5.11,8.76-2.65,8.21-.09-.12.53-1.48,1.51-2.18,1.07Z"/>
  <path d="M226.94,26.25c-2.08.94-2.26-1.43-2.68-1.51-.98-.18-3.31.18-3.29,1.14.04,1.6,6.96.93,6.72,5.18-.26,4.77-7.76,4.69-8.67,1.24-1.33-5.09,1.87-.33,2.08-.21,1,.58,3.08,0,4.35.16,1.15-3.6-3.95-2.09-5.8-3.93-4.4-4.35,7.03-9.55,7.29-2.07Z"/>
  <path d="M197.02,3.75h8.23s0,2.25,0,2.25h-5.99s0,2.25,0,2.25c8.89-1.3,7.33,3.76,0,1.51v3.75c1.26.24,6.48-.51,6.73.38.5,1.74-1.61,1.08-2.61,1.12-2.12.09-4.26-.06-6.37,0V3.75Z"/>
  <path d="M197.76,22.5h2.24s.43,5.26.43,5.26c7.67,1.11,1.13-3.86,6.3-5.26v12h-2.24s-.43-5.26-.43-5.26h-4.06s0,5.27,0,5.27h-2.24v-12Z"/>
  <path d="M164.84,3.75c6.38-1.07,13.4,2.21,2.24,2.25v2.24c7.78-1.04,7.17,3.86,0,1.51.1,1.07-.17,2.29-.02,3.31.17,1.15,6.03-.24,6.01.82-.07,3.15-6.37-.25-8.24,1.87V3.75Z"/>
  <path d="M155.01,3.86c.62.43,1.78,5.24,2.27,6.34.28.62.43,2.46,1.56,1.06.62-.76.35-8.74,4.49-7.5-1.06,1.89-3.15,11.58-4.87,11.99s-5.14-9.26-5.52-10.96c-.35-1.56,1.44-1.36,2.06-.93Z"/>
  <path d="M217.21,22.5c1,3.72-2.37,1.65-2.99,2.24-.35.34.28,8.25,0,9.76h-2.24c-.26-1.51.34-9.41,0-9.76-.49-.5-4.17,1.15-3.74-1.11l8.97-1.13Z"/>
  <path d="M173.07,32.25c.27.27,4.88-.21,5.99,0v2.24s-8.24,0-8.24,0c.44-1.39-.39-12.04,1.13-11.99,2.36,1.36.44,9.05,1.12,9.74Z"/>
  <path d="M223.2,3.75h2.24c.26,1.5-.34,9.41,0,9.75.56.56,5.9-1.17,5.25,1.11-.25.89-6.14.14-7.49.38V3.75Z"/>
  <path d="M180.56,34.5v-10.88c0-.52,1.7-1.87,2.64-.4.67,1.04,1.26,13.17-2.64,11.27Z"/>
</svg>