<?xml version="1.0" encoding="UTF-8"?>
<svg id="Layer_1" data-name="Layer 1" xmlns="http://www.w3.org/2000/svg" viewBox="0 0 74.04 61.94">
  <defs>
    <style>
      .cls-1 {
        fill: #9a869e;
      }

      .cls-2 {
        fill: #e4c9e1;
      }

      .cls-3 {
        fill: #514452;
      }

      .cls-4 {
        fill: #dcc5dc;
      }

      .cls-5 {
        fill: #f6eef6;
      }

      .cls-6 {
        fill: #d2bfd3;
      }

      .cls-7 {
        fill: #e9dee9;
      }

      .cls-8 {
        fill: #3d2841;
      }

      .cls-9 {
        fill: #3f3d3e;
      }

      .cls-10 {
        fill: #f2ebf0;
      }

      .cls-11 {
        fill: #313131;
      }

      .cls-12 {
        fill: #e0c9e2;
      }

      .cls-13 {
        fill: #816a86;
      }

      .cls-14 {
        fill: #3d383c;
      }

      .cls-15 {
        fill: #1c171c;
      }

      .cls-16 {
        fill: #323233;
      }

      .cls-17 {
        fill: #9d87a1;
      }

      .cls-18 {
        fill: #ccc1cd;
      }

      .cls-19 {
        fill: #2e262f;
      }

      .cls-20 {
        fill: #c5b7c7;
      }

      .cls-21 {
        fill: #f3ebf2;
      }

      .cls-22 {
        fill: #ab9dad;
      }

      .cls-23 {
        fill: #cab4c9;
      }

      .cls-24 {
        fill: #303030;
      }

      .cls-25 {
        fill: #c1aac6;
      }

      .cls-26 {
        fill: #e8e2e8;
      }

      .cls-27 {
        fill: #ded0de;
      }

      .cls-28 {
        fill: #2c2a2b;
      }

      .cls-29 {
        fill: #3e3a3d;
      }

      .cls-30 {
        fill: #d4c8d5;
      }

      .cls-31 {
        fill: #ded1e0;
      }

      .cls-32 {
        fill: #443b46;
      }

      .cls-33 {
        fill: #282828;
      }

      .cls-34 {
        fill: #2e2a2f;
      }

      .cls-35 {
        fill: #312030;
      }

      .cls-36 {
        fill: #352c37;
      }

      .cls-37 {
        fill: #3a3839;
      }

      .cls-38 {
        fill: #c0a5c4;
      }

      .cls-39 {
        fill: #957698;
      }

      .cls-40 {
        fill: #8f7593;
      }

      .cls-41 {
        fill: #3c3c3d;
      }

      .cls-42 {
        fill: #a285a6;
      }

      .cls-43 {
        fill: #3a3a39;
      }

      .cls-44 {
        fill: #b7aab8;
      }

      .cls-45 {
        fill: #8b778f;
      }

      .cls-46 {
        fill: #8a748e;
      }

      .cls-47 {
        fill: #c7bcc7;
      }

      .cls-48 {
        fill: #e5d9e5;
      }

      .cls-49 {
        fill: #171518;
      }

      .cls-50 {
        fill: #343434;
      }

      .cls-51 {
        fill: #665469;
      }

      .cls-52 {
        fill: #333435;
      }

      .cls-53 {
        fill: #3e3e3e;
      }

      .cls-54 {
        fill: #1f2020;
      }

      .cls-55 {
        fill: #f3ecf2;
      }

      .cls-56 {
        fill: #383538;
      }

      .cls-57 {
        fill: #b79cbc;
      }

      .cls-58 {
        fill: #b59eb8;
      }

      .cls-59 {
        fill: #cdc1d0;
      }

      .cls-60 {
        fill: #472e4a;
      }

      .cls-61 {
        fill: #cbb1cd;
      }

      .cls-62 {
        fill: #d6bfd8;
      }

      .cls-63 {
        fill: #f9f7fb;
      }

      .cls-64 {
        fill: #d6c4d8;
      }

      .cls-65 {
        fill: #5b4760;
      }

      .cls-66 {
        fill: #1d1720;
      }

      .cls-67 {
        fill: #b296b4;
      }

      .cls-68 {
        fill: #6e676e;
      }

      .cls-69 {
        fill: #e7dbe9;
      }

      .cls-70 {
        fill: #d2c0d4;
      }

      .cls-71 {
        fill: #241c25;
      }

      .cls-72 {
        fill: #59425c;
      }

      .cls-73 {
        fill: #766179;
      }

      .cls-74 {
        fill: #393739;
      }

      .cls-75 {
        fill: #433e43;
      }

      .cls-76 {
        fill: #907e94;
      }

      .cls-77 {
        fill: #b29db3;
      }

      .cls-78 {
        fill: #393937;
      }

      .cls-79 {
        fill: #ead9ea;
      }

      .cls-80 {
        fill: #c2afc7;
      }

      .cls-81 {
        fill: #e1dfe2;
      }

      .cls-82 {
        fill: #fdfdfe;
      }

      .cls-83 {
        fill: #b09cb3;
      }

      .cls-84 {
        fill: #bab2bc;
      }

      .cls-85 {
        fill: #ded4e0;
      }

      .cls-86 {
        fill: #433c44;
      }

      .cls-87 {
        fill: #544e54;
      }

      .cls-88 {
        fill: #c0b1c2;
      }

      .cls-89 {
        fill: #d5c4d8;
      }

      .cls-90 {
        fill: #cab7cc;
      }

      .cls-91 {
        fill: #86758c;
      }
    </style>
  </defs>
  <path class="cls-63" d="M25.41,6.12c1.74.14,1.68,1.01,3.74.37.77-.24,1.84.73,3.36.37,3.13-.73,3.43-.13,6.72,0,1.47.06,3.04-.79,2.61,1.49-.96,1.77-4.31,1.96-6.72,1.49.25,1.61-4.4,2.8-4.3.39-1.94-.6-3.74-1.22-5.41-1.88-1.45-.56-1.79-4.13,0-2.23Z"/>
  <path class="cls-63" d="M65,11.33c-.88,1.11-1.23.5-1.49-.74-1.54.62-3.31-.85-2.24-2.23.33-.28,1.2-2.04,1.87-2.23,2.45-.7,3.63,2.53,1.87,4.09v1.12Z"/>
  <g>
    <path class="cls-9" d="M14.95,1.66c-.85.94-1.85,1.93-2.99,2.98.68.08.64.33,0,.74,1.64,1.33,1.64,3.07,0,5.21.84,1.69,1.59,3.43,2.24,5.21,1.11-1.85,1.88-1.85,2.99,0,1.37-1.19,2.78-2.39,3.74,0,1.36-.83,1.78-.49.75.74h-1.49c-.29,1.69-2.35,1.5-2.99,0-.08,1.96-3.92.58-5.23,0-1.63,2.72-12.32-.33-6.72-2.23,2.25-1.15,2-1.15-.75,0-.61,1.14-1.35,1.14-2.24,0,.14-.14-.2-.76,0-1.12,1.24-2.21,5.7-4.98,8.22-4.84-.41-1.13.75-1.71.75-1.86,0-.13-1.18-.74-.75-2.23.17-.58,1.41-.52,0-1.49,0-.54,2.94-2.47,3.74-2.6,1.46.16,2.01.46.75,1.49Z"/>
    <path class="cls-56" d="M28.4,47.06c-.5,1.15-.71.54-1.12.74-.55.28-.64,1.11-1.87.74l1.49,2.98h-1.49c-.58,1.3.76,2.47.75,2.6-.02.26-.7.46-.75.74-.19,1.13.25,2.7,0,3.72-.12.51-.73.33-.75.37-1.37,1.51-1.9,1.23-1.49-.74-1.14-1.63-1.16-3.99-.06-7.07-.6-.57-1.33-1.19-2.18-1.86-1.27-.14-1.43-1.36,0-1.49,0-2.09,3.72-2.45,5.23-1.49.72-1.86,2.98-1.42,2.24.74Z"/>
    <path class="cls-50" d="M11.97,26.96c.14-.66.39-.63.75,0,2.08.09,4.69.17,6.72,0,1.29,3.58-2.04,2.1-4.48.74-.66,1.5-1.41,2.74-2.24,3.72-.19,1.11-.69,1.85-1.49,2.23-2.39.74-4.63,1.48-6.72,2.23-.21.65-.46.64-.75,0-1.05.99-1.43.57-.75-.74,1.65-1.9,1.55-2.05,4.11-2.98.31-.11.46-.67.75-.74.64-.17,1.61.17,2.24,0,1.2-.33,1.83-3.5.37-3.72-.65-.21-.64-.46,0-.74.37-1.4,1.04-1.4,1.49,0Z"/>
    <path class="cls-71" d="M25.41,6.12s-.78-.1-.75.37c.86.57.72.98.75,1.86.68.15.66.4,0,.74-.66,1.43-.56,2.5.28,3.21l-1.03.51c-.25.64-.5.64-.75,0-2.17-1.19-2.1-3.98,0-5.21-1.51-5.44-3.53-7.06-6.06-4.85l-1.41-1.11c-.14.67-.39.65-.75,0-.25.65-.49.65-.75,0l-.75-1.49c1.29-.22,5.82-.23,7.1,0,.27.05.44.65.75.74.44.14,1.03-.13,1.49,0,1.53.44,2.47,3.86,1.87,5.21Z"/>
    <path class="cls-69" d="M4.49,38.13c.55.99.41,3.42,0,4.47.65.21.64.46,0,.74-.23.3-.48.29-.75,0-.3,1.7-1.75.23-2.24-.74-.11-1.03.26-3.17,0-3.72-.33-1.28.95-2.8,2.24-2.98h.75c2.62-.82,2.32,1.99,0,2.23Z"/>
    <path class="cls-36" d="M11.97,47.8c1.42.45,1.42,1.12,0,1.49,2.3.09,2.75,3.66.75,4.47-1.27.61-1.5-1.04-1.43-1.24.03-.07.72.77-.07,1.24h-1.49c-.48-.48.85-5.03-.75-5.21-.65-.21-.64-.46,0-.74.92-2.02,2.07-2.04,2.99,0Z"/>
    <path class="cls-86" d="M3.75,43.34c.95.09,6.03,2.61,5.95,2.94-.14.56-.29,1.09-.72,1.53v.74c-1.83.71-6.87-3.35-7.47-4.84-.12-.3.04-.73,0-1.12h1.12c.17.53,1.03.67,1.12.74Z"/>
    <path class="cls-3" d="M14.95,59.71c-.62-1.71.74-2.54,1.75-1.05,1.6-.12,3.01-.02,4.22.3.24-.65.48-.65.75,0,2.26-.23,2.34,1.58.75,2.98l-.75-1.49c-1.77,1.47-4.16-.06-5.6,1.49-.23-.52-.82-.58-1.12-.74-.92-.96-.92-1.46,0-1.49Z"/>
    <path class="cls-49" d="M11.22,53.76c-.11-.75-.79-.84-.75-1.49h1.49l.75,1.49c.41.22.4.47,0,.74,1.05.33.14,1.16-.75,1.49.98-.3,1.23.19.75,1.49,1.87-.75,2.69.5,2.24,2.23v1.49c-.75-.4-3.59-2.83-3.74-3.35-.13-.45.13-1.02,0-1.49-.08-.3-.75-.5-.75-.74,0-.11.96-.48.75-1.86Z"/>
    <path class="cls-15" d="M2.25,14.31c1.77.05.99,6.79-.75,7.44-.21.65-.46.64-.75,0-.17-.77.18-1.85,0-2.6-.07-.29-.66-.45-.75-.74-.17-.61,1.37-2.59.75-4.09h1.49Z"/>
    <path class="cls-41" d="M23.17,58.22c.76.12.85.78,1.49.74-.12.29.19.83,0,1.12-.33.5-1.7,1.87-2.24,1.86.23-1.27-.16-1.95-.75-2.98-.72-1.67.84-2.82,1.49-.74Z"/>
    <path class="cls-18" d="M29.15,44.08c1.55.5.98,1.2,0,2.23-.33.21-.36-.13-.75.74l-1.12-.74h-1.12c-3.44-1.48.26-4.51,2.99-2.23Z"/>
    <path class="cls-32" d="M8.23,25.47c1.86-1.27,2.73-.64,2.24,1.49v.74c-1.77.34-2.71-1.09-4.48-.74v-1.49c.69.07,1.87-.17,2.24,0Z"/>
    <path class="cls-29" d="M1.51,21.75c1.32-1.58,2.31-.84,2.99,2.23-.04.49.02,1,0,1.49-.37-.05-.81.12-1.12,0-.82-.33-2.41-2.8-2.61-3.72h.75Z"/>
    <path class="cls-74" d="M3.75,35.89c-.2,1.11-1.77,1.43-1.49,2.6l-.75.37c-.03-.07-1.08.09-.75-1.12.49-1.32,1.61-1.88,2.24-2.6l.75.74Z"/>
    <path class="cls-82" d="M58.28,21.75c1.53-.77,3.6,1.45,3.74,2.98,2.16,1.94,1.19,7.33-2.24,7.44.04,1.58-3.21,2.54-4.48,2.8-4.12.85-9.43.64-14.19.17-3.54-.43-7.56-1.11-10.42-2.98l-3.78-1.48c-2.13,1.96-3.37-3.44-2.36-4.81,2.53-.94,5.06-2.06,7.59-3.38,1.08-.2,1.85.19,2.99-.74,1.73-.41,3.22-.41,4.48,0,4.77-2.57,12.63-1.78,18.28-.83.17.03.29.38.4.83Z"/>
    <path class="cls-10" d="M22.42,26.96c1.23.02,1.48.52.75,1.49.41,2.23,1.36,7.52-1.49,8.19.78,1.68-1.94,2.76-2.99,1.49-.5.48-1.25-.02-2.24-1.49-.36-.09-.71-.2-.99-.4-.75-.53-.87-7.1-.5-8.53,1.36-.03,2.74.02,4.11,0l.37-.74c.84-.07,1.3.15,1.87-.74.22.59,1.09.68,1.12.74Z"/>
    <path class="cls-12" d="M4.49,14.31c.19-.35.45-.32.75,0l-.75,1.49c1.08.11,2.33-.16,3.36,0,1.14.18,2.16.61,4.11.74,1.8.25,2.8.75,2.99,1.49l-1.87,2.23c-1.78-2.58-2.9-.91-5.23-.74l-.37.74c-1.1,1.42-2.1,2.41-2.99,2.98-.04.23.02.49,0,.74h-1.49c.63-1.44-1.43-2.1-1.49-2.23-.15-.33-.13-4.85,0-5.58.05-.26.62-.43.75-.74.15-.4-.12-.92,0-1.12.03-.06.91-.17,1.12-.74.35.42.55.64,1.12.74Z"/>
    <path class="cls-43" d="M32.13,22.5l-2.61,2.23-4.11,1.49c.16,1.02-.24,2.47,0,3.35.16.6,1.44,1.04,1.49,1.12.66.25.66.5,0,.74.02,1.7-1.35,1.77-.74.83,1.25-1.92,2.63,6.69-1.5,5.87,1.94,1.34-.7,4.21-2.24,2.23-.54-.18-.79-.43-.75-.74-1.05-1.43-.22-2.52,1.49-2.23-.23-2.77-.23-5.75,0-8.93l-.75-.37c-.14-.39.11-.88,0-1.12l2.61-2.98c1.75.81,4.36-.99,7.1-1.49Z"/>
    <path class="cls-26" d="M32.88,39.62c.5,1,.99,2,1.49,2.98.88,1.24.35,2.64,1.87,2.23l.37.74c-1.23-.21-2.47-.74-2.61-.74-.24,0-.44.66-.75.74-.98.27-1.3-.74-1.49-.74-.15,0-2.12,1.18-2.61,1.49-.1-.65-.02-1.52,0-2.23-.68-.08-.64-.33,0-.74-1.54-1.48-1.69-2.95.75-2.98-1.39-.72-.62-1.71.75-1.49.67-1.28,1.99-.44,2.24.74Z"/>
    <path class="cls-75" d="M35.12,9.84l.37.74h1.12c-.84.39-2.27,1.14-3.36,1.49-1.86.59-4.17,1.35-5.6,2.23-.18.11-.64-.12-.75,0-1.07-.14-1.02-1.08,0-1.49.12-1.07-.12-2.06-.75-2.98-1.16.38-1.4.13-.75-.74.05-.19,0-.5,0-.74.83.1,1.86-.16,2.61,0,.22.05,1.45.52,2.24.74s.98,2.05,3.74,1.49l1.12-.74Z"/>
    <path class="cls-19" d="M41.1,35.15c-.24.11-.72-.11-1.12,0l-.37.74c-.25-.02-.52.04-.75,0-1.88.32-4.91.26-6.72-.74-2-.37-4.63-1.64-5.23-3.72-.06-.25.1-.62,0-.74,1.53-.2,2.75.14,4.11.74,2.17.96,4.14,2.57,6.72,2.23l3.36,1.49Z"/>
    <path class="cls-1" d="M38.86,35.89l-.75.37c-.09.39.08.8,0,1.12-1.82-1.49-1.93-.19-2.61,0-.49.13-1.26-.06-1.87,0-.25.41-.5.41-.75,0-3.4-.31-3.56-3.75-.75-2.23,1.05-.63,2.07-1.05,3.36-.74.64.15,3.16,1.45,3.36,1.49Z"/>
    <path class="cls-35" d="M24.66,12.82c.21-1.77,1.53.2,2.24,1.49-.11.13.06,1.02,0,1.49-.97.1-2.06-.15-2.99,0,.09.31.17.62.21.94.02.11-.2.93-.28,1.02-.38.44-.91.45-1.43.28-.22-.51-.48-1.01-.75-1.49-.12-.22.1-.86-.75-.74-1.92-1.14-.92-2.13,2.99-2.98.24.04.52-.06.75,0Z"/>
    <path class="cls-39" d="M7.48,20.26s.04.7,0,.74c-.03.03-.62-.13-.75.37-.18.72.11,1.78,0,2.6l-2.24-.74c.11-.57.32-.77.75-1.12l-.75-1.86h1.49v-1.49h.75c-.43,1.47.65,1.38.75,1.49Z"/>
    <path class="cls-14" d="M59.77,21.01l2.99,2.98-.75.74-.75-.37c.13-1.39-1.71-2.14-2.99-2.6-.09-.71.25-.63.75-.74.23-.05.51.04.75,0Z"/>
    <path class="cls-21" d="M21.68,4.63c.93-1.1,1.68-.11,2.24,2.98.08,1.72-.05,3.48,0,5.21.28,2.45-1.5,1.82-2.61,2.23-.52.2-.34.73-.37.74-.48.22-2.77-.03-3.74,0-2.16-.32-1.91-1.31.75-2.98-.65-.26-.68-3.44,0-3.72-.99-.79-.74-2.03.75-3.72.25-1.66,2.1-2.46,2.99-.74Z"/>
    <path class="cls-6" d="M14.95,6.87c.87-1.8,1.86-2.29,2.99-1.49.24-.65.49-.65.75,0,.17.81,1,.99.75,1.86-.66.24-1.39,1.81-1.49,1.86-.77,2.31-.77,3.55,0,3.72.04.09,1.14-.05.75,1.49h-1.49v1.49c-.98.03-2,.03-2.99,0-1.7-.37-1.53-7.75-.75-7.44.15.06-.55,3.09-1.49,2.23-.01-1.69-.13-3.56,0-5.21,1.96-.99,2.29-.28,2.99,1.49Z"/>
    <path class="cls-20" d="M4.49,14.31l1.87-3.72,3.74-1.49c.4.56,1.43.81.75,1.49-.75.75.23.6.37,1.12.22.77-1.31,2-.75,3.35-2.01.3-3.53-.33-5.23-.74-.23-.06-.5.04-.75,0Z"/>
    <path class="cls-79" d="M11.97,10.59l1.49-2.23v3.72l2.24-.74-1.49,4.47c-.74-.02-1.5.01-2.24,0-.01-1.73.01-3.48,0-5.21Z"/>
    <path class="cls-58" d="M14.95,3.89c1.62-.5,2.31,2.37,0,2.98-.37,0-.74,0-1.12,0l-1.87-1.49c.02-.25-.01-.5,0-.74.54-1.74,3.26-3.41,2.99-.74Z"/>
    <path class="cls-7" d="M14.95,1.66c.24-.04.51.05.75,0,.56.61.34,2.39-.75,2.23l-1.49-.74v1.49h-1.49v-1.12c1.1-1.32,1.45-1.58,2.99-1.86Z"/>
    <path class="cls-55" d="M22.42,40.36c1.1.02,2.96,1.53,1.76,1.59-.74.03.35-2.54,1.97-.84,1.98-.84,2.69.05,2.99,2.23-.03.24,0,.5,0,.74-1.26-.15-2.32-.04-2.99,1.12-.19.32.12.86,0,1.12-.51,1.08-4.06,1.42-5.23,1.49-1.77.92-5.65.68-7.47,0-1.36-1.27-.51-2.51,1.12-2.77,1.07-2.52,1.72-3.95,4.86-3.92-.62-1.35,1.87-1.45,2.99-.74Z"/>
    <path class="cls-5" d="M20.93,49.29l2.99-.74.75,2.6-1.49,7.07c-1.75-.27-1.4.72-1.49.74-.24.07-.55-.08-.75,0-.65-.21-.64-.46,0-.74-.24-.32-.49-.31-.75,0-2.18,2.13-5.69.85-4.48-2.23-.65-.21-.64-.46,0-.74.15-.62.41-.59.75,0,.24-.61,0-1.28-.76-2.02-.17-1.22-.09-3.19.76-3.94.91-.17,1.9-.17,2.99,0,.05-1.1,1.18-1.06,1.49,0Z"/>
    <path class="cls-51" d="M13.46,47.8c2.42.05,5.08.14,7.47,0v1.49c-.49.03-1.03-.07-1.49,0-1.3-.25-2.79-.25-4.48,0-.98,2.05-1.94,1.97-2.99,0-.11-.37.06-1.01,0-1.49.23-1.41.82-1.33,1.49,0Z"/>
    <path class="cls-40" d="M11.22,33.66c.59,1.04,1.34,2.04,2.24,2.98,1.93-1.8,2.79.41,2.24,2.23.55.89-.2,1.38-2.24,1.49-.2.75-.45,1.49-.75,2.23,3.52,2.01-2.15,7.12-3.68,1.89-1.72.45-3.55.39-4.54-1.15v-.74c.01-1.55.01-3.04,0-4.47.18-.58-.26-1.32.75-1.86l-.75-.37c1.51-2.83,3.91-4.01,6.72-2.23Z"/>
    <path class="cls-25" d="M14.95,27.71l2.24,1.49-1.49,2.6,1.49,2.98c-.85.56-.74.98-.75,1.86,1.14.32,1.96,2.12.75,2.98-.88,1.17-1.96.72-1.49-.74-.49-.43-1.1-2.17-2.24-2.23-2.25-.4-1.66-3.74-.75-5.21-.16-.68.23-1.31-.75-1.86l.75-1.86c.74-.01,1.5.02,2.24,0Z"/>
    <path class="cls-8" d="M13.46,36.64c-.04.08-1.26.49-1.49,1.12l1.49,1.86-2.99-1.12c1.34-1.07.57-3.14.75-4.84.11-1.09.12-1.91,1.49-2.23.39,1.7-.05,3.16,0,3.35.08.3,1.26.78.75,1.86Z"/>
    <path class="cls-70" d="M16.45,1.66c1.08-.18,2.22-1.26,4.11-.74.64.18,1.46,2.27,3.36,1.49.41,1.13-.75,1.71-.75,1.86,0,.18.67,1.66.75,3.35l-.75-.37c.04-1.42.39-2.16-1.12-1.86-.46-.18-.32-.44-.37-.74-1.14-.25-2.05.13-2.99.74-.23.08-.55-.09-.75,0-2.2,1.7-2.8-2.27-1.49-3.72Z"/>
    <path class="cls-2" d="M17.94,5.38s.15.55-.37.74c-.91.34-1.63.74-2.61.74l.75-1.86-.75-1.12.75-2.23c.23-.05.5.04.75,0-.07,1.64-.34,3.22,1.49,3.72Z"/>
    <path class="cls-88" d="M26.16,9.84c1.2,1.42,1.45,2.41.75,2.98.06.37.09,1.31,0,1.49-.04.07-1.43.82-1.49.74v-1.86c-.11-.48-.48-.3-.75-.37.15-1.04-.22-2.43,0-3.35.13-.51.74-.33.75-.37l.75.74Z"/>
    <path class="cls-62" d="M19.44,41.1l-.37,2.23-1.87-1.49c.39,1.99-.95,2.46-1.49,4.09-.2.6-2.23.43-2.24,1.86-.49,0-1,.02-1.49,0-.99-.04-2,.03-2.99,0l-1.12-1.49-.75.74c-.57,0-2.78-3.22-3.36-3.72h.75c1.84-.61,1.64-.27,2.61,0,.78.21,1.93-1.28,3.36-.74v1.86l1.49,1.86c-.56-1.34,1.15-2.88.75-3.72-.04-1.29.99-1.85,2.24-1.49,0-1.42,4.19-1.38,4.48,0Z"/>
    <path class="cls-61" d="M4.49,42.59l-.75-1.86c-.38-1.25.48-1.72.75-2.6l1.49,1.12c.3,1.1-1.47,1.31,0,2.23l-1.49,1.12Z"/>
    <path class="cls-89" d="M14.95,49.29c1.67.7,1.04,3.39,0,4.47.04.96-1.46,1.16-2.24.74v-.74c.42-1.92-.31-3.01-.75-4.47.99.02,2-.03,2.99,0Z"/>
    <path class="cls-45" d="M15.7,55.99l1.49,1.12-.75,1.12h3.74c.21-.65.46-.64.75,0v.74c-.26.11-.75-.15-1.12,0-.77.31-1.17,2-2.61,1.49v-1.49l-2.24.74c-1.07-.17-1.69-1.45-2.24-2.23-.74-1.01,2.08-2.47,2.99-1.49Z"/>
    <path class="cls-76" d="M14.95,53.76c.7-1.56,2.03.3,1.49,1.49-.21.05-.49-.03-.75,0-1.77,1.1-3.02,1.35-3.74.74.05-.32.68-1.43.75-1.49.59-.51,1.48-.86,2.24-.74Z"/>
    <path class="cls-59" d="M15.7,55.24v.74h-1.12l-1.87,1.49s-.56.15-.75-.37c.06-.37-.05-.76,0-1.12h1.12c.68-1.1,1.55-.63,2.61-.74Z"/>
    <path class="cls-84" d="M23.17,37.38c-.9.55-1.41.34-1.49-.74v-1.49l1.49-.37-1.49-.37,1.49-2.98-1.49-1.12,1.49-1.86.75-.74c-.57,1.35.75,2.46.75,2.6,0,.13-1.18.74-.75,2.23.09.31.75.5.75.74,0,.19-1.02.52-.75,1.49.09.31.75.5.75.74,0,.22-.59.41-.75.74-.42.9-.45.72-.75,1.12Z"/>
    <path class="cls-27" d="M23.17,37.38c-.51.67-1.13,1.46-1.49,2.23-1.44.86-4.42,1.44-2.99-.74-.65-.21-.64-.46,0-.74l2.99-1.49h1.12l.37.74Z"/>
    <path class="cls-73" d="M18.69,38.13v.74c.72,1.42-.38,1.88-1.49.74.14-1.28-.76-1.58-.75-2.98l2.24-1.49-.75,1.86.75,1.12Z"/>
    <path class="cls-46" d="M26.91,31.43h1.12l4.11,2.6c-.11.4.11.88,0,1.12-.02.04-.78-.1-.75.37l1.49,1.86c-.09,1.55-1.14,1.49-1.49,0-1.78,2.11-3.28,2.6-4.48,1.49-1.32.93-1.66.77-2.24-.74.55-.87.7-1.95,1.49-2.6l-.75-4.09h1.49Z"/>
    <path class="cls-57" d="M26.91,38.87c.65.21.64.46,0,.74,1.54,1.39,1.29,1.91-.75,1.49-.02.04-.48-.16-.75.37-.19.37.14.98,0,1.12-.08.08-1.48-.21-1.87.74-1.47-.89-.92-1.76-1.12-2.98,1.06-.21,1.71-1.39,2.24-2.23,1.67-.57,2.12.69,2.24.74Z"/>
    <path class="cls-60" d="M17.19,39.62c.72,0,1.16-1.07,1.49-.74.09,1.3,1.86.56,2.99.74.68.11.63.08.75.74-.57.12-1.31-.13-1.87,0-.23.05-.36.65-1.12.74-1.41.17-3.03-.12-4.48,0-.9.55-1.41.34-1.49-.74.04-.02-.16-.47.37-.74.37-.19,1.3-.32,1.87-.74.17.14,1.22.74,1.49.74Z"/>
    <path class="cls-83" d="M29.89,40.36c-.28.96-.61,1.98-.75,2.98h-1.49c.1-1.31.24-1.72-1.12-1.49l-.37-.74c.27-.45.63-.97.75-1.49,2.14-.79,3.13-.55,2.99.74Z"/>
    <path class="cls-65" d="M31.39,37.38c1.31.92.77,1.99-.75,1.49-.35.56-.35.16-.75,1.49l-2.99-.74v-.74c1.8.85,2.64-1.2,3.36-1.49.32-.13.75.06,1.12,0Z"/>
    <path class="cls-80" d="M32.88,37.38c.25-.01.5.02.75,0-.69.87-.54,1.58-.75,2.23h-1.12l-1.12-.74c.27-.43.63-.98.75-1.49.47-.07,1,.02,1.49,0Z"/>
    <path class="cls-81" d="M26.16,9.84l4.48.74v1.49l-3.74.74c-.05-.3.09-.57-.37-.74h-1.12c.03-1-.37-2.24.75-2.23Z"/>
    <path class="cls-42" d="M21.68,4.63l-2.99.74c-.11-.55.08-1.25,0-1.86,1.68-2.04,2.61-1.15,2.99,1.12Z"/>
    <path class="cls-17" d="M17.94,9.1v1.12c1.47.79-.55,1.49,0,2.6l-.37.74-1.12-1.12c-.5-.71.75-1.24.75-1.49,0-.16-1.16-.73-.75-1.86.47-.07,1.24.12,1.49,0Z"/>
    <path class="cls-13" d="M16.45,49.29l.75,1.86c-1.11.82-1.11,2.16,0,2.98v.74c-.12.48-.48.31-.75.37-.06-.7-.82-1.38-1.49-1.49.15-1.43-.22-3.11,0-4.47.5-.56,1.04-.56,1.49,0Z"/>
    <path class="cls-66" d="M19.44,49.29c-.76.12-.88.68-1.12.74-.9.26-1.06-.62-1.87-.74-.47-.07-1,.02-1.49,0,.05-.31-.08-.63.37-.74h3.74l.37.74Z"/>
    <polygon class="cls-30" points="20.18 58.22 20.18 56.73 18.69 56.73 19.81 55.24 21.68 55.99 20.93 58.22 20.18 58.22"/>
    <path class="cls-38" d="M13.46,40.36h1.12l.37.74-.75,1.49h-1.49c-.04-.08-1.27-.49-1.49-1.12.57-1.25,1.87-.91,2.24-1.12Z"/>
    <g>
      <path class="cls-63" d="M36.62,10.59c1.77-2.12,21.3-2.34,22.06-1.51.18.2.28.47.35.76,1.48-.48,2.98.01,4.48,1.49,3.67,1.47,6.33,3.64,8.22,7.44.09.65.05,1.54,0,2.23.4.1.73.22.76.4.69,3.38.61,9.62-.76,12.26.7,2.2-1.53,5.21-2.99,6.7-.04.01.15.54-.37.74-.38.15-.86-.11-1.12,0-.54,1.37-2.27,2.43-3.74,2.23-1.9,2.26-6.58,2.95-9.71,2.98-1.39,1.42-4.88,1.29-5.98,0-1.49.79-4.4,1.24-5.98,0-1.11.57-4.46.9-5.23-.74-3.16-.92-3.91-1.91-2.24-2.98-1.85-2.22-.61-3.96,3.74-5.21-2.46-1.28-1.81-2.23.75-1.49.17-.64.43-.62.75,0l3.53-1.04c5.62,1.27,12.07-.22,18.14-1.94-.95-.88,2-5.01,2.99-3.72,1.34.09,1.88.99,1.49,2.23-.76,1.68-1.26,2.92-1.49,3.72.47,1.49.72,1.24.75-.74-.28-.8.22-1.79,1.49-2.98-.98-.45-1.72-1.42-2.24-2.23-2.13.79-1.65-4.2-.75-5.21-.6-.68-.51-1.67.27-2.98-1.73.68-3.06.68-4.01,0-.14.67-.39.64-.75,0-.65-.21-.64-.46,0-.74-.62-.47-1.11-.47-1.49,0l-.54.57c-5.83-.98-11.71-.86-17.38.17-1.07.42-3.15.96-4.48.74.99,2.39-2.01,3.02-2.99.74-2.26,1.41-4.87,2.39-7.25,3.05-.38,1.73-1.2,2.2-2.47,1.41-.72,1.71-2.36,1.95-2.99,0-1.88.69-4.82.66-6.72,0l-.3-.95c2.21-1.38.71-4.43-.45-3.51.47,2.01-1.36,3.45-2.24.74-1.98,1.26-2.62-.35-2.24-2.23-.61-.25-.61-.5,0-.74-1.48-3.39,3.58-2.69,5.44-2.14l2.03-.1c.9-1.01,2.08-.7,2.24.74.75-.75,1.75-1.5,2.99-2.23.25-.58,1.14-.52,1.49,0,.8-.33,1.04.16.75,1.49,1.23-.7,2.34.25,2.24,1.49l2.57-1.76c-.58-1.04-.44-2.19.42-3.45.59-1.33,3.84-3.02,5.36-2.93,1.17-.43,2.37-.69,3.6-.79Z"/>
      <g>
        <path class="cls-24" d="M41.85,8.36c2.77-.27,14.65-.53,16.81,0,.51.12.34.73.37.74.65.21.64.46,0,.74-.74-.35-3.57.21-4.86,0s-2.01.06-2.24,0c-.6-.17-2.85-1-3.74-.74-.58.17-.52,1.41-1.49,0l-1.87,1.49-.37-1.49c-1.08,1.34-3.16.57-4.86.74v1.49c-.12.15-1.75-1.32-2.99-.74-2.04.71-2.54.47-1.49-.74v-1.49l1.87,1.49c.72-1.24,1.93-.51,2.99-.74.23-.05.43-.6,1.87-.74Z"/>
        <path class="cls-43" d="M71.73,21.01c2.35-.42,1.35,1.16,1.49,2.6.2,1.99,1.07,4.18.75,5.95-.05.29-.71.47-.75.74-.2,1.39.64,3.8-.75,4.09-.71,1.07-.96.82-.75-.74.18-1.02-.17-2.32,0-3.35.05-.28.75-.5.75-.74s-.66-.43-.75-.74c-.29-1.01.45-1.29,0-2.98-.55-2.07-.15-2.78,0-4.84Z"/>
        <path class="cls-28" d="M36.62,45.57c1.58.27,3.39,1.08,4.11,0,.38.37.53.74,1.12.74,1.98.24,1.9.92,0,1.49-.58-.08-.75-.33-1.12-.74-2.37,1.31-5.5-1.35-8.96-.74-.15.03-2.3,1.95-2.61,0,.67-4.31,4.9-2.48,7.47-.74Z"/>
        <path class="cls-11" d="M65,11.33c.53.3,1.73.65,1.87.74.66.44,3.74,3.48,4.11,4.09.1.16-.11.53,0,.74.4.77.55.49.75,1.86l-2.24-1.86c.21-.73-2.17-3.22-2.61-3.35-.48-.14-1.09.16-1.49,0-.48-.19-.63-1.13-1.87-.74v-1.49c-.65-.21-.64-.46,0-.74.4.24,1.08.51,1.49.74Z"/>
        <path class="cls-78" d="M64.26,44.08c-1.2.54-3.4,1.85-4.86,2.23-1.16.31-4.97.45-5.6.74-.65-.21-.64-.46,0-.74,2.41-.72,8.01-1.94,9.71-2.98,1.18-.57,1.45-.43.75.74Z"/>
        <path class="cls-23" d="M9.72,23.24c1.94,3.2-1.79,1.5-1.27.83,1.06-1.38,3.28,2.49-.22,1.41,0,1.27-1.68,1.04-2.24,0-.48-.05-1.02.07-1.49,0-1.35-.35-1.39-1.03,0-1.49-.66-.19-.64-.44,0-.74,1.29-2.5,2.29-3.24,2.99-2.23l2.24,2.23Z"/>
        <path class="cls-68" d="M47.82,46.31h1.49v-2.23l1.49.37,1.12,2.6c.54-1,1.28-.57,1.87-.74v.74c-2.27,1.06-3.88.76-6.72.74-1.77-.94-1.13-1.87.75-1.49Z"/>
        <path class="cls-87" d="M47.82,46.31l-.75,1.49c-1.65,0-3.68.2-5.23,0v-1.49c.59,0,.74-.38,1.12-.74l1.49.74,1.49-1.49,1.87,1.49Z"/>
        <path class="cls-33" d="M72.47,34.41c.57,2.42-2.1,3.86-2.24,5.95-.47.06-1.18-.12-1.49,0v-1.12c.96-.92,2.77-4.34,2.99-5.58l.75.74Z"/>
        <path class="cls-54" d="M63.51,10.59v.74c-.6-.08-1.36.14-1.87,0-.62-.17-2.24-1.32-2.61-1.49v-.74c.53.26,1.75-.34,2.24-.74,1,.77.87,1.39,2.24,2.23Z"/>
        <path class="cls-16" d="M64.26,44.08l-.75-.74c1.07-.66,2.18-1.59,3.74-2.23v1.12c-.88,1.55-2.05,1.44-2.99,1.86Z"/>
        <path class="cls-37" d="M59.77,32.17c1.23-1.4,1.9-1.25,1.49.74-.08.17.14.55-.37.74-1.68-.44-.74,1.34-2.24,2.23l-1.49-.74-1.49,1.49c-.88-1.37-1.1.24-2.61,0v-1.49l-1.87,1.49c-.46-.52-.75-.95-1.49-.74-2.02.55-3.97.33-5.98,0-1.22-.2-2.79.09-4.11,0-1.34-1.39.05-1.21,1.49-.74.82-.37,1.29-.84,1.87-1.49l1.49,1.49,1.49-1.49.37,1.49,2.24-1.49.37,1.49c.45-.33,2.11-1.49,2.24-1.49.25,0,.44.66.75.74.37.1,5.78-1.84,6.72-2.23.32-.13.77.05,1.12,0Z"/>
        <path class="cls-90" d="M27.65,14.31l1.49,4.47-2.99,1.12,2.99-.37-.75,2.98-3.74.74.75-2.6-.75-1.12c-1.07-1.41-1.32-2.65-.75-3.72.33-1.23,1.33-1.72,2.99-1.49.19-.67.44-.65.75,0Z"/>
        <path class="cls-53" d="M57.53,20.26c-.07-1.49,1.02-1.31,1.49,0v.74c.7.63.45.88-.75.74-2.99-1.09-12.33-1.15-16.06-.74-.15.02-1.48.53-2.61.74-.65-.21-.64-.46,0-.74.84-.87,4.77-1.73,5.6-.74l1.49-1.49c1.73,1.53,3.35.24,5.23.74s3.45.74,5.6.74Z"/>
        <path class="cls-31" d="M38.11,37.38c-.08.33.14.78,0,1.12-.54,1.35-2.42,1.19-3.74,1.12.93,1.42.92,1.56,0,2.98l-2.24.74c-.42-1.67.36-2.52.75-3.72-1.76-.36-.96-2.1.75-2.23.23-2.16,4.09-2.43,4.48,0Z"/>
        <path class="cls-34" d="M63.51,23.99c-.37,1.24,1.01,1.66.75,2.6-.19.68-1.5.79,0,2.6-1.41-.05-.42,2.66-.75,2.98h-1.87c-.51.13-.29.57-.37.74l-1.49-.74c.06-1.02,2.07-2,2.24-2.6.34-1.22-.23-3.41,0-4.84-.78-1.06-.44-1.45.75-.74.21-.65.46-.64.75,0Z"/>
        <path class="cls-85" d="M59.77,21.01l2.61-1.49h2.61l.75,2.6-2.24,1.86h-.75c-.79.52-2.95-2.09-2.99-2.98Z"/>
        <path class="cls-4" d="M11.97,22.5c.08-.18-.13-.62.37-.74h.75c1.06.87,1.76,2.48,3.36,2.23l-.37,1.49-3.36,1.49c-.25-.01-.5.01-.75,0-2.52-1-2.89-3.17.2-3.71.29-.05-.76.94-.2-.76Z"/>
        <path class="cls-67" d="M11.97,22.5l.75.37v1.12h-1.49l.75,2.98c-.49-.02-1.11.1-1.49,0-.15-.04-1.97-1.36-2.24-1.49l.75-.37-.75-1.12c1.55.39,1.41-.7,1.49-.74.36-.17,1.31.12,1.87,0,.51-.13.29-.57.37-.74Z"/>
        <path class="cls-22" d="M64.26,29.2h1.49c.21-.17-1.46-1.34.37-2.23l.37.37,2.24-.37c-.07,1.03-2.05,1.98-2.24,2.6-.15.49.1,1.27,0,1.86-.21.65-.46.64-.75,0l-1.49-.74v-1.49Z"/>
        <path class="cls-64" d="M20.18,16.54l.75,2.23c-1.21-.11-2.58.17-3.74,0-1.8-.95-2.11-1.58,0-2.23.89-.13,2.02,0,2.99,0Z"/>
        <path class="cls-48" d="M59.03,13.57c.3.26-1.85,2.26-2.24,2.6-1.21,1.07-.91,1.57-2.24,0l4.48-2.6Z"/>
        <path class="cls-72" d="M17.19,16.54v2.23c-.38-.05-1.6-.54-2.24-.74-.51-.16-.82-.29-1.12-.74l-.75.74-1.12-1.49c2.55.18,3.01.32,5.23,0Z"/>
        <path class="cls-52" d="M39.6,21.01v.74c-1.48.27-3.84,1.68-4.48,0l2.61-1.49,1.87.74Z"/>
        <path class="cls-44" d="M65,34.41l.75,1.86-2.61,2.6c-1.39-1,.89-2.02,1.12-2.6.14-.36-.1-.83,0-1.12-.54-.98-.22-1.35.75-.74Z"/>
        <path class="cls-77" d="M24.66,19.52c-.87-.49-1.86-.62-2.24-1.49l.75-1.86c.11-.45.43-.32.75-.37l1.49,3.35-.75.37Z"/>
        <path class="cls-91" d="M65,34.41c-.78-.1-.61.36-.75.74l-.75-.37c-.12-1.45,1.86-1.95,2.24-3.35h.75c-.26,1.61-.67,1.62-1.49,2.98Z"/>
        <path class="cls-47" d="M59.03,20.26h-1.49l-.75-2.23c1.42-.21,2.46.82,2.24,2.23Z"/>
      </g>
    </g>
  </g>
</svg>