<?xml version="1.0" encoding="UTF-8"?>
<svg id="Layer_1" data-name="Layer 1" xmlns="http://www.w3.org/2000/svg" viewBox="0 0 97.16 69.36">
  <defs>
    <style>
      .cls-1 {
        fill: none;
        stroke: #000;
        stroke-linecap: round;
        stroke-linejoin: round;
        stroke-width: 2px;
      }
    </style>
  </defs>
  <path d="M96.5,0v69.04H0V0h96.5ZM36.65,3.04H2.99v63c.74-.12,2.74.2,2.97-.01,1.01-.98.07-14.42,5.31-18.31,4.59-3.41,26.42-5.9,27.52-7.28.17-.21.78-4.76.7-5.36-.05-.42-2.7-7.57-2.98-7.89-.54-.62-5.46-.8-5.84-4.29-.54-4.89,5.07-7.73,5.25-8.39.76-2.78-.74-8.12.74-11.46ZM60.59,15.04c-.54-1.97-.36-12-1.87-12h-20.57c-.61,0-1.18,12,.37,12h22.07ZM93.5,3.04h-32.17c1.6,2.5-.02,10.56.85,11.9.67,1.02,5.42-.15,5.2,4.97-.17,4.03-3.88,4.33-4.9,6.41-.61,1.23-.34,2.89-.99,4.26-.73,1.53-3.06,3.62-3.11,5.08-.1,2.81,3.76,6.29,6.47,6.24,3.23-.07,23.91-24.66,27.94-27.94.92-1.44,1.09-10.53.71-10.92ZM38.15,66.04h16.83c1.41,0,18.87-16.05,21.33-18.37,2.17-2.04,17.2-16.04,17.2-17.26v-14.62c-16.17,19.15-34.78,35.93-55.35,50.25ZM60.59,17.28h-22.45c-.55,10.54.33,20.91,13.66,18.57,4.17-.73,7.8-4.47,8.61-8.61.25-1.27.53-9.6.18-9.96ZM36.65,17.29c-2.33-1.98-5.49,6.3-1.86,7.49l1.86-7.49ZM62.84,22.53c1.34,1.68,4.8-5.26.36-5.23-1.23,0-.53,5.02-.36,5.23ZM93.5,63.41c-.27-9.86.2-19.77,0-29.62l-11.97,11.99c12.53.94,10.92,10.42,11.22,20.25,3,.43.76-1.85.74-2.62ZM57.57,40.49c-.29-7.05-3.71-2.32-8.57-2.16-3.56.11-10.82-3.8-7.49,2.21,1.64,2.95,13.19,1.58,16.06-.05ZM63.58,43.55c-5.01-3.49-6.01,0-10.91.67-2.76.38-11.09-1.06-11.52-.68-.18.16.86,3.38.77,4.82-.27,4.08-1.59,9.07-2.26,13.17l23.93-17.99ZM8.23,66.04c.91.92,22.3,0,25.81,0,.44,0,4.07-2.78,4.86-3.38-3-.82-3.23.6-2.98-2.97.31-4.55,6.8-9.73,3-13.9-.58,3.4-3.69,5.87-5.13,8.74-1.56,3.11-.6,8.04-4.96,9.26-4.24-7.49,8.4-13.52,9.7-21.01-7.39,3.02-26.11,2.17-28.75,10.92-.44,1.45-1.97,11.9-1.53,12.34ZM91.26,66.04c-1.64-3.39-.07-12.27-1.91-14.96-1.14-1.67-10.23-5.33-11.83-2.14l-19.18,17.11h32.91Z"/>
  <path d="M50.12,26.28c.26.27-.26,2.76,0,3.01s2.74-.27,3.01,0c2.91,2.86-7.16,2.6-7.49,2.24-1.99-2.1,2.03-2.12,2.17-2.29.17-.2.04-5.28,2.32-2.96Z"/>
  <path d="M47.12,20.29c1.58,1.36-3.57,3.18-4.48,2.24-2.15-2.2,3.6-3,4.48-2.24Z"/>
  <path d="M50.87,20.29c.44-.38,4.78-.28,4.48,1.86-.32,2.32-5.81-.7-4.48-1.86Z"/>
  <path class="cls-1" d="M2.24,3.41c0,20.5.03,41-.04,61.5,0,2.28.32,3.48,3.03,3.43,8.6-.15,17.2-.06,25.81-.06,20.7,0,41.39-.05,62.09.07,2.53.02,3.1-.8,3.02-3.07-.37-10.75-.82-21.5-.91-32.25-.07-9,.21-18,.57-27,.12-3.03-.79-3.85-3.8-3.82-16.83.15-33.66.03-50.49.09-10.1.04-20.2.24-30.3.35-2.62.03-5.24.1-7.85-.06-.65-.04-1.25-.93-1.87-1.43"/>
  <path class="cls-1" d="M95,15.41c-1.99,1.75-4.24,3.29-5.94,5.28-13.09,15.3-27.88,28.7-44.19,40.45-1.26.91-2.73,1.52-4.1,2.27"/>
  <path class="cls-1" d="M57.97,36.41c.25.75.37,1.58.77,2.24,1.21,2,1.07,2.84-1.46,3.91-4.16,1.75-8.23,1.86-12.39.93-3.84-.86-7.37-1-11.28.29-5.17,1.7-10.67,2.42-16.04,3.51-4.76.97-7.76,3.52-8.25,8.63-.38,3.89-.97,7.75-1.47,11.63"/>
  <path class="cls-1" d="M94.63,33.04c-1.12.87-2.35,1.64-3.35,2.64-10.38,10.4-20.71,20.83-32.52,29.65-.63.47-.78,1.58-1.15,2.39"/>
  <path class="cls-1" d="M61.71,16.91h-23.56"/>
  <path class="cls-1" d="M41.52,36.79c-.25.63-.81,1.31-.7,1.87.93,4.74-1.71,8.11-4.14,11.65-2.93,4.27-6.31,8.36-6.76,13.86"/>
  <path class="cls-1" d="M81.54,46.91c2.12.75,4.25,1.48,6.36,2.26,2.76,1.02,3.89,3.24,4.1,6,.31,4.12.51,8.25.76,12.37"/>
  <path class="cls-1" d="M60.96,3.04c.37,8.25,1.56,16.56.92,24.73-.79,10.16-12.78,12.5-19.16,8.51-3.72-2.33-4.88-6.78-4.9-11.12-.04-7.25.21-14.5.33-21.75"/>
  <path class="cls-1" d="M37.4,16.54c-2.67.9-5.37,4.42-4.81,6.74.57,2.34,2.32,3.52,4.81,3.39"/>
  <path class="cls-1" d="M40.77,45.79c2.2,2.88.22,5.79-.1,8.61-.26,2.31-1.4,4.51-2.14,6.76"/>
  <path class="cls-1" d="M63.21,24.79c.75-.38,1.59-.63,2.23-1.15,1.41-1.14,2.37-2.59,1.49-4.46-.89-1.88-2.63-2.08-4.46-1.89"/>
  <path class="cls-1" d="M59.84,40.91c1.75,1,3.49,2,5.24,3"/>
  <path class="cls-1" d="M39.65,62.29c1.39,1.09,1.2,1.78-.33,2.7-.87.52-1.29,1.8-1.91,2.74"/>
</svg>