<?xml version="1.0" encoding="UTF-8"?>
<svg id="Layer_1" data-name="Layer 1" xmlns="http://www.w3.org/2000/svg" viewBox="0 0 294.75 94.5">
  <path d="M126.43,94.5V1.18s2.24-.43,2.24-.43v38.69h166.08v2.23h-20.95s.75,52.83.75,52.83h-2.24l-.43-52.84h-3.32s0,52.84,0,52.84h-.75v-52.83s-3.31-.02-3.31-.02l-.43,52.84h-1.5l-.38-52.83h-2.61s0,52.83,0,52.83h-1.5l-.43-52.84h-3.32s0,52.84,0,52.84h-.75l-1.13-52.83h-2.61s0,52.83,0,52.83h-1.5l-.43-52.84h-3.32s0,52.84,0,52.84h-.75l-.1-51.61c-.12-1.34-3.52-1.78-3.65-.8v52.42s-1.49,0-1.49,0l-.38-52.83h-2.61s0,52.83,0,52.83h-1.5v-52.83s-4.06,0-4.06,0l-.42,52.84h-.75l-.43-52.84h-3.32s0,52.84,0,52.84h-1.5l-.38-52.83h-2.61s0,52.83,0,52.83h-1.5v-52.83s-3.31,0-3.31,0l.32,52.84h-1.5l-.43-52.84h-3.32s0,52.84,0,52.84h-1.5l-.38-52.83h-2.61s0,52.83,0,52.83h-1.5l-.43-52.84h-3.32s0,52.84,0,52.84h-.75l-.1-51.61c-.12-1.34-3.52-1.78-3.65-.8v52.42s-1.49,0-1.49,0v-52.83h-66.58v52.83h-2.24Z"/>
  <path d="M105.44,48.63c0,24.8-20.22,44.91-45.15,44.91S15.13,73.43,15.13,48.63,35.35,3.72,60.29,3.72s45.15,20.11,45.15,44.91ZM78.55,8.93c-1.64-.44-2.43,2.2-3.02,3.34-.67,1.3-.77,4.01-2.27,2.14-.56-.7-.4-1.91-1.96-2.38-4.78-1.43-7.56,2.42-6.1,6.83.68,2.05,4.01,1.17,3.54,2.99l-11.86,16.5c-.36,1.46.41.9.92,1.27,3.19,2.3,7.28,3.39,9.9,6.5l1.11-1.86,5.25-21.2c4.57,2.29,8.32-2.4,6.35-6.69-.73-1.59-3.22-2.13-3.34-2.29-.16-.22,2.04-3.91,1.48-5.15ZM62.84,9.67c-1.57-.06-1.42-.34-1.49,1.11-.07,1.33-.29,8.25,0,8.57.32.35,1.89-.2,2.01-1.08l-.52-8.59ZM58.18,11.34c-1.41-1.41-5.08-1.14-6.56.23-.7.66-.58,1.53-.77,1.82s-3.08-2.59-6.4-.05c-1.92,1.46-1.58,7.15,1.12,7.91,2.84.79,5.58.7,6.06-2.64,5.66,5.48,10.15-3.68,6.55-7.26ZM44.13,24.55c.76-.81-.63-2.31-1.1-2.99s-3.46-5.31-3.75-5.19c-3.55,1.47,3.92,9.16,4.86,8.18ZM81.53,27.53c.5-2.24,2.33-3.93,3.44-5.89.39-.68,1.77-1.99-.08-2.29-.74-.12-5.5,5.93-5.59,6.34-.26,1.09,1.14,2.11,2.23,1.84ZM35.27,30.61c.55-.64,4.39-.29,4.44-4.18.08-5.94-8.23-6.9-9.38-1.2-.15.77.52,2.06.33,2.25-.14.13-1.46.07-2.15.47-5.38,3.03-.79,10.35,3.68,8.96,3.83-1.19,2.44-5.54,3.09-6.29ZM91.09,25.48c-3.04-3.02-10.9.88-7.36,6.2.74,1.11,2.65,1.57,2.9,1.94.73,1.11-.82,4.73,2.4,6.18,3.04,1.37,7.38-1.17,7.18-4.48-.03-.51-1.87-3.69-2.19-3.89-.56-.35-1.73-.03-1.92-.24-.44-.47.39-4.33-1.02-5.72ZM23.46,38.08l-.37,2.32,9.05,1.42.37-2.32-9.05-1.42ZM97.15,40.59l-9.18,2.59.64,2.26,9.18-2.59-.64-2.26ZM58.9,42.52c-6.52,1.28-5.63,12,1.21,11.58,7.94-.49,5.92-12.98-1.21-11.58ZM24.69,52.1c.15.11-1.54,1.7-1.56,3.32-.1,7.02,10.17,6.08,9.79.07-.15-2.27-2.68-3.69-2.75-4.49-.09-.89,1.22-2.27,1.09-3.64-.53-5.53-11.66-5.04-8.71,3.54.43,1.25,1.77.94,2.15,1.21ZM96.32,61.57c3.14-3,.3-5.83.36-6.89.03-.6,1.6-1.31,1.93-2.36,2.48-7.87-9-9.24-8.87-2.11.02,1.27.92,2.6.83,3.65-.02.29-2.68.73-2.29,4.48s5.71,5.44,8.04,3.22ZM33.66,59.53c-.44-.48-4.62,2.71-5.32,3.26-.76.59-2.37.97-2.16,2.31.3,1.84,1.61.47,2.3.08,1.09-.62,6.81-3.88,5.17-5.64ZM85.04,61.74l-.6,2.18,9.02,2.46.6-2.18-9.02-2.46ZM61.95,71.62c-1.89-1.64-5.23.93-6.36,1.18-.79.18-1.76-1.16-2.89-1.37-6.45-1.23-8.3,9.51-.7,9.01,1.64-.11,2.85-1.61,3.6-1.46.9.17,1.94,1.84,3.24,1.99,1.87.22,3.47-2.75,4.64-1.96.14.09-.01,1.21.59,1.36,8.49,2.21,9.75-10.23.59-9-1.69.23-.9,1.39-1.08,1.53-1.52,1.15-1.41-1.09-1.62-1.28Z"/>
  <path d="M203.48,14.88c4.24-1.2,4.32,4.22,4.49,7.44,2.38-.66,1.62-6.63,2.27-7.41.23-.28,2.87.11,3.71-.03v10.79c0,.17-.82,1.23-1.5.75-1.29-.9-.65-3.68-.75-5.22-.06-.92.58-2.76-.74-2.59-.21,2.13-.47,4.68-1.15,6.69-.33.96-.07,1.8-1.47,1.48l-3.37-8.18c-.1,2.34.11,4.73,0,7.08-.07,1.45.08,1.16-1.5,1.1v-11.91Z"/>
  <path d="M174.31,26.79v-11.91c4.99-.26,8.86-.34,9.04,5.57.21,6.92-3.75,5.71-9.04,6.33ZM176.55,24.56c6.48,1.76,6.52-9.18,0-7.45v7.45Z"/>
  <path d="M258.01,14.97c.45.37,3.15,9.56,3.82,11.07-2.74,1.06-2.44-2.48-4.08-2.69-3.71-.48-4.49,3.39-5.27,3.43-.71.03-1.13-1.19-.79-2.24,1-3.11,3.24-6.12,3.48-9.58.25-.2,2.58-.2,2.84.01Z"/>
  <path d="M172.06,14.88c.08.08.09,2.16,0,2.23-.43.36-5.63-.34-5.99,0-.28.27-.08,2.14.74,2.64.41.25,5.24-1.34,5.23.71,0,1.49-4.9,1.15-5.98,1.12v2.6c.19,1.38,7.69-1.5,5.99,2.6-1.15-.61-7.08-.04-7.5-.31-1.07-.72-.37-9.09-.41-10.89.38-.57,7.61-.97,7.9-.69Z"/>
  <path d="M154.11,14.88c1.33.25,7.06-.35,7.48,0,.09.07.09,2.16,0,2.23-.53.44-5.86-.62-5.99.38-.53,3.98,3.57,1.31,5.99,1.86.66,3.39-1.41,2.02-4.13,2.23-1.08.08-2.2-.57-1.85,1.1.79,3.7,6.76.88,6.73,2.25-.07,2.74-6.61,1.46-8.24,1.85v-11.91Z"/>
  <path d="M141.39,18.6c-.97,1.04-3.93-4.71-5.98-.37,4.05.51,10.4,5.52,4.48,8.17-4.32,1.93-8.57-2.75-5.59-4.07,1.52-.67,1.07,1.78,2.29,2.17,1.08.35,2.83.03,3.3-1.07.55-1.29-.83-1.17-1.45-1.48-1.74-.87-5.52-1.47-4.94-4.16,1.25-5.76,10.14-1.6,7.89.8Z"/>
  <path d="M241.63,18.6c-.9.91-3.44-3.25-5.23-2.23-.64,4.89,6.69,1.41,5.85,6.89-.95,6.21-11.44,1.92-8.84-.94,1.41-1.55,2.72,2.12,4.1,2.27.93.1,2.44-.31,2.63-1.17.45-2.04-10.19-3.4-5.8-7.63,3.09-2.98,9.24.82,7.3,2.8Z"/>
  <path d="M289.32,15.07c1.05.83,1.02,3.57-.18,3.52-.33-.01-1.89-4.69-4.85-1.1,1.18,1.78,4.7,1.57,5.61,3.33,3.25,6.32-6.41,7.52-7.86,1.51,2.42-.73,3.45,2.78,5.6,2.22.95-.25,1.56-2.67,1.13-2.97-.51-.35-3.47-.2-4.9-1.45-3.63-3.17,2.26-7.6,5.46-5.07Z"/>
  <path d="M273.8,14.88c.89,1.06-1.74,9.62,1.83,9.67,5.2.08,1.42-8.19,2.66-9.67.07-.09,2.16-.07,2.24,0,.38.4-.64,10.26-1.45,10.83-1.01.72-5.52.65-6.42-.41-1.06-1.25-1.62-9.82-1.11-10.43.07-.09,2.17-.09,2.24,0Z"/>
  <path d="M144.38,14.88c3.76-.1,7.82-.84,7.55,4.09s-5.49,2.81-6.06,3.34c-.62.59,1.42,5.25-1.49,4.47v-11.91ZM145.88,17.12c-1.41,4.53,3.87,4.09,4.48,1.85.55-1.99-3.4-2.09-4.48-1.85Z"/>
  <path d="M228.17,14.88c.12.1-.08,1.63,0,2.23l-2.98-.74c-.25,1.6.77,10.4-1.13,10.4-2.29,0-.06-8.97-1.84-10.06-.51-.31-3.37,1.15-3.02-1.83,1.48.27,8.51-.39,8.98,0Z"/>
  <path d="M270.06,14.89c.37,3.13-2.74,1.27-2.99,1.48-.5.42.99,10.41-1.12,10.41-2.76,0,1.33-12.83-4.11-9.66.07-.6-.13-2.13,0-2.23.45-.37,6.83.26,8.23,0Z"/>
  <path d="M252.11,14.88c.12.1-.07,1.63,0,2.23-6.31-2.62-2.59,6.27-4.11,9.67-2.56-1.93.13-8.81-1.86-10.1-.76-.5-3.33,1.13-3-1.8,1.48.27,8.51-.39,8.98,0Z"/>
  <path d="M218.44,14.88v10.79c0,1.15-2.88,1.46-2.91.02,0-.36.71-1.34.7-2.25-.02-1.6-.65-7.63-.03-8.57.06-.1,1.62.07,2.24,0Z"/>
  <path d="M190.02,14.88c.82-.96,1.44-.12,1.5,1.1.07,1.5-.31,8.27,0,8.57.42.42,5.04-.92,5.98,1.11l-7.47,1.12c.32-1.77-.43-11.41,0-11.91Z"/>
  <path d="M201.24,14.88v10.79c0,1.1-2.24,1.1-2.24,0v-10.79c0-.11,1.77.07,2.24,0Z"/>
  <path d="M68.16,13.49c2.02-1.4,4.31.66,3.33,3.66-1.06,3.25-4.42,2.39-4.8.23-.07-.38,1.3-3.77,1.48-3.89Z"/>
  <path d="M75.56,21.58c-.38-.39.34-2.77.53-3.57s-.15-3.09,1.33-2.37c3.93,1.9-.18,7.66-1.86,5.94Z"/>
  <path d="M50.19,78.8c-1.47-1-1.06-8.24,2.97-5.56,2.22,1.48.17,7.7-2.97,5.56Z"/>
  <path d="M68.01,72.99c1.47,1,1.06,8.24-2.97,5.56-2.22-1.48-.17-7.7,2.97-5.56Z"/>
  <path d="M57.67,78.8c-1.55-1.04-.88-6.77,2.53-5.87,2.61.69,1.07,8.28-2.53,5.87Z"/>
  <ellipse cx="94.31" cy="50.21" rx="2.71" ry="2.7"/>
  <path d="M94.94,60.21c-2.39,1.69-6.84-2.58-3.71-4.82,2.62-1.87,6.26,3.02,3.71,4.82Z"/>
  <path d="M29.08,46.23c1.99,2.86-2.42,6.01-4.78,3.63-2.99-3.02,3.49-5.47,4.78-3.63Z"/>
  <ellipse cx="28.07" cy="55.73" rx="2.66" ry="2.64"/>
  <path d="M56.68,17.68c-2.48,2.6-6.8-3.8-2.36-5.74,1.64-.35,4.26,3.74,2.36,5.74Z"/>
  <path d="M46.85,14.18c3.59-1.06,4.64,5.84.65,5.95-2.48.07-3.11-5.22-.65-5.95Z"/>
  <path d="M34.12,23.12c2.62-.57,4.93,4.09,2.15,5.89-3.61.56-5.3-5.2-2.15-5.89Z"/>
  <path d="M32.68,30.73c2.99,3.47-2.82,6.3-4.95,1.54.95-2.82,2.89-3.93,4.95-1.54Z"/>
  <path d="M85.45,31.09c-2.45-2.43,2.68-6.83,4.74-3.58,1.51,2.38-2.88,5.43-4.74,3.58Z"/>
  <path d="M89.08,37.89c-.56-1.43-.79-2.39.33-3.62,4.42-4.82,8.01,4.93-.33,3.62Z"/>
</svg>