<?xml version="1.0" encoding="UTF-8"?>
<svg id="Layer_1" data-name="Layer 1" xmlns="http://www.w3.org/2000/svg" viewBox="0 0 177.85 122">
  <defs>
    <style>
      .cls-1 {
        fill: #1b1419;
      }

      .cls-2 {
        fill: #241a21;
      }

      .cls-3 {
        fill: #fdfeff;
      }

      .cls-4 {
        fill: #f6f6f6;
      }

      .cls-5 {
        fill: #0f0f0f;
      }

      .cls-6 {
        fill: #1f151c;
      }

      .cls-7 {
        fill: #2d2e2d;
      }

      .cls-8 {
        fill: #f5f6f6;
      }

      .cls-9 {
        fill: #d7d6d6;
      }

      .cls-10 {
        fill: #e1e2e1;
      }

      .cls-11 {
        fill: #141414;
      }

      .cls-12 {
        fill: #3f323a;
      }

      .cls-13 {
        fill: #fff;
      }

      .cls-14 {
        fill: #33292f;
      }

      .cls-15 {
        fill: #1e191c;
      }

      .cls-16 {
        fill: #f3f3f3;
      }

      .cls-17 {
        fill: #1d171c;
      }

      .cls-18 {
        fill: #1a1418;
      }

      .cls-19 {
        fill: #0d0d0d;
      }

      .cls-20 {
        fill: #181117;
      }

      .cls-21 {
        fill: #f7f8f8;
      }

      .cls-22 {
        fill: #d6d5d5;
      }

      .cls-23 {
        fill: #282927;
      }

      .cls-24 {
        fill: #3a3b3a;
      }

      .cls-25 {
        fill: #332a30;
      }

      .cls-26 {
        fill: #4c4c4c;
      }

      .cls-27 {
        fill: #131313;
      }

      .cls-28 {
        fill: #3a3a39;
      }

      .cls-29 {
        fill: #1a1a1a;
      }

      .cls-30 {
        fill: #202020;
      }

      .cls-31 {
        fill: #0a0a0a;
      }

      .cls-32 {
        fill: #282226;
      }

      .cls-33 {
        fill: #827d83;
      }

      .cls-34 {
        fill: #3a303b;
      }

      .cls-35 {
        fill: #443441;
      }

      .cls-36 {
        fill: #151515;
      }

      .cls-37 {
        fill: #f9f9fa;
      }

      .cls-38 {
        fill: #171617;
      }

      .cls-39 {
        fill: #21191e;
      }

      .cls-40 {
        fill: #ededee;
      }

      .cls-41 {
        fill: #f9f9f9;
      }

      .cls-42 {
        fill: #2d242b;
      }

      .cls-43 {
        fill: #191418;
      }

      .cls-44 {
        fill: #f4f4f4;
      }

      .cls-45 {
        fill: #1c1219;
      }

      .cls-46 {
        fill: #1c161b;
      }

      .cls-47 {
        fill: #5c5c5c;
      }

      .cls-48 {
        fill: #181416;
      }

      .cls-49 {
        fill: #2b272b;
      }

      .cls-50 {
        fill: #111;
      }

      .cls-51 {
        fill: #221d22;
      }

      .cls-52 {
        fill: #2d232b;
      }

      .cls-53 {
        fill: #080808;
      }

      .cls-54 {
        fill: #31272f;
      }

      .cls-55 {
        fill: #fbfcfc;
      }

      .cls-56 {
        fill: #070607;
      }

      .cls-57 {
        fill: #161616;
      }

      .cls-58 {
        fill: #171717;
      }

      .cls-59 {
        fill: #d4d4d4;
      }
    </style>
  </defs>
  <g>
    <g>
      <path class="cls-19" d="M11.06,10.22c1.56,1.53,1.43,6.22-.62,7.66C4.88,21.8-1.18,14.96.76,13.05c.1-.1,2.59-.14,2.88.12.61.54-.39,4.1,4.06,2.74,6.35-1.95-5.02-4.65-6.13-6.32C-1.4,5.12,5.5.46,10.14,4.02c.88.68,2.62,3.36.71,3.77-.65.14-8.13-4.77-7.1-.38.39,1.64,6.16,1.68,7.31,2.81Z"/>
      <path class="cls-58" d="M17.97,3.3c-.96,3.97.9,3.27,1.89,4.46,1.46,1.77-1.65,1.8-1.9,2.81-.18.76-.19,4.27-.03,5.06s3.47-.55,2.3,3.41c-7.54.81-4.3-4.5-5.25-8.5-.14-.58-1.48-.5-1.53-.93-.18-1.5,3.39-7.74,4.53-6.32Z"/>
      <path class="cls-38" d="M63.64,10.05c-1.54.37-1.94-1.42-.75-2.25,2.19.1,6.26-2.36,7.33,1.28.44,1.5.63,9.63-.98,9.97-4.04.85,1.04-12.9-5.6-9Z"/>
      <path class="cls-5" d="M55.4,7.05c4.79-1.58,3.27,11.69,1.86,12-.73.16-1.86-.85-1.86-1.12V7.05Z"/>
      <path class="cls-31" d="M62.89,7.8c-.06.77.7,1.71.75,2.25.09.88.29,11.9-2.24,9V7.05c.86-.32,1.41.74,1.49.75Z"/>
      <path class="cls-29" d="M48.66,7.8c2.13,1.39,2.38,2.64.75,3.75,0,.1-.68.86-.78,1.81-.2,1.87.95,6.01-1.47,4.94l-.75-9.75c.09-.27-.03-.6.38-.74.62,0,1.25-.07,1.86-.01Z"/>
      <path class="cls-5" d="M58.39,5.54c-.32.32-3.94.72-2.98-1.86,1.07-2.89,4.22.63,2.98,1.86Z"/>
      <path class="cls-30" d="M47.17,18.3c-.99-.44-1.13-8.55-.75-9.75,1.66,2.54.36,6.66.75,9.75Z"/>
      <path class="cls-29" d="M50.16,8.55c1.01-2.48,4.06-2.07,2.99.75-1.26.65-3.64.95-2.99-.75Z"/>
      <path class="cls-30" d="M50.16,8.55c.8.27,1.59,1.3,2.99.75-.45,1.19-3.49.33-3.74,2.25.09-1.28-.47-2.53-.75-3.75.42.04,1.02.59,1.5.75Z"/>
      <g>
        <path class="cls-5" d="M83.85,7.05v11.62c0,.67-2.54,3.68-3.52,3.97-2.95.89-9.1-1.38-6.95-3.59.86-.88,7.61,4.87,7.48-1.5-.42-.41-8.19,3.38-8.31-4.87-.12-7.59,6.4-4.76,11.31-5.64Z"/>
        <path class="cls-40" d="M76.41,16c-.62-.52-1.81-8.1,2.49-6.62,3.09,1.07.7,9.31-2.49,6.62Z"/>
      </g>
      <g>
        <path class="cls-11" d="M31.45,9.3c.7,2.44.52,5.02,0,7.5-2.4,2.75-8.14,3.13-9.4-.7-2.82-8.54,5.71-12.07,9.4-6.8Z"/>
        <path class="cls-9" d="M31.45,16.8c-.68-4.63-3.53.42-5.46-.08-.88-.23-2-1.51-2.03-2.54-.02-.82,6.43-.19,7.5-.38v-4.5c1.21,1.73,1.29,6.01,0,7.5Z"/>
        <path class="cls-22" d="M28.36,9.39c.09.07.48,1.66.84,2.15h-5.24c.28-1.56,3.33-3.04,4.4-2.15Z"/>
      </g>
      <g>
        <path class="cls-36" d="M44.17,13.8c-1.09.72-4.35,1.48-5.63,1.41-.27-.01,4.98-1.61,4.88.09-.36,1.05.54,1.8-1.24,2.87-5.13,3.09-10.2-2.29-7.92-7.93s10.45-3.55,9.91,3.56Z"/>
        <path class="cls-59" d="M44.17,13.8c-.03.35-.58,1.02-.75,1.5-2.03-.77-4.09,1.87-5.59,1.5-.96-.24-1.59-2.56-1.14-3,.31-.3,6.19.21,7.48,0Z"/>
        <path class="cls-10" d="M41.17,11.54h-4.48c-.14-3.15,4.62-3.15,4.48,0Z"/>
      </g>
    </g>
    <g>
      <path class="cls-56" d="M0,31.8c3-.36,5.73.35,2.99,3l1.09,1.58c.51,8.98.71,17.91.62,26.79,3.47-4.59,13.54-13.3,19.44-10.33,1.55.78,2.37,1.34,1.31,2.96.9,1.47,1.39,2.97,1.5,4.5.37.44.87,1.1.64,1.47-.92,1.46-8.13,10.22-8.88,10.32-4.47.58-6.5-10.56-1.16-11.6,9.93-3.09,3.03-3.34-2.27.37-9.55,6.69-13.17,15.29-5.34,25.16,2.1,5.6-7.81,5.3-3.95,1.28-1.89-1.25-2.64-1.25-2.25,0,1.38.17,1.28,1.16,1.01,2.32l8.17,5.02c2.57-4.51,6.47-7.75,11.7-9.71,1.92-4.56,2.85-9.61,2.82-15.16.01-3.61,1.1-6.02,3.26-7.23.2-1.52.45-2.77.75-3.75.08-.69.34-.65.75,0l6.21-4.84c1.82-1.23,3.24-1.36,4.27-.41,1.05-.99,1.44-.57.75.75l-.61,1.93c-7.25,2.87-9.91,9.06-10.46,16.45l-1.65,1.12-.17,2c1.71.43,1.44,2.26.17,3.25,1.96-.08,3.42,2.02,2.25,3.75,2.63,1.91.59,3.6-1.99,1.67l-2.5,1.33.92,1.5c-3.36,3.16-7.04,6.1-11.05,8.79-.66,5.18-3.02,8-7.09,8.46.51,1.14-1.14,2.49-2.25,2.25-.53,2.86-5.47,2.04-2.25-.75-.56-1.64.57-3.67,3.38-6.08-4.78-5.47-6.7-4.9-5.75,1.7.56,2.5.35,4.47-.62,5.88,1.04.65.81,1.4.48,2.3,1.84-1.56,3.93-2.19,6.26-2.3-.93-1.01.38-2.13,1.5-1.5.04-.55.15-1.04.44-1.33,2.52-2.41,6.15-3.77,9.38-4.94,4.39-1.59,11.59-3.88,15.63-1.98l7.24-.4c.86-1.78,7.7-1.88,8.48.4,1.13-.57,1.66.09,1.24,1.36-7.45-.29-14.92-.08-22.2,1.64l-.06,1.03c-10.71,2.92-19.85,7.88-27.43,14.86l-1.7.61c1.49.12,1.74.87.75,2.25.66-.45,1.16-.45,1.5,0,4.6.38,5.85,1.13,3.74,2.25-2.99,0-6,0-8.99,0V31.8Z"/>
      <path class="cls-56" d="M127.27,31.05l.75,90c-1.42.58-4.22.8-4.49-.75.11-.8.61-1.55,1.5-2.25-2.46-.86-2.27-6.46,0-7.5-1.54-1.92-1.54-3.42,0-4.5-2.65-2.17-2.17-7.34-1.81-10.65l-5.6,4.16c2.57,2.31,3.79,4.47,3.66,6.48l1.21,1.44c2.27-.27,2.88,2.33,1.03,3.06-1.07,1.79-2.36.85-3.71-.4-3.88-4.47-9.06-7.02-15.53-7.66l-.97-1.7c-7.77-1.57-15.71-1.75-23.61-1.66-1.81-.78,6.42-3.74,6.39-1.34l.89-1.01c3.34.36,6.79.7,10.34,1.01l.77-1.43,12.55,1.98c1.52-1.28-8.35-8.06-9.32-8.31l.5-1.99c-1.27-1-2.25-3.17,0-2.25.28-.24.56-.45.88-.54,1.23-.36,12.33,6.16,12.51,8.89,3.11-2.22,6.13-4.25,9.06-6.1-.45-1.7-1.44-1.7-2.99,0-.11,4.57-5.5.35-3.24-3.02,6.37-9.42,4.69-15.12-3.3-22.54-5.99-5.56-16.34-6.89-2.67-1.05,2.41,2.1.36,10.63-2.5,10.41-.71-.05-8.89-8.82-9.75-10.16l-.26-2.14c.28-1.96,1.03-3.21,2.25-3.75-1.95-1.26-.6-2.73,1.27-3.53,5.37-2.29,19.04,7.03,20.88,12.49l1.06-.72c-.4-8.86-.54-17.76-.43-26.69-1.87-3.92-.98-6.02,2.68-6.31Z"/>
      <path class="cls-51" d="M127.27,31.05l-2.62,2.61.38,30.39c-1.66.61-2.22-.94-2.29-2.4.59-8.77.52-17.43-.19-25.99l-118.61.64-.92-1.5c-.05-.75-1.01-1.66,0-2.99H0s127.26-.76,127.26-.76Z"/>
      <path class="cls-25" d="M29.95,121.05c3.63-1.16,7.52-.67,11.23,0,2.11.01,5.26-.61,6.74.75-9.82-.03-20.22.48-29.94,0,.01-.42.06-.77.23-.84,1.94-.85,9.46-.2,11.75.09Z"/>
      <path class="cls-13" d="M125.02,64.05c.1.91.62,3.46-1.11,2.99-1.82-2.92-3.37-5.21-6.02-7.48s-14.62-9.93-16.08-3.77c-.5,3.03-3.35,2.25-2.99-.75-2.08-.19-5.58-2.74-6.74-4.5-13.31-5.65-27.86-6.38-41.92-3.75-.2,1-1.45,1.25-3.74.75l-.46,1.08c-5.44,2.05-10.77,4.6-14.67,8.97-4.1,2.07-6.05,1.47-5.83-1.8-3.27-3.92-7.16-1.61-11,.61-4.82,2.79-8.18,7.03-11.45,11.39-.52-10.83.68-22.25,0-33l120.05-.64c.97.25,1.07.91,1.23,1.77,1.2,6.54-.37,18.24-.06,25.59.06,1.39.77,2.24.8,2.54Z"/>
      <path class="cls-13" d="M103.31,100.8c2.84.43,10.06,2.27,12.51,3.6,2.94,1.6,4.59,5.51,7.71,6.15.45-1.37,1.03-1.38,1.5,0,.03,2.41-.24,5.19,0,7.5-1.02,1.94-7.27,1.4-8.98,0-6.47,0-13-.12-19.46,0l-90.85-.04c-1.65.55-2.56.31-2.73-.71.69-6.74,23.08-15.35,29.2-16.5,11-1.87,22.02-2.46,33.07-1.75,12.73-.62,25.41-.03,38.05,1.75Z"/>
      <path class="cls-13" d="M5.99,87.3c.08.06-.26,1.39.4,1.53.89.19,2.42-.37,2.59-1.17.16-.75-2.29-3.23-2.91-4.57-4.75-10.17.19-18.5,8.96-23.86,1.82-1.11,8.9-5.22,8.76-.67-.13,4.13-9.3,1.01-7.93,7.92.12.61,1.37,4.85,2.46,4.31.65-.32,6.69-8.82,8.62-10.5-.58-1.43.42-1.86,1.5-.75,2.99-1.4,3.1.43,2.25,3-2.72,7.85-1.76,12.62-3.17,19.7-1.08,5.46-5.13,5.04-8.44,7.29-2.66,1.81-4.15,4.98-5.98,7.49-1.14-2.05-9.49-5.99-10.06-6.83-.36-.53.9-2.24.7-2.91.55-2.09,1.33-1.84,2.25,0Z"/>
      <path class="cls-13" d="M56.9,50.55c.53.11,1.04.31,1.23.78.9,2.21,2.27,12,.75,13.95-3.35,1.7-4.42,3.04-5.82,6.52-1.95,1.7-16.73,4.61-20.13,4.26-1.11,3.3-3.24.6-2.25-2.25,1.27-10.34,2.7-15.08,12.73-19.5,2.01-2.76,7.6-3.94,11.23-3.75.87-2.01,1.48-2,2.25,0Z"/>
      <path class="cls-55" d="M29.95,86.55l1.1-.23c3.73,3.96,8.11,7.04,13.13,9.23,1.94-.61,2.64.37,1.15,1.87l-7.88.38c-8.99,1.45-17.73,3.25-25.45,8.25-1.83.86-2.17-.22-.75-1.5,1.09-.89,4.42-3.47,4.81-4.47.27-.71-.38-1.77.05-2.96,2.13-5.86,10.04-5.95,12.36-11.32,1.22-1.62,1.83-1.24,1.5.75Z"/>
      <path class="cls-12" d="M90.59,51.3c1.19.97,1.19,1.47,0,1.5l-.94.8c-3.79-1.46-7.64-2.72-11.55-3.79l-.24.75c-1.07,1.36-3.06,1.79-5.97,1.32.44,2.61-.07,4.67-1.51,6.18l-2.25.75c-1.29.66-1.89.33-2.14-1.01l-.06-6.69c-2.14.61-4.21-.07-6.03-1.3-.66,1.79-1.64,1.91-2.99.75-.57.18-1.62-.17-2.25,0-4.24.17-8.24,1.17-11.98,3-1.15.54-2.86.63-4.27,1.35-2.01,1.03-3.82,3.69-6.21,3.9-.42-.53-.89-1.32-.59-1.65,3.84-4.17,9.42-6.6,14.61-8.62l.2-.99c1.57-.48,1.64-.83,3.74-.75,13.14-1.88,29.21-3.33,40.43,4.5Z"/>
      <path class="cls-35" d="M50.16,94.05c2.65.55,5.15.55,7.49,0,.6-2.08,1.39-1.98,2.25,0,1.28-.97,1.62-.72,2.25.75.44-2.36,6.46-3,7.49-.75.81-1.92,1.45-1.92,2.25,0,.62-2.11,1.48-2.08,2.25,0,3.53.4,7.03-.32,10.35-1.47l.88.72c.94-.26,1.16-.17.75.75.67.23.66.48,0,.75l-1.01,2.17c-.27.15-5.41,1.6-5.71,1.65-7.55,1.26-18.92.75-26.22-.82h-15.72c2.31-.37,4.7-1.31,7.49-.76.27-.17-.66-1.1-.75-1.49-.56-.24-.81-.74-.75-1.5-4.46-4.84,4.54-1.9,6.74,0Z"/>
      <path class="cls-52" d="M86.09,95.55c1.17.93,1.44,1.7,0,2.25-1.51.02-5.21-.69-5.99.74,7.74.11,15.72.31,23.2,2.26-11.49-1.74-22.03-1.14-33.28-.72-12.86.48-24.56-1.77-37.83.72,7.06-2.02,14.4-2.52,21.72-2.26-.09-.35-.75-.62-.76-.74-.16-1.42,4.99,0,6.33.04,6.56.16,16.96.35,23.23-.8,1.5-.28,2.16-1.57,3.38-2.24.66.25.66.5,0,.75Z"/>
      <path class="cls-4" d="M6.74,106.05c1.01,2.52-1.9,3.91-2.99,1.5-1.71-4.28-.3-9.7-.74-14.25.63-.71,8.29,5.24,8.92,6.48.11.68-4.33,5.42-5.19,6.27Z"/>
      <path class="cls-54" d="M28.45,85.8c.46-1.07.62-2.57.76-3.75.36-.38,4.14,4.77,3.73.75.87.87,2.91,1.36,2.99,1.5,2.36.54.78,2.26.4,1.31-.23-.57.44-.6,1.1.19l1.53-.27c3.51,2.5,7.32,4.51,11.43,6.03l.51,1.74c.89.6.64.85-.75.75-2.4-.53-4.79-1.96-7.49-1.49l.75,1.49c-4.41-.02-9.37-4.22-12.39-7.74l-1.09.24c-.3-.3-1.08-.46-1.5-.75Z"/>
      <path class="cls-43" d="M46.42,47.55l2.63.75c-5.69,2.53-13.96,4.78-16.85,10.5-.25.02-.5-.02-.75,0l-.34.98c-.52-.89-1.41-.96-2.66-.23-.54.37-1.36.63-1.5.75-2.06-.87-1.56-2.55-1.5-4.5,1.03,1.23.26,2.63,1.79,2.18,3.7-1.11,6.42-4.26,9.69-6.05,3-1.64,6.2-3.36,9.48-4.37Z"/>
      <path class="cls-34" d="M6.74,106.05c-.33,2.87,1.05.84,2.25.75,1.13-1.47,1.67-1.06,1.5.75-2.91,1.96-5.92,3.49-8.23,6-.31-1.33.48-5.38,1.49-6,.72-.44.95.53,2.99-1.5Z"/>
      <path class="cls-2" d="M54.65,50.55c-3.42.92-8.01,2.33-11.23,3.75l-.75-.75c.15-.07.47-1.01,1.26-1.33,2.93-1.18,7.87-3.65,10.71-1.67Z"/>
      <path class="cls-32" d="M5.99,87.3c-.25-.19-1.67.13-2.25,0-.03-.11-1.21-.32-1.49-1.85-.18-1-.18-7.91.36-7.9.1,3.7,2.47,6.31,3.37,9.76Z"/>
      <path class="cls-23" d="M30.7,73.8c-.53,3.49.93,1.75,2.25,2.25,2.07-.36,3.07.14,2.99,1.5-1.46.36-3.3,1.8-5.24,1.5-1.18-3.46-.29-2.9,0-5.25Z"/>
      <path class="cls-33" d="M11.98,106.05c-.26.17-.73.99-1.5,1.5-.54.1-1.41-.76-1.5-.75.39-1.23,1.42-1.57,2.25-2.25l.75,1.5Z"/>
      <path class="cls-12" d="M31.45,58.8c.53,1.68-.33,2.55-.75,3.75.04-2.6.67-3.41-2.25-3,2.9-2.02,1.29-.62,2.99-.75Z"/>
      <path class="cls-13" d="M121.28,88.05c1.23-2.28,3.36-3.19,2.99,0-1.78,3.72-6.5,6.63-10.09,8.28-1.52-6.58-8.9-7.18-12.37-10.53-1.32.67-1.94-.58-.75-1.5-.9-2.4-1.4-4.9-1.5-7.5-.42-.22-.8-.47-1.06-.81-.47-.62-2.88-14.55-2.62-15.29.15-.41.4-.79.68-1.15,0-2.2,2.5-2.1,2.99,0,4.03,3.09,6.92,7.34,10.11,11.25,1.61-2.3,3.48-7.72.19-9.19-.52-.23-9.72-2.22-5.84-4.7,5.79-3.7,18.96,10.17,19.53,16.52s-4.52,11.41-4.54,13.51c-.04,2.76,1.78,1.25,2.26,1.11Z"/>
      <path class="cls-41" d="M101.82,88.05c1.05,2.49,4.02,2.73,5.94,4.17,1.66,1.25,6.07,6.08,3.76,7.82-.57.43-11.69-2.07-14.2-2.24-3.3-.58-6.65-.74-10.03-.46-.77-.76-.72-1.43.3-1.79,3.39-1.91,6.83-4.06,10.3-6.44l.93.44c-.73-2.1.45-2.93,2.25-1.5.18-.67.43-.65.75,0Z"/>
      <path class="cls-16" d="M121.28,106.05l-5.98-6.36c.24-.61,7.73-6.24,8.59-6.4,2.42-.46.41,3.13.45,4.22.12,2.79.61,5.49.68,8.55-.32,3.29-2.31,2.3-3.74,0Z"/>
      <path class="cls-50" d="M96.58,59.55c1.97,6.11,2.55,10.96,2.99,17.25.09,2.59.59,5.09,1.5,7.5.25.44.49,1.25.75,1.5l-.59.36.59,1.89c-.25.03-.5-.04-.75,0-1.83.47-2.65-.81-1.5-2.25-2.33.5-3.08-2.25-1.5-3.75-1.49.27-2.18-.74-2.07-3.04-1.59-.29-2.4-1.02-2.42-2.21-.03-1.5.73-2.18,2.25-1.5-1.14-5.57-2.16-11.16-3.07-16.77l1.57-1.23c-1.16-1.12-.69-1.58.75-.75,1.98-.93,3.65,1.71,1.5,3Z"/>
      <path class="cls-42" d="M90.59,51.3c2.78.45,5.27,1.86,7.47,4.23l.77-.48c.92.69,1.95,1.8,2.99.75-.63,2.68,1.55,3.75-2.25,3.75h-2.99c-.43-1.33-.48-1.85-1.5-3-1.55-.31-5.34-2.01-4.49-3.75.09-.46-.13-1.16,0-1.5Z"/>
      <path class="cls-49" d="M124.27,88.05c-1.33-1.18-1.93-.31-2.99,0,1.02-3.99,3.97-7.01,4.12-11.26.95,3.99.62,7.63-1.12,11.26Z"/>
      <path class="cls-35" d="M87.59,95.55c-.26,2.41,1.01,1.16,2.1,1.23,2.45.16,5.48-.21,7.63,1.02-3.55-.24-7.62-.05-11.23,0,0-.75.01-1.5,0-2.25.45-1.06,1.05-1.06,1.5,0Z"/>
      <path class="cls-28" d="M125.02,106.05c.04,1.56-.02,2.99,0,4.5-.48-.06-1.05.09-1.5,0,1.89-2.14-2.38-1.91-2.25-4.5,1.69,1.53,2.05,1.53,3.74,0Z"/>
      <g>
        <path class="cls-39" d="M116.04,118.05c2.84.49,5.34,1.24,7.49,2.25.83.08,2.87,1.5,4.49.75l-1.83.78c-26.09-.13-52.19.06-78.27-.03-2.3-.29-4.54-.54-6.74-.75l-1.3-.65c-2.87.57-5.18.29-6.94-.85-6.44.69-13,.63-19.46,0-.6,1.35-1.41,1.16-2.25,0-1.09,1.12-3.09,1.12-5.99,0-.48-.04-1.2.12-1.5,0-.95-1.54.53-1.55,1.95-1.54l90.88.04c5.99-2.4,13.44-2.3,19.46,0Z"/>
        <g>
          <path class="cls-45" d="M13.48,119.55c5.55.3,11.04.55,16.47.75.65.21.64.46,0,.75-3.8,0-8.63-.64-11.98.75-1.2-.06-2.64.17-3.74,0-2.01-.15-5.89-.67-2.99-2.25.75,0,1.5-.01,2.25,0Z"/>
          <path class="cls-25" d="M11.23,119.55c-.76,1.32,1.8,2.06,2.99,2.25h-5.24c.51-2.35-1.31-1.21-3.22-1.65l-.52-.6c1.92.16,4.03-.03,5.99,0Z"/>
          <path class="cls-25" d="M96.58,118.05c-29.37.57-59.16.37-88.72.74-1.27.02-3.33-.48-4.11.76-1.02-.4-.86-1.2-.75-2.25l93.58.75Z"/>
          <path class="cls-25" d="M125.02,118.05c.05.47,1.03,1.37.75,2.25h-2.24c-9.05-.83-19.26.63-28.44,0-.18-1.31,1.7-.7,2.61-.74,5.73-.24,11.52.28,17.24,0,1.84-.09,2.45.54,1.11-1.5h8.98Z"/>
          <path class="cls-25" d="M32.94,119.55c.22,1.26-2.01,1.3-2.99.75-5.26.07-11.46.58-16.47-.75,6.48.1,12.99-.07,19.46,0Z"/>
          <path class="cls-20" d="M41.18,121.05c-3.73-.03-7.5,0-11.23,0v-.75c1.54-.02,2.82-.75,2.99-.75,1.67-.03,2.85.61,4.2.67,1.62.08,3.31-1.54,4.04.83Z"/>
          <rect class="cls-25" x="66.63" y="119.55" width="13.48" height=".75"/>
          <rect class="cls-25" x="41.93" y="119.55" width="10.48" height=".75"/>
          <rect class="cls-25" x="81.6" y="119.55" width="10.48" height=".75"/>
          <rect class="cls-25" x="56.15" y="119.55" width="8.98" height=".76"/>
        </g>
      </g>
      <path class="cls-17" d="M92.08,50.55c-.06.68-.56.93-1.5.75-15.24-7.49-25.26-3.91-40.43-4.5,2.25-1.52,6.61-2.05,9.37-2.24,12.23-.86,21.79.19,32.56,5.99Z"/>
      <path class="cls-18" d="M92.08,50.55c3.01,1.62,4.26,2.65,6.74,4.5.17,2.52-.39,1.27-1.58.46-2.39-1.63-3.96-2.89-6.65-4.21.32-.83.7-.82,1.5-.75Z"/>
      <path class="cls-46" d="M29.95,86.55c.18-4.28,3.78,1.86,4.3,2.27,2.16,1.7,6.62,3.7,9.17,5.23,2.01,1.2.7,1.28.75,1.5-5.89-.9-10.28-5.06-14.22-9Z"/>
      <path class="cls-13" d="M77.86,50.55c5.06-.18,12.98,2.74,16.47,6.75-.64,6.1,2.85,11.95,3.03,17.58.03.83-1.28.25-1.53.42-3.66-2.35-14.4-2.38-17.21-4.13-.75-.47-1.88-3.51-3.35-4.9-4.38-4.16-4.62-.32-4.9-8.22-.1-2.74.07-5.51,0-8.25,2.35.86,5.17.3,7.48.75Z"/>
      <path class="cls-1" d="M90.59,52.8c1.56,1.42,3.03,2.09,4.49,3.75-.35.08-.71.41-.75.75-4.91-2.65-10.98-5.69-16.47-6.75-1.39-1.57-4.6.15-5.24-2.24,6.28,0,11.99,3.09,17.97,4.49Z"/>
      <path class="cls-3" d="M92.83,83.55c4.51.48,5.67,1.48,1.03,4.3-6.02,3.65-12.51,6.92-19.74,6.2-.36-.14-1.63,0-2.25,0,1.06-3.92-1.17-10.72-.8-13.87.16-1.33,3.64-3.3,4.79-3.23,3.7.2,12.41,6.44,16.97,6.6Z"/>
      <path class="cls-3" d="M59.89,94.05c-.61-.16-1.55.12-2.25,0-1.92,1.06-5.18.55-6.74-.75-2.33-.6-9.03-4.03-11.5-5.37-1.16-.63-1.84-2.09-1.98-2.13,4.72-1.48,11.33-6.84,15.72-7.94,1.63-.41,6.03.7,6.62,2.43,1.05,3.07-.51,10.14.12,13.75Z"/>
      <path class="cls-15" d="M99.57,85.8c-.14,1.02-.7,1.61-1.5,2.25.62,1.39-1.61,2.26-2.25.75-3.51,2.46-7,3.96-10.48,4.5-4.1,1.41-7.71,2.13-11.23.75,7.8-1.1,15.46-3.71,21.7-8.62l-2.98-1.88c1.32.52,2.23-.54,2.99-.75.39-1.98.83-1.78,2.25-.75.4,1.12,1.01,2.66,1.5,3.75Z"/>
      <path class="cls-48" d="M98.82,89.55c-3.47,2.27-6.93,5.45-11.23,6-.48.06-1.01-.04-1.5,0,0-.25.02-.5,0-.75-.02-.26.06-.55,0-.75,3.29-1.73,6.54-3.48,9.73-5.25.3-.25,2.03-.33,2.25-.75,1.63-.81,2.15.33.75,1.5Z"/>
      <path class="cls-14" d="M95.83,88.8c-2.8,2.33-5.34,5.65-9.73,5.25-.11-.36-.4-.62-.75-.75,2.36-.81,5.31-2.81,7.59-4.03.57-.3,2.65-1.75,2.89-.47Z"/>
      <path class="cls-6" d="M57.65,94.05c-1.23,2.88-4.9.57-7.49,0l.75-.75c1.44.37,4.77.42,6.74.75Z"/>
      <path class="cls-15" d="M101.07,84.3c-2.07-3.56-1.23-3.72-1.5-7.5l1.5,7.5Z"/>
      <path class="cls-14" d="M99.57,85.8c.34.76,1.1,1.48,1.5,2.25-.49.07-1.65,1.11-2.25,1.5l-.75-1.5c.08-.16-1.58-2.3,1.5-2.25Z"/>
      <g>
        <path class="cls-53" d="M59.89,49.8c.61.29,1,.76,1.06,1.44.13,1.67,1.04,9.58,1.82,10.26,1.65,1.44,4.56-1.7,5.36-2.7v-9.75c.93-1.22,1.36.01,1.5,1.11.32,2.47-.86,5.77.75,7.89,1.39.47,2.02,1.94,1.89,4.41,3.53,1.39,5.53,4.3,7.27,7.54l14.75,2.98c1.18.22,1.59,1.07,1.55,2.32-.5.34-.82,1.77-2.25,1.5l-1.68,1.17c-6.19-1.5-5.85-1.06,1.03,1.34,2.53.66,3.5,1.82,2.9,3.49.62,1.84-.38,2.09-2.99.75l-1.36,1.34c-4.72-1.64-9.31-3.61-13.77-5.93-1.95-1.14-3.83.05-5.19,1.55l1.14,11.58c.11,1.41-.27,1.84-1.77,1.96-.64,0-1.59,0-2.25,0l-1.53-.58-.61-11.51-3.63-.45c-.36,4.09-.41,8.2-.14,12.34l-1.58.95c-2.82.36-1.55-.57-2.25-.75l-1.59-.6.27-11.57c-.59-3.41-6.05-2.95-8.38-1.18l-10.81,5.98c-.79.07-1.43-.32-1.95-.87-.14-.04-1.34.97-1.49.76-.24-.33.21-1.9,0-2.26,5.1-3.89,11.31-6.53,17.22-9.01.32-.42-.94-1.43-1.83-1.46s-13.11,3.16-15.39,3.72c-1.12-.14-2.15-1.18-2.99-1.5,3.09-1.4,17.53-3.63,19.07-5.27.72-.77.97-3.01,2.15-4.23,1.02-1.06,3.61-1.55,4.11-3,1.24-3.58-1.81-9.14-1.37-13,1.34-.42-.52-.79,2.99-.75Z"/>
        <g>
          <path class="cls-8" d="M35.94,77.55c-.03-.37-.03-.73.08-1.05.26-.75,14.54-4.04,15.33-3.99,3.03.19,4.06,2.27,1.46,4.24-.94.71-14.62,7.71-15.48,7.76-.46.03-.92-.07-1.39-.21-.86,2.19-3.69.81-2.99-1.5-1.1-1.1-1.74-2.26-2.25-3.75.68-1.83,2.42-2.33,5.24-1.5Z"/>
          <path class="cls-37" d="M59.89,49.8c2.49.03,5-.02,7.49,0,.14,2.37-.21,4.81-.03,7.19.07.99.76,1.64.78,1.82.14,1.21-.09,2.53,0,3.75l-6.73.75c.06-4.46-3.43-9.6-1.51-13.5Z"/>
          <path class="cls-21" d="M62.14,94.8c.45-2.48-1.08-14.39,1.1-14.78.91-.16,3.96.73,5.63-.22l.75,14.25c-1.79,0-5.53.5-7.49.75Z"/>
          <path class="cls-44" d="M93.58,76.8c1.04.24,3.6.62,3.74.75.17.16.12,2.72.75,4.5-.52,1-1.56.56-2.25.75-1.78-2.58-18.1-6.72-18.65-7.57-.16-.25-.37-2.12.3-2.17,4.93,2.39,10.84,2.51,16.1,3.74Z"/>
          <path class="cls-13" d="M64.19,64.98c5.2-.32,14.94,4.23,9.22,9.99-6.19,6.23-23.98,1.11-17.61-6.4,1.13-1.33,6.61-3.48,8.39-3.59Z"/>
        </g>
      </g>
    </g>
  </g>
  <g>
    <path class="cls-27" d="M116.98,21c.73-.53,1.85-2.76,2.99-3.39v-1.11c-3.64,1.02-3.61-4.87-1.05-5.94,2.93-1.22,1.8,3.88,3.73,4.42,1.44.4,2.29-1.23,3.09-1.36.91-.15,2.56,2.03,4.99,1.4.52-.14.48-2.7,1.96-1.51.35.28-.89,1.18,1.51,1.49.76-1.94,1.23-1.82,2.25,0,2.95.09,5.53.84,7.49-1.5-.34-.66-.05-.89.75-.75.85,1.78,1.51,4.37-1.12,4.51-.81.05-1.48-.71-1.88-.76-2.52.54-5.01.54-7.49,0-2.72,0-9.5-.54-11.49.12-2.4.79-2.16,8.28-9.48,5.88-.13-.88,1.12-1.38,3.74-1.5Z"/>
    <path class="cls-38" d="M173.12,17.25c-2.33-1.11-12.1,1.09-12.73-1.12-1.13-3.92,4.73.21,6-1.12.26-.28-.27-2.65,0-3.01,1.32-1.76,1.72,2.36,2.19,2.67.9.6,2.06.29,3.05.33l-1.49-15c1.16.38,2,1.45,2.23,2.64.3,1.62,1.21,14.04.76,14.61Z"/>
    <path class="cls-30" d="M98.27,12c2.91-2.96.01,3.91-.02,4.19-.7,6.44,10.44,4.78,10.53-.03.03-1.39-2.32-6.27.33-6.4,1.73,1.73,1.56,7.75.74,9.73-1.78,4.28-12.65,4.91-13.06-1.14-.05-.75,1.25-6.11,1.48-6.34Z"/>
    <path class="cls-57" d="M143.93,13.5c-1.12-2-6.24-3.4-6.82-4.26-2.95-4.38,6.61-8.73,7.57-7.73,2.58,2.68-5.99,2.8-5.99,5.61,0,.41,4.81,3.17,6,5.63-.26.24-.52.48-.75.75Z"/>
    <path class="cls-7" d="M148.42,22.5c.31-1.04,1.81-1.54,4.49-1.5,8.19-3.65,2.15-10.26,3-11.25,1.22-1.41,2.65,2.69,2.81,3.55,1.35,7.38-3.11,11.38-10.3,9.2Z"/>
    <path class="cls-38" d="M176.86,1.5c-.03,4.68,2.66,12.01-.74,15.75,1-4.44-1.25-10.69-.77-14.62.17-1.39-.2-1.23,1.51-1.13Z"/>
    <path class="cls-24" d="M167.13,11.25c-1.2.48-3.03-2.36-3.37-2.99-.69-1.31-.15-1.41.75-2.24,1.73,1.45,3.09,2.72,2.62,5.23Z"/>
    <path class="cls-57" d="M134.2,15l1.12-4.51,1.13,4.51c-.73-.02-1.54.09-2.25,0Z"/>
    <path class="cls-57" d="M141.68,16.5c-2.02.94-5.64,1.49-7.49,0,2.68,0,5.14-.31,7.49,0Z"/>
    <path class="cls-47" d="M152.91,21c-1.8.8-3.18.51-4.49,1.5-.38-.12-1.02.1-1.5,0-1.77-2.19,4.4-1.42,5.99-1.5Z"/>
    <path class="cls-26" d="M116.98,21c-1.47,1.07-2.7.4-3.74,1.5-.88-.29-2.12-.22-2.25-1.49h5.99Z"/>
    <path class="cls-29" d="M105,9c-1.41,1.52-3.73-3.98-1.13-2.99.96.37,1.59,2.49,1.13,2.99Z"/>
  </g>
</svg>