<?xml version="1.0" encoding="UTF-8"?>
<svg id="Layer_1" data-name="Layer 1" xmlns="http://www.w3.org/2000/svg" viewBox="0 0 116.47 82.86">
  <path d="M0,0h116.47v82.86H0V0ZM2.67,3.01v76.06h110.8V3.01H2.67Z"/>
  <g>
    <path d="M10.43,18.19c.89-.75,2.76-1.46,3.93-1.68L90.67,6.9c9.4.68,6.43,11.99,8.99,16.24,1,1.65,7.01,3.53,7.69,5.76.76,2.48.51,22.34.17,25.98-.52,5.53-1.95,6.36-7.03,7.91-14.62,4.45-32.75,5.19-47.76,9.1-4.1.24-6.55-3.11-6.98-3.12-.77,0-1.95,2.79-5.63,1.79-8.62-5.77-20.54-10.09-28.67-16.21-3.75-2.82-5.32-5.17-5.76-9.96-.38-4.07-.5-16.31.18-19.93.18-.94,3.8-5.63,4.56-6.27ZM94.76,12.73c.15-2.15-2.26-3.21-4.09-3.34-19.09,2.9-38.47,4.3-57.57,7.16-5.53.83-2.49,1.17-2.7,5.88l64.36-9.7ZM96.26,14.97l-6.73,1.12,7.48,4.84-.75-5.96ZM90.27,19.45l-5.56-2.91-54.31,8.11v5.96s59.87-11.17,59.87-11.17ZM22.92,19.07c-.62,2.02,0,11.16,0,14.16s5.13,2.2,4.81-.38c-.35-2.75.39-2.19.49-4.79.08-1.98.29-7.14-.43-8.62-.89-1.82-4.33-2.11-4.86-.37ZM20.68,18.7c-.43-.42-8.56-.14-8.98,2.23l8.98,4.48v-6.71ZM104.49,28.4c-.1-.09-1.69-.12-2.64-.71-2.98-1.87-5.7-4.26-8.94-5.7-18.7,4.53-39.05,5.72-57.65,10.14-.89.21-2.39.22-1.12,1.47.26.25,5,1.51,6.68,2.67,2.07,1.43,3.37,3.63,4.91,5.53.88-.87,1.68-1.83,2.84-2.38,7.43-3.54,42.21-9.17,51.92-10.23.53-.06,6.35,1.36,3.99-.78ZM24.34,37.45c-.17-.3-2.27-.61-3.1-2.55-1.01-2.37.08-5.13-1.25-6.95-.95-1.31-10.19-5.95-11.28-4.79.46,1.48-.73,4.2-.34,5.26.68,1.87,6.98,4.13,7.11,4.85.14.79-.43,2.55-1.16,2.55-.38,0-5.28-4.62-6.36-3.7,1.8,2.26-.11,8.74.87,10.31.34.55,5.85,1.97,6.61,3.48-.89,4.85-5.8-2.17-6.73-1.12-.21,3.05,1.19,5.46,3.48,7.33,3.51,2.86,23.81,14.27,28.19,15.97,6.4,2.49,3.55-10.26,3.47-13.21-.14-4.94,1.51-9.57-1.58-14.09-.89-1.3-10.82-7.08-11.5-7.07-.31,0-4.78,3.68-4.86,3.99-.52,2.06,5.64,3.02,5.98,4.47.94,4-7.52-1.16-7.89-1.83-.41-.72.78-2.12.33-2.9ZM105.24,56.34c1.02-4.76,0-17.36,0-23.11,0-.59-3.05-2.18-4.01-1.8-14.8,4.53-35.81,4.08-49.85,9.28-1.43.53-3.91,1.62-4.36,3.11-.37,1.21-.57,7.11-.61,8.93-.05,2.45.22,11.97.8,13.71.63,1.92,2.7,2.86,4.52,3.35l49.21-9.56c1.59-.19,4.01-2.49,4.31-3.9Z"/>
    <path d="M79.05,45.54c1.39.4,3.89-.95,4.91-.08.53.45,1.75,4.83,1.52,5.3-.51,1-4.31,2.36-4.95,1.9l-1.48-7.12Z"/>
    <path d="M91.62,44.2c1.6.91,2.45,5.69-.02,6.79-7.29,3.25-6-10.24.02-6.79ZM91.01,45.53c-2.25-1.55-4.6,3.33-1.86,4.46,2.93,1.21,2.52-4,1.86-4.46Z"/>
    <path d="M62.88,52.21c0,2.01-1.63,3.63-3.65,3.63s-3.65-1.63-3.65-3.63,1.63-3.63,3.65-3.63,3.65,1.63,3.65,3.63ZM58.11,54.47c2.43,1.65,4.45-3.69,1.85-4.46-3.25-.96-2.68,3.89-1.85,4.46Z"/>
    <path d="M99.25,42.55c.36,1.49-1.51,2.04-1.52,3.36s3.15,3.23,2.27,4.09c-.78.76-2.77-2.08-3.72-1.48-.28.18-.27,2.85-2.26,2.23-.37-1.51,1.64-2.66,1.39-3.99-.17-.86-3.05-2.58-2.13-3.46.78-.75,2.77,2.08,3.72,1.48.28-.18.27-2.85,2.26-2.23Z"/>
    <path d="M70.27,51.02c0,1.94-1.58,3.51-3.52,3.51s-3.52-1.57-3.52-3.51,1.58-3.51,3.52-3.51,3.52,1.57,3.52,3.51ZM67.77,48.56c-2.74-1.91-4.08,4.66-1.09,4.97s1.71-4.54,1.09-4.97Z"/>
    <path d="M55.1,49.27c-.38.99-1.24,1.39-1.48,2.62-.35,1.77,1.13,5.44-1.51,4.83-.26-1.41.37-3.55.04-4.76-.25-.92-2.93-.28-3.04-1.94l5.99-.75Z"/>
    <path d="M72.31,47.02c1.36,1.43-1.39,6.86,4.5,5.23.06,1.75-4.94,1.8-5.24,1.49-.2-.21-.54-4.48-.69-5.66-.19-1.49,1.01-1.49,1.44-1.05Z"/>
    <path d="M30.38,53.02c.46.67-.34,2.9-1.1,2.93-.31.01-5.33-2.81-5.49-3.08-.42-.7-.02-1.98-.13-2.86l6.71,3.01Z"/>
    <path d="M42.2,47.19c.45.82.1,1.9.17,2.81-2.5.61-5.94-4.72-3.34-4.49.49.04,3.05,1.46,3.17,1.67Z"/>
    <path d="M41.62,61.18c-.68.72-5.82-2.15-3.73-4.47,1.3.11,5.02,3.09,3.73,4.47Z"/>
  </g>
</svg>