<?xml version="1.0" encoding="UTF-8"?>
<svg id="Layer_1" data-name="Layer 1" xmlns="http://www.w3.org/2000/svg" viewBox="0 0 56.7 77.59">
  <defs>
    <style>
      .cls-1 {
        fill: #715a70;
      }

      .cls-2 {
        fill: #5d485b;
      }

      .cls-3 {
        fill: #e9dce7;
      }

      .cls-4 {
        fill: #deccdd;
      }

      .cls-5 {
        fill: #7e687c;
      }

      .cls-6 {
        fill: #cdb5cd;
      }

      .cls-7 {
        fill: #866f87;
      }

      .cls-8 {
        fill: #dbc6d9;
      }

      .cls-9 {
        fill: #decedd;
      }

      .cls-10 {
        fill: #6e566d;
      }

      .cls-11 {
        fill: #e6d5e7;
      }

      .cls-12 {
        fill: #efdceb;
      }

      .cls-13 {
        fill: #634c5e;
      }

      .cls-14 {
        fill: #151214;
      }

      .cls-15 {
        fill: #907990;
      }

      .cls-16 {
        fill: #20191d;
      }

      .cls-17 {
        fill: #917992;
      }

      .cls-18 {
        fill: #725a70;
      }

      .cls-19 {
        fill: #e5cfe5;
      }

      .cls-20 {
        fill: #685068;
      }

      .cls-21 {
        fill: #634d62;
      }

      .cls-22 {
        fill: #452d43;
      }

      .cls-23 {
        fill: #ceb9cf;
      }

      .cls-24 {
        fill: #c6afc6;
      }

      .cls-25 {
        fill: #c3afc3;
      }

      .cls-26 {
        fill: #a98ea6;
      }

      .cls-27 {
        fill: #423142;
      }

      .cls-28 {
        fill: #553e52;
      }

      .cls-29 {
        fill: #d1bad2;
      }

      .cls-30 {
        fill: #5c4458;
      }

      .cls-31 {
        fill: #4b3d4d;
      }

      .cls-32 {
        fill: #271928;
      }

      .cls-33 {
        fill: #574157;
      }

      .cls-34 {
        fill: #4d3a49;
      }

      .cls-35 {
        fill: #563e55;
      }

      .cls-36 {
        fill: #a189a2;
      }

      .cls-37 {
        fill: #d4c4d3;
      }

      .cls-38 {
        fill: #392138;
      }

      .cls-39 {
        fill: #4c334b;
      }

      .cls-40 {
        fill: #463144;
      }

      .cls-41 {
        fill: #4d3748;
      }

      .cls-42 {
        fill: #473046;
      }

      .cls-43 {
        fill: #c2b5c2;
      }

      .cls-44 {
        fill: #e3cde4;
      }

      .cls-45 {
        fill: #412e3f;
      }

      .cls-46 {
        fill: #432d3b;
      }

      .cls-47 {
        fill: #483048;
      }

      .cls-48 {
        fill: #e5dae4;
      }

      .cls-49 {
        fill: #161115;
      }

      .cls-50 {
        fill: #edebec;
      }

      .cls-51 {
        fill: #685162;
      }

      .cls-52 {
        fill: #e3d7e4;
      }

      .cls-53 {
        fill: #20151c;
      }

      .cls-54 {
        fill: #faedf5;
      }

      .cls-55 {
        fill: #bda7bc;
      }

      .cls-56 {
        fill: #725b72;
      }

      .cls-57 {
        fill: #1e161b;
      }

      .cls-58 {
        fill: #3f343f;
      }

      .cls-59 {
        fill: #866e86;
      }

      .cls-60 {
        fill: #6b546b;
      }

      .cls-61 {
        fill: #8c758c;
      }
    </style>
  </defs>
  <path class="cls-20" d="M14.21,73.07c.13-.07,2.82.72,2.92.84.5.56-1.12,2.4,2.7,2.86,2.8.34,5.08-.54,7.31-.53.62,0,1.46.59,2.35.58,3.95-.08,7.67-.46,11.6-.77-1.35,1.2-2.2.61-4.02.85l-.46.64c-8.54.21-17.38-.24-25.65-.13l-3.46-1.73c1.4-1.93,3.68-.73,5.51-1.23.93-.25,1.12-1.34,1.2-1.38Z"/>
  <path class="cls-59" d="M44.08,73.07v1.49c1.73,0,3.49,0,5.23,0v2.23c-4.33-.29-8.41.64-12.69.74l.46-.64c1.82-.24,2.66.35,4.02-.85.48-.42,1.67-1.81,1.49-2.23.48-.26,1.03-.45,1.49-.74Z"/>
  <path class="cls-19" d="M49.3,74.55c1.36,0,5.96-1.07,5.98,1.86l-5.98.37v-2.23Z"/>
  <g>
    <path class="cls-46" d="M39.6.88l.75,2.23c-.99-.38-1.74-1.02-2.99-.74,1.41,1.69,1.8,2.96,1.49,5.21-.16.07-1.56,2.65-2.99,1.49-.27-.23,2.05-2.57-.37-2.23-1.15,1.18-3.53,3.47-3.95,4.97-.23.8.47,3.71.59,4.7.03.21.05.62,0,.74-.16.35-1.09,1.12-1.49,2.23-.14.39.14,1.13,0,1.49-.02.05-.49.07-.75.74-.08.22.08.52,0,.74-.18.49-1.42,1.91-1.49,2.23.37-2.36-.93-1.59-1.32-.2-.63,2.22-1.52,4.27-1.64,6.58-.2,3.84-.42,10.25.01,14.05.36,3.14,1.95,5.15,1.8,8.57-.07,1.54,1.56,1.9,1.89,1.52.34-.4-2.47-8.6-1.49-10.42.48,4.2,2.05,8.7,3.73,12.65.31.73.84,1.32.75,2.23-.04.37-.63,1.07-.71,1.86-.38,4.02-.29,3.49,3.7,3.34-.85,1.88-.31,3.82,1.9,3.11l-.41,1.33,2.25.03-.76,1.48c1.28-.34,2.73-.45,3.99-.74.71-.16.39-1.14.62-1.31.67-.5,2.69,0,3.6-.92-.2.11-.6,1.66-1.14,2.23-1.33,1.41-3.4,1.77-2.59,3.72.17.42-1.01,1.81-1.49,2.23-3.93.31-7.65.69-11.6.77-.89.02-1.73-.57-2.35-.58-2.23-.01-4.5.87-7.31.53-3.82-.46-2.2-2.3-2.7-2.86-.1-.11-2.79-.91-2.92-.84-.4-.09-.54-.58-.75-.74,2.03.12,1.67.04.75-1.49,2.83.58,3.86-1.23,5.6-2.97,2.62-.26-.42,2.86.37,3.72s3.44-2.42,4.11-2.97l.36,1.48,3.74-.74c-1.61-.95-1.33-4.28-1.5-4.46-.25-.27-2.73.28-2.97-.03-.5-.64,1.23-2.97-2.25-2.21.6-.97,4.96-3.97,3.73-5.21-.3-.3-4.59,2.55-3.73-2.98-.41-.56-5.19,1.21-5.83,1.68-.45.32.38,1.93-1.64,1.3l4.48-4.46c.37-.14,3.11,1.36,2.99-.74-.02-.35-.72-1.04-.7-1.84.03-1.01.68-2,.7-3.37.04-2.71-2.03-3.4-2.24-5.95-.01-.25.01-.5,0-.74l2.25-2.61c-2.38-.72-1.13-.76-1.13-2.22,0-1.94.3-3.36.52-5.2s1.13-5.13-.14-6.34c-.82-.79-1.71-.56-1.49-1.48.73-.05,1.65-.33,2.24-.75,3.38-2.38-.23-5.02,0-5.21h2.99c-.6-1.1.21-5.74,0-5.96-.13-.13-5.75,1.61-2.98-.74.36-.31,4.22.31,4.45-.04.37-.55-.8-2.69,1.52-2.2-1.4-3.28-3.81.18-5.75,1.34-.74.45-2.03.42-2.76.86-.65.39-.3,1.45-.82,1.53-2.53.4-1.61-.24-1.86-1.71-.18-1.07-1.39-.39-2.25-.53.99,2.3.33,3.65,0,5.96l-6.72-2.24c2.09-3.4,4.8-5.75,7.84-8.18,1.18-.95,1.94-1.75-.38-1.49,4.37-2.32,5.52-1.78,10.04-2.27,4.79-.51,9.84-1.61,14.6.04ZM22.42,41.06c-.82-.81-2.31.67-1.49,1.49s2.31-.67,1.49-1.49Z"/>
    <path class="cls-14" d="M48.56,17.99c-.6-2.21-2.63-3.34-3.73-5.21,1.28-1.12,5.64,5.12,6.14,6.16.43.89.66,1.78.59,2.77,3.08-.89-.67-3.69,1.49-5.21,5.15,15.33,5.27,33.81-2.24,48.38h-.75c.16-1.01.46-1.43.75-2.23.39-1.09,2.22-4.57,2.23-4.84.01-.3-1.22-1.65-1.87-.38-.57,1.1-.06,2.5-1.11,3.37l-1.49-2.61c5.39-10.06,5.78-29.56,0-39.44v-.74Z"/>
    <path class="cls-49" d="M14.96,3.11c2.31-.26,1.56.54.38,1.49-3.04,2.43-5.75,4.78-7.84,8.18-.11.18.1.54,0,.74-.87,1.68-.94,2.26-1.49,3.72-.27.72-1.23,1.56-1.39,2.78-.14,1.11.71,2.29.61,2.37-.39.32-1.89.14-2.16,1.25-.15.61.76,1.62.7,1.79-.03.1-1.3.6-1.49,1.12-.4.73,1.97-.35,1.49,1.49-.19.74-1.06.08-1.37.47-.44.55,0,2.05-.13,2.89-.1.7-.71,2.58-.75,3.72-.06,1.81-.11,5.92,0,7.44.17,2.35,1.75,5.55,2.09,7.18.15.7-.6,2.39-.27,3.6.91,3.38,3.91,10.13,6.04,13,.66.89,4.01,4.32,4.83,4.49.92,1.53,1.28,1.61-.75,1.49-1.36-1.08-2.82-1.59-4.07-3.01C-3.78,54.43-4.12,13.24,14.96,3.11Z"/>
    <path class="cls-34" d="M40.34,3.11c4.23,1.63,4.8,3.15,7.45,6.34.23.28,2.01,2.57,2.25,1.1,1.63,2.6,1.93,2.8,2.99,5.95-2.16,1.52,1.59,4.32-1.49,5.21.08-.99-.16-1.88-.59-2.77-.5-1.04-4.86-7.28-6.14-6.16,1.11,1.87,3.13,3,3.73,5.21l-1.49-.74c-.12-.15.12-.6,0-.74-.8-1.18-3.28-4.2-4.48-4.47l-4.48-.75c-.24-.87,1.53-1.3,2.04-1.38,1.25-.18,2.01.65,3.18.63v-4.47s-1.49.75-1.49.75c-.08-.43.15-1.27,0-1.49-.85-1.21-3.2,1.83,0,1.49-.48,2.34-2.38.47-2.99.74.31-2.25-.08-3.52-1.49-5.21,1.24-.28,2,.36,2.99.74Z"/>
    <path class="cls-16" d="M39.6.88c1.47.51,4.6,1.98,5.63,2.94.87.81,2.28,2.29,3.15,3.18.52.54,1.06,2.57,1.67,3.55-.24,1.47-2.02-.82-2.25-1.1-2.65-3.19-3.22-4.71-7.45-6.34l-.75-2.23Z"/>
    <path class="cls-57" d="M50.8,62.65c-.29.8-.59,1.22-.75,2.23-.07.47.05,1.01,0,1.49-1.39,2.17-3.82,5.3-5.97,6.7-.46.3-1.01.48-1.49.74-.81-1.95,1.26-2.31,2.59-3.72.54-.57.94-2.12,1.14-2.23.97-.55,1.66.03,2.62-2.28.51-1.22-1.14-3.01,1.86-2.93Z"/>
    <path class="cls-13" d="M50.05,66.37c.05-.48-.07-1.02,0-1.49h.75c-.26.51-.28.76-.75,1.49Z"/>
    <path class="cls-41" d="M1.52,42.55c2.22-.67,4.34,2.61,5.7,2.85.69.12,1.51-.66,2.07-.56,1.06.2.94,1.78,1.25,2.12.53.57,2.77-.66,3.67-.68-.44.87-1.24,2.63-1.31,3.48-.06.69.54,1.43.44,2.01-.14.79-2.56,2.34-2.12,2.7,3.26.23,2.79-2.85,6.37-3.69,2.34-.55-.23,2.04,1.09,2.21l-4.48,4.46c2.01.63,1.19-.98,1.64-1.3.64-.46,5.42-2.24,5.83-1.68-.86,5.53,3.43,2.68,3.73,2.98,1.23,1.24-3.13,4.24-3.73,5.21,3.49-.76,1.75,1.58,2.25,2.21.24.31,2.72-.24,2.97.03.17.18-.12,3.51,1.5,4.46l-3.74.74-.36-1.48c-.67.55-3.31,3.85-4.11,2.97s2.25-3.97-.37-3.72c-1.74,1.74-2.78,3.55-5.6,2.97-.82-.17-4.17-3.6-4.83-4.49-2.13-2.87-5.13-9.63-6.04-13-.33-1.22.42-2.9.27-3.6-.35-1.63-1.92-4.83-2.09-7.18ZM9.73,46.27c-.25-.25-3.14.78-2.98,1.11.91,1.96,4.09,0,2.98-1.11ZM11.97,47.76c-1.17-1.29-1.48,1.13-2.01,1.47-.39.25-2.35.18-.97,1.5.8.76,3.75-2.12,2.98-2.97ZM23.92,66.37h-1.49s0,1.49,0,1.49l1.49-1.49Z"/>
    <path class="cls-28" d="M7.49,12.78l6.72,2.24c.34-2.31,1-3.65,0-5.96.85.14,2.06-.54,2.25.53.25,1.47-.66,2.11,1.86,1.71.52-.08.17-1.14.82-1.53.73-.44,2.02-.41,2.76-.86,1.94-1.17,4.35-4.62,5.75-1.34-2.32-.49-1.15,1.65-1.52,2.2-.23.35-4.09-.27-4.45.04-2.76,2.36,2.85.61,2.98.74.21.22-.59,4.86,0,5.95h-2.99c-.23.19,3.38,2.83,0,5.21-1.06-1.64-4.74-.33-5.95.39-1.8,1.08-.51,3.37-3,4.07l.71-3.38,4.51-4.06c-3.23.87-5.55,3.07-7.09,5.95-2.08-1.23-.07-2.62-.43-3.97-.25-.95-2-1.63-2.18-2.72,0-.03.51-.23.47-.41-.25-1.08-2.97-2.72.28-2.57l-1.49-1.49c.1-.2-.11-.57,0-.74ZM11.22,15.02c-.82-.81-2.31.67-1.49,1.49s2.31-.67,1.49-1.49Z"/>
    <path class="cls-56" d="M8.24,17.99c.18,1.09,1.93,1.78,2.18,2.72.36,1.35-1.65,2.75.43,3.97,1.54-2.88,3.86-5.08,7.09-5.95l-4.51,4.06-.71,3.38c2.49-.7,1.21-2.99,3-4.07,1.21-.73,4.9-2.03,5.95-.39-.59.41-1.51.69-2.24.75-.22.92.67.7,1.49,1.48l-1.49,1.49c-3.48-.48-7.37,3.03-9.71,5.21-1.7-.76-1.4,0-1.49,0-.83-.06-1.41.01-1.49,0-.47-.06-1.75-1.52-2.24-.37,3.63,3.22,3.27,5.71,7.46,1.86l.37.73c.27-.4.75-.5,1.12-.73v.74c-.12.82-1.42,2.16-1.44,2.63-.02.34.63.27.7.35.18.22.18.73.75.74-1.22.89-2.35,3.25-3.35,2.97s-4.19-4.81-6.18-5.79c-1.35-.66-2.09.59-1.67-2.39.12-.84-.32-2.34.13-2.89.31-.38,1.18.27,1.37-.47.47-1.84-1.9-.76-1.49-1.49.19-.52,1.46-1.02,1.49-1.12v-2.23c2.38-.69,3.22,1.29,5.23,1.49-.71-1.39-.17-2.47-.18-3.48-.01-1.32-1.39-1.85-1.31-3.21h.75Z"/>
    <path class="cls-13" d="M50.8,62.65c-3-.09-1.35,1.7-1.86,2.93-.96,2.31-1.66,1.74-2.62,2.28-.92.93-2.93.42-3.6.92-.23.17.09,1.15-.62,1.31-1.26.29-2.71.4-3.99.74l.76-1.48-2.25-.03.41-1.33c-2.21.71-2.75-1.23-1.9-3.11-3.99.14-4.08.67-3.7-3.34.08-.79.67-1.49.71-1.86,1.84.66,3.37,3.83,4.99,4.33.62.19,4.64.91,4.97.81,1.14-.32,1.58-1.86,1.99-2.17.16-.12.6.12.75,0,1.07-.9,1.31-1,2.24-2.23.31-.41,1.3-1.87,1.49-2.23l1.49,2.61c1.05-.87.54-2.27,1.11-3.37.66-1.27,1.88.08,1.87.38,0,.27-1.85,3.75-2.23,4.84Z"/>
    <path class="cls-30" d="M21.68,47.02c-.46.53-2.1.63-2.24.76-.25.23.97,4.52,2.24,4.45.13,2.1-2.62.61-2.99.74-1.33-.17,1.25-2.76-1.09-2.21-3.59.85-3.11,3.92-6.37,3.69-.44-.36,1.98-1.9,2.12-2.7.1-.58-.5-1.32-.44-2.01.07-.85.87-2.61,1.31-3.48.1-.21-.11-.58,0-.74.99-1.41,3.57-1.73,5.23-1.49.14-.84-.76-1.79-.61-2.47.07-.3.62-.45.61-.51.21,2.55,2.28,3.24,2.24,5.95Z"/>
    <path class="cls-53" d="M28.4,24.69c-.21.94.02,2.59,0,3.72-1.33.88-.71,3.59-.75,5.21-.07,3.5-.4,7.59,0,11.16-.97,1.82,1.84,10.02,1.49,10.42s-1.96.02-1.89-1.52c.15-3.42-1.45-5.43-1.8-8.57-.43-3.8-.21-10.21-.01-14.05.12-2.31,1.01-4.36,1.64-6.58.39-1.39,1.69-2.16,1.32.2Z"/>
    <path class="cls-51" d="M41.84,6.83l1.49-.75v4.47c-1.17.01-1.93-.81-3.18-.63-.51.07-2.28.51-2.04,1.38l4.48.75c-4.48-1-7.45,1.78-10.45,4.47-.12-.99-.81-3.9-.59-4.7.42-1.5,2.8-3.79,3.95-4.97,2.42-.34.09,2,.37,2.23,1.43,1.17,2.82-1.41,2.99-1.49.6-.28,2.5,1.59,2.99-.74Z"/>
    <path class="cls-15" d="M17.2,32.88c-.33,2.09.66,1.81,2.24.74.31,1.74-.53,3.04-.56,4.24-.02.9.52,1.62.56,2.45.01.25-.01.5,0,.74,0,.06-.54.2-.61.51-.15.68.75,1.63.61,2.47-1.65-.24-4.24.08-5.23,1.49-.78.15-.7-.73-.75-.74l3.73-2.97c-2.21-.7-3.08.93-4.48,1.49-.21.08-.51-.07-.75,0,1.18-1.79,2.79-3.98,5.23-3.72.27-1.7-.17-1.75-1.78-1.39l-5.69,4.37,4.82-5.24,3.39-1.83c-1.57-1.21-3.24.21-4.48,1.12-.56-.01-.57-.52-.75-.74,1.46-.74,2.79-2.71,4.48-2.98Z"/>
    <path class="cls-48" d="M29.14,34.37c-.21.43-.73,1.06-.74,1.12-.02.32.63.25.74.37.39.41,1.15,1.4,1.49,1.49.21,3.64-.87,6.72-.75,10.42.02.49-.08,1.05,0,1.49s.25.79.75.74c-.04.23,0,.51,0,.74,0,1.73.59,1.73.75,2.23.26.84.41,2.32.75,2.98l-.1,1.05-.65.44c-1.68-3.96-3.26-8.45-3.73-12.65-.4-3.57-.07-7.66,0-11.16h.75l.75.74Z"/>
    <path class="cls-30" d="M20.93,23.95c1.27,1.21.35,4.48.14,6.34s-.52,3.26-.52,5.2c0,1.47-1.25,1.5,1.13,2.22l-2.25,2.61c-.04-.83-.58-1.55-.56-2.45.03-1.2.87-2.51.56-4.24-.18-1.01-1.22-.9-2.24-.74-1.69.27-3.02,2.24-4.48,2.98-.06-.08-.72-.01-.7-.35.03-.46,1.33-1.81,1.44-2.63l6.72-2.61c.28-1.87-1.27-1.15-2.28-.78-1.07.39-2.62,1.31-3.69,1.9l-.75-.74c.23-.18.22-.85,1.24-1.34,2.02-.97,5.85-.36,5.48-3.13-.09-.67-.08-.65-.75-.74l1.49-1.49Z"/>
    <path class="cls-55" d="M34.37,58.93c3.49,4.52,5.52,5.21,10.45,1.49-.36.89-1.83,1.66-.75,2.23-.41.3-.85,1.85-1.99,2.17-.33.09-4.35-.62-4.97-.81-1.62-.51-3.15-3.67-4.99-4.33.09-.91-.44-1.5-.75-2.23l.65-.44.1-1.05c.29.57,1.68,2.26,2.24,2.98Z"/>
    <path class="cls-9" d="M42.58,12.04c1.2.27,3.68,3.29,4.48,4.47-.39-.45-4.28-3.94-4.48-3.72-.21.97.28,1.46.74,2.23-.42-.28-1.02-.54-1.49-.74-.07-.03-.17-.66-1.09-.77-3.85-.49-3.16,1.95-4.25,2.9-.14.12-.87-.5-1.38-.25-.95.46-4.08,5.26-4.48,6.31h-.75c.08-.22-.08-.53,0-.74l.75-.74c.14-.36-.14-1.1,0-1.49,1.08-.26,1.6-1.14,1.49-2.23.05-.12.03-.53,0-.74,3-2.69,5.97-5.47,10.45-4.47Z"/>
    <path class="cls-3" d="M30.64,22.46c-.37.98-.51,3.27-.75,4.47-.15.75-.76,3.25-.75,3.72.07,1.9,1.12,1.43,0,3.72l-.75-.74c.03-1.73-.04-3.48,0-5.21.02-1.13-.21-2.78,0-3.72.07-.32,1.32-1.75,1.49-2.23h.75Z"/>
    <path class="cls-41" d="M21.68,52.23c-1.27.06-2.49-4.22-2.24-4.45.14-.13,1.78-.22,2.24-.76-.02,1.38-.68,2.37-.7,3.37-.02.8.68,1.48.7,1.84Z"/>
    <path class="cls-30" d="M22.42,41.06c.82.81-.67,2.3-1.49,1.49s.67-2.3,1.49-1.49Z"/>
    <path class="cls-10" d="M30.64,19.48c.4-1.11,1.34-1.88,1.49-2.23.1,1.09-.41,1.97-1.49,2.23Z"/>
    <path class="cls-10" d="M29.89,21.71c.26-.68.73-.7.75-.74l-.75.74Z"/>
    <path class="cls-50" d="M47.06,16.5c.12.14-.12.59,0,.74.52.66,1.44,1.4,1.49,1.49,5.78,9.88,5.39,29.38,0,39.44-.19.36-1.19,1.82-1.49,2.23l-2.24,2.23c-.14.12-.59-.12-.75,0-1.08-.57.39-1.34.75-2.23.08-.2-.06-.5,0-.74.43-.08.53-.54.75-.74.26-.25.48-.35.75-.74.07-.1.47-.17.75-.74.47-.98,1.11-3.98,1.49-5.21.96-3.11,1.52-3.82,1.49-7.44.64.11.72-.55.76-1.09.23-3.9-.36-7.24-.76-10.81s-.48-5.9-1.49-9.67c-.69-2.58-.9-1.88-1.49-2.98-.1-.19.1-.55,0-.74-.38-.69-.72-.7-.75-.74-.11-.17.11-.57,0-.74-.88-1.36-1.2-1.36-2.24-2.23-.19-.16-.29-.44-.75-.74-.46-.78-.95-1.26-.74-2.23.2-.22,4.09,3.27,4.48,3.72Z"/>
    <path class="cls-9" d="M48.56,17.99v.74c-.05-.09-.97-.83-1.49-1.49l1.49.74Z"/>
    <path class="cls-1" d="M1.52,35.11c1.68-.68,7.96,3.49,6.7,4.44-.27.2-1.2-.14-1.46.03-1.68,1.1,1.21,1.53,1.32,1.63.43.41.06,1.19.17,1.34-.08-.08-2.16-.08-2.24,0-1.98,1.98,4.22,1.98,2.24,0,1.26,1.8,2.32,1.18,3.73.74.24-.07.54.08.75,0-.46.78-.95,1.26-.74,2.23.25.3,1.2-.84,1.49-.74.05.02-.03.89.75.74-.11.16.1.54,0,.74-.89.03-3.14,1.25-3.67.68-.31-.34-.19-1.92-1.25-2.12-.56-.1-1.38.68-2.07.56-1.37-.24-3.48-3.52-5.7-2.85-.11-1.52-.06-5.64,0-7.44Z"/>
    <path class="cls-28" d="M7.49,17.99c-.08,1.36,1.29,1.89,1.31,3.21.01,1.02-.53,2.1.18,3.48-2.01-.2-2.84-2.18-5.22-1.49v2.23c.05-.17-.85-1.17-.7-1.79.28-1.11,1.77-.93,2.16-1.25.1-.08-.75-1.26-.61-2.37.16-1.22,1.11-2.06,1.39-2.78l1.05.07.44.67Z"/>
    <path class="cls-35" d="M8.24,42.55c1.98,1.98-4.22,1.98-2.24,0,.08-.08,2.16-.08,2.24,0Z"/>
    <path class="cls-35" d="M2.27,31.39c-.41,2.99.32,1.73,1.67,2.39,1.98.97,5.19,5.51,6.18,5.79s2.13-2.08,3.35-2.97,2.91-2.32,4.48-1.12l-3.39,1.83-4.82,5.24,5.69-4.37c1.61-.36,2.04-.31,1.78,1.39-2.44-.26-4.05,1.93-5.23,3.72-1.42.43-2.47,1.06-3.73-.74-.1-.15.27-.92-.17-1.34-.11-.1-3-.53-1.32-1.63.26-.17,1.19.17,1.46-.03,1.26-.96-5.01-5.12-6.7-4.44.04-1.14.64-3.02.75-3.72Z"/>
    <path class="cls-46" d="M7.49,13.53l1.49,1.49c-3.25-.15-.53,1.49-.28,2.57.04.18-.47.38-.47.41h-.75l-.44-.67-1.05-.07c.56-1.47.62-2.04,1.49-3.72Z"/>
    <path class="cls-46" d="M41.84,6.83c-3.2.35-.86-2.7,0-1.49.15.22-.08,1.06,0,1.49Z"/>
    <path class="cls-1" d="M11.97,47.76c.77.85-2.18,3.74-2.98,2.97-1.38-1.32.59-1.25.97-1.5.53-.34.85-2.77,2.01-1.47Z"/>
    <path class="cls-1" d="M9.73,46.27c1.11,1.12-2.07,3.07-2.98,1.11-.15-.33,2.74-1.36,2.98-1.11Z"/>
    <polygon class="cls-46" points="23.92 66.37 22.43 67.86 22.43 66.37 23.92 66.37"/>
    <path class="cls-46" d="M11.22,15.02c.82.81-.67,2.3-1.49,1.49s.67-2.3,1.49-1.49Z"/>
    <path class="cls-17" d="M20.18,26.18c.37,2.77-3.46,2.16-5.48,3.13-1.02.49-1.01,1.16-1.24,1.34-.79.63-1.01,1.05-1.49,1.49-4.19,3.85-3.83,1.36-7.46-1.86.48-1.14,1.77.31,2.24.37.54,1.06,1.44,2.32,2.61,2.24,1.11.08-.94-1.51-1.12-2.24.09,0-.21-.76,1.49,0,.09.04.1.61.44.71,1.16.33,2.88-2.56,4.06-3.29,1.36-.84,4.26-1.77,5.95-1.89Z"/>
    <path class="cls-46" d="M19.44,25.43c.67.09.66.08.75.74-1.68.11-4.59,1.05-5.95,1.89-1.19.73-2.9,3.62-4.06,3.29-.34-.1-.35-.67-.44-.71,2.34-2.18,6.22-5.69,9.71-5.21Z"/>
    <path class="cls-36" d="M14.21,31.39c1.07-.59,2.63-1.51,3.69-1.9,1.01-.37,2.56-1.09,2.28.78l-6.72,2.61v-.74c.17-.1.34-.52.75-.74Z"/>
    <path class="cls-47" d="M8.24,30.64c.18.73,2.23,2.31,1.12,2.24-1.17.08-2.07-1.18-2.61-2.24.09.01.67-.06,1.49,0Z"/>
    <path class="cls-22" d="M14.21,31.39c-.41.23-.58.64-.75.74-.37.23-.85.34-1.12.73l-.37-.73c.48-.44.71-.86,1.49-1.49l.75.74Z"/>
    <path class="cls-55" d="M44.82,62.65l2.24-2.23c-.93,1.24-1.17,1.33-2.24,2.23Z"/>
    <path class="cls-43" d="M28.4,33.62h-.75c.03-1.62-.58-4.32.75-5.21-.04,1.73.03,3.48,0,5.21Z"/>
    <path class="cls-42" d="M12.72,43.3c1.4-.56,2.26-2.19,4.48-1.49l-3.73,2.97c-.29-.1-1.24,1.04-1.49.74-.21-.97.28-1.46.74-2.23Z"/>
    <path class="cls-24" d="M19.44,33.62c-1.58,1.07-2.57,1.35-2.24-.74,1.02-.16,2.06-.27,2.24.74Z"/>
    <path class="cls-60" d="M41.09,37.34c-.49.26-1.02.46-1.49.74-2.02,1.24-2.52,3.3,0,2.98.04.26-.07.55,0,.74-.47-.05-.67.33-.75.74-2.45-1.72-3.59,3.17-4.67,4.27-.4.41-2.07,1.26-2.79,1.68-.48.28-1,.49-1.49.74-.08-.44.02-1,0-1.49,2.4-.86,1.51-5.2,2.24-5.96.12-.12,1.91,1.08,2.24.75.56-1.22-.71-2.05-.74-2.23-.14-.72,2.08-2,2.24-2.98,2.23.97,1.43.24,2.24,0,1.11-.33,2.58-1.12,2.99,0Z"/>
    <path class="cls-40" d="M33.62,49.25c.22.95,2.22,1.63,2.27,1.93.4,2.46-.69,4.17-.77,5.95-.04.85.72.99.74,1.05.08.25-.1.58,0,.74h-1.49c-.56-.72-1.95-2.41-2.24-2.98-.34-.65-.49-2.13-.75-2.98l.75-2.98c.48-.25,1.06-.44,1.49-.74Z"/>
    <path class="cls-61" d="M32.88,37.34c.32.3-.76,2-.75,2.6l.75.38h.75c.04.18,1.3,1.01.74,2.23-.32.33-2.12-.87-2.24-.75-.73.76.16,5.1-2.24,5.96-.12-3.7.95-6.78.75-10.42.58.16,2.05-.18,2.24,0Z"/>
    <path class="cls-4" d="M38.85,42.55c-.06.33-.08,1.22,0,1.49-1.88.41-2.15,2.83-2.99,3.72-.09.1-1.73,1.13-2.24,1.49-.43.3-1.01.49-1.49.74s-.99.5-1.49.74c0-.24-.04-.52,0-.74.09-.46.57-1,.75-1.49.72-.43,2.39-1.28,2.79-1.68,1.08-1.1,2.22-5.99,4.67-4.27Z"/>
    <path class="cls-31" d="M30.64,35.11c.51.14,1.04.63,1.49.74.14.34.38.66.75.74v.74c-.19-.18-1.66.16-2.24,0-.35-.09-1.1-1.08-1.49-1.49l.47-.62c.33-.19.77-.01,1.02-.13Z"/>
    <path class="cls-43" d="M31.38,33.62c.16.1.5-.08.75,0v.74c-1.22.21-1.15.59-1.49.74-.26.12-.7-.06-1.02.13l-.47.62c-.11-.11-.76-.05-.74-.37,0-.07.53-.69.74-1.12,1.12-2.29.07-1.82,0-3.72,1.61.24,1.04,2.24,2.24,2.98Z"/>
    <path class="cls-61" d="M31.38,52.97c-.15-.5-.74-.5-.75-2.23.5-.24,1-.48,1.49-.74l-.75,2.98Z"/>
    <path class="cls-61" d="M30.64,49.99c-.5.04-.67-.3-.75-.74.49-.26,1.02-.46,1.49-.74-.17.49-.66,1.03-.75,1.49Z"/>
    <path class="cls-39" d="M35.86,58.93c.29.47.43.48.75.74.85.7.92.48,1.49.74.11.05.27.63.75.74.21.05.49-.02.75,0,.42.03,1.2.09,1.49,0,1.41-.45,1.99-2.47,3.73-2.23v.74c-.06.24.08.54,0,.74-4.93,3.72-6.96,3.03-10.45-1.49h1.49Z"/>
    <path class="cls-10" d="M41.84,14.27c-.68,0-1.81-.18-1.49.37,2.06,1.48,3.43,2.05,3.73,4.84h-.75l-3.73-4.46c-.35,2.11.63,3.92.74,5.95.13,2.33.13,5.11,0,7.44l-1.49.75-.75-1.49c-1.04-2.4-2.43-4.68-4.11-6.7-2.69-.09.15,2.31.56,3.2.35.75.35,1.48.57,2.01l-1.49,2.24-1.49-3.36v4.09s-2.24-2.23-2.24-2.23c.24-1.2.37-3.48.75-4.47.4-1.06,3.53-5.85,4.48-6.31.51-.24,1.24.37,1.38.25,1.09-.95.4-3.39,4.25-2.9.92.12,1.02.74,1.09.77Z"/>
    <path class="cls-27" d="M41.84,14.27c.48.2,1.07.47,1.49.74.46.3.55.58.75.74l2.24,2.23c.11.18-.11.57,0,.74l.75.74c.1.19-.1.55,0,.74l1.49,2.98c1.01,3.78,1.09,5.97,1.49,9.67l-1.49.74c.45-2.07-.31-3.5-.75-5.21-.52-2.02-1.08-3.87-1.49-5.95-.25-1.25-1.77-.64-2.99-.74.21,1.33.63,2.3.75,3.72.02.25,0,.5,0,.74l-1.49.74c-.45-.53.82-4.01-.75-4.47-.03-.27.08-.63,0-.74l.45-.6c.33-.18.8,0,1.04-.14.46-.26.55-.08.75-.74.05-.17.02-.53,0-.74-.31-2.79-1.68-3.36-3.73-4.84-.32-.56.82-.37,1.49-.37Z"/>
    <path class="cls-18" d="M29.89,26.92l2.24,2.23v-4.09s1.5,3.36,1.5,3.36l1.49-2.24c.54,1.32,2.18,3.49,2.24,3.72h-2.24c.07,1.43.86,1.32,0,2.23-.63-1-.77-4.48-2.24-2.97-.12.12.76.88-.74,2.97-.12.16-.52.18-.62.5l-.12.99c-1.2-.74-.63-2.73-2.24-2.98-.02-.47.6-2.97.75-3.72Z"/>
    <path class="cls-7" d="M47.81,28.41c.44,1.71,1.2,3.14.75,5.21l1.49-.74c.39,3.58.98,6.91.76,10.81-.03.54-.12,1.21-.76,1.09,0-.99,0-1.99,0-2.98h-.74c.46,1.13-.71,2.04-.75,2.23l-.75-1.49c.04-1.56-.22-3.39,0-4.85.16-1.1,2.13-2.71,1.5-3.34-.41-.41-2.03,1.13-3,.43s-2.87-4.88.02-4.15l.74,1.49.75-3.72Z"/>
    <path class="cls-21" d="M39.6,54.46c.36-1.39,1.07-2.43,1.3-3.48.16-.72-.28-3.31.2-3.96,1.23-1.69,1.86,2.24,2.07,2.8.19.51.88.81.92.93.47,1.57-.34,4.84,0,6.7l2.24-5.95v.74c.41,1.33-1.82,6.21,0,5.95-.26.4-.49.5-.75.74h-.75c-1.74-.24-2.33,1.79-3.73,2.23v-.74c1.58-.47-.65-1.85-.75-2.23-.32-1.21,2.23-4.25,1.49-5.95l-2.24,2.23Z"/>
    <path class="cls-2" d="M50.05,44.78c.03,3.62-.54,4.34-1.49,7.44v-2.23s-2.24,2.23-2.24,2.23v-.74c-.08-.47.11-1.09,0-1.49-.32-1.16-1.83-.5-2.23-.76-.22-.14,1.02-4.08,0-5.19,2.82-.76,2.57,2.08,4.48,2.98.13-.94-.18-2.12,0-2.98.04-.19,1.21-1.1.75-2.23h.74c.01.99,0,1.99,0,2.98Z"/>
    <path class="cls-58" d="M48.56,52.23c-.38,1.23-1.02,4.23-1.49,5.21l-.75.74c-1.82.26.41-4.63,0-5.95l2.24-2.23v2.23Z"/>
    <path class="cls-9" d="M48.56,23.2l-1.49-2.98c.6,1.1.8.4,1.49,2.98Z"/>
    <path class="cls-9" d="M46.32,17.99l-2.24-2.23c1.04.87,1.36.87,2.24,2.23Z"/>
    <path class="cls-55" d="M46.32,58.18l.75-.74c-.28.57-.68.64-.75.74Z"/>
    <path class="cls-9" d="M47.06,19.48l-.75-.74s.37.05.75.74Z"/>
    <path class="cls-55" d="M44.82,59.67v-.74h.75c-.21.21-.31.67-.75.74Z"/>
    <path class="cls-52" d="M32.13,34.37c.22-.04.52-.02.75,0,.25.02.51-.04.75,0l.75.74c.86.19,2.19-.21,2.99,0,.05.01.73.7.75.74.13.34-.09,1.03,0,1.49-.81.24-.01.97-2.24,0-.51-.22-.98-.53-1.49-.74-1.01-.43-1.02-.44-2.24-.74-.45-.11-.98-.61-1.49-.74.34-.16.28-.54,1.49-.74Z"/>
    <path class="cls-37" d="M41.84,37.34c-.09,1.49-.89,3.02-.8,4.06.07.75,1.29.26,1.54.41.52.33.04,2.17-1.48,1.48-.34-.38-1.4-1.21-1.49-1.49-.07-.19.04-.48,0-.74-.13-.93.09-2.01,0-2.98.47-.29,1.01-.48,1.49-.74h.75Z"/>
    <path class="cls-45" d="M41.09,43.3c.76.84,1.94.66,1.49,2.23-1.64,1.44-1.84.91-2.99-.74-.5-.73-.73-.69-.75-.74-.08-.27-.06-1.16,0-1.49.08-.41.28-.8.75-.74.1.28,1.15,1.11,1.49,1.49Z"/>
    <path class="cls-45" d="M38.1,35.85l.48-.58,3.25-.16c-.03.74.04,1.49,0,2.23h-.75c-.41-1.12-1.88-.33-2.99,0-.09-.45.13-1.15,0-1.49Z"/>
    <path class="cls-32" d="M34.37,36.6c.51.21.98.52,1.49.74-.16.98-2.38,2.26-2.24,2.98h-.75c.1-1.16,1.3-2.44,0-2.98v-.74c.42.1,1.02-.07,1.49,0Z"/>
    <path class="cls-45" d="M39.6,41.06c-2.52.32-2.02-1.73,0-2.98.09.96-.13,2.05,0,2.98Z"/>
    <path class="cls-5" d="M35.86,47.76c2.04.99,1.44,1.9,1.6,4l.64.47c-.34,1.52-.72,4-1.49,5.21-.12.19-.65.36-.75.74-.02-.06-.78-.2-.74-1.05.08-1.78,1.16-3.49.77-5.95-.05-.3-2.05-.98-2.27-1.93.51-.36,2.15-1.39,2.24-1.49Z"/>
    <path class="cls-55" d="M37.36,58.18c-.23.32-.87,1.36-.75,1.49-.32-.26-.46-.28-.75-.74-.1-.16.08-.5,0-.74.09-.39.63-.56.75-.74l.75.74Z"/>
    <path class="cls-60" d="M32.88,40.32l-.75-.38c-.01-.6,1.07-2.3.75-2.6,1.3.54.1,1.81,0,2.98Z"/>
    <path class="cls-33" d="M39.6,44.78c-1.53,1.51-.44,4.29-.74,6.36-.12.85-.74,1.02-.75,1.08l-.64-.47c-.16-2.09.44-3.01-1.6-4,.83-.89,1.11-3.31,2.99-3.72.02.05.24.02.75.74Z"/>
    <path class="cls-61" d="M34.37,36.6c-.48-.07-1.07.1-1.49,0-.36-.09-.61-.41-.75-.74,1.22.3,1.23.32,2.24.74Z"/>
    <path class="cls-10" d="M37.36,29.9c.19.75-.08,2.05,0,2.98.04.54,1.01,1.27,0,2.23-.8-.21-2.12.19-2.99,0-.05-.01.08-.62-.75-.74-.24-.04-.5.02-.75,0,.02-.49-.33-.61-.75-.74-.25-.08-.59.1-.75,0l.12-.99c.1-.31.51-.34.62-.5h.75c-.08.6.19.72.75.74,1.44.07,1.02-.24,1.49-.74.86-.91.07-.8,0-2.23h2.24Z"/>
    <path class="cls-18" d="M32.88,34.37c-.23-.02-.53-.04-.75,0v-.74c.41.13.76.25.75.74Z"/>
    <path class="cls-40" d="M40.34,58.18c-.4.09-.54.58-.75.74-.49.39-1.53.57-1.49,1.49-.57-.27-.64-.04-1.49-.74,2.44-1.15,2.53-2.28,2.99-4.47.05-.24-.06-.52,0-.74l2.24-2.23c.73,1.7-1.81,4.74-1.49,5.95Z"/>
    <path class="cls-25" d="M41.09,60.41l-1.05.1-.44.64c-.26-.02-.53.05-.75,0v-.74l.75-1.49c.21-.17.34-.65.75-.74.1.39,2.32,1.76.75,2.23Z"/>
    <path class="cls-55" d="M41.09,60.41v.74c-.3.09-1.07.03-1.49,0l.44-.64,1.05-.1Z"/>
    <path class="cls-55" d="M38.85,61.16c-.48-.11-.64-.69-.75-.74h.75v.74Z"/>
    <path class="cls-11" d="M38.1,27.67c.21.49.56,1.62.75,2.23l-.64.48-.11,2.49h-.75c-.08-.93.19-2.23,0-2.98-.06-.23-1.7-2.41-2.24-3.72-.22-.53-.22-1.26-.57-2.01-.41-.89-3.25-3.29-.56-3.2,1.68,2.02,3.07,4.29,4.11,6.7Z"/>
    <path class="cls-44" d="M41.84,21.71c.08.12-.03.48,0,.74.26,2.35-.19,5.04,0,7.45h-1.49c.07-.47-.03-1,0-1.49.13-2.34.13-5.11,0-7.44.35.28,1.35.53,1.49.74Z"/>
    <path class="cls-6" d="M43.33,19.48c-.55.27-.58.51,0,.74v.74c-.24.13-.71-.04-1.04.14l-.45.6c-.15-.21-1.14-.46-1.49-.74-.11-2.03-1.09-3.85-.74-5.95l3.73,4.46Z"/>
    <path class="cls-18" d="M38.1,27.67l.75,1.49,1.49-.75c-.03.49.07,1.02,0,1.49-.04.26.06.54,0,.74-.03.09-1.12.21-.75,1.49,2.37-.54,4.06,3.22,3.74,0,1.08,3.18,2.21,6.13,1.49,9.68-.11.56-1.59,3.15-2.24,3.72.45-1.57-.74-1.39-1.49-2.23,1.52.69,2.01-1.16,1.48-1.48-.25-.15-1.47.33-1.54-.41-.09-1.04.71-2.57.8-4.06.04-.74-.03-1.49,0-2.23l-3.25.16-.48.58s-.7-.73-.75-.74c1.01-.96.04-1.7,0-2.23h2.24c-.55-1.06-.4-1.84-.75-2.98-.19-.61-.53-1.74-.75-2.23Z"/>
    <path class="cls-29" d="M47.81,28.41l-.75,3.72-.74-1.49c-2.89-.73-1,3.44-.02,4.15s2.59-.83,3-.43c.63.63-1.34,2.23-1.5,3.34-.21,1.46.05,3.29,0,4.85,0,.12-.63,1.18,0,2.23-1.03-.92-3.44-1.2-2.98-2.98.72-3.54-.42-6.49-1.49-9.68-.08-.23.08-.53,0-.74-1.07-2.85.57-.73.79-1.92.15-.84,0-2.3-.04-3.29,0-.25.02-.5,0-.74,1.15-.75.63-2.72,2.24-2.98.41,2.08.98,3.93,1.49,5.95Z"/>
    <path class="cls-10" d="M41.84,22.46c1.57.45.3,3.94.75,4.47l1.49-.74c.04.99.19,2.45.04,3.29-.22,1.19-1.85-.93-.79,1.92l-2.99-.74c.06-.2-.04-.49,0-.74h1.49c-.19-2.4.26-5.09,0-7.44Z"/>
    <path class="cls-10" d="M46.32,22.46c-1.61.25-1.09,2.23-2.24,2.98-.12-1.42-.54-2.39-.75-3.72,1.22.1,2.74-.51,2.99.74Z"/>
    <path class="cls-8" d="M44.08,19.48c.02.21.05.57,0,.74h-.75c-.58-.23-.55-.48,0-.74h.75Z"/>
    <path class="cls-10" d="M43.33,20.97v-.74h.75c-.2.66-.29.49-.75.74Z"/>
    <path class="cls-26" d="M32.13,32.13c1.5-2.1.63-2.85.74-2.97,1.48-1.51,1.61,1.97,2.24,2.97-.47.51-.06.82-1.49.74l-.75-.74h-.75Z"/>
    <path class="cls-23" d="M44.82,41.81c-.45,1.78,1.95,2.05,2.98,2.98-.63-1.06,0-2.11,0-2.23l.75,1.49c-.18.85.13,2.04,0,2.98-1.9-.89-1.65-3.74-4.48-2.98,1.03,1.11-.22,5.05,0,5.19.41.26,1.92-.4,2.23.76l-2.24.74c-.04-.12-.73-.42-.92-.93-.21-.56-.83-4.48-2.07-2.8-.47.65-.04,3.24-.2,3.96-.23,1.06-.94,2.1-1.3,3.48-.06.23.05.5,0,.74-.9.35-.7,1.54-1.15,2.22-.38.58-1.01.64-1.09.75l-.75-.74c.77-1.21,1.15-3.69,1.49-5.21.01-.06.63-.23.75-1.08.3-2.08-.79-4.85.74-6.36,1.15,1.65,1.35,2.19,2.99.74.65-.57,2.13-3.16,2.24-3.72Z"/>
    <path class="cls-12" d="M46.32,49.99c.11.4-.08,1.02,0,1.49l-2.24,5.95c-.34-1.86.47-5.13,0-6.7l2.24-.74Z"/>
    <path class="cls-18" d="M34.37,35.11l-.75-.74c.83.12.7.73.75.74Z"/>
    <path class="cls-21" d="M36.61,59.67c-.12-.13.51-1.16.75-1.49.08-.11.71-.17,1.09-.75.45-.68.25-1.87,1.15-2.22-.45,2.19-.55,3.32-2.99,4.47Z"/>
    <path class="cls-18" d="M33.62,32.88c-.55-.03-.82-.15-.75-.74l.75.74Z"/>
    <path class="cls-21" d="M38.85,60.41h-.75c-.04-.92,1-1.1,1.49-1.49l-.75,1.49Z"/>
    <path class="cls-54" d="M38.85,29.9c.35,1.14.2,1.92.75,2.97h-1.5s.11-2.49.11-2.49l.64-.48Z"/>
    <path class="cls-38" d="M43.33,31.39c.08.21-.08.52,0,.74.33,3.22-1.36-.55-3.74,0-.37-1.27.72-1.4.75-1.49l2.99.74Z"/>
  </g>
</svg>