<?xml version="1.0" encoding="UTF-8"?>
<svg id="Layer_1" data-name="Layer 1" xmlns="http://www.w3.org/2000/svg" viewBox="0 0 116.86 82.84">
  <defs>
    <style>
      .cls-1 {
        fill: #fff;
      }
    </style>
  </defs>
  <path class="cls-1" d="M113.05,58.56c.03.42,2.09,1.95-.37,1.86-1.46-3.76-7.47-4.98-7.91-8.52-.86-6.96.62-15.84.17-23.02l7.74-6.45c2.46-.12.36,1.52.36,1.86,0,11.05-.73,23.42,0,34.28Z"/>
  <g>
    <path d="M116.82,0l.04,82.78-116.82.06L0,.06l116.82-.06ZM24.01,3.78H3.8v13.79c0,.09-1.48,2.05.37,1.85.34-.04,3.66-4.59,4.62-5.08L24.01,3.78ZM77.9,3.78h-38.17c5.23,4.56-.48,11.8-.07,14.44.06.41,3.54,1.31,3.84,6.78.56,9.87-5.45,14.34-15.01,13.06l-.73,7.84-19.47,5.58v-13.42H3.8v20.12h31.81c.22,0,3.3-1.83,3.75-2.23,3.96-3.45,3.92-15.39,5.09-21.02,1.53-7.36,4.26-17.61,10.62-22.22s15.99-3.59,19.22,3.96c.54,1.26,2.11,7.29,2.11,8.34v26.46h37.42v-20.12h-35.18c.94-9.28.69-18.36-.75-27.58ZM113.82,3.78h-33.68c.34,3.82,1.37,8.57,1.49,12.3.08,2.52-1.05,11.94,0,12.72l30.98.25,1.22-1.05V3.78ZM10.16,18.68c6.66-.44,14.18,0,20.96,0,.23,0,4.32-.56,4.52-.68,3.43-2.04,5.69-8.95,2.24-12.01C30.96-.12,13.19,12.86,8.3,18.32c-.09,2.45,1.45.39,1.86.36ZM70.41,27.62c.25-6.25-5.05-11.85-11.44-10.41-.37.08-4.75,4.7-5.01,5.58-.96,3.25,4.38-2.08,5.13-2.24,1.36-.31,4.09.76,5.31,1.52,2.4,1.49,3.28,4.93,6.01,5.56ZM3.8,29.12h31.81c.23,0,3.68-1.55,4.1-1.87,2.93-2.25,1.28-5.98-1.95-6.86l-33.97,1.28v7.46ZM58.65,26.36c-6.14,5.19-6.99,29.52,2.41,33.06,9.6-3.29,8.66-26.54,3.38-32.18-1.57-1.67-3.85-2.52-5.79-.88ZM3.8,35.83h31.06c2.6,0,6.5-4.59,5.61-7.45-.14-.19-3.25,2.24-4.11,2.24H3.8v5.22ZM26.25,38.06h-15.72v10.43l15.61-4.58.1-5.86ZM48.7,49.24c-1.63-1.49-2.31,2.97-2.21,4.01.51,5.63,5.31,16.76,11.95,17.6l-9.74-21.61ZM113.82,53.71h-39.29c-.18,0-.59-.79-1.11-.76-5.22,19.2-30.67,31.68-39.68,7.46H3.8v19.37s110.02-.74,110.02-.74v-25.34ZM44.96,54.46c-1.81-.23-1.19,0-1.57,1.03-2.4,6.41,1.83,16.04,9.06,16.85-2.58-5.9-6.81-11.3-7.49-17.88ZM46.46,71.59c-3.38-3.52-5.46-7.86-6.36-12.66l-3.08,3.01c.57,1.94,7.26,11.35,9.44,9.65ZM68.17,59.68c-4.44,1.91-7.4,3.98-11.61,0,.48,9.42,8.01,5.88,11.61,0Z"/>
    <path d="M59.37,37.49c7.75-3.71,7.79,12.7,3.04,13.89-5.76,1.45-5.59-10.77-3.04-13.89ZM62.17,49.24c.94-.92,2.31-10.05-1.48-9.68-.8,2.75-1.36,6.06-.2,8.76.45,1.06.19,1.13,1.68.92Z"/>
    <path d="M23.04,10.62c5.52-1.65,4.84,5.77,1.94,6.47-4.07.99-5.69-5.35-1.94-6.47Z"/>
  </g>
</svg>