<?xml version="1.0" encoding="UTF-8"?>
<svg id="Layer_1" data-name="Layer 1" xmlns="http://www.w3.org/2000/svg" viewBox="0 0 98.55 63.44">
  <defs>
    <style>
      .cls-1 {
        fill: #a78cad;
      }

      .cls-2 {
        fill: #a98bab;
      }

      .cls-3 {
        fill: #d5bada;
      }

      .cls-4 {
        fill: #675269;
      }

      .cls-5 {
        fill: #58435b;
      }

      .cls-6 {
        fill: #664f62;
      }

      .cls-7 {
        fill: #d4b7d5;
      }

      .cls-8 {
        fill: #e9d1e6;
      }

      .cls-9 {
        fill: #a489aa;
      }

      .cls-10 {
        fill: #f0ddec;
      }

      .cls-11 {
        fill: #b39ab6;
      }

      .cls-12 {
        fill: #312632;
      }

      .cls-13 {
        fill: #ecd9ea;
      }

      .cls-14 {
        fill: #aa8cae;
      }

      .cls-15 {
        fill: #bda2c1;
      }

      .cls-16 {
        fill: #eed9ea;
      }

      .cls-17 {
        fill: #533654;
      }

      .cls-18 {
        fill: #8a6a8c;
      }

      .cls-19 {
        fill: #947f96;
      }

      .cls-20 {
        fill: #d4bbd7;
      }

      .cls-21 {
        fill: #e5cce3;
      }

      .cls-22 {
        fill: #ead5e8;
      }

      .cls-23 {
        fill: #dec0dc;
      }

      .cls-24 {
        fill: #88718e;
      }

      .cls-25 {
        fill: #856d89;
      }

      .cls-26 {
        fill: #6b546d;
      }

      .cls-27 {
        fill: #f3e6f2;
      }

      .cls-28 {
        fill: #68516c;
      }

      .cls-29 {
        fill: #907c94;
      }

      .cls-30 {
        fill: #7c6484;
      }

      .cls-31 {
        fill: #a88da9;
      }

      .cls-32 {
        fill: #f7eef5;
      }

      .cls-33 {
        fill: #896e8f;
      }

      .cls-34 {
        fill: #543c54;
      }

      .cls-35 {
        fill: #907b8f;
      }

      .cls-36 {
        fill: #947e95;
      }

      .cls-37 {
        fill: #997e9d;
      }

      .cls-38 {
        fill: #4c3b4d;
      }

      .cls-39 {
        fill: #553c56;
      }

      .cls-40 {
        fill: #bba2be;
      }

      .cls-41 {
        fill: #b69bbc;
      }

      .cls-42 {
        fill: #564759;
      }

      .cls-43 {
        fill: #ab90ae;
      }

      .cls-44 {
        fill: #b99fbb;
      }

      .cls-45 {
        fill: #a78fac;
      }

      .cls-46 {
        fill: #77607f;
      }

      .cls-47 {
        fill: #b39bb7;
      }

      .cls-48 {
        fill: #b79fbb;
      }

      .cls-49 {
        fill: #b79ab9;
      }

      .cls-50 {
        fill: #f2e1ee;
      }

      .cls-51 {
        fill: #947b9a;
      }

      .cls-52 {
        fill: #a48aa5;
      }

      .cls-53 {
        fill: #b196b3;
      }

      .cls-54 {
        fill: #f7ebf4;
      }

      .cls-55 {
        fill: #786380;
      }

      .cls-56 {
        fill: #c5aec9;
      }

      .cls-57 {
        fill: #b295b6;
      }

      .cls-58 {
        fill: #947c9c;
      }

      .cls-59 {
        fill: #7a637c;
      }

      .cls-60 {
        fill: #897a89;
      }

      .cls-61 {
        fill: #5e495f;
      }

      .cls-62 {
        fill: #a98fad;
      }

      .cls-63 {
        fill: #aa94ab;
      }

      .cls-64 {
        fill: #9d84a4;
      }

      .cls-65 {
        fill: #c3a9c6;
      }

      .cls-66 {
        fill: #ae9ab3;
      }

      .cls-67 {
        fill: #ae92af;
      }

      .cls-68 {
        fill: #debfdc;
      }

      .cls-69 {
        fill: #7d6982;
      }

      .cls-70 {
        fill: #b8a2bd;
      }

      .cls-71 {
        fill: #b49db5;
      }

      .cls-72 {
        fill: #b69bbb;
      }

      .cls-73 {
        fill: #31242e;
      }

      .cls-74 {
        fill: #b899ba;
      }

      .cls-75 {
        fill: #a487a5;
      }

      .cls-76 {
        fill: #8d7f8e;
      }

      .cls-77 {
        fill: #b495ba;
      }

      .cls-78 {
        fill: #7e647f;
      }

      .cls-79 {
        fill: #a68ea6;
      }

      .cls-80 {
        fill: #846a8f;
      }

      .cls-81 {
        fill: #212121;
      }

      .cls-82 {
        fill: #a58da9;
      }

      .cls-83 {
        fill: #bca2bf;
      }

      .cls-84 {
        fill: #a88eab;
      }

      .cls-85 {
        fill: #b69eb7;
      }

      .cls-86 {
        fill: #b298b8;
      }

      .cls-87 {
        fill: #55415a;
      }

      .cls-88 {
        fill: #907899;
      }

      .cls-89 {
        fill: #7e6683;
      }

      .cls-90 {
        fill: #ede5ec;
      }

      .cls-91 {
        fill: #ac93ac;
      }

      .cls-92 {
        fill: #6a536b;
      }

      .cls-93 {
        fill: #cab0cc;
      }

      .cls-94 {
        fill: #161616;
      }

      .cls-95 {
        fill: #2d2330;
      }

      .cls-96 {
        fill: #d0b4d7;
      }
    </style>
  </defs>
  <path class="cls-73" d="M94.5.12c2.34,4.83,1.34,9.54,1.5,14.88-.12-2.06-.82-12.18-1.84-12.44-13.45,1.07-27.04.24-40.54.22-1.16,0-3.63-.2-1.87,1.8-.15-.02-1.99,1.33-3,.74-.17-.15.17-1.32,0-1.49-1.44-1.41-16.26-.7-19.5-.74-8.75-.13-17.49-.02-26.25,0h-.75l1.49-1.48L0,.86C31.08-.84,63.08.58,94.5.12Z"/>
  <path class="cls-12" d="M96,60.39c.09,2.52-2.25,3.31,1.5,2.98H0c.8,0,9.72-.52,8.25-1.48H3c.76-1.21,2.55-.73,3.75-.75,28.46-.49,57.13,1.04,85.5,0,1.32-.05,2.59.04,3.75-.74Z"/>
  <path class="cls-81" d="M94.5.12h2.99c.37,7.58,2.2,60.94.01,63.25-3.75.34-1.41-.45-1.5-2.98-.52-14.89.84-30.92,0-45.39-.16-5.34.84-10.05-1.5-14.88Z"/>
  <path class="cls-94" d="M0,.86l3.74.76-1.49,1.48c-.16,19.46-1.02,39.36.75,58.78h5.25c1.47.97-7.45,1.49-8.25,1.49V.86Z"/>
  <path class="cls-5" d="M53.25,6.07l1.5,1.49c.18.48-.1,1.55,0,2.23l-2.25,4.46c-.23,0-1.44.73-3,.74-1.68-3.75-2.84-4.38-3.75,0-.48-.07-1.01.06-1.5,0,.29-3.74.44-5.93,2.25-8.93,3.44-.26-.82,2.21,2.25,4.46.7.52,1.26,1.08,2.25.74.61-.2,2.72-3.07,2.25-3.71-1.49.16-3.46-1.35-4.5-2.24,1.01.59,2.85-.76,3-.74,1,.12,1.07,1.05,1.5,1.49Z"/>
  <path class="cls-90" d="M29.25,3.09c.42,1.79,1.67,4.55,0,5.95.12-.22.03-1.7,0-2.23-.03-.49.12-2.14,0-2.23-.44-.35-9.51.03-11.25,0-.5,0-1,0-1.5,0-1.17-.02-2.54,0-3.75,0-.5,0-1,.02-1.5,0-1.25-.05-2.5.05-3.75,0-.25-.01-.5.01-.75,0-.08,0-.43-1.1-1.49-.74.21,1.13-.31,5.58,0,5.95-1.95-2.02.75-5.57-2.25-6.7,8.76-.02,17.5-.13,26.25,0Z"/>
  <path class="cls-29" d="M48.75,5.33c1.03.89,3.01,2.4,4.5,2.24.48.64-1.64,3.51-2.25,3.71l-2.63-2.97.38,2.23c-3.07-2.26,1.19-4.73-2.25-4.46.58-.96,1.17-1.79,2.25-2.23.17.17-.17,1.34,0,1.49Z"/>
  <path class="cls-32" d="M73.5,44.76c.25.73-.04,3.03,0,4.46.05,1.63-.79,3.94,0,5.96,2.68.58.89-2.04,1.57-2.89.47-.58,13.72-1.37,10.42,2.88,5.97.6.6-1.47,1.51-2.97l6,.74c-.06.25.08.54,0,.74-4.31-.2-2.82.39-3,2.23-.02.22-.8.94-.75,1.49-1.44,0-3.27,1.12-4.89,1.15s-6.62-3.56-7.11,1.08h15.75c.03.29-.63,1.06-.75,1.49-28.37,1.04-57.04-.49-85.5,0-.54-.48-2.02-.91-2.25-1.49h2.25c4.99,0,10.01,0,15,0-3.03-4.88-10.25-.22-15-1.48v-.74c.87-.33,2.06-.11,2.25-1.48-.72-.11-1.58.12-2.25,0,4-1.67,8.83.23,13.13-.76,1.15-.27,1.3.52,1.12-1.48h-10.88c-.75,0-1.97.97-3.37-.01,4.78-2.02,12.94-1.93,18.38-.76l.74-1.46c-.39-.33-.73-.97-1.17-1.14-2.19-.87-16.37,1.3-20.22.4-.04-.74,0-1.49,0-2.23h.75c.22.23.32.73.75.74,1.73.49,3.84-.77,5.25-.74,5.77.11,11.38.08,17.25,0-.06.47.09,1.04,0,1.49-.22,1.03-1.17,1.47.75,2.23,2.29,2.89-4.34.09.46,3.53,9.81-.74,19.69-.38,29.54-.55.5,0,1,0,1.5,0,1.75-.03,3.51.06,5.25,0,.5-.02,1,.03,1.5,0,.99-.07,2.01.06,3,0,.25-.63-.77-1.4-.75-1.48.12-.47.78-1.25.75-1.49-.16-1.41-.12-1.53-1.5-2.23.28-.38.56-1.03.75-1.49,1.23-2.92-1.03-1.35-1.5-2.25-.9-1.7,4.64-1.35,5.25-1.47ZM26.25,55.17c-.52-2.68-5.7-1.25-3.75,0,.16.1,3.59.1,3.75,0ZM84,53.7c-1.59.42-5.86-1.28-5.24,1.48,1.59-.42,5.86,1.28,5.24-1.48ZM25.5,59.64c1.01-.79-1.94-3.23-2.99-2.22-1.52,1.46,1.61,3.31,2.99,2.22ZM66,58.17l-36.42-.65-2.58,2.12,39-1.47ZM70.5,58.17c-.09-.12-2.82-.94-2.99-.75-2.41,2.59,4.85,3.18,2.99.75ZM75,57.42c-1.05-1.01-4,1.43-2.99,2.22,1.38,1.09,4.51-.77,2.99-2.22Z"/>
  <path class="cls-54" d="M39,25.42c1.24-.01,2.47.02,3.75,0,3.11-.04,6.72.04,9.75,0,1.25-.01,2.5,0,3.75,0,2.9-.01,6.58-.01,9.75,0,.25,0,.5,0,.75,0,1.23,0,2.54-.02,3.75,0,.75.01,1.5,0,2.25,0,.97.01,2.1-.03,3,0,.5.01,1-.01,1.5,0,.25,0,.5,0,.75,0,3.18.12,8.53,2.09,12,0,.31.19.66.1,1.5.74.07.05.46,1.04.75,1.49-.16.28-.7.56-.75.74-5.53.21-10.96-.05-16.5,0-.18,0-2.79-1.92-1.51,1.11.31.73.91.3,1.51.38,4.86.65,11.46.02,16.5,0,.5,0,1,0,1.5,0l-3.01,1.12c0,.58,1.75.18,3.01,1.12-3.37-.43-7.25.44-10.45.35-.72-.02-9.82-1.94-9.78.02.01.58,1.44,1.41,2.27,1.49,5.07.52,12.53-1.16,17.96-.38-2.27,2.23-8.78-1.13-8.25,2.23-1.03-.04-15.16-1.07-12,1.48h20.25c.09.34.02,1.06,0,1.49-1.63.31-3.31,0-4.88,0h-10.88c-.57,2.37,4.52,2.11,6.75,2.23v1.49c-1.75-.04-3.5,0-5.25,0-1,0-2,0-3,0-.25,0-.5,0-.75,0-.87,0-1.88.74-2.25.74-2.52,0-3.78-.75-5.25-.74-.25,0-.5,0-.75,0v-2.23c1.21-.01,2.51,0,3.75,0,1.04,4.22,1.83,1.48,3,.74,4.28-2.7,1.57-3.4-.75-.74-.38-.09-1.02,0-1.5,0l-40.5-1.5c-.07-.45.98-1.48,1.12-1.48h25.13c.12-1.83.2-1.28-1.11-1.48-2.44-.39-28.06-1.02-28.16.38-.08,1.21,1.87,2.18,1.52,2.58-.32.36-2.92-.98-2.25,1.49,4.14-.7,8.96.63,12.75.75l-1.12,1.49h4.49l-1.12-1.49c2.59.07,6.13-.04,9,0v1.49c-6.38.07-13.06.75-19.5.74-1.32,0-2.07-.07-3.75,0-.85.04-2.03-.77-2.25-.74-.02-.11.24-.39,0-1.49-.06-.25.08-.55,0-.74-.38-1.01-1.76-1.92-2.25-2.98,4.4-.51,2.93-1.23-.75-1.49-1.08-.08-13.26-.54-12,1.48l2.99,1.49H4.5c-.06-.46,0-.99,0-1.48h5.25s-5.25-1.49-5.25-1.49c0-.35.75-1.11.75-1.49h20.24c-.08-.64.2-1.86-.03-2.18-.68-.97-17.94.75-20.96-.05.06-.78-.02-2.12,0-2.23,1.46,1.63,3.36,0,3.75,0,3.5.07,9.36,1.43,12.56-.22.33-.17.13-1.24.19-1.27,2.43-1.28,2.09-1.57,4.5-.74-1.04-1-4.01,1.43-3,2.23,1.39,1.09,4.51-.78,3-2.23,1.19.41-.72.68,2.25.74-.04,1.48.7,1.86,2.04,2.01,8.8.18,17.65-.38,26.46-.53,1.02-.02,1.97.03,3,0,3.59-.12,10.47,1.92,12-1.48-4.3.38-9.01-.7-13.21-.79-1.2-.03-1.69.79-1.79.79-9.43-.1-19.1.2-28.5,0,0-.12.65-2.17.75-2.23.68-.47,8.98-.73,10.5-.74ZM66,33.59c-.31-1.41-1.5-1.36-2.65-1.51-6.5-.83-27.03-1.13-33.33-.37-.87.1-2.66-.32-2.28,1.51s34.78-.04,38.26.37ZM70.5,33.6c1.01-.79-1.94-3.23-2.99-2.22-1.52,1.46,1.61,3.31,2.99,2.22ZM71.25,35.84c-.14-.13-3.61-.89-3.74-.75-2.74,2.81,6.08,2.98,3.74.75ZM66,35.84l-8.25.36c1.8,1.7,7.02,1.99,8.25-.36Z"/>
  <path class="cls-57" d="M69.75,20.95c1.49,2.17-3.1,3.23,1.51,2.98l-.76,1.48c-1.21-.02-2.52,0-3.75,0,2.66-4.53-4.78-4.51-.75,0-3.17-.01-6.85-.01-9.75,0,2.24-3.59-4.76-5.05-3.75,0-3.03.04-6.64-.04-9.75,0-.47-2.24,1.11-1.38,3-1.49,2.32-1.6-3.86-1.75-5.25-1.48v-1.49c1,0,2,0,3,0l1.12.74.38-.74c8.18-.02,16.54.01,24.75,0ZM63,22.44l-4.49,1.47c2.08-.25,5.14,1.06,4.49-1.47Z"/>
  <path class="cls-36" d="M11.25,4.58c.91,1.73,1.76,2.26,1.5,0,1.21,0,2.58-.02,3.75,0-.07.47.1,1.06,0,1.49-.32.13-.68.4-.75.74-.06.29-.08,1.29,0,1.49.15.38.47.51.75.74,4.18,3.47-.03-2.95,1.5-4.46,1.74.02,10.82-.35,11.25,0,.11.09-.03,1.74,0,2.23-1.68-2.37-2.99,2.01-3.75.74-.23-.39.23-2.01,0-2.23-1.4-1.33-5.86,5.24-6,6.7.37,1.55.71,0,.75,0,.84-.21,1.55-.55,2.25-.74-.54,1.84,1.3,1.3,1.5,1.49.13.13-.09,1.07,0,1.49-4.12.17-7.93-.02-12,0,.03-.76.28-1.27-.75-1.49.93-1.68,1.56-3.44-.75-2.98.22-.15,1.61-2.15,1.5-2.22h-4.5c-.07-.25.08-.56,0-.75-.12-.29-.5-.53-.75-.74-.07-.22.05-.51,0-.74l.75-.74c1.25.05,2.5-.05,3.75,0ZM12.75,9.79c-.16.72-.29,2.03.75,2.23,2.75.53.26-6.68-.75-2.23Z"/>
  <path class="cls-86" d="M40.5,20.95v1.49c-2.38.45-2.37.75-1.5,2.98-1.52.01-9.82.28-10.5.74l-.75-.74c.11-.06.34-2.02,1.5-1.86l-2.62-1.13-1.13,2.99h-3c2.72-3.07.82-1.93,0-4.46,6.03-.06,11.99.01,18,0Z"/>
  <path class="cls-63" d="M81.75,5.33l.37,4.45c1.31-1.78,2.29-1.22,4.13-.72l-2.99,3.71c.59.53,3.51-1.33,4.5-1.48-.62,1.79-1.59,3.46.75,2.98-3.22,1.83-6.07-2.35-2.97,2.61.82,2.24-9.99,2.03-10.53,1.86,1.5-.71,2.41-1.63.75-2.98-1.35-1.1-2.71-.38-3.75-1.49,2.16.2,4.66-.27,6.75,0-1.38,1.77.7,3.08,2.25,2.23-.19.27-.84,1.43-.76,1.48,1.22.04,2.41.24,3.39-.72,1.99-1.96-1.53-1.29-1.89-1.5-.26-.15-.55-1.44-.75-1.49,4.55-.79.11-2.01,0-2.23-.54-1.12-1.29-4.96-1.89-5.2-1.91-.78-.56,2.5-1.81,3.39-1.34.96-6.89,1-5.3-1.91,3.47,2.14,1.61-1.64,4.49-2.98-3.23,6.19,1.61,6.78.75,0,1.45-.46,2.99-.37,4.5,0Z"/>
  <path class="cls-70" d="M4.5,50.72c3.85.91,18.02-1.26,20.22-.4.44.17.77.81,1.17,1.14l-.74,1.46c-5.45-1.17-13.61-1.26-18.38.76,1.4.99,2.62.01,3.37.01h10.88c.18,1.99.04,1.21-1.12,1.48-4.3.99-9.13-.91-13.13.76-.67-.13-1.53.09-2.25,0,.79-1.98.09-3.5,0-5.2Z"/>
  <path class="cls-83" d="M22.5,35.83c0,.5,0,.99,0,1.49-1.92.12-8.06-1.13-7.5,1.48h7.5c.02-.49,0-.99,0-1.48.25-.02.5.03.75,0,.49,1.06,1.87,1.97,2.25,2.98-.75,0-1.5,0-2.25,0-6.21.01-12.52.65-18.75.74-.08-.73.09-1.51,0-2.23h8.99s-2.99-1.5-2.99-1.5c-1.26-2.02,10.92-1.55,12-1.48Z"/>
  <path class="cls-44" d="M75,49.23c.09.08-.38,1.78,1.09,1.58l16.91-.83c.09,1.28.4,1.26,0,2.98l-6-.74c-.91,1.49,4.46,3.56-1.51,2.97,3.3-4.25-9.95-3.47-10.42-2.88-.68.85,1.11,3.47-1.57,2.89-.79-2.02.05-4.32,0-5.96.42.09,1.34-.14,1.5,0Z"/>
  <path class="cls-43" d="M75.75,42.53c3.23,3.41-.58,1.34-.75,4.46,1.41.8,4.06-.75,4.5-.74,3.99.09,8.44,1.78,12,0,.77,1.2.9-1.37,1.5,2.98-5.21-.72-10.14.03-15.38-.76-.99-.15-1.64-1.73-2.62.76-.16-.14-1.08.09-1.5,0-.04-1.43.25-3.73,0-4.46,1.61-.31,1.77-.08,1.5-2.23.25,0,.5,0,.75,0Z"/>
  <path class="cls-7" d="M78.75,20.95c-.58,2.86,4.74.99,6.75,1.48l-.75-1.48c.75.03,1.5-.03,2.25,0l4.49,2.24-3.74.74c-.57,2.52,1.55,1.06,2.25,1.48-3.47,2.09-8.82.12-12,0h6c.76-2.64-6.28-1.99-6.75,0-.5-.01-1,.01-1.5,0-.79-2.54-1.7-3.32,1.5-2.98.52-2.06-.97-1.13-2.25-2.23,1.59,0,3.08.74,3.75.74Z"/>
  <path class="cls-20" d="M22.5,20.95c.82,2.54,2.72,1.39,0,4.46h3v.75c-2.72.45-9.53-.04-12.75,0,8.26-2.08-3.11-4.27-1.5,0-1.5,0-3,0-4.5,0,.16-.92,1.57-.67,2.25-.75.77-2.01-1.46-1.38-1.5-1.49-.66-1.59,9.85-1.96,10.5-.72-3.44,4.4,2.18,2.58,1.5-2.25,1-.01,2,0,3,0Z"/>
  <path class="cls-82" d="M19.5,20.95c.68,4.82-4.94,6.65-1.5,2.25-.65-1.24-11.16-.87-10.5.72.04.11,2.27-.53,1.5,1.49-.68.08-2.09-.16-2.25.75h-.75c-.03-.07-1.37.28-1.52-.5-.21-1.07.7-3.93.03-5.45,4.86.77,10.12.79,14.99.74Z"/>
  <path class="cls-66" d="M4.5,32.11c3.03.8,20.29-.92,20.96.05.23.32-.06,1.55.03,2.18H5.25c0-.42-.81-1.45-.75-2.23Z"/>
  <path class="cls-43" d="M84,42.53c1.68.04,8.68-.31,9,0,1.98,1.98-1.37,2.81-1.5,2.97-3.84-.83-8.44-1.36-12,0-1.54-.62-1.8-1.7-.75-2.98,1.75,0,3.5-.04,5.25,0Z"/>
  <path class="cls-22" d="M88.5,5.33c-2.95-.54-1.2,3.19.75,1.49.32.32.44,1.17.75,1.49-1.22.59-1.84,1.78-2.25,2.98-.99.16-3.9,2.01-4.5,1.48l2.99-3.71c-1.84-.51-2.82-1.06-4.13.72l-.37-4.45c.45.11,1.13-.13,1.5,0,.26.1,1.02,4.55,3-.74,1.31.04,1.24-.03,2.25.74Z"/>
  <path class="cls-4" d="M19.5,12.02c.14-1.46,4.6-8.03,6-6.7.23.22-.23,1.84,0,2.23.76,1.27,2.07-3.11,3.75-.74.03.53.12,2.01,0,2.23-1.02,1.92-5.04.76-5.56.94-.92.32-1.1,1.27-1.19,1.3-.7.19-1.41.53-2.25.74h-.75Z"/>
  <path class="cls-67" d="M93,32.11c1.12.83.35.32,0,1.49-5.43-.78-12.89.89-17.96.38-.83-.08-2.26-.91-2.27-1.49-.04-1.96,9.06-.04,9.78-.02,3.2.08,7.08-.79,10.45-.35Z"/>
  <path class="cls-16" d="M23.25,45.51c-4.06,2.53-4.87.2-9.75,1.49-.6.16-1.55-.13-2.25,0,.04.38-.09,1.42,0,1.48-1.41-.03-3.52,1.23-5.25.74,4.31.13,2.2-2,2.25-2.23.55-2.39.56-.92,2.25-2.23,1.75.22,9.03.93,10.09.78.84-.12.27-1.44.41-1.53.49-.27,1-.49,1.5-.74l.75,2.23Z"/>
  <path class="cls-85" d="M93,38.81c-.02.4,1.52,1.37-.49,2.16-2.84-.68-5.72.23-8.51.08-2.23-.13-7.32.14-6.75-2.23h10.88c1.57,0,3.25.31,4.88,0Z"/>
  <path class="cls-74" d="M84.75,35.83c2.74.12,5.52-.09,8.26,0,.09.47-.11,1.09,0,1.49h-20.25c-3.16-2.56,10.97-1.53,12-1.49Z"/>
  <path class="cls-31" d="M89.25,57.41c1.05,0,2.52.86,3.74.77.1.48-.03.98.01,1.46h-15.75c.49-4.64,5.54-1.05,7.11-1.08s3.45-1.16,4.89-1.15Z"/>
  <path class="cls-32" d="M93,49.23c.03.24-.02.5,0,.74l-16.91.83c-1.48.2-1-1.5-1.09-1.58.98-2.49,1.63-.92,2.62-.76,5.24.8,10.17.05,15.38.76Z"/>
  <path class="cls-91" d="M91.5,26.16c-.84-.64-1.19-.56-1.5-.74-.69-.42-2.81,1.03-2.25-1.48l3.74-.74-4.49-2.24c1.29.06,5.57-1.09,6.4,0-.16,1.61,1.25,5.25-1.9,5.21Z"/>
  <path class="cls-21" d="M91.5,45.51s-.04.68,0,.74c-3.56,1.78-8.01.09-12,0v-.74c3.56-1.36,8.16-.83,12,0Z"/>
  <path class="cls-59" d="M81,12.02c.11.22,4.55,1.44,0,2.23-.62-.15-1.54.09-2.25,0-2.09-.27-4.59.2-6.75,0-.7-1.33,4.75-2.76,5.04-2.8,1.39-.15,2.46,1.78,3.96.56Z"/>
  <path class="cls-62" d="M21,44.02c-.14.08.43,1.41-.41,1.53-1.06.15-8.33-.56-10.09-.78.27-.21.45-1.12.75-1.49,3.34-.01,7.19-1.71,9.75.74Z"/>
  <path class="cls-57" d="M75,20.21c1.28,1.1,2.77.17,2.25,2.23-3.2-.34-2.29.44-1.5,2.98-.9-.03-2.03.01-3,0,1.64-3.04-.21-2.2-.75-4.46.88,0,2.12-.74,3-.74Z"/>
  <path class="cls-56" d="M5.25,42.53c-.08.14-.08,2.86,0,2.98l2.99-1.86-2.25-1.11c1.79-.2,3.5.75,5.25.74-.3.37-.48,1.28-.75,1.49-1.69,1.31-1.7-.16-2.25,2.23h-3.75c0-1.15-.06-3.7.75-4.46Z"/>
  <path class="cls-79" d="M90,8.3c2.5,2.57,3.36-.41,3.74,0,1.74,1.86-2.42,2.62-3.74,3.72-.61-.31-1.62-.84-2.25-.74.41-1.19,1.03-2.39,2.25-2.98Z"/>
  <path class="cls-2" d="M84.75,20.95l.75,1.48c-2.01-.49-7.33,1.38-6.75-1.48,2.05,0,3.9-.09,6,0Z"/>
  <path class="cls-23" d="M72,20.95c.54,2.26,2.39,1.42.75,4.46-.75,0-1.5.01-2.25,0l.76-1.48c-4.61.25-.02-.81-1.51-2.98.75,0,1.5,0,2.25,0Z"/>
  <path class="cls-38" d="M6.75,4.58v.74c.05.24-.07.52,0,.74.1.33.45.59.75.74.08.2-.07.5,0,.74.21.81.81,1.29,0,2.23-.47-.13-2.11.17-2.25,0-.31-.37.22-4.82,0-5.95,1.07-.36,1.41.74,1.49.74Z"/>
  <path class="cls-69" d="M7.5,7.56h4.5c.11.08-1.28,2.08-1.5,2.23-2.07,1.42-1.48.42-3,0,.81-.95.21-1.42,0-2.23Z"/>
  <path class="cls-25" d="M6,27.65c.49.14,1.08.68,1.5.74l.75,1.49c-.39,0-2.29,1.63-3.75,0,.57-3.61,1.22-1.75,1.5-2.23Z"/>
  <path class="cls-14" d="M4.5,35.83l5.25,1.48h-5.25c0-.49,0-.98,0-1.48Z"/>
  <path class="cls-28" d="M25.5,12.77c1.99.45,5.18-.95,5.26,1.11-1.52,1.7-3.68.27-5.26.38v-1.49Z"/>
  <path class="cls-51" d="M49.5,15c-1.18,0-2.66.15-3.75,0,.91-4.38,2.07-3.75,3.75,0Z"/>
  <path class="cls-39" d="M77.25,5.33c.86,6.78-3.98,6.19-.75,0,.19-.09.51.08.75,0Z"/>
  <path class="cls-34" d="M90,12.02c-.2.17.09,1.33-1.5,2.23-2.34.48-1.37-1.19-.75-2.98.63-.1,1.64.43,2.25.74Z"/>
  <path class="cls-30" d="M25.5,42.53c.07.47-.03,1,0,1.49-.76.47-1.49,1.01-2.25,1.49l-.75-2.23c1.54-.78,1.44-.57,3-.74Z"/>
  <path class="cls-24" d="M8.25,46.99c-.05.23,2.06,2.36-2.25,2.23-.43-.01-.53-.51-.75-.74-.24-.26-.5-.5-.75-.74,0-.25,0-.5,0-.74h3.75Z"/>
  <path class="cls-44" d="M93,53.69c-.67,1.78-.09,1.82-3,2.23.18-1.84-1.31-2.43,3-2.23Z"/>
  <path class="cls-6" d="M86.25,4.58c-1.98,5.3-2.74.84-3,.74.92-.55,1.93-.77,3-.74Z"/>
  <path class="cls-5" d="M55.5,12.77c.24-.01.64-.06.75,0l-.75,2.23c-1.06-.14-2.13-.74-2.25-.74.37-1.11,1.14-1.44,2.25-1.49Z"/>
  <path class="cls-26" d="M75.75,15.74c1.66,1.35.75,2.26-.75,2.98-1.71-.52-.49-2.81.75-2.98Z"/>
  <path class="cls-42" d="M55.5,12.77c-1.11.05-1.88.38-2.25,1.49-.25,0-.5,0-.75,0l2.25-4.46c.15,1.04.08,2.07.75,2.98Z"/>
  <path class="cls-76" d="M6,57.41c.22-.09.53.08.75,0v2.23h-2.25c-.19-.47.12-1.57,0-2.23.46-.09,1.16.13,1.5,0Z"/>
  <path class="cls-89" d="M6,42.53l2.25,1.11-2.99,1.86c-.09-.12-.09-2.84,0-2.98.05-.08.49.05.75,0Z"/>
  <path class="cls-69" d="M12,14.25c-.75,0-3.28,1.84-3.75,0,2.69.7,2.1-1.41,2.25-1.49.12-.06.6-.03.75,0,1.03.22.78.72.75,1.49Z"/>
  <path class="cls-95" d="M10.5,12.77c-.15.07.44,2.19-2.25,1.49.11-1.78.85-2.75,2.25-1.49Z"/>
  <path class="cls-87" d="M25.5,12.77v1.49c-.84.06-1.14-.01-1.5,0-.09-.41.13-1.36,0-1.49.96-1.02,1.26-.05,1.5,0Z"/>
  <path class="cls-60" d="M88.5,5.33c.69.53.61,1.34.75,1.49-1.95,1.7-3.7-2.03-.75-1.49Z"/>
  <path class="cls-35" d="M93,29.88c-.5,0-1,0-1.5,0,.08-.47-.11-1.09,0-1.49.05-.19.59-.46.75-.74.39.61,1.19,1.12,1.48,1.87l-.73.36Z"/>
  <path class="cls-54" d="M9,28.39c-.46.03-1.05.06-1.5,0-.42-.06-1.01-.61-1.5-.74.06-.1.08-1.32,0-1.49h.75c-.13.78,1.8,1.56,2.25,2.23Z"/>
  <path class="cls-15" d="M25.5,40.3c.08.2-.06.49,0,.74l-2.25-.74c.75,0,1.5,0,2.25,0Z"/>
  <path class="cls-42" d="M56.25,12.77c1.17.64.12,2.89-.02,2.98-.41.28-.68-.74-.73-.75l.75-2.23Z"/>
  <path class="cls-96" d="M45,20.95l-.38.74-1.12-.74c.5,0,1,0,1.5,0Z"/>
  <path class="cls-32" d="M6,57.41c-.34.13-1.04-.09-1.5,0l1.12-.74.38.74Z"/>
  <path class="cls-56" d="M5.25,48.48h-.75c0-.25,0-.5,0-.74.25.25.51.49.75.74Z"/>
  <path class="cls-29" d="M54.75,7.56l-1.5-1.49c.45.46,1.11.42,1.5,1.49Z"/>
  <path class="cls-13" d="M48.75,10.53l-.38-2.23,2.63,2.97c-.99.33-1.55-.23-2.25-.74Z"/>
  <path class="cls-61" d="M18,4.58c-1.53,1.51,2.68,7.94-1.5,4.46l-.75-.74c-.08-.2-.06-1.19,0-1.49.31-.14.67-.41.75-.74.1-.42-.07-1.02,0-1.49.5,0,1,0,1.5,0Z"/>
  <path class="cls-69" d="M12.75,4.58c.26,2.26-.59,1.73-1.5,0,.5.02,1,0,1.5,0Z"/>
  <path class="cls-69" d="M6.75,5.33v-.74c.25.01.5-.01.75,0l-.75.74Z"/>
  <path class="cls-10" d="M65.25,42.53c.5,0,1,0,1.5,0,.25,0,.5,0,.75,0-.47,8.04-.74,3.73-3.42,3.7-1.43-.01-9.66-.11-9.32,2.25h15c-.19.47-.47,1.12-.75,1.49-.42.56-5.48,1.86,1.5,2.23.03.23-.63,1.02-.75,1.49-1.77-.03-2.6-.5-2.25,1.49-.5.03-1-.02-1.5,0-.92-2.2-6.14-2.37-5.25,0-.5,0-1,0-1.5,0,1.31-2.28.84-1.12-.75-1.17-6.56-.23-13.16.39-19.68.22-.92-.02-3.91-.13-2.07-2.03,4.74-.13,9.54.06,14.25,0s9.58.36,14.25-.38c-.06-1.62-5.25-1.48-6.5-1.56-2.13-.13-5.69.47-7.75.45-5.58-.07-11.31.49-16.85-.7-1.93.95-.35,1.96-.4,2.19-.75.02-1.51-.06-2.25,0l.75-1.48-3.75-.75c.09-.44-.06-1.01,0-1.49.25,0,.5,0,.75,0,7.94-.12,16.02.6,24,0,.48-1.97-2.12-2.19-3.38-2.07-4.13.42-11.01.54-16.87-.16l-1.5-.74c.01-.24-.05-.52,0-.74,8.95.69,18,.34,26.98.41,2.27.02,1.58.78,1.52-1.89.25,0,.5,0,.75,0,.24,3.61,3.16,1.58,5.25,1.48l-2.25-2.22c.5,0,1,0,1.5,0Z"/>
  <polygon class="cls-48" points="66 58.17 27 59.64 29.58 57.51 66 58.17"/>
  <path class="cls-93" d="M30.75,52.2c.15,2.41,2.24,3.14,3,0,1-.03,2,.03,3,0-1.84,1.89,1.15,2,2.07,2.03,6.52.16,13.12-.45,19.68-.22,1.59.06,2.05-1.11.75,1.17-9.84.17-19.73-.19-29.54.55-4.8-3.44,1.83-.64-.46-3.53.49-.05,1.03.07,1.5,0Z"/>
  <path class="cls-77" d="M72.75,43.27c.25.52.56.93.75,1.49-.61.12-6.15-.23-5.25,1.47.47.9,2.73-.67,1.5,2.25h-15c-.34-2.36,7.89-2.26,9.32-2.25,2.69.03,2.95,4.33,3.42-3.7,1.47,0,2.73.75,5.25.74Z"/>
  <path class="cls-47" d="M25.5,44.02c.2,3.06-.95,3.26,3,2.98-.08.32.55,1.09.75,1.49-.25,0-.5,0-.75,0-5.87.08-11.48.11-17.25,0,.86.62,3.01.02,2.25-1.49,4.88-1.29,5.69,1.04,9.75-1.49.76-.48,1.49-1.02,2.25-1.49Z"/>
  <path class="cls-48" d="M6.75,58.16c4.75,1.26,11.97-3.4,15,1.48-4.99.02-10.01,0-15,0v-1.49Z"/>
  <path class="cls-53" d="M84,53.7c.62,2.76-3.65,1.06-5.24,1.48-.62-2.76,3.65-1.06,5.24-1.48Z"/>
  <path class="cls-40" d="M66,55.18c-1.74.06-3.5-.03-5.25,0-.89-2.37,4.33-2.2,5.25,0Z"/>
  <path class="cls-64" d="M28.5,49.97l3.75.75-.75,1.48c-.25.02-.51-.04-.75,0-.47.07-1.01-.05-1.5,0-1.92-.77-.97-1.2-.75-2.23Z"/>
  <path class="cls-77" d="M69,49.97c1.38.7,1.34.82,1.5,2.23-6.98-.38-1.92-1.68-1.5-2.23Z"/>
  <path class="cls-48" d="M25.5,59.64c-1.38,1.09-4.51-.77-2.99-2.22,1.05-1.01,4,1.43,2.99,2.22Z"/>
  <path class="cls-75" d="M75,57.42c1.52,1.46-1.61,3.31-2.99,2.22-1.01-.79,1.94-3.23,2.99-2.22Z"/>
  <path class="cls-49" d="M70.5,58.17c1.86,2.43-5.4,1.84-2.99-.75.17-.18,2.9.63,2.99.75Z"/>
  <path class="cls-70" d="M26.25,55.17c-.15.11-3.59.1-3.75,0-1.96-1.25,3.23-2.68,3.75,0Z"/>
  <path class="cls-65" d="M69.75,53.69c-.02.08,1,.85.75,1.48-.99.06-2.01-.06-3,0-.35-1.99.48-1.52,2.25-1.49Z"/>
  <path class="cls-15" d="M39.75,41.04c-3.79-.12-8.6-1.45-12.75-.75-.68-2.47,1.93-1.13,2.25-1.49.35-.4-1.6-1.37-1.52-2.58.09-1.4,25.71-.78,28.16-.38,1.31.21,1.23-.34,1.11,1.48h-25.13c-.14,0-1.19,1.03-1.12,1.48l40.5,1.5c-.25,0-.5,0-.75,0-1.24,0-2.54-.01-3.75,0-.37,0-1.12.74-1.5.74-3.1.07-6.6,0-9.75,0-1.47,0-3.05.02-4.5,0-2.87-.04-6.41.07-9,0-.75-.02-1.5.02-2.25,0Z"/>
  <path class="cls-11" d="M66,33.59c-3.47-.41-37.87,1.49-38.26-.37s1.41-1.4,2.28-1.51c6.31-.76,26.84-.46,33.33.37,1.14.15,2.34.1,2.65,1.51Z"/>
  <path class="cls-45" d="M56.25,28.39c-.07.03.05,1.07,0,1.49-8.81.15-17.66.71-26.46.53-1.34-.15-2.08-.53-2.04-2.01,9.4.2,19.07-.1,28.5,0Z"/>
  <path class="cls-9" d="M51,42.53c.75,0,1.5,0,2.25,0,1.13-.01,5.2.75,6.75.74.06,2.67.75,1.91-1.52,1.89-8.98-.06-18.03.28-26.98-.41.1-.44-.07-1.02,0-1.49,6.44,0,13.12-.68,19.5-.74Z"/>
  <path class="cls-19" d="M91.5,28.39c-.11.4.08,1.02,0,1.49-5.04.02-11.64.65-16.5,0v-1.49c5.54-.05,10.97.21,16.5,0Z"/>
  <path class="cls-37" d="M12.75,27.65l7.5.74h.75c-.06.03.14,1.1-.19,1.27-3.2,1.65-9.06.29-12.56.22l-.75-1.49c.45.06,1.04.03,1.5,0,.5-.03,1.01.04,1.5,0,.2-.02.57-.74.75-.74.5-.02,1,.03,1.5,0Z"/>
  <path class="cls-1" d="M56.25,28.39c.1,0,.59-.81,1.79-.79,4.19.09,8.91,1.17,13.21.79-1.53,3.4-8.41,1.36-12,1.48.73-1.77-1.67-1.97-3-1.49Z"/>
  <path class="cls-96" d="M40.5,22.44c1.4-.26,7.57-.11,5.25,1.48-1.9.11-3.48-.75-3,1.49-1.28.02-2.51-.01-3.75,0-.87-2.23-.88-2.53,1.5-2.98Z"/>
  <path class="cls-8" d="M78.75,42.53c-1.05,1.27-.79,2.36.75,2.98v.74c-.44,0-3.09,1.53-4.5.74.16-3.12,3.98-1.05.75-4.46,1,0,2,0,3,0Z"/>
  <path class="cls-27" d="M27.75,43.27c-.21,2.05.85,1.37,2.25,1.49.47,1.3-1.39,1.77-1.5,2.23-3.95.29-2.8.08-3-2.98-.03-.48.07-1.02,0-1.49.22-.02,1.4.78,2.25.74Z"/>
  <path class="cls-3" d="M56.25,25.42c-1.25,0-2.5-.01-3.75,0-1.01-5.05,5.99-3.59,3.75,0Z"/>
  <path class="cls-15" d="M66,35.84c-1.23,2.35-6.44,2.06-8.25.36l8.25-.36Z"/>
  <path class="cls-52" d="M77.25,25.42c.46-1.99,7.51-2.64,6.75,0h-6c-.25,0-.5.01-.75,0Z"/>
  <path class="cls-80" d="M31.5,43.27c-.07.47.1,1.05,0,1.49-.49-.04-1.01.04-1.5,0-1.4-.11-2.46.56-2.25-1.49,1.68-.07,2.43,0,3.75,0Z"/>
  <path class="cls-72" d="M71.25,35.84c2.33,2.23-6.48,2.06-3.74-.75.13-.14,3.61.62,3.74.75Z"/>
  <path class="cls-71" d="M70.5,33.6c-1.38,1.09-4.51-.77-2.99-2.22,1.05-1.01,4,1.43,2.99,2.22Z"/>
  <path class="cls-46" d="M25.5,27.65c1.51,1.45-1.61,3.32-3,2.23-1.02-.8,1.95-3.23,3-2.23Z"/>
  <path class="cls-21" d="M66,25.42c-4.03-4.51,3.41-4.53.75,0-.25,0-.5,0-.75,0Z"/>
  <path class="cls-88" d="M56.25,28.39c1.33-.48,3.73-.28,3,1.49-1.03.03-1.98-.02-3,0,.05-.41-.07-1.46,0-1.49Z"/>
  <path class="cls-84" d="M72.75,40.3c2.32-2.65,5.03-1.95.75.74-.25-.18-.54-.69-.75-.74Z"/>
  <path class="cls-33" d="M22.5,35.83c3.68.26,5.15.98.75,1.49-.25.03-.5-.02-.75,0,0-.5,0-.99,0-1.49Z"/>
  <path class="cls-18" d="M75,42.53c.27,2.15.11,1.92-1.5,2.23-.19-.56-.5-.97-.75-1.49.37,0,1.38-.75,2.25-.74Z"/>
  <path class="cls-78" d="M75,28.39v1.49c-.59-.08-1.2.35-1.51-.38-1.29-3.03,1.33-1.11,1.51-1.11Z"/>
  <path class="cls-68" d="M63,22.44c.65,2.53-2.41,1.22-4.49,1.47l4.49-1.47Z"/>
  <path class="cls-92" d="M12.75,9.79c2.2-.29,1.72.59.75,2.23-1.04-.2-.91-1.52-.75-2.23Z"/>
  <path class="cls-69" d="M13.5,12.02c.97-1.64,1.45-2.52-.75-2.23,1.01-4.44,3.5,2.76.75,2.23Z"/>
  <path class="cls-69" d="M7.5,6.81c-.3-.16-.65-.42-.75-.74.25.21.63.46.75.74Z"/>
  <path class="cls-69" d="M16.5,9.05c-.28-.23-.6-.37-.75-.74l.75.74Z"/>
  <path class="cls-69" d="M15.75,6.81c.07-.34.43-.61.75-.74-.08.33-.44.61-.75.74Z"/>
  <path class="cls-54" d="M25.5,25.42l1.13-2.99,2.62,1.13c-1.15-.16-1.39,1.8-1.5,1.86-.15.08-2.05.71-2.25.74v-.74Z"/>
  <path class="cls-17" d="M81.75,15.74c.36.21,3.88-.46,1.89,1.5-.98.97-2.18.77-3.39.72-.08-.05.57-1.22.76-1.48.2-.28.51-.49.75-.74Z"/>
  <path class="cls-50" d="M81,14.25c.2.05.49,1.33.75,1.49-.24.25-.55.46-.75.74-1.55.85-3.63-.47-2.25-2.23.71.09,1.63-.15,2.25,0Z"/>
  <path class="cls-54" d="M22.5,37.32c0,.5.03.99,0,1.49h-7.5c-.56-2.62,5.57-1.37,7.5-1.49Z"/>
  <path class="cls-82" d="M11.25,26.16c-1.61-4.27,9.76-2.08,1.5,0-.5,0-1,0-1.5,0Z"/>
  <path class="cls-55" d="M13.5,46.99c.76,1.51-1.39,2.11-2.25,1.49-.09-.07.04-1.1,0-1.48.7-.13,1.65.15,2.25,0Z"/>
  <path class="cls-58" d="M31.5,44.76c-.05.23.01.5,0,.74,0,.05-.94.15-.75.73.74.08,1.52-.08,2.25.01,5.86.7,12.74.58,16.87.16,1.26-.13,3.86.1,3.38,2.07-7.97.61-16.06-.12-24,0-.2-.39-.83-1.17-.75-1.49.11-.46,1.97-.93,1.5-2.23.49.04,1.01-.04,1.5,0Z"/>
  <path class="cls-64" d="M51,50.72v1.49c-4.71.06-9.51-.13-14.25,0-1,.03-2-.03-3,0,.05-.23-1.53-1.24.4-2.19,5.53,1.19,11.27.64,16.85.7Z"/>
  <path class="cls-41" d="M51,50.72c2.06.02,5.62-.58,7.75-.45,1.26.08,6.45-.06,6.5,1.56-4.68.74-9.53.32-14.25.38v-1.49Z"/>
  <path class="cls-54" d="M65.25,41.04v1.49c-.5,0-1,0-1.5,0-1.25,0-2.53.74-3,.74-.25,0-.5,0-.75,0-1.55,0-5.62-.76-6.75-.74,1.45.24,2.45.18,2.25-1.49,3.15,0,6.65.07,9.75,0Z"/>
  <path class="cls-9" d="M63.75,42.53l2.25,2.22c-2.09.1-5.01,2.13-5.25-1.48.47,0,1.75-.74,3-.74Z"/>
  <path class="cls-32" d="M33.75,52.2c-.76,3.14-2.85,2.41-3,0,.24-.04.5.02.75,0,.74-.06,1.5.02,2.25,0Z"/>
  <path class="cls-27" d="M33,46.25c-.73-.09-1.51.07-2.25-.01-.19-.59.75-.68.75-.73l1.5.74Z"/>
  <path class="cls-54" d="M20.25,28.39l-7.5-.74c2.17-.14,5.67-.52,7.5.74Z"/>
  <path class="cls-54" d="M10.5,28.39l.75-.74c-.18,0-.55.73-.75.74Z"/>
</svg>