<?xml version="1.0" encoding="UTF-8"?>
<svg id="Layer_1" data-name="Layer 1" xmlns="http://www.w3.org/2000/svg" viewBox="0 0 116.89 82.94">
  <path d="M116.84,0l.05,82.87L.05,82.94,0,.07l116.84-.07ZM82.42,52.3c.29.34,1.15.58,1.4,1.19,1.8,4.4,1.46,12.1-1.83,15.89l-8.54,10.49,40.41-.74V4.23L3.09,3.11v22.73c0,.13.76.88,1.09.94,7.38-.72,15.93-.75,23.29.12,1.43.17.78,1.59,2.14,1.61l38.06-1.7c3.04-.88,8.51-11.78,11.4-13.99,1.25-.96,3.16-.65,3.76-1.47,1.25-1.7-.8-5.73,3.77-5.97,8.94-.48,20.17,14.05,16.08,22.76l-15.02,21.58c-.39.29-4.6-3.16-5.26-3.74-1.73-1.5-12.19-12.3-13.09-12.3-.56,0-6.74,6.8-7.84,7.86-.27.26-4.34,2.32-1.88,2.57,4.56.46,9.89.62,13.79,3.4.67.48.94,1.8,1.56,2.18,1.49.9,5.14.07,6.96,1.12.9.52.41,1.36.52,1.49-2.09-2.41-9.54-1.25-9.35,2.99-.54.02-.59-3.82-4.54-4.43-6.11,1.3-14.92-.75-20.57.28-4.07.74-5.22,5.92-2.65,7.94,1.39,1.09,24.37,1.12,26.15,0,1.25-.8.54-2.99,1.98-3.04-.33,5.04,8.51,4.92,9.61.94.27-.98-.11-4.08-.62-4.67ZM85.57,15.63c.33.56,10.92,5.97,11.57,6.02,6.57.55-4.18-13.28-9.7-11.71-1.99.56-2.78,4.14-1.87,5.69ZM24.04,29.95c-.31-.29-2.45.78-3.38.78-4.26.04-8.34-.11-12.71.03-1.27.04-3.06-.87-3.68-.73-2.63.6-1.1,10.71,2.34,11.73,3.98,1.17,11.64-5.04,14.45-7.7.64-.6,3.78-3.34,2.98-4.11ZM16.56,43.36h37.79c1.34-3.49,9-8.95,10.1-11.56.75-1.79-5.46-1.19-6.39-1.14-2.11.1-3.99.76-5.92.81-5.37.14-18.16-1.06-22.32.13-.91.26-10.81,8.28-12.12,9.54-.74.71-1.41.97-1.14,2.22ZM16.55,46.34c-1.72-.44-2.77,1.27-4.17,1.49s-3.54-.71-4.1-.4c-2.72,1.49,1.03,6.59-5.19,4.13-.52,8.13,1.12,2.71,4.85,2.58,2.9-.1,6.11,2.45,8.28,2.6,1.72.12,4.12-1.07,6.02-1.38,3.41-.55,7.46,1.55,5.14-3.79-2.06-4.75-9.18.15-10.08-.76-.16-.16-.21-3.6-.76-4.47ZM37.32,50.97c-5.71.55-5.54,7.45-1.52,8.63,9.44,2.75,9.23-9.37,1.52-8.63ZM12.82,59.77c-7.15-2.16-9.13,1.42-8.22,8.19,2,.41,1.29-.51,1.86-1.47,1.08-1.82,1.54-3.42,3.32-4.92,1.22-1.03,2.92-.57,3.05-1.8ZM22.92,72.43c2.75.85,17.46,0,21.7,0,.71,0,2.92-3.6-.92-4.27-2.68-.46-21.04-.59-21.83.61-.53.8.03,3.35,1.05,3.66ZM49.12,67.96c-1.86.63-2.5,4.47-.75,4.47h11.97c1.49,0,1.49-4.47,0-4.47h-11.23ZM64.83,67.96c-1.8.73-1.23,4.47,0,4.47h11.23c2.03,0,2.03-4.47,0-4.47h-11.23ZM6.82,73.92c-1.35-1.14-1.66,1.57-2.29,2.54-.24.37-2.73.59-1.1,2.72,1.12,1.47,6.71.4,8.65.7-1.06-1.49-2.77-2.39-4.17-3.7-.78-.73-.99-2.17-1.08-2.25ZM59.03,75.62c-3.59-1.5-24.48,1.28-30.87.54-1.76-.2-6.63-2.67-7.1-2.24-.1.09-.02,1.66-.71,2.63-1.14,1.62-3.39,1.21-3.04,3.33h44.89c.52-.65-2.93-4.16-3.17-4.26Z"/>
</svg>