<?xml version="1.0" encoding="UTF-8"?>
<svg id="Layer_1" data-name="Layer 1" xmlns="http://www.w3.org/2000/svg" viewBox="0 0 116.79 82.73">
  <path d="M116.79,0v82.73H0V0h116.79ZM67.36,3.72H2.99v40.25c1.58-.66,2.4-2.45,3.3-3.79,4.79-7.07,10.54-21.86,15.51-27.04,1.77-1.84,3.52-1.84,5.08-3.14,1.08-.9,1.72-3.08,3.05-3.67.94-.42,7.64-1.05,9.32-1.16,5.7-.35,11.53.33,17.24.02l10.86-1.48ZM101.05,14.9c5.33-2.48,20.28-5.36,6.01-8.6-8.49-1.93-14.68-.62-22.86-.35-7.64.25-15.2.52-22.82.76.13,1.21,3.18,1.38,4.12,1.48,10.85,1.12,21.88,1.39,32.76,2.41,2.49.54,3.03,1.86,2.79,4.3ZM97.88,46.79c1.48-1.43.71-10.27.92-12.87.35-4.35,3.93-20.13-1.9-21.23-8.88,1.13-63.31-7.5-66.96-3.74-1.14,1.17.11,1.31,1.13,1.46,21.7,3.17,44.39,3.57,66.24,5.98v2.23c-23.51-1.26-47.02-4.22-70.56-5.82-5.52,1.17-12.65,21.23-17.01,25.59-.24,1.66.25.87,1.12,1.09,2.17.53,13.21,1.96,14.81,1.52.61-.17,6.81-8.49,8.01-9.69-4.26.14-8.86,2.23-13.1,2.26-1.81.01-1.35-2.05-1.13-2.26,1.15-1.13,27.96-4.14,31.77-5.93,1.09.66,1.8,1.73.43,2.59-1.44.9-9.69,1.28-12.19,2.03-3.15.95-8.75,8.82-11.04,11.73,11.11.37,22.04,3.02,33.15,3l8.01-9.7-11.59,2.24.36-2.62,30.34-6.23,1.1,2.87c-.59.57-13.29,1.33-16.13,2.95-.64.37-9.92,10.79-9.32,11.21l26.61,3.02c1.06.01,6.45-1.25,6.91-1.69ZM113.01,17.89v-5.22s-7.47,3.36-7.47,3.36l7.47,1.86ZM113.02,19.37l-10.48-1.49c-.87,9.38,2.04,18.35,2.99,27.58,2.31.34,1.29-2.26,3.04-4.05,1.1-1.13,4.36-1.92,4.48-2.38,1.21-4.42-.99-14.54-.04-19.66ZM113.02,54.78c-.21-3.66,0-7.49,0-11.18,0-.23,1.04-1.05.75-1.86-4.68-.04-6.25,6.59-7.15,10.39-.46,1.94.56,5.88-1.83,5.25-.46-6.51-1.19-13.26-2.33-19.67-.14-.8-.26-2.78-1.41-2.68.54,3.36-.51,6.94-.61,10.06-.07,2.12,1.95,5.14-.54,7.07l-1.11-2.98c-20.75,5.49-41.67,12.21-59.48,24.62l-1.06-2.15c9.47-5.93,19.16-11.6,29.67-15.57,5.01-1.89,10.42-3.04,15.35-4.84.79-.29,2.22-.26,2.04-1.3L8.63,41.7c-.94.16-5.26,5.4-5.46,6.51-.86,4.74.31,10.57-.22,15.46,10.46,2.1,18.7,2.32,27.04,9.72,2.16,1.92.51,3.7,5.19,1.89,1.45,3.14-.85,2.22-2.24,4.47,1.15-.22,4.61.41,5.16-.08.37-.32.59-4.85,3.6-5.73s11.81-.11,15.59-.12c2.26,0,9.34-.97,11.08.02,2.88,1.64,1.71,6.3,3.87,5.93.87-.15,11.28-9.45,13.6-11.07,8.58-5.96,17.5-9.77,27.93-11.32.42-1.03-.72-2.15-.75-2.61ZM77.09,79.75c1.93-.14,4.12.46,5.97-.38,2.49-1.14,7.84-6.62,11.49-8.69,5.58-3.16,12.01-5.18,18.01-7.41,2.08-1.26,1.6-3.83-1.06-3.34-10.71,1.96-25.5,10.01-33.15,17.72-.65.65-1.64.63-1.26,2.1ZM86.82,79.75h13.85c.16,0,1.54-1.69,2.37-2.11,1.92-.99,9.36-3.97,10.04-4.91,1.05-1.46,1.23-6.82-.45-7.14-.92-.17-15.39,6.22-17.32,7.33-2.94,1.68-6.47,4.16-8.48,6.83ZM32.18,79.74c-5.98-8.29-13-11.23-22.95-12.54-.98-.13-6.23-1.31-6.22.25,0,1.4,14.19,1.72,16.11,3.32,2.96,1.68,5.97,2.7,7.49,5.98s-1.2,3.42,5.58,2.98ZM24.7,79.75c-.96-7.16-12.4-8.72-18.37-8.97-6.55-.28-.4,5.1-1.83,8.98h2.24c-1.04-7.23,3.24-7.6,2.25,0h2.99c-.73-7.63,2.97-7.75,2.25,0,2.99.95.36-5.98,2.62-5.94,1.76.03.88,5.71,1.12,5.95.27.27,5.56-.2,6.74,0ZM68.86,79.75c0-1.66-.93-3.41-2.61-3.73-3.28-.62-18.85-.48-22.5-.04-2.32.28-3.16,1.45-3.32,3.77h28.44ZM113.76,76.03c-.41-.44-7.89,2.07-8.23,3.72h8.24s0-3.72,0-3.72Z"/>
  <path d="M105.91,79.63c-.36,0-.7-.19-.88-.53-.26-.49-.08-1.09.41-1.35,1.91-1.02,3.92-1.81,5.87-2.57.69-.27,1.39-.54,2.08-.83.51-.21,1.1.04,1.3.55.21.51-.04,1.09-.55,1.3-.7.29-1.4.56-2.11.84-1.89.74-3.85,1.51-5.66,2.47-.15.08-.31.12-.47.12Z"/>
  <path d="M115.64,45.35c-.45,0-.87-.31-.97-.77-.11-.48-.06-.95-.02-1.32.07-.59.04-.68-.08-.8-.4-.38-.41-1.01-.03-1.41.38-.4,1.02-.41,1.41-.03.87.83.75,1.82.68,2.47-.03.25-.06.49-.02.64.12.54-.21,1.08-.75,1.2-.08.02-.15.03-.23.03Z"/>
  <path d="M40.79,74.04c-.31,0-.62-.15-.82-.42-.32-.45-.21-1.08.24-1.39,9.65-6.82,20.3-12.27,31.66-16.22,1.65-.57,3.35-1.04,5-1.5,3.63-1.01,7.06-1.96,10.15-3.93.47-.3,1.08-.16,1.38.3.3.47.16,1.08-.3,1.38-3.34,2.13-7.08,3.17-10.7,4.17-1.62.45-3.29.91-4.88,1.46-11.18,3.88-21.67,9.25-31.16,15.96-.18.12-.38.18-.58.18Z"/>
  <path d="M29.19,12.55c-.06,0-.11,0-.17-.01-.54-.09-.91-.61-.82-1.15.55-3.25,2.53-4.8,5.91-4.6.28.02.56.04.84.07,1.04.1,1.94.18,2.72-.27.48-.28,1.09-.11,1.37.37.28.48.11,1.09-.37,1.37-1.33.77-2.7.64-3.91.52-.26-.02-.51-.05-.76-.06-2.34-.14-3.45.72-3.82,2.94-.08.49-.51.83-.98.83Z"/>
  <path d="M101.79,17.77c-.3,0-.6-.13-.79-.39-.48-.62-.74-1.32-.99-2.01-.55-1.48-.87-2.12-2.31-2.1-2.75.07-5.49-.19-8.14-.43-.69-.06-1.38-.13-2.08-.18-2.22-.19-4.44-.35-6.66-.53-6.3-.48-12.81-.98-19.2-1.83-.55-.07-.93-.58-.86-1.12.07-.55.58-.93,1.12-.86,6.33.84,12.82,1.34,19.09,1.82,2.23.17,4.45.34,6.68.53.7.06,1.4.12,2.09.19,2.6.24,5.29.47,7.91.42,2.95-.07,3.68,1.94,4.23,3.4.21.57.41,1.11.7,1.48.34.44.26,1.06-.18,1.4-.18.14-.4.21-.61.21Z"/>
  <path d="M105.91,16.28c-.4,0-.78-.24-.93-.64-.2-.51.05-1.09.57-1.29,2.75-1.07,5.59-2.05,8.68-3.01.53-.16,1.09.13,1.25.66.16.53-.13,1.09-.66,1.25-3.04.94-5.83,1.9-8.54,2.96-.12.05-.24.07-.36.07Z"/>
  <path d="M75.97,82.24h-.02c-.55,0-.99-.47-.98-1.02.03-1.9,1.2-3.18,2.21-4.08,9.44-8.38,18.01-13.6,26.99-16.43.65-.21,1.31-.44,1.98-.67,2.79-.98,5.94-2.1,9.32-1.4.54.11.89.64.78,1.18-.11.54-.64.88-1.18.78-2.83-.59-5.58.38-8.25,1.33-.69.24-1.37.48-2.04.7-8.7,2.74-17.04,7.83-26.26,16.02-1.08.96-1.52,1.72-1.54,2.62-.01.55-.46.98-1,.98Z"/>
  <path d="M2.99,47.21c-.46,0-.88-.32-.98-.79-.12-.54.23-1.07.77-1.19,2.61-.56,3.85-2.79,5.04-4.94.19-.33.37-.66.55-.98,1.83-3.14,3.59-6.41,5.29-9.56,2.62-4.85,5.32-9.87,8.36-14.6,2.47-3.84,6.3-5.08,10.51-3.4.51.2.76.78.56,1.3-.2.51-.79.76-1.3.56-3.34-1.32-6.14-.42-8.09,2.63-3,4.67-5.69,9.65-8.29,14.47-1.71,3.17-3.48,6.45-5.33,9.62-.18.31-.36.63-.54.95-1.28,2.3-2.88,5.17-6.37,5.92-.07.02-.14.02-.21.02Z"/>
  <path d="M96.93,19.26s-.02,0-.04,0c-5.3-.19-10.64-.73-15.81-1.25-4.75-.48-9.66-.97-14.51-1.19-1.74-.08-3.57-.29-5.34-.49-.99-.11-1.98-.22-2.96-.31-2.3-.21-4.59-.46-6.89-.71-5.19-.56-10.57-1.14-15.86-1.27-.55-.01-.99-.47-.98-1.02.01-.55.49-.99,1.02-.98,5.38.13,10.79.72,16.03,1.28,2.28.25,4.57.49,6.85.71.99.09,1.99.2,3,.32,1.74.2,3.54.4,5.21.48,4.9.23,9.84.72,14.61,1.2,5.14.51,10.45,1.05,15.68,1.24.55.02.98.48.96,1.04-.02.54-.46.96-1,.96Z"/>
  <path d="M61.37,47.96s-.05,0-.07,0c-4.05-.28-8.83-.66-13.51-1.29-2.38-.32-4.8-.59-7.15-.86-3.07-.35-6.24-.71-9.36-1.17-3.01-.45-6.12-.73-9.11-1-4.27-.39-8.7-.79-13.01-1.67-.54-.11-.89-.64-.78-1.18.11-.54.64-.89,1.18-.78,4.21.86,8.57,1.26,12.79,1.64,3.03.27,6.16.56,9.23,1.01,3.08.46,6.24.81,9.29,1.16,2.36.27,4.79.54,7.19.86,4.63.62,9.37.99,13.39,1.27.55.04.97.52.93,1.07-.04.53-.48.93-1,.93Z"/>
  <path d="M86.82,50.94c-.16,0-.32-.04-.48-.12-.6-.33-1.31-.28-2.12-.23-.67.04-1.36.09-2.09-.07-3.55-.76-7.24-1.11-10.81-1.46-2.2-.21-4.47-.43-6.71-.74-.55-.08-.93-.58-.85-1.13.08-.55.59-.94,1.13-.85,2.19.31,4.45.52,6.63.73,3.62.35,7.37.71,11.04,1.49.46.1.99.06,1.55.03.98-.06,2.1-.14,3.21.47.49.26.67.87.4,1.36-.18.33-.52.52-.88.52Z"/>
  <path d="M92.41,51.36c-.28,0-.56-.02-.86-.06-.55-.07-.93-.58-.86-1.12s.57-.93,1.12-.86c1.36.18,2.62-.32,3.97-.85,1.15-.46,2.35-.93,3.69-1.02.54-.02,1.03.38,1.06.93.04.55-.38,1.03-.93,1.06-1.03.07-2.03.46-3.08.88-1.29.51-2.61,1.03-4.11,1.03Z"/>
  <path d="M101.79,26.34c-.13,0-.26-.03-.39-.08-.51-.21-.75-.8-.53-1.31.42-.99.36-2.11.3-3.29-.07-1.35-.14-2.75.45-4.17.21-.51.8-.75,1.31-.53.51.21.75.8.53,1.31-.42.99-.36,2.11-.3,3.29.07,1.35.14,2.75-.45,4.17-.16.38-.53.61-.92.61Z"/>
  <path d="M100.29,53.55c-.53,0-.98-.42-1-.96-.12-2.97.03-5.96.18-8.85.14-2.73.29-5.54.19-8.3-.02-.55.41-1.01.97-1.03.59-.04,1.01.41,1.03.97.1,2.84-.05,5.7-.19,8.47-.15,2.85-.3,5.79-.18,8.67.02.55-.41,1.02-.96,1.04-.01,0-.03,0-.04,0Z"/>
  <path d="M33.47,79.29c-1.65,0-2.75-1.36-3.18-1.9-4.19-5.2-9.97-8.16-17.67-9.02-1.07-.12-2.14-.3-3.18-.48-2.19-.37-4.26-.72-6.38-.56-.56.04-1.03-.37-1.07-.92-.04-.55.37-1.03.92-1.07,2.37-.18,4.65.21,6.86.58,1.01.17,2.05.35,3.07.46,8.25.93,14.47,4.12,19,9.76,1.06,1.32,1.68,1.33,2.46.88.48-.27,1.09-.1,1.36.38.27.48.1,1.09-.38,1.36-.67.38-1.28.53-1.82.53Z"/>
  <path d="M86.82,80.01c-.27,0-.54-.11-.73-.32-.38-.4-.35-1.04.05-1.41,4.94-4.58,11.11-8.18,19.45-11.3.69-.26,1.38-.55,2.06-.85,2.25-.96,4.59-1.97,7.26-1.91.55,0,.99.47.98,1.02-.01.55-.51,1.01-1.02.98-2.26-.04-4.29.83-6.43,1.75-.72.31-1.43.61-2.15.88-8.08,3.03-14.05,6.49-18.79,10.9-.19.18-.44.27-.68.27Z"/>
  <path d="M26.57,82.24c-.55,0-.99-.44-1-.99-.04-3.68-2.14-6.17-6.44-7.61-4.76-1.6-9.91-2.32-15.75-2.21h-.02c-.54,0-.99-.44-1-.98-.01-.55.43-1.01.98-1.02,6.07-.12,11.44.64,16.42,2.31,5.13,1.72,7.75,4.91,7.8,9.49,0,.55-.44,1-.99,1.01h-.01Z"/>
  <path d="M70.73,82.24c-.49,0-.91-.36-.99-.85-.34-2.3-.58-3.73-1.1-4.22-.5-.47-1.81-.5-3.91-.51-4.69-.02-9.37-.02-14.06-.01h-5.02c-3.63,0-4.28.66-4.62,4.68-.05.55-.53.97-1.08.91-.55-.05-.96-.53-.91-1.08.43-5.04,1.91-6.5,6.61-6.5h5.02c4.69-.01,9.38-.02,14.07,0,5.52.03,6.1.57,6.97,6.44.08.55-.3,1.05-.84,1.14-.05,0-.1.01-.15.01Z"/>
  <path d="M105.52,47.95c-.17,0-.35-.05-.5-.14-.93-.56-.87-1.49-.84-1.89,0-.08.02-.15,0-.22-.35-1.37-.48-2.78-.61-4.15-.22-2.43-.43-4.72-1.85-6.68-.32-.45-.22-1.07.23-1.4.45-.32,1.07-.22,1.4.23,1.74,2.41,1.98,5.08,2.21,7.67.12,1.35.24,2.62.55,3.84.08.32.06.62.05.84,0,.04,0,.08,0,.12.37.32.47.88.2,1.3-.19.3-.51.47-.84.47Z"/>
  <path d="M106.28,58.76h-.03c-.55-.02-.99-.48-.97-1.03.02-.54,0-1.09,0-1.64-.03-1.49-.06-3.03.42-4.59.16-.53.72-.83,1.25-.66.53.16.83.72.66,1.25-.38,1.25-.36,2.57-.33,3.96.01.58.02,1.16,0,1.74-.02.54-.46.97-1,.97Z"/>
  <path d="M73.35,35.28c-.37,0-.73-.21-.9-.56-.24-.5-.04-1.09.46-1.34.15-.07.32-.21.5-.36.42-.35.95-.78,1.73-.84,2.29-.19,4.61-.66,6.85-1.11,2.08-.42,4.24-.86,6.42-1.08-.05-.31-.06-.71.2-1.1.3-.46.92-.59,1.39-.28.38.25.53.72.4,1.13,0,.02.01.04.02.07.08.32.22.91-.17,1.46-.43.6-1.2.68-1.45.7-2.14.21-4.31.64-6.4,1.07-2.3.46-4.67.95-7.09,1.14-.16.01-.39.2-.63.4-.25.2-.53.43-.89.61-.14.07-.29.1-.44.1ZM90.28,29.99s0,0,0,0c0,0,0,0,0,0Z"/>
  <path d="M59.13,38.64s-.1,0-.15-.01c-.55-.08-.92-.59-.84-1.13.04-.24.39-2.38,1.8-2.28,1.55.1,3.04-.32,4.63-.75,1.74-.48,3.55-.97,5.51-.8.55.05.95.54.9,1.09-.05.55-.54.95-1.09.9-1.6-.15-3.15.28-4.79.73-1.54.42-3.13.88-4.82.84-.06.16-.13.37-.16.56-.07.5-.5.85-.99.85Z"/>
  <path d="M37.42,31.56c-.41,0-.8-.26-.94-.67-.18-.52.09-1.09.61-1.27,5.04-1.76,10.18-2.35,14.1-2.66.55-.05,1.03.37,1.08.92.04.55-.37,1.03-.92,1.08-3.8.3-8.78.87-13.6,2.56-.11.04-.22.06-.33.06Z"/>
  <path d="M35.18,34.54c-.21,0-.43-.07-.61-.21-.44-.34-.52-.97-.18-1.4.15-.2.25-.53.36-.88.24-.78.59-1.96,1.98-2.44.52-.18,1.09.1,1.27.62.18.52-.1,1.09-.62,1.27-.37.13-.48.34-.71,1.12-.15.49-.31,1.04-.69,1.53-.2.26-.49.39-.79.39Z"/>
  <path d="M27.69,43.86c-.11,0-.22-.02-.33-.06-.52-.18-.8-.75-.61-1.27.93-2.64,2.77-4.48,4.56-6.25.99-.98,1.92-1.91,2.69-2.96.33-.44.96-.53,1.4-.21.44.33.54.96.21,1.4-.87,1.17-1.9,2.19-2.89,3.18-1.7,1.69-3.31,3.29-4.08,5.5-.14.41-.53.67-.94.67Z"/>
  <path d="M21.33,34.17c-.45,0-.86-.3-.97-.76-.13-.54.19-1.08.73-1.21.7-.17,1.43-.23,2.07-.27l.34-.03c1.38-.11,2.74-.5,4.17-.92,2.57-.75,5.22-1.52,8.16-.63.53.16.83.72.67,1.25-.16.53-.72.83-1.25.67-2.37-.71-4.63-.06-7.02.64-1.47.43-2.99.87-4.58,1l-.36.03c-.59.04-1.2.09-1.73.22-.08.02-.16.03-.24.03Z"/>
  <path d="M63.62,47.58c-.08,0-.15,0-.23-.03-.54-.13-.87-.67-.74-1.2.35-1.49,1.22-2.57,2.05-3.61.23-.29.47-.58.69-.88.69-.94,1.51-1.75,2.31-2.53,1.4-1.37,2.73-2.67,3.18-4.54.13-.54.68-.87,1.21-.74.54.13.87.67.74,1.21-.59,2.42-2.19,3.98-3.73,5.49-.77.76-1.51,1.47-2.1,2.28-.24.33-.49.64-.74.95-.73.91-1.41,1.77-1.67,2.82-.11.46-.52.77-.97.77Z"/>
  <path d="M59.88,8.82c-.19,0-.38-.05-.55-.17-.46-.31-.58-.93-.28-1.39,1.4-2.1,3.42-2.01,5.04-1.94.47.02.92.04,1.33.01.4-.03.82-.02,1.24-.01,1.58.03,2.29,0,2.76-1.22.2-.52.78-.77,1.29-.58.52.2.77.78.58,1.29-.99,2.58-3.12,2.54-4.67,2.5-.36,0-.71-.02-1.06,0-.53.04-1.05.01-1.56,0-1.61-.07-2.55-.06-3.29,1.05-.19.29-.51.45-.83.45Z"/>
  <path d="M114.51,20.38c-.07,0-.13,0-.2-.02-.89-.18-1.78-.29-2.73-.41-2.33-.29-4.74-.59-6.95-1.95-.47-.29-.62-.9-.33-1.38.29-.47.9-.62,1.38-.33,1.84,1.13,3.94,1.4,6.15,1.67.94.12,1.92.24,2.88.44.54.11.89.64.78,1.18-.1.47-.51.8-.98.8Z"/>
  <path d="M107.4,48.7c-.19,0-.39-.06-.56-.17-.46-.31-.57-.93-.26-1.39.38-.56.73-1.17,1.09-1.81,1.36-2.4,2.9-5.12,6.79-5.34.55-.02,1.02.39,1.06.94.03.55-.39,1.02-.94,1.06-2.8.16-3.9,2.09-5.17,4.33-.37.65-.75,1.32-1.18,1.95-.19.28-.51.44-.83.44Z"/>
  <path d="M17.59,82.24c-.55,0-1-.45-1-1v-6.33c0-.55.45-1,1-1s1,.45,1,1v6.33c0,.55-.45,1-1,1Z"/>
  <path d="M13.85,82.24c-.55,0-1-.45-1-1v-6.33c0-.55.45-1,1-1s1,.45,1,1v6.33c0,.55-.45,1-1,1Z"/>
  <path d="M8.61,82.24c-.55,0-1-.45-1-1v-4.84c0-.55.45-1,1-1s1,.45,1,1v4.84c0,.55-.45,1-1,1Z"/>
  <path d="M72.23,7.33c-.55,0-1-.45-1-1v-1.49c0-.55.45-1,1-1s1,.45,1,1v1.49c0,.55-.45,1-1,1Z"/>
</svg>